<svg width="35" height="69" fill="none" xmlns="http://www.w3.org/2000/svg"><path d="M5.712 0h23.075c3.712 0 5.593 2.625 5.593 5.565v10.14l-.062.057.062.072v7.75l-.062.11.062.11v39.66c0 2.796-1.799 5.536-5.51 5.536h-9.68c-.334 0-.638-.069-.8-.069h-2.34c-.192 0-.382.069-.8.069H5.674C1.997 69 .201 66.26.201 63.464l.018-38.39.019-.048-.02-.039.003-4.754.019-.053-.02-.052.001-1.146.03-.076-.03-.077.003-4.706.019-.057-.02-.058.002-2.228.02-.082-.02-.062V9.149l.02-.07-.02-.07.002-3.473C.227 2.626 1.886 0 5.712 0z" fill="#191919"/><g filter="url(#filter0_ii)"><path d="M5.842.135h22.816c3.67 0 5.53 2.61 5.53 5.53v57.613c0 2.78-1.778 5.502-5.449 5.502H5.805c-3.636 0-5.412-2.723-5.412-5.502L.42 5.637C.42 2.744 2.06.135 5.843.135z" fill="#F8F8F8"/><path d="M5.842.135h22.816c3.67 0 5.53 2.61 5.53 5.53v57.613c0 2.78-1.778 5.502-5.449 5.502H5.805c-3.636 0-5.412-2.723-5.412-5.502L.42 5.637C.42 2.744 2.06.135 5.843.135z" fill="url(#paint0_radial)"/><path d="M5.842.135h22.816c3.67 0 5.53 2.61 5.53 5.53v57.613c0 2.78-1.778 5.502-5.449 5.502H5.805c-3.636 0-5.412-2.723-5.412-5.502L.42 5.637C.42 2.744 2.06.135 5.843.135z" fill="url(#paint1_radial)"/><path d="M5.842.135h22.816c3.67 0 5.53 2.61 5.53 5.53v57.613c0 2.78-1.778 5.502-5.449 5.502H5.805c-3.636 0-5.412-2.723-5.412-5.502L.42 5.637C.42 2.744 2.06.135 5.843.135z" fill="url(#paint2_radial)"/><path d="M5.842.135h22.816c3.67 0 5.53 2.61 5.53 5.53v57.613c0 2.78-1.778 5.502-5.449 5.502H5.805c-3.636 0-5.412-2.723-5.412-5.502L.42 5.637C.42 2.744 2.06.135 5.843.135z" fill="url(#paint3_radial)"/></g><path d="M5.842.135h22.816c3.67 0 5.53 2.61 5.53 5.53v57.613c0 2.78-1.778 5.502-5.449 5.502H5.805c-3.636 0-5.412-2.723-5.412-5.502L.42 5.637C.42 2.744 2.06.135 5.843.135z" stroke="#4B4B4B" stroke-width=".029"/><path fill-rule="evenodd" clip-rule="evenodd" d="M1.054 66.166c.509.587.835.804 1.246.959a4.46 4.46 0 001.222.7c-.457 0-.943-.047-1.404-.422-.637-.519-.756-.715-1.064-1.237zm32.416.023c-.507.588-.86.78-1.27.935-.38.313-.769.519-1.218.7.456 0 1.026-.082 1.486-.458.633-.518.789-.76 1.002-1.177z" fill="url(#paint4_linear)"/><path fill-rule="evenodd" clip-rule="evenodd" d="M1.14 2.635c.507-.588.793-.814 1.203-.969.38-.313.769-.518 1.218-.7-.456 0-.94.047-1.4.423-.568.464-.691.677-.932 1.093l-.089.153zm32.3 0c-.506-.588-.83-.814-1.24-.968a4.438 4.438 0 00-1.218-.7c.456 0 1.026.081 1.486.457.61.5.75.774.95 1.166l.023.045z" fill="url(#paint5_linear)"/><path d="M6.076.5h22.35c3.902 0 5.418 2.303 5.418 5.53v56.885c0 2.933-1.59 5.502-5.338 5.502H6.039c-3.868 0-5.301-2.723-5.301-5.502L.763 6.002C.763 2.802 2.063.5 6.076.5z" fill="#000"/><path d="M.95 6.092v0c0-1.584.322-2.925 1.12-3.87C2.866 1.281 4.152.714 6.128.714h22.246c1.92 0 3.234.567 4.07 1.513.839.95 1.213 2.298 1.213 3.893v56.74c0 1.367-.386 2.712-1.224 3.713-.837.998-2.133 1.665-3.98 1.665H6.092c-1.829 0-3.116-.667-3.947-1.665-.835-1.001-1.22-2.346-1.22-3.713L.95 6.092z" fill="#000" stroke="url(#paint6_radial)" stroke-width=".22"/><mask id="a" maskUnits="userSpaceOnUse" x="1" y="0" width="33" height="69"><path d="M6.315.863h21.864c3.97 0 5.3 2.15 5.3 5.53V62.56c0 2.933-1.474 5.502-5.222 5.502H6.28c-3.638 0-5.186-2.416-5.186-5.502l.024-56.194c0-3.48 1.188-5.502 5.198-5.502z" fill="#000"/></mask><g mask="url(#a)"><path d="M1.284 62.272c0 3.352 1.105 5.501 5.135 5.501h21.603c3.923 0 5.237-2.149 5.237-5.53" stroke="url(#paint7_radial)" stroke-width=".594"/><path d="M1.118 6.365c0-3.353 1.118-5.502 5.197-5.502H28.18c3.971 0 5.3 2.15 5.3 5.53" stroke="url(#paint8_radial)" stroke-width="1.035"/><g filter="url(#filter1_i)"><path fill-rule="evenodd" clip-rule="evenodd" d="M3.222 1.14c.393-.133.744-.005.154.559-1.18 1.045-1.568 1.911-1.568 4.595l-.025 55.493c.039 1.452.054 2.509.537 3.498.278.569.167.935 1.634 2.363-.954-.513-1.261-.714-2.142-1.737-.94-1.09-.988-2.528-.988-4.124L.85 6.294c0-1.915.357-3.53 1.48-4.595 0 0 .5-.427.893-.56z" fill="#2C2C2C"/></g><g filter="url(#filter2_i)"><path fill-rule="evenodd" clip-rule="evenodd" d="M31.398 1.14c-.394-.133-.744-.005-.154.559 1.18 1.045 1.568 1.911 1.568 4.595l.024 55.493c-.038 1.452-.053 2.509-.536 3.498-.278.569-.167.935-1.634 2.363.954-.513 1.261-.714 2.142-1.737.939-1.09.987-2.528.987-4.124l-.024-55.493c0-1.915-.358-3.53-1.48-4.595 0 0-.5-.427-.893-.56z" fill="#2C2C2C"/></g></g><path d="M.786 61.87H.201v.478h.585v-.479z" fill="url(#paint9_radial)"/><path d="M33.795 61.87h.585v.478h-.585v-.479z" fill="url(#paint10_radial)"/><path d="M.815 6.586H.23v.48h.585v-.48z" fill="url(#paint11_linear)"/><path d="M33.786 6.586h.594v.48h-.594v-.48z" fill="url(#paint12_linear)"/><g filter="url(#filter3_i)"><path d="M.067 9.078H.25a.765.765 0 01.02.153v2.373a.653.653 0 01-.02.139H.067L0 11.676v-2.53l.067-.068z" fill="url(#paint13_linear)"/><g filter="url(#filter4_i)"><path d="M.108 9.078H.074L0 9.145v2.53l.074.068h.034V9.078z" fill="url(#paint14_linear)"/></g></g><g filter="url(#filter5_i)"><path d="M.086 14.146l.216-.093a.67.67 0 01.072.309v4.36a.474.474 0 01-.077.205l-.21-.084v-4.697z" fill="url(#paint15_linear)"/><path d="M.086 14.146l.216-.093a.67.67 0 01.072.309v4.36a.474.474 0 01-.077.205l-.21-.084v-4.697z" fill="url(#paint16_linear)"/></g><g filter="url(#filter6_i)"><path d="M.086 14.146c.045.066.066.117.077.293v4.174a.386.386 0 01-.077.23v-4.697z" fill="#4B4B4B"/></g><g filter="url(#filter7_i)"><path d="M34.524 15.851l-.216-.093a.658.658 0 00-.072.309v7.428a.474.474 0 00.077.204l.21-.084V15.85z" fill="url(#paint17_linear)"/><path d="M34.524 15.851l-.216-.093a.658.658 0 00-.072.309v7.428a.474.474 0 00.077.204l.21-.084V15.85z" fill="url(#paint18_linear)"/></g><g filter="url(#filter8_i)"><path d="M34.524 15.85c-.045.065-.066.193-.077.369v7.174a.36.36 0 00.077.22V15.85z" fill="#4B4B4B"/></g><g filter="url(#filter9_i)"><path d="M.086 20.26l.216-.094c.052.112.068.18.072.31v4.36a.474.474 0 01-.077.204l-.21-.084v-4.697z" fill="url(#paint19_linear)"/><path d="M.086 20.26l.216-.094c.052.112.068.18.072.31v4.36a.474.474 0 01-.077.204l-.21-.084v-4.697z" fill="url(#paint20_linear)"/></g><g filter="url(#filter10_i)"><path d="M.086 20.26c.045.066.066.116.077.292v4.174a.386.386 0 01-.077.23V20.26z" fill="#4B4B4B"/></g><rect x="15.235" y="2.647" width="4.112" height=".565" rx=".283"/><rect x="15.235" y="2.647" width="4.112" height=".565" rx=".283"/><rect x="15.235" y="2.647" width="4.112" height=".565" rx=".283"/><rect x="15.235" y="2.647" width="4.112" height=".565" rx=".283" fill="url(#paint21_linear)" fill-opacity=".3"/><rect x="15.235" y="2.647" width="4.112" height=".565" rx=".283" stroke="url(#paint22_linear)" stroke-width=".029"/><g filter="url(#filter11_i)"><circle cx="20.895" cy="2.93" r=".479" fill="url(#paint23_linear)"/><circle cx="20.895" cy="2.93" r=".479" fill="url(#paint24_radial)"/></g><g filter="url(#filter12_ddd)"><ellipse cx="20.895" cy="2.932" rx=".267" ry=".268" fill="url(#paint25_radial)"/></g><g filter="url(#filter13_i)"><path d="M20.749 3.042c-.024.056-.066.057-.1-.006a.252.252 0 01.048-.282.132.132 0 01.038-.03l.023-.012c.022-.013.05.01.043.034-.022.09-.033.181-.048.282l-.004.014z" fill="#081A3D"/><path d="M20.749 3.042c-.024.056-.066.057-.1-.006a.252.252 0 01.048-.282.132.132 0 01.038-.03l.023-.012c.022-.013.05.01.043.034-.022.09-.033.181-.048.282l-.004.014z" fill="url(#paint26_radial)" fill-opacity=".6"/></g><path d="M21.038 2.714c-.088-.024-.099-.005-.105.03a.086.086 0 000 .022c.006.078.01.13.012.194a.1.1 0 00.093.099l.043.002c.03.001.06-.015.068-.044a.274.274 0 00-.079-.286.078.078 0 00-.032-.017z" fill="#22436C"/><path d="M21.038 2.714c-.088-.024-.099-.005-.105.03a.086.086 0 000 .022c.006.078.01.13.012.194a.1.1 0 00.093.099l.043.002c.03.001.06-.015.068-.044a.274.274 0 00-.079-.286.078.078 0 00-.032-.017z" fill="url(#paint27_radial)" fill-opacity=".9"/><path fill-rule="evenodd" clip-rule="evenodd" d="M8.474 2.014H5.849c-2.155 0-3.5 1.162-3.5 3.69v57.277c0 2.529 1.345 3.69 3.5 3.69h22.918c2.35 0 3.463-1.341 3.463-3.69V5.704c0-2.348-1.112-3.69-3.463-3.69h-2.66c-.372.048-.43.33-.43.595 0 .823-.584 1.807-1.883 1.807l-6.58.003-6.426-.003c-1.3 0-1.884-.984-1.884-1.807 0-.265-.057-.547-.43-.595z" fill="#fff"/><path d="M15.873 33.847c-.734 1.038-1.777 1.557-3.13 1.557-1.352 0-2.395-.52-3.129-1.557-.744-1.049-1.116-2.433-1.116-4.152 0-1.72.372-3.103 1.116-4.151.734-1.038 1.777-1.557 3.13-1.557 1.352 0 2.395.519 3.13 1.557.743 1.048 1.116 2.432 1.116 4.151 0 1.72-.372 3.103-1.117 4.152zM9.96 29.695c0 1.363.241 2.417.724 3.161.482.744 1.169 1.117 2.06 1.117.89 0 1.578-.373 2.06-1.117.493-.744.739-1.798.739-3.16 0-1.364-.246-2.417-.74-3.162-.482-.755-1.168-1.132-2.06-1.132-.89 0-1.577.372-2.06 1.116-.482.745-.723 1.804-.723 3.177zm15.19 2.044h1.336v1.369H25.15v2.091h-1.463v-2.091h-5.614V31.74l3.947-7.549h1.573l-3.947 7.549h4.041v-3.114h1.463v3.113z" fill="#EDEDED"/><path fill="#fff" d="M6.74 33.103h21.223v5.827H6.74z"/><path d="M9.098 37.246H6.943v-.572l1.02-1.078c.112-.12.188-.212.229-.277a.362.362 0 00.066-.198.232.232 0 00-.075-.184.268.268 0 00-.198-.07c-.185 0-.323.106-.413.32l-.678-.378a1.134 1.134 0 011.082-.708c.294 0 .544.088.752.264.212.173.317.41.317.712 0 .17-.04.332-.119.484a2.22 2.22 0 01-.373.489l-.418.435h.963v.761zm3.443-.37c-.223.29-.536.436-.937.436-.402 0-.716-.145-.942-.435-.223-.294-.334-.684-.334-1.17 0-.49.112-.879.334-1.166.223-.293.537-.44.942-.44.402 0 .714.147.937.44.226.293.338.682.338 1.166 0 .483-.112.873-.338 1.17zm-.937-2.01c-.326 0-.489.28-.489.84 0 .56.163.84.489.84.325 0 .488-.28.488-.84 0-.56-.163-.84-.488-.84zm3.708 2.01c-.223.29-.536.436-.938.436-.401 0-.715-.145-.94-.435-.224-.294-.335-.684-.335-1.17 0-.49.111-.879.334-1.166.223-.293.537-.44.941-.44.402 0 .715.147.938.44.225.293.338.682.338 1.166 0 .483-.113.873-.338 1.17zm-.938-2.01c-.325 0-.488.28-.488.84 0 .56.163.84.489.84.325 0 .488-.28.488-.84 0-.56-.163-.84-.489-.84zm3.708 2.01c-.223.29-.535.436-.937.436-.401 0-.715-.145-.941-.435-.223-.294-.334-.684-.334-1.17 0-.49.111-.879.334-1.166.223-.293.537-.44.941-.44.402 0 .714.147.937.44.226.293.339.682.339 1.166 0 .483-.113.873-.339 1.17zm-.937-2.01c-.325 0-.488.28-.488.84 0 .56.163.84.488.84.326 0 .489-.28.489-.84 0-.56-.163-.84-.489-.84zm4.568.788a.75.75 0 01.387.69c0 .276-.094.495-.281.656-.19.164-.441.246-.752.246h-1.298v-3.08h1.214c.31 0 .557.08.74.238.184.156.276.368.276.638a.735.735 0 01-.286.612zm-.752-.783h-.405v.484h.405a.262.262 0 00.18-.062.235.235 0 00.07-.18.23.23 0 00-.07-.176.253.253 0 00-.18-.066zm-.405 1.671h.489a.27.27 0 00.193-.07.257.257 0 00.075-.19.248.248 0 00-.075-.188.271.271 0 00-.193-.07h-.489v.518zm3.442-2.375h.884l-1.038 1.896v1.183h-.787v-1.174l-1.038-1.905h.884l.545 1.14.55-1.14zm2.826 1.548v-1.548h.783v3.08H27l-1.087-1.55v1.55h-.787v-3.08h.611l1.087 1.548z" fill="#0A9F30"/><path d="M6.715 39.65l.765 1.188h-.66l-.663-1.033v1.033h-.59v-2.31h.59v.97l.63-.97h.66l-.732 1.122zm3.062 1.188h-.636l-.1-.333h-.768l-.099.333h-.64l.762-2.31h.72l.761 2.31zM8.656 39.21l-.231.786h.465l-.234-.786zm3.454.459l.692 1.168h-.653l-.56-1.006v1.006h-.591v-1.006l-.564 1.006H9.78l.697-1.168-.664-1.142h.654l.53 1v-1h.591v1l.528-1h.653l-.66 1.142zm2.799-1.142v1.74h.247v1.012h-.587v-.442H13.49v.442h-.59v-1.013h.244c.105-.17.158-.413.158-.732v-1.006h1.607zm-1.152 1.74h.564v-1.192h-.432v.465c0 .31-.044.552-.132.726zm2.537.57h-.897v-2.31h.59v.693h.307c.235 0 .431.077.587.231a.766.766 0 01.238.578.77.77 0 01-.238.58.816.816 0 01-.587.228zm1.603 0h-.587v-2.31h.587v2.31zm-1.91-1.053v.492h.307a.219.219 0 00.165-.07.241.241 0 00.07-.177.23.23 0 00-.07-.175.219.219 0 00-.165-.07h-.307zm3.739-1.435H18.66v-.462h1.066v.462zm.399 2.488h-.587v-1.161l-.815 1.16h-.459v-2.309h.59v1.162l.816-1.161h.455v2.309zm2.974-2.31v1.74h.247v1.012h-.587v-.442h-1.08v.442h-.59v-1.013h.245c.105-.17.158-.413.158-.732v-1.006h1.607zm-1.152 1.74h.564v-1.192h-.432v.465c0 .31-.044.552-.132.726zm2.23-.324v.34h.894v.554h-1.484v-2.31h1.468v.551h-.878v.32h.795v.545h-.795zm2.416-.561v-.855h.587v2.31h-.587v-.888h-.65v.888h-.59v-2.31h.59v.855h.65zm1.544-.162h.307c.233 0 .428.076.587.228a.77.77 0 01.237.58c0 .236-.079.43-.237.581a.816.816 0 01-.587.228h-.898v-2.31h.59v.693zm0 1.053h.307c.066 0 .12-.022.165-.066a.241.241 0 00.069-.178.241.241 0 00-.07-.179.218.218 0 00-.164-.069h-.307v.492zM9.041 43.01l-.082-.11-.17.127.186.103.066-.12zm.073 1.05l.087.106-.087-.107zm-1.52-.35l-.07-.12-.104.06.046.112.127-.052zm.504-.29l.13-.047-.057-.155-.142.082.069.12zm.442-.13l.012-.137h-.01l-.002.138zm-.35-.003h-.137v.136l.136.002.001-.138zm0-.511v-.138h-.137v.138h.137zm-.072-.149l-.07.12.137.079.06-.147-.127-.052zm-.495-.287l-.125-.057-.052.114.108.062.069-.119zm.323-.366l.07.118h.001l-.07-.118zm1.102.06l-.09.104.002.002.088-.106zm-.073 1.096a.45.45 0 01.18.17.5.5 0 01.06.251h.274a.77.77 0 00-.096-.388.723.723 0 00-.285-.273l-.133.24zm.24.421a.489.489 0 01-.188.402l.174.213a.763.763 0 00.288-.615h-.275zm-.188.402c-.125.102-.3.16-.54.16v.275c.284 0 .527-.07.714-.222l-.174-.213zm-.54.16A.926.926 0 018 43.998a.69.69 0 01-.28-.341l-.254.105a.964.964 0 00.392.471 1.2 1.2 0 00.63.155v-.275zm-.825-.284l.504-.29-.137-.239-.504.29.137.239zm.307-.363a.55.55 0 00.197.271.548.548 0 00.321.094v-.275a.275.275 0 01-.163-.044.277.277 0 01-.097-.14l-.258.094zm.518.365a.474.474 0 00.288-.079.316.316 0 00.123-.263h-.274a.083.083 0 01-.006.033.022.022 0 01-.008.01c-.011.008-.045.024-.123.024v.275zm.411-.342a.315.315 0 00-.1-.241.416.416 0 00-.246-.094l-.024.273c.058.006.08.02.086.025.002.002.01.008.01.037h.274zm-.357-.336l-.35-.003-.002.275.35.003.002-.275zm-.213.134v-.511h-.275v.511h.275zm-.138-.374h.228v-.274H8.19v.274zm.228 0a.477.477 0 00.28-.073.302.302 0 00.125-.255h-.275a.063.063 0 01-.004.025c-.001.002-.002.004-.006.006-.01.008-.043.023-.12.023v.274zm.405-.328a.31.31 0 00-.111-.251.414.414 0 00-.264-.078v.275c.064 0 .087.013.092.017a.011.011 0 01.003.005.084.084 0 01.005.032h.275zm-.375-.33a.473.473 0 00-.28.085.524.524 0 00-.178.235l.255.104a.252.252 0 01.083-.115.199.199 0 01.12-.033v-.275zm-.261.254l-.495-.288-.138.238.495.287.138-.237zm-.44-.111a.671.671 0 01.27-.306l-.142-.236a.945.945 0 00-.377.427l.25.115zm.27-.306a.83.83 0 01.44-.112v-.275c-.216 0-.412.049-.582.152l.142.235zm.44-.112c.22 0 .383.057.502.158l.178-.209c-.18-.154-.41-.224-.68-.224v.275zm.503.16a.48.48 0 01.178.395h.275a.755.755 0 00-.277-.607l-.176.212zm.178.395a.425.425 0 01-.179.365l.165.22a.699.699 0 00.29-.585h-.276zm2.495 1.666v.138h.19l-.06-.18-.13.042zm-.637 0l-.131.04.029.098h.102V44.2zm-.098-.333l.131-.04L11 43.73h-.102v.138zm-.77 0v-.138h-.102l-.029.099.132.039zm-.098.333v.138h.102l.03-.099-.132-.039zm-.64 0l-.13-.043-.06.18h.19v-.137zm.762-2.31v-.137h-.1l-.03.095.13.043zm.72 0l.13-.042-.032-.095h-.099v.138zm-.36.684l.131-.04-.133-.444-.13.445.131.039zm-.232.785l-.131-.039-.052.176h.184v-.137zm.466 0v.137h.184l-.053-.176-.131.039zm.887.704h-.637v.275h.637v-.275zm-.505.098l-.099-.333-.263.078.099.333.263-.078zm-.23-.431h-.77v.274h.77v-.275zm-.901.098l-.099.333.264.078.098-.333-.263-.078zm.033.235h-.64v.275h.64v-.275zm-.51.18l.762-2.31-.26-.085-.763 2.31.261.085zm.632-2.215h.72v-.275h-.72v.275zm.589-.094l.762 2.31.26-.087-.761-2.31-.261.087zm-.361.6l-.231.786.263.078.231-.785-.263-.078zm-.1.962h.466v-.275h-.466v.275zm.597-.176l-.234-.786-.263.079.234.785.263-.078zm1.672-1.43v-.137h-.138v.138h.138zm1.781 0h.138v-.137h-.138v.138zm0 2.31v.138h.138V44.2h-.138zm-.59 0h-.138v.138h.137V44.2zm0-1.739h.137v-.137h-.138v.137zm-.6 0v-.137h-.138v.137h.137zm0 1.74v.137h.137V44.2h-.138zm-.591 0h-.138v.137h.138V44.2zm0-2.173h1.781v-.275h-1.78v.275zm1.644-.137v2.31h.275v-2.31h-.275zm.137 2.172h-.59v.275h.59v-.275zm-.453.137v-1.739h-.275v1.74h.275zm-.138-1.876h-.6v.275h.6v-.275zm-.737.137v1.74h.275v-1.74h-.275zm.137 1.602h-.59v.275h.59v-.275zm-.453.137v-2.31h-.275v2.31h.275zm2.008-2.31v-.137h-.137v.138h.137zm1.485.228l-.095.1.095-.1zm0 1.162l-.095-.1.095.1zm-.894.227v-.137h-.138v.137h.138zm0 .693v.138h.137V44.2h-.137zm-.59 0h-.138v.138h.137V44.2zm.59-1.254h-.138v.138h.138v-.138zm.472-.069l-.098-.097-.002.002.1.095zm0-.353l-.1.095.005.005.095-.1zm-.472-.07v-.136h-.138v.137h.138zm-.59-.426h.897v-.275h-.898v.275zm.897 0c.2 0 .36.064.492.19l.19-.199a.953.953 0 00-.682-.266v.275zm.492.19a.63.63 0 01.195.481h.275c0-.27-.092-.5-.28-.68l-.19.199zm.195.481a.63.63 0 01-.195.481l.19.199c.188-.18.28-.41.28-.68h-.275zm-.195.481a.68.68 0 01-.492.19v.275a.953.953 0 00.682-.266l-.19-.199zm-.492.19h-.307v.275h.307v-.275zm-.445.137v.693h.275v-.693h-.275zm.138.556h-.59v.275h.59v-.275zm-.453.137v-2.31h-.275v2.31h.275zm.453-1.116h.307v-.275h-.307v.275zm.307 0a.356.356 0 00.264-.112l-.199-.19a.082.082 0 01-.065.027v.275zm.262-.11a.378.378 0 00.11-.275h-.276c0 .04-.011.064-.029.081l.195.194zm.11-.275c0-.105-.035-.2-.113-.274l-.19.199c.016.014.027.034.027.075h.275zm-.108-.27a.356.356 0 00-.264-.111v.274c.03 0 .048.01.065.027l.2-.19zm-.264-.111h-.307v.274h.307v-.275zm-.445.137v.491h.275v-.491h-.275zm3.476 1.448l.096.098h.001l-.097-.098zm-1.719 0l-.097.097.097-.097zm0-1.712l.097.098-.097-.098zm1.719 0l-.097.097v.001l.097-.098zm-1.303 1.306l-.097.098.001.001.096-.099zm.89 0l.096.1.002-.002-.097-.097zm0-.9l-.097.097.002.002.096-.1zm-.89 0l.095.099.002-.002-.097-.097zm1.207 1.208c-.21.205-.46.307-.762.307v.275c.372 0 .693-.129.954-.386l-.192-.196zm-.762.307c-.306 0-.558-.102-.764-.306l-.194.195c.26.257.583.386.958.386v-.275zm-.764-.306a1.03 1.03 0 01-.31-.76h-.274c0 .373.13.695.39.954l.194-.194zm-.31-.76c0-.304.104-.553.31-.757l-.194-.196c-.26.258-.39.578-.39.953h.275zm.31-.758c.207-.206.458-.31.764-.31v-.274c-.376 0-.698.13-.958.39l.194.194zm.764-.31c.304 0 .554.104.76.31l.195-.194c-.26-.26-.58-.39-.955-.39v.275zm.762.311c.208.204.312.453.312.757h.274c0-.375-.131-.696-.394-.953l-.192.196zm.312.757c0 .3-.104.55-.313.76l.194.194a1.3 1.3 0 00.393-.954h-.274zm-1.615.55a.755.755 0 00.541.214v-.275a.48.48 0 01-.35-.136l-.19.197zm.541.214c.21 0 .393-.071.541-.214l-.19-.197a.48.48 0 01-.35.136v.275zm.543-.215a.75.75 0 00.218-.55h-.275c0 .15-.047.265-.138.355l.195.195zm.218-.55a.732.732 0 00-.22-.547l-.19.198a.458.458 0 01.135.35h.275zm-.218-.545a.741.741 0 00-.543-.219v.275c.144 0 .257.047.348.138l.195-.194zm-.543-.219a.741.741 0 00-.542.219l.194.194a.467.467 0 01.348-.138v-.275zm-.54.217a.731.731 0 00-.22.547h.274c0-.152.048-.264.136-.35l-.19-.197zm-.22.547a.75.75 0 00.218.55l.194-.195a.475.475 0 01-.138-.355h-.275zm2.245-1.154v-.138h-.137v.138h.137zm1.366 0h.137v-.138h-.137v.138zm0 .57v.138h.137v-.138h-.137zm-.776 0v-.137h-.137v.137h.137zm0 1.74v.137h.138V44.2h-.138zm-.59 0h-.137v.137h.137V44.2zm0-2.173h1.366v-.275H19.25v.275zm1.228-.137v.57h.275v-.57h-.275zm.138.433h-.776v.275h.776v-.275zm-.913.137v1.74h.275v-1.74h-.275zm.137 1.602h-.59v.275h.59v-.275zm-.453.137v-2.31h-.274v2.31h.274zm2.67-1.455v.138h.137v-.138h-.138zm0-.854v-.138h-.138v.138h.137zm.587 0h.137v-.138h-.137v.138zm0 2.31v.137h.137V44.2h-.137zm-.588 0h-.137v.137h.137V44.2zm0-.888h.138v-.138h-.138v.138zm-.65 0v-.138h-.137v.138h.137zm0 .887v.138h.138V44.2h-.138zm-.59 0h-.138v.138h.138V44.2zm0-2.31v-.137h-.138v.138h.138zm.59 0h.138v-.137h-.138v.138zm0 .855h-.137v.138h.137v-.138zm.788 0v-.854h-.275v.854h.275zm-.138-.717h.587v-.275h-.587v.275zm.45-.137v2.31h.275v-2.31h-.275zm.137 2.172h-.587v.275h.587v-.275zm-.45.137v-.887h-.274v.887h.275zm-.137-1.025h-.65v.275h.65v-.275zm-.787.138v.887h.275v-.887h-.275zm.137.75h-.59v.275h.59v-.275zm-.453.137v-2.31h-.275v2.31h.275zm-.137-2.172h.59v-.275h-.59v.275zm.453-.137v.854h.275v-.854h-.275zm.137.992h.65v-.275h-.65v.275zm3.583 1.02l.097.098-.097-.098zm-1.719 0l-.097.097.098-.097zm0-1.712l.097.098-.097-.098zm1.72 0l-.098.097.001.001.096-.098zm-1.304 1.306l-.097.098.002.001.095-.099zm.891 0l.095.1.002-.002-.097-.097zm0-.9l-.097.097.002.002.095-.1zm-.89 0l.095.099.001-.002-.097-.097zm1.206 1.208c-.209.205-.46.307-.761.307v.275c.371 0 .692-.129.954-.386l-.193-.196zm-.761.307a1.04 1.04 0 01-.765-.306l-.193.195c.26.257.582.386.958.386v-.275zm-.764-.306a1.029 1.029 0 01-.31-.76h-.275c0 .373.13.695.39.954l.195-.194zm-.31-.76c0-.304.103-.553.31-.757l-.194-.196c-.26.258-.39.578-.39.953h.274zm.31-.758c.206-.206.458-.31.764-.31v-.274c-.376 0-.699.13-.959.39l.195.194zm.764-.31c.303 0 .554.104.76.31l.195-.194c-.26-.26-.581-.39-.955-.39v.275zm.761.311c.208.204.312.453.312.757h.275c0-.375-.132-.696-.394-.953l-.193.196zm.312.757c0 .3-.104.55-.313.76l.195.194c.261-.261.393-.582.393-.954h-.275zm-1.614.55a.754.754 0 00.54.214v-.275a.48.48 0 01-.35-.136l-.19.197zm.54.214c.21 0 .393-.071.541-.214l-.19-.197a.48.48 0 01-.35.136v.275zm.543-.215a.75.75 0 00.219-.55h-.275c0 .15-.048.265-.138.355l.194.195zm.219-.55a.731.731 0 00-.22-.547l-.191.198a.458.458 0 01.136.35h.275zm-.219-.545a.741.741 0 00-.542-.219v.275a.47.47 0 01.348.138l.194-.194zm-.542-.219a.741.741 0 00-.543.219l.194.194a.467.467 0 01.349-.138v-.275zm-.541.217a.732.732 0 00-.22.547h.274a.46.46 0 01.137-.35l-.191-.197zm-.22.547a.75.75 0 00.218.55l.194-.195a.475.475 0 01-.138-.355h-.274zm3.407-.036l-.083-.11-.17.127.186.103.067-.12zm.072 1.05l.087.106-.087-.107zm-1.52-.35l-.07-.12-.104.06.046.112.127-.052zm.504-.29l.13-.047-.056-.155-.142.082.068.12zm.442-.13l.012-.137h-.01l-.002.138zm-.35-.003h-.137v.136l.136.002.002-.138zm0-.511v-.138h-.137v.138h.137zm-.072-.149l-.07.12.138.079.06-.147-.128-.052zm-.495-.287l-.125-.057-.052.114.108.062.069-.119zm.323-.366l.071.118-.07-.118zm1.102.06l-.089.104.002.002.087-.106zm-.073 1.096a.45.45 0 01.18.17.49.49 0 01.06.251h.274a.769.769 0 00-.096-.388.723.723 0 00-.285-.273l-.133.24zm.24.421a.488.488 0 01-.188.402l.174.213a.763.763 0 00.288-.615h-.275zm-.188.402c-.125.102-.3.16-.54.16v.275c.284 0 .527-.07.714-.222l-.174-.213zm-.54.16a.926.926 0 01-.487-.115.69.69 0 01-.28-.341l-.254.105a.964.964 0 00.392.471c.176.106.388.155.63.155v-.275zm-.825-.284l.505-.29-.137-.239-.505.29.137.239zm.307-.363a.55.55 0 00.197.271.548.548 0 00.321.094v-.275a.275.275 0 01-.163-.044.278.278 0 01-.097-.14l-.258.094zm.518.365a.474.474 0 00.288-.079.316.316 0 00.124-.263h-.275a.084.084 0 01-.005.033.022.022 0 01-.009.01c-.01.008-.044.024-.123.024v.275zm.412-.342c0-.09-.03-.177-.101-.241a.416.416 0 00-.246-.094l-.024.273c.058.006.08.02.086.025.002.002.01.008.01.037h.275zm-.358-.336l-.35-.003-.002.275.35.003.003-.275zm-.213.134v-.511h-.275v.511h.275zm-.137-.374h.227v-.274h-.227v.274zm.227 0a.477.477 0 00.28-.073.302.302 0 00.125-.255h-.275a.063.063 0 01-.004.025c0 .002-.002.004-.006.006-.01.008-.043.023-.12.023v.274zm.405-.328a.31.31 0 00-.11-.251.414.414 0 00-.265-.078v.275c.064 0 .087.013.092.017a.012.012 0 01.003.005.084.084 0 01.005.032h.275zm-.375-.33a.473.473 0 00-.28.085.525.525 0 00-.177.235l.254.104a.251.251 0 01.083-.115.199.199 0 01.12-.033v-.275zm-.261.254l-.495-.288-.138.238.495.287.138-.237zm-.439-.111a.671.671 0 01.27-.306l-.142-.236a.945.945 0 00-.378.427l.25.115zm.27-.306a.83.83 0 01.44-.112v-.275c-.217 0-.413.049-.583.152l.143.235zm.44-.112c.22 0 .382.057.501.158l.178-.209c-.18-.154-.41-.224-.68-.224v.275zm.503.16a.48.48 0 01.177.395h.275a.755.755 0 00-.277-.607l-.175.212zm.177.395a.425.425 0 01-.179.365l.165.22a.699.699 0 00.29-.585h-.276z" fill="#000"/><defs><linearGradient id="paint4_linear" x1="31.308" y1="66.166" x2="31.342" y2="67.526" gradientUnits="userSpaceOnUse"><stop stop-color="#242424"/><stop offset="1" stop-color="#494949"/></linearGradient><linearGradient id="paint5_linear" x1="31.294" y1="2.17" x2="31.292" y2="1.053" gradientUnits="userSpaceOnUse"><stop stop-color="#191919"/><stop offset="1" stop-color="#666"/></linearGradient><linearGradient id="paint11_linear" x1="1.248" y1="6.826" x2=".23" y2="6.826" gradientUnits="userSpaceOnUse"><stop stop-color="#B1B3B5" stop-opacity=".48"/><stop offset="1" stop-color="#636363"/></linearGradient><linearGradient id="paint12_linear" x1="33.345" y1="6.826" x2="34.38" y2="6.826" gradientUnits="userSpaceOnUse"><stop stop-color="#B1B3B5" stop-opacity=".48"/><stop offset="1" stop-color="#636363"/></linearGradient><linearGradient id="paint13_linear" x1=".134" y1="9.136" x2=".134" y2="11.661" gradientUnits="userSpaceOnUse"><stop stop-color="#1F1F1F"/><stop offset=".037" stop-color="#5C5C5C"/><stop offset=".118" stop-color="#B4B4B4"/><stop offset=".255" stop-color="#CCC"/><stop offset=".519" stop-color="#CECECE"/><stop offset=".692" stop-color="#D1D1D1"/><stop offset=".889" stop-color="#D1D1D1"/><stop offset=".954" stop-color="#6F6F6F"/><stop offset="1" stop-color="#181818"/></linearGradient><linearGradient id="paint14_linear" x1=".054" y1="9.078" x2=".054" y2="11.743" gradientUnits="userSpaceOnUse"><stop offset=".007" stop-color="#121212"/><stop offset=".224" stop-color="#EDEDED"/><stop offset=".515" stop-color="#F9F9F9"/><stop offset=".789" stop-color="#EDEDED"/><stop offset=".992" stop-color="#101010"/></linearGradient><linearGradient id="paint15_linear" x1=".23" y1="14.128" x2=".34" y2="14.458" gradientUnits="userSpaceOnUse"><stop offset=".15" stop-color="#2A2A2A"/><stop offset=".346" stop-color="#6C6C6C"/><stop offset="1" stop-color="#C7C7C7"/></linearGradient><linearGradient id="paint16_linear" x1=".244" y1="18.871" x2=".326" y2="18.416" gradientUnits="userSpaceOnUse"><stop offset=".22" stop-color="#2A2A2A"/><stop offset=".466" stop-color="#6C6C6C"/><stop offset="1" stop-color="#C7C7C7" stop-opacity="0"/></linearGradient><linearGradient id="paint17_linear" x1="34.38" y1="15.833" x2="34.27" y2="16.163" gradientUnits="userSpaceOnUse"><stop offset=".15" stop-color="#2A2A2A"/><stop offset=".346" stop-color="#6C6C6C"/><stop offset="1" stop-color="#C7C7C7"/></linearGradient><linearGradient id="paint18_linear" x1="34.471" y1="23.651" x2="34.38" y2="23.061" gradientUnits="userSpaceOnUse"><stop offset=".22" stop-color="#2A2A2A"/><stop offset=".466" stop-color="#6C6C6C"/><stop offset="1" stop-color="#C7C7C7" stop-opacity="0"/></linearGradient><linearGradient id="paint19_linear" x1=".23" y1="20.241" x2=".34" y2="20.571" gradientUnits="userSpaceOnUse"><stop offset=".15" stop-color="#2A2A2A"/><stop offset=".346" stop-color="#6C6C6C"/><stop offset="1" stop-color="#C7C7C7"/></linearGradient><linearGradient id="paint20_linear" x1=".244" y1="24.985" x2=".326" y2="24.529" gradientUnits="userSpaceOnUse"><stop offset=".22" stop-color="#2A2A2A"/><stop offset=".466" stop-color="#6C6C6C"/><stop offset="1" stop-color="#C7C7C7" stop-opacity="0"/></linearGradient><linearGradient id="paint21_linear" x1="17.305" y1="2.633" x2="17.31" y2="3.179" gradientUnits="userSpaceOnUse"><stop offset=".119" stop-color="#080808"/><stop offset=".557" stop-color="#333"/><stop offset="1"/></linearGradient><linearGradient id="paint22_linear" x1="17.291" y1="2.633" x2="17.291" y2="3.227" gradientUnits="userSpaceOnUse"><stop stop-color="#121212"/><stop offset="1" stop-color="#1F1F1F"/></linearGradient><linearGradient id="paint23_linear" x1="21.311" y1="3.17" x2="20.569" y2="2.552" gradientUnits="userSpaceOnUse"><stop stop-color="#1A1B1D"/><stop offset=".311" stop-color="#0E0F11"/><stop offset="1" stop-color="#0A0B0D"/></linearGradient><filter id="filter0_ii" x=".379" y=".121" width="33.824" height="68.674" filterUnits="userSpaceOnUse" color-interpolation-filters="sRGB"><feFlood flood-opacity="0" result="BackgroundImageFix"/><feBlend in="SourceGraphic" in2="BackgroundImageFix" result="shape"/><feColorMatrix in="SourceAlpha" values="0 0 0 0 0 0 0 0 0 0 0 0 0 0 0 0 0 0 127 0" result="hardAlpha"/><feOffset/><feGaussianBlur stdDeviation=".144"/><feComposite in2="hardAlpha" operator="arithmetic" k2="-1" k3="1"/><feColorMatrix values="0 0 0 0 0.33 0 0 0 0 0.33 0 0 0 0 0.33 0 0 0 1 0"/><feBlend in2="shape" result="effect1_innerShadow"/><feColorMatrix in="SourceAlpha" values="0 0 0 0 0 0 0 0 0 0 0 0 0 0 0 0 0 0 127 0" result="hardAlpha"/><feOffset/><feGaussianBlur stdDeviation=".096"/><feComposite in2="hardAlpha" operator="arithmetic" k2="-1" k3="1"/><feColorMatrix values="0 0 0 0 0.635294 0 0 0 0 0.635294 0 0 0 0 0.635294 0 0 0 1 0"/><feBlend in2="effect1_innerShadow" result="effect2_innerShadow"/></filter><filter id="filter1_i" x=".824" y="1.092" width="3.551" height="66.556" filterUnits="userSpaceOnUse" color-interpolation-filters="sRGB"><feFlood flood-opacity="0" result="BackgroundImageFix"/><feBlend in="SourceGraphic" in2="BackgroundImageFix" result="shape"/><feColorMatrix in="SourceAlpha" values="0 0 0 0 0 0 0 0 0 0 0 0 0 0 0 0 0 0 127 0" result="hardAlpha"/><feOffset dx=".613"/><feGaussianBlur stdDeviation=".211"/><feComposite in2="hardAlpha" operator="arithmetic" k2="-1" k3="1"/><feColorMatrix values="0 0 0 0 0.729412 0 0 0 0 0.729412 0 0 0 0 0.729412 0 0 0 1 0"/><feBlend in2="shape" result="effect1_innerShadow"/></filter><filter id="filter2_i" x="30.244" y="1.092" width="3.551" height="66.556" filterUnits="userSpaceOnUse" color-interpolation-filters="sRGB"><feFlood flood-opacity="0" result="BackgroundImageFix"/><feBlend in="SourceGraphic" in2="BackgroundImageFix" result="shape"/><feColorMatrix in="SourceAlpha" values="0 0 0 0 0 0 0 0 0 0 0 0 0 0 0 0 0 0 127 0" result="hardAlpha"/><feOffset dx="-.613"/><feGaussianBlur stdDeviation=".211"/><feComposite in2="hardAlpha" operator="arithmetic" k2="-1" k3="1"/><feColorMatrix values="0 0 0 0 0.729412 0 0 0 0 0.729412 0 0 0 0 0.729412 0 0 0 1 0"/><feBlend in2="shape" result="effect1_innerShadow"/></filter><filter id="filter3_i" x="-.019" y="9.078" width=".288" height="2.665" filterUnits="userSpaceOnUse" color-interpolation-filters="sRGB"><feFlood flood-opacity="0" result="BackgroundImageFix"/><feBlend in="SourceGraphic" in2="BackgroundImageFix" result="shape"/><feColorMatrix in="SourceAlpha" values="0 0 0 0 0 0 0 0 0 0 0 0 0 0 0 0 0 0 127 0" result="hardAlpha"/><feOffset dx="-.019"/><feGaussianBlur stdDeviation=".024"/><feComposite in2="hardAlpha" operator="arithmetic" k2="-1" k3="1"/><feColorMatrix values="0 0 0 0 0 0 0 0 0 0 0 0 0 0 0 0 0 0 0.65 0"/><feBlend in2="shape" result="effect1_innerShadow"/></filter><filter id="filter4_i" x="0" y="9.078" width=".108" height="2.665" filterUnits="userSpaceOnUse" color-interpolation-filters="sRGB"><feFlood flood-opacity="0" result="BackgroundImageFix"/><feBlend in="SourceGraphic" in2="BackgroundImageFix" result="shape"/><feColorMatrix in="SourceAlpha" values="0 0 0 0 0 0 0 0 0 0 0 0 0 0 0 0 0 0 127 0" result="hardAlpha"/><feOffset dx=".034" dy=".01"/><feComposite in2="hardAlpha" operator="arithmetic" k2="-1" k3="1"/><feColorMatrix values="0 0 0 0 0 0 0 0 0 0 0 0 0 0 0 0 0 0 0.65 0"/><feBlend in2="shape" result="effect1_innerShadow"/></filter><filter id="filter5_i" x=".067" y="14.053" width=".307" height="4.874" filterUnits="userSpaceOnUse" color-interpolation-filters="sRGB"><feFlood flood-opacity="0" result="BackgroundImageFix"/><feBlend in="SourceGraphic" in2="BackgroundImageFix" result="shape"/><feColorMatrix in="SourceAlpha" values="0 0 0 0 0 0 0 0 0 0 0 0 0 0 0 0 0 0 127 0" result="hardAlpha"/><feOffset dx="-.019"/><feGaussianBlur stdDeviation=".024"/><feComposite in2="hardAlpha" operator="arithmetic" k2="-1" k3="1"/><feColorMatrix values="0 0 0 0 0 0 0 0 0 0 0 0 0 0 0 0 0 0 0.65 0"/><feBlend in2="shape" result="effect1_innerShadow"/></filter><filter id="filter6_i" x=".086" y="14.146" width=".077" height="4.696" filterUnits="userSpaceOnUse" color-interpolation-filters="sRGB"><feFlood flood-opacity="0" result="BackgroundImageFix"/><feBlend in="SourceGraphic" in2="BackgroundImageFix" result="shape"/><feColorMatrix in="SourceAlpha" values="0 0 0 0 0 0 0 0 0 0 0 0 0 0 0 0 0 0 127 0" result="hardAlpha"/><feOffset dx="-.019"/><feComposite in2="hardAlpha" operator="arithmetic" k2="-1" k3="1"/><feColorMatrix values="0 0 0 0 1 0 0 0 0 1 0 0 0 0 1 0 0 0 0.35 0"/><feBlend in2="shape" result="effect1_innerShadow"/></filter><filter id="filter7_i" x="34.217" y="15.758" width=".307" height="7.941" filterUnits="userSpaceOnUse" color-interpolation-filters="sRGB"><feFlood flood-opacity="0" result="BackgroundImageFix"/><feBlend in="SourceGraphic" in2="BackgroundImageFix" result="shape"/><feColorMatrix in="SourceAlpha" values="0 0 0 0 0 0 0 0 0 0 0 0 0 0 0 0 0 0 127 0" result="hardAlpha"/><feOffset dx="-.019"/><feGaussianBlur stdDeviation=".024"/><feComposite in2="hardAlpha" operator="arithmetic" k2="-1" k3="1"/><feColorMatrix values="0 0 0 0 0 0 0 0 0 0 0 0 0 0 0 0 0 0 0.65 0"/><feBlend in2="shape" result="effect1_innerShadow"/></filter><filter id="filter8_i" x="34.447" y="15.85" width=".077" height="7.764" filterUnits="userSpaceOnUse" color-interpolation-filters="sRGB"><feFlood flood-opacity="0" result="BackgroundImageFix"/><feBlend in="SourceGraphic" in2="BackgroundImageFix" result="shape"/><feColorMatrix in="SourceAlpha" values="0 0 0 0 0 0 0 0 0 0 0 0 0 0 0 0 0 0 127 0" result="hardAlpha"/><feOffset dx="-.019"/><feComposite in2="hardAlpha" operator="arithmetic" k2="-1" k3="1"/><feColorMatrix values="0 0 0 0 1 0 0 0 0 1 0 0 0 0 1 0 0 0 0.35 0"/><feBlend in2="shape" result="effect1_innerShadow"/></filter><filter id="filter9_i" x=".067" y="20.166" width=".307" height="4.874" filterUnits="userSpaceOnUse" color-interpolation-filters="sRGB"><feFlood flood-opacity="0" result="BackgroundImageFix"/><feBlend in="SourceGraphic" in2="BackgroundImageFix" result="shape"/><feColorMatrix in="SourceAlpha" values="0 0 0 0 0 0 0 0 0 0 0 0 0 0 0 0 0 0 127 0" result="hardAlpha"/><feOffset dx="-.019"/><feGaussianBlur stdDeviation=".024"/><feComposite in2="hardAlpha" operator="arithmetic" k2="-1" k3="1"/><feColorMatrix values="0 0 0 0 0 0 0 0 0 0 0 0 0 0 0 0 0 0 0.65 0"/><feBlend in2="shape" result="effect1_innerShadow"/></filter><filter id="filter10_i" x=".086" y="20.26" width=".077" height="4.696" filterUnits="userSpaceOnUse" color-interpolation-filters="sRGB"><feFlood flood-opacity="0" result="BackgroundImageFix"/><feBlend in="SourceGraphic" in2="BackgroundImageFix" result="shape"/><feColorMatrix in="SourceAlpha" values="0 0 0 0 0 0 0 0 0 0 0 0 0 0 0 0 0 0 127 0" result="hardAlpha"/><feOffset dx="-.019"/><feComposite in2="hardAlpha" operator="arithmetic" k2="-1" k3="1"/><feColorMatrix values="0 0 0 0 1 0 0 0 0 1 0 0 0 0 1 0 0 0 0.35 0"/><feBlend in2="shape" result="effect1_innerShadow"/></filter><filter id="filter11_i" x="20.406" y="2.442" width=".968" height=".968" filterUnits="userSpaceOnUse" color-interpolation-filters="sRGB"><feFlood flood-opacity="0" result="BackgroundImageFix"/><feBlend in="SourceGraphic" in2="BackgroundImageFix" result="shape"/><feColorMatrix in="SourceAlpha" values="0 0 0 0 0 0 0 0 0 0 0 0 0 0 0 0 0 0 127 0" result="hardAlpha"/><feOffset dx="-.01" dy="-.01"/><feGaussianBlur stdDeviation=".005"/><feComposite in2="hardAlpha" operator="arithmetic" k2="-1" k3="1"/><feColorMatrix values="0 0 0 0 0.14 0 0 0 0 0.1386 0 0 0 0 0.1386 0 0 0 1 0"/><feBlend in2="shape" result="effect1_innerShadow"/></filter><filter id="filter12_ddd" x="20.437" y="2.472" width=".918" height=".92" filterUnits="userSpaceOnUse" color-interpolation-filters="sRGB"><feFlood flood-opacity="0" result="BackgroundImageFix"/><feColorMatrix in="SourceAlpha" values="0 0 0 0 0 0 0 0 0 0 0 0 0 0 0 0 0 0 127 0"/><feOffset/><feGaussianBlur stdDeviation=".096"/><feColorMatrix values="0 0 0 0 0 0 0 0 0 0 0 0 0 0 0 0 0 0 1 0"/><feBlend in2="BackgroundImageFix" result="effect1_dropShadow"/><feColorMatrix in="SourceAlpha" values="0 0 0 0 0 0 0 0 0 0 0 0 0 0 0 0 0 0 127 0"/><feOffset dy=".029"/><feGaussianBlur stdDeviation=".029"/><feColorMatrix values="0 0 0 0 0 0 0 0 0 0 0 0 0 0 0 0 0 0 1 0"/><feBlend in2="effect1_dropShadow" result="effect2_dropShadow"/><feColorMatrix in="SourceAlpha" values="0 0 0 0 0 0 0 0 0 0 0 0 0 0 0 0 0 0 127 0"/><feOffset dy=".01"/><feGaussianBlur stdDeviation=".01"/><feColorMatrix values="0 0 0 0 0 0 0 0 0 0 0 0 0 0 0 0 0 0 1 0"/><feBlend in2="effect2_dropShadow" result="effect3_dropShadow"/><feBlend in="SourceGraphic" in2="effect3_dropShadow" result="shape"/></filter><filter id="filter13_i" x="20.626" y="2.709" width=".176" height=".385" filterUnits="userSpaceOnUse" color-interpolation-filters="sRGB"><feFlood flood-opacity="0" result="BackgroundImageFix"/><feBlend in="SourceGraphic" in2="BackgroundImageFix" result="shape"/><feColorMatrix in="SourceAlpha" values="0 0 0 0 0 0 0 0 0 0 0 0 0 0 0 0 0 0 127 0" result="hardAlpha"/><feOffset dy=".019"/><feGaussianBlur stdDeviation=".005"/><feComposite in2="hardAlpha" operator="arithmetic" k2="-1" k3="1"/><feColorMatrix values="0 0 0 0 1 0 0 0 0 0.99 0 0 0 0 0.99 0 0 0 0.25 0"/><feBlend mode="overlay" in2="shape" result="effect1_innerShadow"/></filter><radialGradient id="paint0_radial" cx="0" cy="0" r="1" gradientUnits="userSpaceOnUse" gradientTransform="rotate(49.773 -1.44 3.066) scale(3.33928 2.522)"><stop offset=".375" stop-color="#848484"/><stop offset="1" stop-color="#4F4F4F" stop-opacity="0"/></radialGradient><radialGradient id="paint1_radial" cx="0" cy="0" r="1" gradientUnits="userSpaceOnUse" gradientTransform="rotate(139.67 15.93 6.644) scale(4.28737 3.23805)"><stop offset=".375" stop-color="#848484"/><stop offset="1" stop-color="#4F4F4F" stop-opacity="0"/></radialGradient><radialGradient id="paint2_radial" cx="0" cy="0" r="1" gradientUnits="userSpaceOnUse" gradientTransform="matrix(2.77476 -2.11342 1.59617 2.09565 1.308 67.625)"><stop offset=".375" stop-color="#848484"/><stop offset="1" stop-color="#4F4F4F" stop-opacity="0"/></radialGradient><radialGradient id="paint3_radial" cx="0" cy="0" r="1" gradientUnits="userSpaceOnUse" gradientTransform="rotate(-126.882 33.392 25.84) scale(4.63131 3.49781)"><stop offset=".375" stop-color="#848484"/><stop offset="1" stop-color="#4F4F4F" stop-opacity="0"/></radialGradient><radialGradient id="paint6_radial" cx="0" cy="0" r="1" gradientUnits="userSpaceOnUse" gradientTransform="matrix(0 15.5463 -15.8096 0 17.29 .604)"><stop offset=".45" stop-color="#656565"/><stop offset="1" stop-color="#212121"/></radialGradient><radialGradient id="paint7_radial" cx="0" cy="0" r="1" gradientUnits="userSpaceOnUse" gradientTransform="matrix(-.00203 -3.7572 18.5611 -.01001 17.273 67.476)"><stop offset=".276" stop-color="#595959"/><stop offset="1" stop-color="#020202"/></radialGradient><radialGradient id="paint8_radial" cx="0" cy="0" r="1" gradientUnits="userSpaceOnUse" gradientTransform="matrix(0 4.25559 -15.5875 0 17.3 1.16)"><stop offset=".658" stop-color="#595959"/><stop offset="1" stop-color="#020202"/></radialGradient><radialGradient id="paint9_radial" cx="0" cy="0" r="1" gradientUnits="userSpaceOnUse" gradientTransform="matrix(-.50922 0 0 -.58118 .71 62.109)"><stop stop-color="#858585" stop-opacity=".5"/><stop offset="1" stop-color="#646464"/></radialGradient><radialGradient id="paint10_radial" cx="0" cy="0" r="1" gradientUnits="userSpaceOnUse" gradientTransform="matrix(.50922 0 0 .58118 33.871 62.109)"><stop stop-color="#858585" stop-opacity=".5"/><stop offset="1" stop-color="#646464"/></radialGradient><radialGradient id="paint24_radial" cx="0" cy="0" r="1" gradientUnits="userSpaceOnUse" gradientTransform="rotate(45.579 6.795 26.642) scale(.3355)"><stop stop-color="#1B1C1E"/><stop offset="1" stop-color="#242424" stop-opacity="0"/></radialGradient><radialGradient id="paint25_radial" cx="0" cy="0" r="1" gradientUnits="userSpaceOnUse" gradientTransform="matrix(.03561 .29968 -.23152 .02751 20.86 2.9)"><stop stop-color="#000A21"/><stop offset=".593" stop-color="#0C1427"/><stop offset=".729" stop-color="#041129"/><stop offset="1" stop-color="#091B3D"/></radialGradient><radialGradient id="paint26_radial" cx="0" cy="0" r="1" gradientUnits="userSpaceOnUse" gradientTransform="matrix(-.05342 .34441 -.16215 -.02515 20.682 2.78)"><stop stop-color="#70C3FF"/><stop offset=".918" stop-color="#081A3D"/></radialGradient><radialGradient id="paint27_radial" cx="0" cy="0" r="1" gradientUnits="userSpaceOnUse" gradientTransform="matrix(.04543 .18339 -.11959 .02962 21.003 2.889)"><stop offset=".28" stop-color="#296EC2"/><stop offset="1" stop-color="#081A3D"/></radialGradient></defs></svg>