<svg width="347" height="195" fill="none" xmlns="http://www.w3.org/2000/svg"><rect x="10" y="10" width="327" height="175" rx="14" fill="url(#paint0_linear)" stroke="#2B2B29" stroke-width="20"/><g clip-path="url(#clip0)"><path d="M106.414 97.5V31.423c0-2.09-1.61-3.698-3.702-3.698H32.387c-2.092 0-3.701 1.608-3.701 3.698v132.154c0 2.09 1.609 3.698 3.7 3.698h70.326c2.092 0 3.702-1.608 3.702-3.698V97.5z" fill="#0C0C0C"/><path d="M103.195 97.018V35.603c0-1.93-1.609-3.537-3.54-3.537H35.284c-1.932 0-3.54 1.608-3.54 3.537v61.415" fill="#494949"/><path d="M31.904 98.465v61.415c0 1.929 1.61 3.537 3.54 3.537h64.372c1.931 0 3.54-1.608 3.54-3.537V98.465" fill="url(#paint1_linear)"/><path d="M103.195 97.982V36.728c0-1.929-1.609-3.537-3.54-3.537H35.284c-1.932 0-3.54 1.608-3.54 3.537v61.415" fill="url(#paint2_linear)"/><path opacity=".7" d="M103.034 97.339h-71.29v.804h71.29v-.804z" fill="#0E0E0E"/><path opacity=".659" d="M103.034 97.017h-71.29v.804h71.29v-.804z" fill="#0E0E0E"/><path opacity=".618" d="M103.034 96.857h-71.29v.965h71.29v-.965z" fill="#0E0E0E"/><path opacity=".577" d="M103.034 96.535h-71.29v1.126h71.29v-1.126z" fill="#0E0E0E"/><path opacity=".535" d="M103.034 96.374h-71.29V97.5h71.29v-1.126z" fill="#0E0E0E"/><path opacity=".494" d="M103.034 96.053h-71.29v1.286h71.29v-1.286z" fill="#0E0E0E"/><path opacity=".453" d="M103.034 95.731h-71.29v1.447h71.29V95.73z" fill="#0E0E0E"/><path opacity=".412" d="M103.034 95.57h-71.29v1.448h71.29V95.57z" fill="#0E0E0E"/><path opacity=".371" d="M103.034 95.249h-71.29v1.608h71.29v-1.608z" fill="#0E0E0E"/><path opacity=".329" d="M103.034 94.927h-71.29v1.769h71.29v-1.769z" fill="#0E0E0E"/><path opacity=".288" d="M103.034 94.767h-71.29v1.768h71.29v-1.768z" fill="#0E0E0E"/><path opacity=".247" d="M103.034 94.445h-71.29v1.93h71.29v-1.93z" fill="#0E0E0E"/><path opacity=".206" d="M103.034 94.285h-71.29v2.09h71.29v-2.09z" fill="#0E0E0E"/><path opacity=".165" d="M103.034 93.963h-71.29v2.09h71.29v-2.09z" fill="#0E0E0E"/><path opacity=".123" d="M103.034 93.641h-71.29v2.25h71.29v-2.25z" fill="#0E0E0E"/><path opacity=".082" d="M103.034 93.48h-71.29v2.412h71.29v-2.411z" fill="#0E0E0E"/><path opacity=".041" d="M103.034 93.16h-71.29v2.41h71.29v-2.41z" fill="#0E0E0E"/><path opacity=".3" d="M103.195 98.786h-71.29v.804h71.29v-.804z" fill="#4C4C4C"/><path opacity=".282" d="M103.195 98.786h-71.29v.804h71.29v-.804z" fill="#4C4C4C"/><path opacity=".265" d="M103.195 98.947h-71.29v.964h71.29v-.964z" fill="#4C4C4C"/><path opacity=".247" d="M103.195 98.947h-71.29v1.125h71.29v-1.125z" fill="#4C4C4C"/><path opacity=".229" d="M103.195 99.108h-71.29v1.125h71.29v-1.125z" fill="#4C4C4C"/><path opacity=".212" d="M103.195 99.108h-71.29v1.286h71.29v-1.286z" fill="#4C4C4C"/><path opacity=".194" d="M103.195 99.269h-71.29v1.446h71.29v-1.446z" fill="#4C4C4C"/><path opacity=".176" d="M103.195 99.269h-71.29v1.446h71.29v-1.446z" fill="#4C4C4C"/><path opacity=".159" d="M103.195 99.43h-71.29v1.607h71.29v-1.608z" fill="#4C4C4C"/><path opacity=".141" d="M103.195 99.59h-71.29v1.768h71.29V99.59z" fill="#4C4C4C"/><path opacity=".123" d="M103.195 99.59h-71.29v1.768h71.29V99.59z" fill="#4C4C4C"/><path opacity=".106" d="M103.195 99.75h-71.29v1.93h71.29v-1.93z" fill="#4C4C4C"/><path opacity=".088" d="M103.195 99.75h-71.29v2.091h71.29v-2.09z" fill="#4C4C4C"/><path opacity=".071" d="M103.195 99.912h-71.29v2.09h71.29v-2.09z" fill="#4C4C4C"/><path opacity=".053" d="M103.195 99.912h-71.29v2.25h71.29v-2.25z" fill="#4C4C4C"/><path opacity=".035" d="M103.195 100.072h-71.29v2.412h71.29v-2.412z" fill="#4C4C4C"/><path opacity=".018" d="M103.195 100.072h-71.29v2.412h71.29v-2.412z" fill="#4C4C4C"/><path d="M106.092 85.281h-6.759v24.92h6.759v-24.92zm-70.325 0h-6.76v24.92h6.76v-24.92z" fill="#0C0C0C"/><path d="M89.195 126.76c0 3.376-.644 6.27-1.77 8.843-1.127 2.572-2.736 4.823-4.667 6.591-1.931 1.769-4.184 3.216-6.76 4.02-2.574.964-5.31 1.286-8.368 1.286-3.057 0-5.793-.483-8.529-1.286-2.575-.965-4.828-2.251-6.759-4.02-1.93-1.768-3.54-4.019-4.666-6.591-1.127-2.573-1.77-5.627-1.77-8.843V68.4c0-3.376.643-6.27 1.77-9.003 1.126-2.572 2.735-4.823 4.666-6.592 1.931-1.768 4.184-3.215 6.76-4.18 2.574-.965 5.47-1.447 8.529-1.447 6.437 0 11.586 1.769 15.448 5.467 4.024 3.697 5.955 8.842 5.955 15.594v58.521h.16zm-15.45-59.003c0-1.93-.643-3.376-1.77-4.502-1.126-1.125-2.735-1.607-4.505-1.607-1.932 0-3.38.482-4.667 1.607-1.288 1.126-1.77 2.573-1.77 4.502v59.485c0 1.93.643 3.377 1.77 4.502 1.287 1.125 2.735 1.608 4.667 1.608 1.77 0 3.218-.483 4.505-1.608 1.127-1.125 1.77-2.572 1.77-4.502V67.757z" fill="url(#paint3_linear)"/><path d="M106.575 97.5h-74.67v1.125h74.67V97.5z" fill="#0C0C0C"/><path d="M104 85.924h-3.701v23.312H104V85.924z" fill="url(#paint4_linear)"/><path d="M34.962 85.924h-3.701v23.312h3.701V85.924z" fill="url(#paint5_linear)"/><path opacity=".2" d="M100.943 85.924h-.644v23.312h.644V85.924zm3.057 0h-.644v23.312H104V85.924zm-72.096 0h-.643v23.312h.643V85.924zm2.896 0h-.643v23.312h.644V85.924z" fill="#414141"/></g><g clip-path="url(#clip1)"><path d="M193.395 97.5V31.423c0-2.09-1.609-3.698-3.701-3.698h-70.326c-2.092 0-3.701 1.608-3.701 3.698v132.154c0 2.09 1.609 3.698 3.701 3.698h70.326c2.092 0 3.701-1.608 3.701-3.698V97.5z" fill="#0C0C0C"/><path d="M190.176 97.018V35.603c0-1.93-1.609-3.537-3.54-3.537h-64.371c-1.931 0-3.54 1.608-3.54 3.537v61.415" fill="#494949"/><path d="M118.886 98.465v61.415c0 1.929 1.609 3.537 3.54 3.537h64.371c1.931 0 3.541-1.608 3.541-3.537V98.465" fill="url(#paint6_linear)"/><path d="M190.176 97.982V36.728c0-1.929-1.609-3.537-3.54-3.537h-64.371c-1.931 0-3.54 1.608-3.54 3.537v61.415" fill="url(#paint7_linear)"/><path opacity=".7" d="M190.016 97.339h-71.291v.804h71.291v-.804z" fill="#0E0E0E"/><path opacity=".659" d="M190.016 97.017h-71.291v.804h71.291v-.804z" fill="#0E0E0E"/><path opacity=".618" d="M190.016 96.857h-71.291v.965h71.291v-.965z" fill="#0E0E0E"/><path opacity=".577" d="M190.016 96.535h-71.291v1.126h71.291v-1.126z" fill="#0E0E0E"/><path opacity=".535" d="M190.016 96.374h-71.291V97.5h71.291v-1.126z" fill="#0E0E0E"/><path opacity=".494" d="M190.016 96.053h-71.291v1.286h71.291v-1.286z" fill="#0E0E0E"/><path opacity=".453" d="M190.016 95.731h-71.291v1.447h71.291V95.73z" fill="#0E0E0E"/><path opacity=".412" d="M190.016 95.57h-71.291v1.448h71.291V95.57z" fill="#0E0E0E"/><path opacity=".371" d="M190.016 95.249h-71.291v1.608h71.291v-1.608z" fill="#0E0E0E"/><path opacity=".329" d="M190.016 94.927h-71.291v1.769h71.291v-1.769z" fill="#0E0E0E"/><path opacity=".288" d="M190.016 94.767h-71.291v1.768h71.291v-1.768z" fill="#0E0E0E"/><path opacity=".247" d="M190.016 94.445h-71.291v1.93h71.291v-1.93z" fill="#0E0E0E"/><path opacity=".206" d="M190.016 94.285h-71.291v2.09h71.291v-2.09z" fill="#0E0E0E"/><path opacity=".165" d="M190.016 93.963h-71.291v2.09h71.291v-2.09z" fill="#0E0E0E"/><path opacity=".123" d="M190.016 93.641h-71.291v2.25h71.291v-2.25z" fill="#0E0E0E"/><path opacity=".082" d="M190.016 93.48h-71.291v2.412h71.291v-2.411z" fill="#0E0E0E"/><path opacity=".041" d="M190.016 93.16h-71.291v2.41h71.291v-2.41z" fill="#0E0E0E"/><path opacity=".3" d="M190.177 98.786h-71.291v.804h71.291v-.804z" fill="#4C4C4C"/><path opacity=".282" d="M190.177 98.786h-71.291v.804h71.291v-.804z" fill="#4C4C4C"/><path opacity=".265" d="M190.177 98.947h-71.291v.964h71.291v-.964z" fill="#4C4C4C"/><path opacity=".247" d="M190.177 98.947h-71.291v1.125h71.291v-1.125z" fill="#4C4C4C"/><path opacity=".229" d="M190.177 99.108h-71.291v1.125h71.291v-1.125z" fill="#4C4C4C"/><path opacity=".212" d="M190.177 99.108h-71.291v1.286h71.291v-1.286z" fill="#4C4C4C"/><path opacity=".194" d="M190.177 99.269h-71.291v1.446h71.291v-1.446z" fill="#4C4C4C"/><path opacity=".176" d="M190.177 99.269h-71.291v1.446h71.291v-1.446z" fill="#4C4C4C"/><path opacity=".159" d="M190.177 99.43h-71.291v1.607h71.291v-1.608z" fill="#4C4C4C"/><path opacity=".141" d="M190.177 99.59h-71.291v1.768h71.291V99.59z" fill="#4C4C4C"/><path opacity=".123" d="M190.177 99.59h-71.291v1.768h71.291V99.59z" fill="#4C4C4C"/><path opacity=".106" d="M190.177 99.75h-71.291v1.93h71.291v-1.93z" fill="#4C4C4C"/><path opacity=".088" d="M190.177 99.75h-71.291v2.091h71.291v-2.09z" fill="#4C4C4C"/><path opacity=".071" d="M190.177 99.912h-71.291v2.09h71.291v-2.09z" fill="#4C4C4C"/><path opacity=".053" d="M190.177 99.912h-71.291v2.25h71.291v-2.25z" fill="#4C4C4C"/><path opacity=".035" d="M190.177 100.072h-71.291v2.412h71.291v-2.412z" fill="#4C4C4C"/><path opacity=".018" d="M190.177 100.072h-71.291v2.412h71.291v-2.412z" fill="#4C4C4C"/><path d="M193.073 85.281h-6.759v24.92h6.759v-24.92zm-70.325 0h-6.759v24.92h6.759v-24.92z" fill="#0C0C0C"/><path d="M176.176 126.76c0 3.376-.643 6.27-1.77 8.843-1.126 2.572-2.736 4.823-4.667 6.591-1.931 1.769-4.184 3.216-6.759 4.02-2.575.964-5.31 1.286-8.368 1.286-3.058 0-5.793-.483-8.529-1.286-2.575-.965-4.828-2.251-6.759-4.02-1.931-1.768-3.541-4.019-4.667-6.591-1.127-2.573-1.77-5.627-1.77-8.843V68.4c0-3.376.643-6.27 1.77-9.003 1.126-2.572 2.736-4.823 4.667-6.592 1.931-1.768 4.184-3.215 6.759-4.18 2.575-.965 5.471-1.447 8.529-1.447 6.437 0 11.587 1.769 15.449 5.467 4.023 3.697 5.954 8.842 5.954 15.594v58.521h.161zm-15.449-59.003c0-1.93-.644-3.376-1.77-4.502-1.127-1.125-2.736-1.607-4.506-1.607-1.931 0-3.379.482-4.667 1.607-1.287 1.126-1.77 2.573-1.77 4.502v59.485c0 1.93.644 3.377 1.77 4.502 1.288 1.125 2.736 1.608 4.667 1.608 1.77 0 3.219-.483 4.506-1.608 1.126-1.125 1.77-2.572 1.77-4.502V67.757z" fill="url(#paint8_linear)"/><path d="M193.556 97.5h-74.67v1.125h74.67V97.5z" fill="#0C0C0C"/><path d="M190.982 85.924h-3.702v23.312h3.702V85.924z" fill="url(#paint9_linear)"/><path d="M121.944 85.924h-3.702v23.312h3.702V85.924z" fill="url(#paint10_linear)"/><path opacity=".2" d="M187.924 85.924h-.644v23.312h.644V85.924zm3.058 0h-.644v23.312h.644V85.924zm-72.096 0h-.644v23.312h.644V85.924zm2.896 0h-.643v23.312h.643V85.924z" fill="#414141"/></g><g clip-path="url(#clip2)"><path d="M192.985 97.5V31.423c0-2.09-1.601-3.698-3.683-3.698h-69.988c-2.082 0-3.683 1.608-3.683 3.698v132.154c0 2.09 1.601 3.698 3.683 3.698h69.988c2.082 0 3.683-1.608 3.683-3.698V97.5z" fill="#0C0C0C"/><path d="M189.782 97.018V35.603c0-1.93-1.601-3.537-3.523-3.537h-64.062c-1.922 0-3.523 1.608-3.523 3.537v61.415" fill="#494949"/><path d="M118.834 98.464v61.415c0 1.929 1.602 3.537 3.523 3.537h64.062c1.922 0 3.523-1.608 3.523-3.537V98.464" fill="url(#paint11_linear)"/><path d="M189.782 97.982V36.728c0-1.929-1.601-3.537-3.523-3.537h-64.062c-1.922 0-3.523 1.608-3.523 3.537v61.415" fill="url(#paint12_linear)"/><path d="M176.65 126.76c0 3.376-.641 6.27-1.762 8.843-1.121 2.572-2.723 4.823-4.644 6.591-1.922 1.769-4.164 3.216-6.727 4.02-2.562.964-5.285 1.286-8.328 1.286-3.043 0-5.765-.483-8.488-1.286-2.562-.965-4.805-2.251-6.726-4.02-1.922-1.768-3.524-4.019-4.645-6.591-1.121-2.573-1.762-5.627-1.762-8.843V68.4c0-3.376.641-6.27 1.762-9.003 1.121-2.572 2.723-4.823 4.645-6.592 1.921-1.768 4.164-3.215 6.726-4.18 2.562-.965 5.445-1.447 8.488-1.447 6.406 0 11.531 1.769 15.375 5.467 4.004 3.697 5.926 8.842 5.926 15.594v58.521h.16zm-15.215-59.164c0-1.929-.64-3.376-1.762-4.501-1.121-1.126-2.722-1.608-4.484-1.608-1.922 0-3.363.482-4.644 1.608-1.282 1.125-1.762 2.572-1.762 4.501v59.486c0 1.929.641 3.376 1.762 4.501 1.281 1.126 2.722 1.608 4.644 1.608 1.762 0 3.203-.482 4.484-1.608 1.122-1.125 1.762-2.572 1.762-4.501V67.596z" fill="url(#paint13_linear)" fill-opacity=".7"/><path opacity=".7" d="M189.622 97.34h-70.948v.803h70.948v-.804z" fill="#0E0E0E"/><path opacity=".659" d="M189.622 97.018h-70.948v.804h70.948v-.804z" fill="#0E0E0E"/><path opacity=".618" d="M189.622 96.857h-70.948v.965h70.948v-.965z" fill="#0E0E0E"/><path opacity=".577" d="M189.622 96.536h-70.948v1.125h70.948v-1.125z" fill="#0E0E0E"/><path opacity=".535" d="M189.622 96.375h-70.948V97.5h70.948v-1.125z" fill="#0E0E0E"/><path opacity=".494" d="M189.622 96.053h-70.948v1.286h70.948v-1.286z" fill="#0E0E0E"/><path opacity=".453" d="M189.622 95.732h-70.948v1.447h70.948v-1.447z" fill="#0E0E0E"/><path opacity=".412" d="M189.622 95.571h-70.948v1.447h70.948v-1.447z" fill="#0E0E0E"/><path opacity=".371" d="M189.622 95.25h-70.948v1.607h70.948V95.25z" fill="#0E0E0E"/><path opacity=".329" d="M189.622 94.928h-70.948v1.768h70.948v-1.768z" fill="#0E0E0E"/><path opacity=".288" d="M189.622 94.767h-70.948v1.769h70.948v-1.769z" fill="#0E0E0E"/><path opacity=".247" d="M189.622 94.446h-70.948v1.93h70.948v-1.93z" fill="#0E0E0E"/><path opacity=".206" d="M189.622 94.285h-70.948v2.09h70.948v-2.09z" fill="#0E0E0E"/><path opacity=".165" d="M189.622 93.963h-70.948v2.09h70.948v-2.09z" fill="#0E0E0E"/><path opacity=".123" d="M189.622 93.642h-70.948v2.25h70.948v-2.25z" fill="#0E0E0E"/><path opacity=".082" d="M189.622 93.481h-70.948v2.412h70.948v-2.412z" fill="#0E0E0E"/><path opacity=".041" d="M189.622 93.16h-70.948v2.411h70.948V93.16z" fill="#0E0E0E"/><path opacity=".3" d="M189.782 98.786h-70.948v.804h70.948v-.804z" fill="#4C4C4C"/><path opacity=".282" d="M189.782 98.786h-70.948v.804h70.948v-.804z" fill="#4C4C4C"/><path opacity=".265" d="M189.782 98.947h-70.948v.964h70.948v-.964z" fill="#4C4C4C"/><path opacity=".247" d="M189.782 98.947h-70.948v1.125h70.948v-1.125z" fill="#4C4C4C"/><path opacity=".229" d="M189.782 99.108h-70.948v1.125h70.948v-1.125z" fill="#4C4C4C"/><path opacity=".212" d="M189.782 99.108h-70.948v1.286h70.948v-1.286z" fill="#4C4C4C"/><path opacity=".194" d="M189.782 99.269h-70.948v1.446h70.948v-1.446z" fill="#4C4C4C"/><path opacity=".176" d="M189.782 99.269h-70.948v1.446h70.948v-1.446z" fill="#4C4C4C"/><path opacity=".159" d="M189.782 99.43h-70.948v1.607h70.948V99.43z" fill="#4C4C4C"/><path opacity=".141" d="M189.782 99.59h-70.948v1.768h70.948V99.59z" fill="#4C4C4C"/><path opacity=".123" d="M189.782 99.59h-70.948v1.768h70.948V99.59z" fill="#4C4C4C"/><path opacity=".106" d="M189.782 99.75h-70.948v1.93h70.948v-1.93z" fill="#4C4C4C"/><path opacity=".088" d="M189.782 99.75h-70.948v2.091h70.948v-2.09z" fill="#4C4C4C"/><path opacity=".071" d="M189.782 99.912h-70.948v2.09h70.948v-2.09z" fill="#4C4C4C"/><path opacity=".053" d="M189.782 99.912h-70.948v2.25h70.948v-2.25z" fill="#4C4C4C"/><path opacity=".035" d="M189.782 100.072h-70.948v2.412h70.948v-2.412z" fill="#4C4C4C"/><path opacity=".018" d="M189.782 100.072h-70.948v2.412h70.948v-2.412z" fill="#4C4C4C"/><path d="M192.985 97.5h-74.311v1.125h74.311V97.5z" fill="#0C0C0C"/><path d="M191.063 93.16v44.694c0 1.286-1.121 2.411-2.402 2.411h-68.225c-1.282 0-2.403-1.125-2.403-2.411V93.159" fill="url(#paint14_linear)"/><path d="M192.665 85.281h-6.727v24.92h6.727v-24.92zm-69.987 0h-6.727v24.92h6.727v-24.92z" fill="#0C0C0C"/><path d="M190.583 85.924h-3.684v23.312h3.684V85.924z" fill="url(#paint15_linear)"/><path d="M121.717 85.924h-3.684v23.312h3.684V85.924z" fill="url(#paint16_linear)"/><path opacity=".2" d="M187.54 85.924h-.641v23.312h.641V85.924zm2.883 0h-.641v23.312h.641V85.924zm-71.589 0h-.641v23.312h.641V85.924zm2.883 0h-.641v23.312h.641V85.924z" fill="#414141"/><path d="M199.712 56.343c-.161-.322-.481-.643-.801-.965-.321-.322-.801-.482-1.281-.643-.481-.16-1.122-.16-1.762-.16h-83.761c-.64 0-1.281.16-1.761.16-.481.16-.801.322-1.121.643-.321.322-.641.643-.801.965-.16.321-.16.643-.16 1.125l9.609 37.3h3.844l.64 2.893h63.741l.641-2.894h3.844l9.129-37.299c.16-.482.16-.804 0-1.125z" fill="url(#paint17_radial)"/><path d="M117.553 94.767h4.164l.801 2.894h63.581l.8-2.894h4.164" stroke="#111" stroke-width=".504" stroke-miterlimit="10"/><path opacity=".7" d="M155.349 64.542c-5.125 0-10.41.643-15.214 2.733-2.243.965-4.485 2.25-6.246 4.18-.801.965-1.602 1.93-2.082 3.055-.481 1.125-.801 2.411-.801 3.698 0 .643.16 1.447.16 2.09.16.803.16 1.768.32 2.572.321 2.572.641 5.145 1.121 7.556.321 2.09.641 4.02.801 6.11 0 .16 0 .321.16.643 0 .16 0 .16.16.16h14.895c0-1.286-.16-2.572-.16-3.858-.161-2.572-.161-5.145-.321-7.717-.16-1.93-.16-4.02-.32-5.949v-.482c0-.643.16-1.286.48-1.93.641-.964 1.922-1.446 2.883-1.768 1.121-.321 2.403-.482 3.684-.482 1.281 0 2.562.16 3.683.482 1.121.322 2.242.965 3.043 1.93.321.482.481 1.125.481 1.768v.482c0 1.93-.16 4.02-.321 5.949-.16 2.572-.16 5.145-.32 7.717 0 1.286-.16 2.572-.16 3.698h15.215v-.161c.16-1.608.48-3.216.64-4.823.32-2.573.801-5.145 1.121-7.717.16-1.608.481-3.216.641-4.823.32-1.769.16-3.537-.481-5.306-.8-2.25-2.562-4.02-4.484-5.305-4.164-2.733-9.129-3.859-13.933-4.341-1.442-.161-3.043-.161-4.645-.161z" fill="url(#paint18_linear)"/><path d="M199.712 55.538c0 .161 0 .161 0 0 0-.16 0-.482-.161-.643 0-.16 0-.482-.16-.643 0-.482-.32-.804-.48-1.125-.801-.965-2.082-1.126-3.363-1.126h-83.601c-.961 0-2.082.322-2.722.804-.481.322-.801.804-.961 1.447 0 .483-.16 1.447-.16 1.93.16-.965.96-1.608 1.761-1.93.641-.321 1.281-.321 2.082-.321h84.561c1.282.16 2.883.804 3.043 2.25.321 0 .161-.321.161-.643z" fill="#ADADAD"/><path d="M199.712 56.02c0-.16 0-.32-.161-.642 0-.161 0-.483-.16-.643 0-.322-.32-.804-.48-1.126-.801-.964-2.082-1.125-3.363-1.125h-83.601c-.961 0-2.082.321-2.722.804-.481.321-.801.804-.961 1.447 0 .482-.16 1.447-.16 1.929.16-.965.96-1.608 1.761-1.93.641-.32 1.281-.32 2.082-.32h84.561c1.282.16 2.883.803 3.043 2.25.321-.16.161-.482.161-.643z" fill="url(#paint19_radial)"/></g><path d="M236.705 147.475c-1.806 0-3.268-.601-4.386-1.804-1.118-1.202-1.676-2.49-1.676-3.864 0-.773.172-1.503.515-2.19l46.433-93.908c.86-1.804 2.408-2.706 4.644-2.706 1.461 0 2.88.559 4.256 1.675 1.462 1.03 2.193 2.405 2.193 4.122 0 .859-.172 1.632-.516 2.319l-46.433 93.522a4.023 4.023 0 01-2.064 2.061c-.86.515-1.849.773-2.966.773zm-6.449-47.405c-5.16 0-9.502-1.245-13.027-3.736-3.526-2.49-5.289-6.784-5.289-12.882V64.774c0-6.098 1.763-10.392 5.289-12.882 3.525-2.49 7.867-3.736 13.027-3.736 5.159 0 9.501 1.245 13.027 3.736 3.611 2.49 5.417 6.784 5.417 12.882v18.678c0 6.098-1.806 10.392-5.417 12.882-3.526 2.49-7.868 3.736-13.027 3.736zm0-9.661c2.321 0 4.127-.559 5.417-1.675 1.29-1.117 1.934-2.877 1.934-5.282V64.774c0-2.405-.644-4.165-1.934-5.282-1.29-1.116-3.096-1.674-5.417-1.674-4.816 0-7.223 2.318-7.223 6.956v18.678c0 4.638 2.407 6.957 7.223 6.957zm58.17 52.3c-5.246 0-9.631-1.246-13.156-3.736-3.526-2.491-5.288-6.785-5.288-12.882v-18.679c0-6.011 1.762-10.262 5.288-12.753 3.525-2.576 7.91-3.864 13.156-3.864 5.073 0 9.372 1.288 12.898 3.864 3.611 2.491 5.417 6.742 5.417 12.753v18.679c0 6.097-1.806 10.391-5.417 12.882-3.526 2.49-7.825 3.736-12.898 3.736zm0-9.662c2.235 0 3.998-.558 5.288-1.674 1.29-1.117 1.935-2.877 1.935-5.282v-18.679c0-2.404-.645-4.165-1.935-5.281-1.29-1.116-3.053-1.675-5.288-1.675-4.816 0-7.223 2.319-7.223 6.956v18.679c0 4.638 2.407 6.956 7.223 6.956z" fill="url(#paint20_linear)"/><path d="M0 24C0 10.745 10.745 0 24 0h155.515l-49.177 195H24c-13.255 0-24-10.745-24-24V24z" fill="url(#paint21_linear)"/><rect x="6.5" y="6.5" width="334" height="182" rx="17.5" stroke="#DBDBDB" stroke-width="13"/><defs><linearGradient id="paint0_linear" x1="173.5" y1="0" x2="173.5" y2="195" gradientUnits="userSpaceOnUse"><stop stop-color="#393937"/><stop offset="1" stop-color="#31302E"/></linearGradient><linearGradient id="paint1_linear" x1="67.584" y1="96.602" x2="67.584" y2="168.603" gradientUnits="userSpaceOnUse"><stop stop-color="#3B3B3B"/><stop offset=".935" stop-color="#333"/></linearGradient><linearGradient id="paint2_linear" x1="67.509" y1="-.932" x2="67.509" y2="113.789" gradientUnits="userSpaceOnUse"><stop stop-color="#363636"/><stop offset=".49" stop-color="#343434"/><stop offset=".767" stop-color="#2B2B2B"/><stop offset=".947" stop-color="#212121"/></linearGradient><linearGradient id="paint3_linear" x1="67.563" y1="178.358" x2="67.563" y2="41.136" gradientUnits="userSpaceOnUse"><stop stop-color="#231F20"/><stop offset=".582" stop-color="#fff"/><stop offset=".583" stop-color="#F7F7F7"/><stop offset=".586" stop-color="#CCC"/><stop offset=".59" stop-color="#ABABAB"/><stop offset=".593" stop-color="#939393"/><stop offset=".596" stop-color="#858585"/><stop offset=".598" stop-color="gray"/><stop offset=".698" stop-color="#AFAFAF"/><stop offset=".805" stop-color="#DADADA"/><stop offset=".889" stop-color="#F5F5F5"/><stop offset=".938" stop-color="#fff"/></linearGradient><linearGradient id="paint4_linear" x1="102.113" y1="85.998" x2="102.113" y2="109.637" gradientUnits="userSpaceOnUse"><stop/><stop offset=".011" stop-color="#090909"/><stop offset=".039" stop-color="#1A1A1A"/><stop offset=".074" stop-color="#252525"/><stop offset=".123" stop-color="#2C2C2C"/><stop offset=".26" stop-color="#2E2E2E"/><stop offset=".823" stop-color="#141313"/><stop offset=".88" stop-color="#1B1A1A"/><stop offset=".934" stop-color="#262626"/><stop offset=".949" stop-color="#242424"/><stop offset=".957" stop-color="#1C1C1C"/><stop offset=".963" stop-color="#0F0F0F"/><stop offset=".967"/></linearGradient><linearGradient id="paint5_linear" x1="33.026" y1="85.998" x2="33.026" y2="109.637" gradientUnits="userSpaceOnUse"><stop/><stop offset=".011" stop-color="#090909"/><stop offset=".039" stop-color="#1A1A1A"/><stop offset=".074" stop-color="#252525"/><stop offset=".123" stop-color="#2C2C2C"/><stop offset=".26" stop-color="#2E2E2E"/><stop offset=".823" stop-color="#141313"/><stop offset=".88" stop-color="#1B1A1A"/><stop offset=".934" stop-color="#262626"/><stop offset=".949" stop-color="#242424"/><stop offset=".957" stop-color="#1C1C1C"/><stop offset=".963" stop-color="#0F0F0F"/><stop offset=".967"/></linearGradient><linearGradient id="paint6_linear" x1="154.566" y1="96.602" x2="154.566" y2="168.603" gradientUnits="userSpaceOnUse"><stop stop-color="#3B3B3B"/><stop offset=".935" stop-color="#333"/></linearGradient><linearGradient id="paint7_linear" x1="154.49" y1="-.932" x2="154.49" y2="113.789" gradientUnits="userSpaceOnUse"><stop stop-color="#363636"/><stop offset=".49" stop-color="#343434"/><stop offset=".767" stop-color="#2B2B2B"/><stop offset=".947" stop-color="#212121"/></linearGradient><linearGradient id="paint8_linear" x1="154.545" y1="178.358" x2="154.545" y2="41.136" gradientUnits="userSpaceOnUse"><stop stop-color="#231F20"/><stop offset=".582" stop-color="#fff"/><stop offset=".583" stop-color="#F7F7F7"/><stop offset=".586" stop-color="#CCC"/><stop offset=".59" stop-color="#ABABAB"/><stop offset=".593" stop-color="#939393"/><stop offset=".596" stop-color="#858585"/><stop offset=".598" stop-color="gray"/><stop offset=".698" stop-color="#AFAFAF"/><stop offset=".805" stop-color="#DADADA"/><stop offset=".889" stop-color="#F5F5F5"/><stop offset=".938" stop-color="#fff"/></linearGradient><linearGradient id="paint9_linear" x1="189.095" y1="85.998" x2="189.095" y2="109.637" gradientUnits="userSpaceOnUse"><stop/><stop offset=".011" stop-color="#090909"/><stop offset=".039" stop-color="#1A1A1A"/><stop offset=".074" stop-color="#252525"/><stop offset=".123" stop-color="#2C2C2C"/><stop offset=".26" stop-color="#2E2E2E"/><stop offset=".823" stop-color="#141313"/><stop offset=".88" stop-color="#1B1A1A"/><stop offset=".934" stop-color="#262626"/><stop offset=".949" stop-color="#242424"/><stop offset=".957" stop-color="#1C1C1C"/><stop offset=".963" stop-color="#0F0F0F"/><stop offset=".967"/></linearGradient><linearGradient id="paint10_linear" x1="120.008" y1="85.998" x2="120.008" y2="109.637" gradientUnits="userSpaceOnUse"><stop/><stop offset=".011" stop-color="#090909"/><stop offset=".039" stop-color="#1A1A1A"/><stop offset=".074" stop-color="#252525"/><stop offset=".123" stop-color="#2C2C2C"/><stop offset=".26" stop-color="#2E2E2E"/><stop offset=".823" stop-color="#141313"/><stop offset=".88" stop-color="#1B1A1A"/><stop offset=".934" stop-color="#262626"/><stop offset=".949" stop-color="#242424"/><stop offset=".957" stop-color="#1C1C1C"/><stop offset=".963" stop-color="#0F0F0F"/><stop offset=".967"/></linearGradient><linearGradient id="paint11_linear" x1="154.322" y1="96.602" x2="154.322" y2="168.602" gradientUnits="userSpaceOnUse"><stop stop-color="#3B3B3B"/><stop offset=".935" stop-color="#333"/></linearGradient><linearGradient id="paint12_linear" x1="154.247" y1="-.932" x2="154.247" y2="113.789" gradientUnits="userSpaceOnUse"><stop stop-color="#363636"/><stop offset=".49" stop-color="#343434"/><stop offset=".767" stop-color="#2B2B2B"/><stop offset=".947" stop-color="#212121"/></linearGradient><linearGradient id="paint13_linear" x1="155.228" y1="176.077" x2="155.228" y2="38.85" gradientUnits="userSpaceOnUse"><stop stop-color="#424242"/><stop offset=".07" stop-color="#626262"/><stop offset=".176" stop-color="#8D8D8D"/><stop offset=".279" stop-color="#AEAEAE"/><stop offset=".377" stop-color="#C6C6C6"/><stop offset=".468" stop-color="#D4D4D4"/><stop offset=".545" stop-color="#D9D9D9"/><stop offset=".565" stop-color="#DFDFDF"/><stop offset=".591" stop-color="#F0F0F0"/><stop offset=".607" stop-color="#fff"/><stop offset=".608" stop-color="#F7F7F7"/><stop offset=".614" stop-color="#CCC"/><stop offset=".62" stop-color="#ABABAB"/><stop offset=".626" stop-color="#939393"/><stop offset=".631" stop-color="#858585"/><stop offset=".635" stop-color="gray"/><stop offset=".724" stop-color="#AFAFAF"/><stop offset=".82" stop-color="#DADADA"/><stop offset=".894" stop-color="#F5F5F5"/><stop offset=".938" stop-color="#fff"/></linearGradient><linearGradient id="paint14_linear" x1="154.523" y1="91.827" x2="154.523" y2="144.25" gradientUnits="userSpaceOnUse"><stop offset=".12" stop-opacity=".77"/><stop offset=".914" stop-opacity="0"/></linearGradient><linearGradient id="paint15_linear" x1="188.685" y1="85.998" x2="188.685" y2="109.637" gradientUnits="userSpaceOnUse"><stop/><stop offset=".056" stop-color="#0B0B0B"/><stop offset=".136" stop-color="#121212"/><stop offset=".359" stop-color="#141414"/><stop offset=".823" stop-color="#141313"/><stop offset=".88" stop-color="#1B1A1A"/><stop offset=".934" stop-color="#262626"/><stop offset=".949" stop-color="#242424"/><stop offset=".957" stop-color="#1C1C1C"/><stop offset=".963" stop-color="#0F0F0F"/><stop offset=".967"/></linearGradient><linearGradient id="paint16_linear" x1="119.929" y1="85.998" x2="119.929" y2="109.637" gradientUnits="userSpaceOnUse"><stop/><stop offset=".056" stop-color="#0B0B0B"/><stop offset=".136" stop-color="#121212"/><stop offset=".359" stop-color="#141414"/><stop offset=".823" stop-color="#141313"/><stop offset=".88" stop-color="#1B1A1A"/><stop offset=".934" stop-color="#262626"/><stop offset=".949" stop-color="#242424"/><stop offset=".957" stop-color="#1C1C1C"/><stop offset=".963" stop-color="#0F0F0F"/><stop offset=".967"/></linearGradient><linearGradient id="paint18_linear" x1="155.218" y1="47.37" x2="155.218" y2="126.117" gradientUnits="userSpaceOnUse"><stop offset=".067" stop-color="#4D4D4D"/><stop offset=".248" stop-color="#505050"/><stop offset=".389" stop-color="#5A5A5A"/><stop offset=".517" stop-color="#6B6B6B"/><stop offset=".637" stop-color="#828282"/><stop offset=".752" stop-color="#A0A0A0"/><stop offset=".863" stop-color="#C5C5C5"/><stop offset=".969" stop-color="#F1F1F1"/><stop offset="1" stop-color="#fff"/></linearGradient><linearGradient id="paint20_linear" x1="258.698" y1="37.891" x2="258.698" y2="146.724" gradientUnits="userSpaceOnUse"><stop stop-color="#fff"/><stop offset="1" stop-color="#A8A8A8"/></linearGradient><linearGradient id="paint21_linear" x1="209.5" y1="0" x2="209.5" y2="195" gradientUnits="userSpaceOnUse"><stop stop-color="#fff" stop-opacity=".15"/><stop offset="1" stop-color="#fff" stop-opacity=".13"/></linearGradient><clipPath id="clip0"><path fill="#fff" transform="translate(28.686 27.725)" d="M0 0h77.728v139.55H0z"/></clipPath><clipPath id="clip1"><path fill="#fff" transform="translate(115.667 27.725)" d="M0 0h77.728v139.55H0z"/></clipPath><clipPath id="clip2"><path fill="#fff" transform="translate(108.264 27.725)" d="M0 0h91.608v139.55H0z"/></clipPath><radialGradient id="paint17_radial" cx="0" cy="0" r="1" gradientUnits="userSpaceOnUse" gradientTransform="matrix(100.555 0 0 43.6283 153.148 106.505)"><stop offset=".003" stop-color="#2B2B2B"/><stop offset=".388" stop-color="#232323"/><stop offset=".906" stop-color="#1F1F1F"/></radialGradient><radialGradient id="paint19_radial" cx="0" cy="0" r="1" gradientUnits="userSpaceOnUse" gradientTransform="matrix(64.7971 0 0 65.0471 154.049 54.61)"><stop offset=".01" stop-color="#5C5C5C"/><stop offset=".366" stop-color="#5A5A5A"/><stop offset=".494" stop-color="#535353"/><stop offset=".585" stop-color="#484848"/><stop offset=".658" stop-color="#373737"/><stop offset=".661" stop-color="#363636"/><stop offset=".666" stop-color="#3B3B3B"/><stop offset=".693" stop-color="#535353"/><stop offset=".71" stop-color="#5C5C5C"/></radialGradient></defs></svg>