<svg width="355" height="203" fill="none" xmlns="http://www.w3.org/2000/svg"><g filter="url(#filter0_d)"><rect x="14" y="10" width="327" height="175" rx="14" fill="url(#paint0_linear)" stroke="#2B2B29" stroke-width="20"/><g clip-path="url(#clip0)"><path d="M110.413 97.5V31.424c0-2.09-1.609-3.697-3.701-3.697H36.387c-2.092 0-3.702 1.607-3.702 3.697v132.155c0 2.09 1.61 3.697 3.702 3.697h70.325c2.092 0 3.701-1.607 3.701-3.697V97.502z" fill="#0C0C0C"/><path d="M107.195 97.018V35.603c0-1.929-1.61-3.537-3.541-3.537h-64.37c-1.932 0-3.541 1.608-3.541 3.537v61.415" fill="#494949"/><path d="M35.904 98.465v61.415c0 1.929 1.61 3.537 3.54 3.537h64.371c1.931 0 3.541-1.608 3.541-3.537V98.465" fill="url(#paint1_linear)"/><path d="M107.195 97.983V36.73c0-1.929-1.61-3.537-3.541-3.537h-64.37c-1.932 0-3.541 1.608-3.541 3.537v61.415" fill="url(#paint2_linear)"/><path opacity=".7" d="M107.034 97.339H35.743v.804h71.291v-.804z" fill="#0E0E0E"/><path opacity=".659" d="M107.034 97.018H35.743v.803h71.291v-.803z" fill="#0E0E0E"/><path opacity=".618" d="M107.034 96.857H35.743v.965h71.291v-.965z" fill="#0E0E0E"/><path opacity=".577" d="M107.034 96.535H35.743v1.126h71.291v-1.126z" fill="#0E0E0E"/><path opacity=".535" d="M107.034 96.375H35.743V97.5h71.291v-1.125z" fill="#0E0E0E"/><path opacity=".494" d="M107.034 96.054H35.743v1.286h71.291v-1.286z" fill="#0E0E0E"/><path opacity=".453" d="M107.034 95.731H35.743v1.447h71.291v-1.447z" fill="#0E0E0E"/><path opacity=".412" d="M107.034 95.571H35.743v1.447h71.291v-1.447z" fill="#0E0E0E"/><path opacity=".371" d="M107.034 95.249H35.743v1.608h71.291v-1.608z" fill="#0E0E0E"/><path opacity=".329" d="M107.034 94.928H35.743v1.768h71.291v-1.768z" fill="#0E0E0E"/><path opacity=".288" d="M107.034 94.768H35.743v1.768h71.291v-1.768z" fill="#0E0E0E"/><path opacity=".247" d="M107.034 94.445H35.743v1.93h71.291v-1.93z" fill="#0E0E0E"/><path opacity=".206" d="M107.034 94.285H35.743v2.09h71.291v-2.09z" fill="#0E0E0E"/><path opacity=".165" d="M107.034 93.964H35.743v2.09h71.291v-2.09z" fill="#0E0E0E"/><path opacity=".123" d="M107.034 93.642H35.743v2.25h71.291v-2.25z" fill="#0E0E0E"/><path opacity=".082" d="M107.034 93.481H35.743v2.412h71.291v-2.412z" fill="#0E0E0E"/><path opacity=".041" d="M107.034 93.16H35.743v2.41h71.291v-2.41z" fill="#0E0E0E"/><path opacity=".3" d="M107.195 98.787H35.904v.804h71.291v-.804z" fill="#4C4C4C"/><path opacity=".282" d="M107.195 98.787H35.904v.804h71.291v-.804z" fill="#4C4C4C"/><path opacity=".265" d="M107.195 98.947H35.904v.965h71.291v-.965z" fill="#4C4C4C"/><path opacity=".247" d="M107.195 98.947H35.904v1.126h71.291v-1.126z" fill="#4C4C4C"/><path opacity=".229" d="M107.195 99.108H35.904v1.126h71.291v-1.126z" fill="#4C4C4C"/><path opacity=".212" d="M107.195 99.108H35.904v1.287h71.291v-1.287z" fill="#4C4C4C"/><path opacity=".194" d="M107.195 99.27H35.904v1.446h71.291v-1.447z" fill="#4C4C4C"/><path opacity=".176" d="M107.195 99.27H35.904v1.446h71.291v-1.447z" fill="#4C4C4C"/><path opacity=".159" d="M107.195 99.43H35.904v1.608h71.291v-1.607z" fill="#4C4C4C"/><path opacity=".141" d="M107.195 99.59H35.904v1.769h71.291v-1.768z" fill="#4C4C4C"/><path opacity=".123" d="M107.195 99.59H35.904v1.769h71.291v-1.768z" fill="#4C4C4C"/><path opacity=".106" d="M107.195 99.752H35.904v1.929h71.291v-1.929z" fill="#4C4C4C"/><path opacity=".088" d="M107.195 99.752H35.904v2.09h71.291v-2.09z" fill="#4C4C4C"/><path opacity=".071" d="M107.195 99.913H35.904v2.09h71.291v-2.09z" fill="#4C4C4C"/><path opacity=".053" d="M107.195 99.913H35.904v2.251h71.291v-2.25z" fill="#4C4C4C"/><path opacity=".035" d="M107.195 100.073H35.904v2.412h71.291v-2.412z" fill="#4C4C4C"/><path opacity=".018" d="M107.195 100.073H35.904v2.412h71.291v-2.412z" fill="#4C4C4C"/><path d="M110.091 85.281h-6.758v24.92h6.758v-24.92zm-70.325 0h-6.759v24.92h6.759v-24.92z" fill="#0C0C0C"/><path d="M93.194 126.761c0 3.376-.644 6.27-1.77 8.842-1.127 2.572-2.736 4.823-4.667 6.592-1.931 1.768-4.184 3.215-6.759 4.019-2.575.965-5.31 1.286-8.368 1.286-3.058 0-5.794-.482-8.53-1.286-2.574-.965-4.827-2.251-6.758-4.019-1.931-1.769-3.54-4.02-4.667-6.592-1.127-2.572-1.77-5.627-1.77-8.842v-58.36c0-3.377.643-6.27 1.77-9.004 1.126-2.572 2.736-4.823 4.667-6.591 1.93-1.769 4.184-3.216 6.759-4.18 2.574-.965 5.471-1.447 8.529-1.447 6.437 0 11.587 1.768 15.449 5.466 4.023 3.698 5.954 8.842 5.954 15.595v58.521h.161zM77.745 67.757c0-1.929-.644-3.376-1.77-4.501-1.127-1.126-2.736-1.608-4.506-1.608-1.931 0-3.38.482-4.667 1.608-1.288 1.125-1.77 2.572-1.77 4.501v59.486c0 1.929.643 3.376 1.77 4.502 1.287 1.125 2.736 1.607 4.667 1.607 1.77 0 3.218-.482 4.506-1.607 1.126-1.126 1.77-2.573 1.77-4.502V67.757z" fill="url(#paint3_linear)"/><path d="M110.574 97.501h-74.67v1.125h74.67v-1.125z" fill="#0C0C0C"/><path d="M107.999 85.925h-3.701v23.312h3.701V85.925z" fill="url(#paint4_linear)"/><path d="M38.962 85.925H35.26v23.312h3.702V85.925z" fill="url(#paint5_linear)"/><path opacity=".2" d="M104.942 85.925h-.644v23.312h.644V85.925zm3.057 0h-.643v23.312h.643V85.925zm-72.095 0h-.644v23.312h.644V85.925zm2.896 0h-.643v23.312h.644V85.925z" fill="#414141"/></g><g clip-path="url(#clip1)"><path d="M197.395 97.5V31.424c0-2.09-1.61-3.697-3.702-3.697h-70.325c-2.092 0-3.701 1.607-3.701 3.697v132.155c0 2.09 1.609 3.697 3.701 3.697h70.325c2.092 0 3.702-1.607 3.702-3.697V97.502z" fill="#0C0C0C"/><path d="M194.176 97.018V35.603c0-1.929-1.609-3.537-3.54-3.537h-64.371c-1.931 0-3.541 1.608-3.541 3.537v61.415" fill="#494949"/><path d="M122.885 98.465v61.415c0 1.929 1.61 3.537 3.541 3.537h64.371c1.931 0 3.54-1.608 3.54-3.537V98.465" fill="url(#paint6_linear)"/><path d="M194.176 97.983V36.73c0-1.929-1.609-3.537-3.54-3.537h-64.371c-1.931 0-3.541 1.608-3.541 3.537v61.415" fill="url(#paint7_linear)"/><path opacity=".7" d="M194.015 97.339h-71.291v.804h71.291v-.804z" fill="#0E0E0E"/><path opacity=".659" d="M194.015 97.018h-71.291v.803h71.291v-.803z" fill="#0E0E0E"/><path opacity=".618" d="M194.015 96.857h-71.291v.965h71.291v-.965z" fill="#0E0E0E"/><path opacity=".577" d="M194.015 96.535h-71.291v1.126h71.291v-1.126z" fill="#0E0E0E"/><path opacity=".535" d="M194.015 96.375h-71.291V97.5h71.291v-1.125z" fill="#0E0E0E"/><path opacity=".494" d="M194.015 96.054h-71.291v1.286h71.291v-1.286z" fill="#0E0E0E"/><path opacity=".453" d="M194.015 95.731h-71.291v1.447h71.291v-1.447z" fill="#0E0E0E"/><path opacity=".412" d="M194.015 95.571h-71.291v1.447h71.291v-1.447z" fill="#0E0E0E"/><path opacity=".371" d="M194.015 95.249h-71.291v1.608h71.291v-1.608z" fill="#0E0E0E"/><path opacity=".329" d="M194.015 94.928h-71.291v1.768h71.291v-1.768z" fill="#0E0E0E"/><path opacity=".288" d="M194.015 94.768h-71.291v1.768h71.291v-1.768z" fill="#0E0E0E"/><path opacity=".247" d="M194.015 94.445h-71.291v1.93h71.291v-1.93z" fill="#0E0E0E"/><path opacity=".206" d="M194.015 94.285h-71.291v2.09h71.291v-2.09z" fill="#0E0E0E"/><path opacity=".165" d="M194.015 93.964h-71.291v2.09h71.291v-2.09z" fill="#0E0E0E"/><path opacity=".123" d="M194.015 93.642h-71.291v2.25h71.291v-2.25z" fill="#0E0E0E"/><path opacity=".082" d="M194.015 93.481h-71.291v2.412h71.291v-2.412z" fill="#0E0E0E"/><path opacity=".041" d="M194.015 93.16h-71.291v2.41h71.291v-2.41z" fill="#0E0E0E"/><path opacity=".3" d="M194.176 98.787h-71.291v.804h71.291v-.804z" fill="#4C4C4C"/><path opacity=".282" d="M194.176 98.787h-71.291v.804h71.291v-.804z" fill="#4C4C4C"/><path opacity=".265" d="M194.176 98.947h-71.291v.965h71.291v-.965z" fill="#4C4C4C"/><path opacity=".247" d="M194.176 98.947h-71.291v1.126h71.291v-1.126z" fill="#4C4C4C"/><path opacity=".229" d="M194.176 99.108h-71.291v1.126h71.291v-1.126z" fill="#4C4C4C"/><path opacity=".212" d="M194.176 99.108h-71.291v1.287h71.291v-1.287z" fill="#4C4C4C"/><path opacity=".194" d="M194.176 99.27h-71.291v1.446h71.291v-1.447z" fill="#4C4C4C"/><path opacity=".176" d="M194.176 99.27h-71.291v1.446h71.291v-1.447z" fill="#4C4C4C"/><path opacity=".159" d="M194.176 99.43h-71.291v1.608h71.291v-1.607z" fill="#4C4C4C"/><path opacity=".141" d="M194.176 99.59h-71.291v1.769h71.291v-1.768z" fill="#4C4C4C"/><path opacity=".123" d="M194.176 99.59h-71.291v1.769h71.291v-1.768z" fill="#4C4C4C"/><path opacity=".106" d="M194.176 99.752h-71.291v1.929h71.291v-1.929z" fill="#4C4C4C"/><path opacity=".088" d="M194.176 99.752h-71.291v2.09h71.291v-2.09z" fill="#4C4C4C"/><path opacity=".071" d="M194.176 99.913h-71.291v2.09h71.291v-2.09z" fill="#4C4C4C"/><path opacity=".053" d="M194.176 99.913h-71.291v2.251h71.291v-2.25z" fill="#4C4C4C"/><path opacity=".035" d="M194.176 100.073h-71.291v2.412h71.291v-2.412z" fill="#4C4C4C"/><path opacity=".018" d="M194.176 100.073h-71.291v2.412h71.291v-2.412z" fill="#4C4C4C"/><path d="M197.073 85.281h-6.759v24.92h6.759v-24.92zm-70.326 0h-6.758v24.92h6.758v-24.92z" fill="#0C0C0C"/><path d="M180.175 126.761c0 3.376-.643 6.27-1.77 8.842-1.126 2.572-2.735 4.823-4.667 6.592-1.931 1.768-4.184 3.215-6.759 4.019-2.574.965-5.31 1.286-8.368 1.286-3.057 0-5.793-.482-8.529-1.286-2.575-.965-4.828-2.251-6.759-4.019-1.931-1.769-3.54-4.02-4.667-6.592-1.126-2.572-1.77-5.627-1.77-8.842v-58.36c0-3.377.644-6.27 1.77-9.004 1.127-2.572 2.736-4.823 4.667-6.591 1.931-1.769 4.184-3.216 6.759-4.18 2.575-.965 5.472-1.447 8.529-1.447 6.437 0 11.587 1.768 15.449 5.466 4.023 3.698 5.955 8.842 5.955 15.595v58.521h.16zm-15.449-59.004c0-1.929-.643-3.376-1.77-4.501-1.126-1.126-2.736-1.608-4.506-1.608-1.931 0-3.379.482-4.667 1.608-1.287 1.125-1.77 2.572-1.77 4.501v59.486c0 1.929.644 3.376 1.77 4.502 1.288 1.125 2.736 1.607 4.667 1.607 1.77 0 3.219-.482 4.506-1.607 1.127-1.126 1.77-2.573 1.77-4.502V67.757z" fill="url(#paint8_linear)"/><path d="M197.556 97.501h-74.671v1.125h74.671v-1.125z" fill="#0C0C0C"/><path d="M194.981 85.925h-3.701v23.312h3.701V85.925z" fill="url(#paint9_linear)"/><path d="M125.943 85.925h-3.701v23.312h3.701V85.925z" fill="url(#paint10_linear)"/><path opacity=".2" d="M191.923 85.925h-.643v23.312h.643V85.925zm3.058 0h-.644v23.312h.644V85.925zm-72.096 0h-.643v23.312h.643V85.925zm2.897 0h-.644v23.312h.644V85.925z" fill="#414141"/></g><g clip-path="url(#clip2)"><path d="M197.395 97.5V31.424c0-2.09-1.61-3.697-3.702-3.697h-70.325c-2.092 0-3.701 1.607-3.701 3.697v132.155c0 2.09 1.609 3.697 3.701 3.697h70.325c2.092 0 3.702-1.607 3.702-3.697V97.502z" fill="#0C0C0C"/><path d="M194.176 97.018V35.603c0-1.929-1.609-3.537-3.54-3.537h-64.371c-1.931 0-3.541 1.608-3.541 3.537v61.415" fill="#494949"/><path d="M122.885 98.465v61.415c0 1.929 1.61 3.537 3.541 3.537h64.371c1.931 0 3.54-1.608 3.54-3.537V98.465" fill="url(#paint11_linear)"/><path d="M194.176 97.983V36.73c0-1.929-1.609-3.537-3.54-3.537h-64.371c-1.931 0-3.541 1.608-3.541 3.537v61.415" fill="url(#paint12_linear)"/><path d="M172.129 96.215c3.38 1.447 5.472 3.697 6.598 6.591.966 2.894 1.609 6.11 1.609 9.647l-.161 11.414c0 7.878-2.092 13.827-6.115 17.846-4.184 4.019-9.655 6.109-16.575 6.109-8.047 0-13.84-2.25-17.381-6.591-3.54-4.341-5.149-10.611-4.666-18.65l15.127-1.768c-.483 4.662 0 8.038 1.287 9.968 1.449 1.929 3.219 2.894 5.633 2.894 1.77 0 3.218-.644 4.827-1.769 1.449-1.125 2.253-3.376 2.253-6.592V111.97c0-3.376-.804-5.627-2.253-7.074-1.448-1.447-3.701-2.09-6.437-2.09h-4.184V89.784h4.989c2.736 0 4.828-.643 6.276-1.93 1.449-1.285 2.092-3.536 2.092-6.591V70.33c0-1.929-.483-3.697-1.287-5.466-.805-1.768-2.575-2.572-4.989-2.572-2.414 0-4.184.965-5.632 2.894-1.449 1.93-2.092 5.144-2.092 9.646l-14.967-2.09c.161-7.717 2.414-13.826 6.598-18.328 4.184-4.662 9.817-6.913 16.898-6.913 3.862 0 7.081.643 9.816 1.769 2.575 1.286 4.828 2.893 6.437 4.823 1.61 2.09 2.736 4.34 3.541 6.913.643 2.572 1.126 5.305 1.126 7.878v7.877c0 1.93 0 3.698-.161 5.627-.161 1.769-.482 3.537-.965 5.145-.483 1.608-1.288 3.055-2.414 4.502-1.127 1.447-2.575 2.572-4.506 3.537v.643h-.322z" fill="url(#paint13_linear)"/><path opacity=".7" d="M194.015 97.34h-71.291v.804h71.291v-.804z" fill="#0E0E0E"/><path opacity=".659" d="M194.015 97.018h-71.291v.803h71.291v-.803z" fill="#0E0E0E"/><path opacity=".618" d="M194.015 96.857h-71.291v.965h71.291v-.965z" fill="#0E0E0E"/><path opacity=".577" d="M194.015 96.535h-71.291v1.126h71.291v-1.126z" fill="#0E0E0E"/><path opacity=".535" d="M194.015 96.375h-71.291V97.5h71.291v-1.125z" fill="#0E0E0E"/><path opacity=".494" d="M194.015 96.054h-71.291v1.286h71.291v-1.286z" fill="#0E0E0E"/><path opacity=".453" d="M194.015 95.731h-71.291v1.447h71.291v-1.447z" fill="#0E0E0E"/><path opacity=".412" d="M194.015 95.571h-71.291v1.447h71.291v-1.447z" fill="#0E0E0E"/><path opacity=".371" d="M194.015 95.25h-71.291v1.608h71.291V95.25z" fill="#0E0E0E"/><path opacity=".329" d="M194.015 94.928h-71.291v1.768h71.291v-1.768z" fill="#0E0E0E"/><path opacity=".288" d="M194.015 94.768h-71.291v1.768h71.291v-1.768z" fill="#0E0E0E"/><path opacity=".247" d="M194.015 94.445h-71.291v1.93h71.291v-1.93z" fill="#0E0E0E"/><path opacity=".206" d="M194.015 94.285h-71.291v2.09h71.291v-2.09z" fill="#0E0E0E"/><path opacity=".165" d="M194.015 93.964h-71.291v2.09h71.291v-2.09z" fill="#0E0E0E"/><path opacity=".123" d="M194.015 93.642h-71.291v2.25h71.291v-2.25z" fill="#0E0E0E"/><path opacity=".082" d="M194.015 93.481h-71.291v2.412h71.291v-2.412z" fill="#0E0E0E"/><path opacity=".041" d="M194.015 93.16h-71.291v2.41h71.291v-2.41z" fill="#0E0E0E"/><path opacity=".3" d="M194.176 98.787h-71.291v.804h71.291v-.804z" fill="#4C4C4C"/><path opacity=".282" d="M194.176 98.787h-71.291v.804h71.291v-.804z" fill="#4C4C4C"/><path opacity=".265" d="M194.176 98.947h-71.291v.965h71.291v-.965z" fill="#4C4C4C"/><path opacity=".247" d="M194.176 98.947h-71.291v1.126h71.291v-1.126z" fill="#4C4C4C"/><path opacity=".229" d="M194.176 99.108h-71.291v1.126h71.291v-1.126z" fill="#4C4C4C"/><path opacity=".212" d="M194.176 99.108h-71.291v1.287h71.291v-1.287z" fill="#4C4C4C"/><path opacity=".194" d="M194.176 99.27h-71.291v1.446h71.291v-1.447z" fill="#4C4C4C"/><path opacity=".176" d="M194.176 99.27h-71.291v1.446h71.291v-1.447z" fill="#4C4C4C"/><path opacity=".159" d="M194.176 99.43h-71.291v1.608h71.291v-1.607z" fill="#4C4C4C"/><path opacity=".141" d="M194.176 99.59h-71.291v1.769h71.291v-1.768z" fill="#4C4C4C"/><path opacity=".123" d="M194.176 99.59h-71.291v1.769h71.291v-1.768z" fill="#4C4C4C"/><path opacity=".106" d="M194.176 99.752h-71.291v1.929h71.291v-1.929z" fill="#4C4C4C"/><path opacity=".088" d="M194.176 99.752h-71.291v2.09h71.291v-2.09z" fill="#4C4C4C"/><path opacity=".071" d="M194.176 99.913h-71.291v2.09h71.291v-2.09z" fill="#4C4C4C"/><path opacity=".053" d="M194.176 99.913h-71.291v2.251h71.291v-2.25z" fill="#4C4C4C"/><path opacity=".035" d="M194.176 100.073h-71.291v2.412h71.291v-2.412z" fill="#4C4C4C"/><path opacity=".018" d="M194.176 100.073h-71.291v2.412h71.291v-2.412z" fill="#4C4C4C"/><path d="M197.073 85.282h-6.759v24.92h6.759v-24.92zm-70.326 0h-6.758v24.92h6.758v-24.92z" fill="#0C0C0C"/><path d="M197.556 97.501h-74.671v1.125h74.671v-1.125z" fill="#0C0C0C"/><path d="M194.981 85.925h-3.701v23.312h3.701V85.925z" fill="url(#paint14_linear)"/><path d="M125.943 85.925h-3.701v23.312h3.701V85.925z" fill="url(#paint15_linear)"/><path opacity=".2" d="M191.923 85.925h-.643v23.312h.643V85.925zm3.058 0h-.644v23.312h.644V85.925zm-72.096 0h-.643v23.312h.643V85.925zm2.897 0h-.644v23.312h.644V85.925z" fill="#414141"/></g><g clip-path="url(#clip3)"><path d="M197.911 97.5V31.424c0-2.09-1.602-3.697-3.684-3.697H124.24c-2.082 0-3.683 1.607-3.683 3.697v132.155c0 2.09 1.601 3.697 3.683 3.697h69.987c2.082 0 3.684-1.607 3.684-3.697V97.502z" fill="#0C0C0C"/><path d="M194.708 97.018V35.603c0-1.929-1.602-3.537-3.524-3.537h-64.061c-1.922 0-3.524 1.608-3.524 3.537v61.415" fill="#494949"/><path d="M123.76 98.465v61.415c0 1.929 1.601 3.537 3.523 3.537h64.061c1.922 0 3.524-1.608 3.524-3.537V98.465" fill="url(#paint16_linear)"/><path d="M173.888 96.054c3.363 1.447 5.445 3.698 6.566 6.592.961 2.894 1.602 6.109 1.602 9.646l-.16 11.415c0 7.878-2.082 13.826-6.086 17.845-4.164 4.02-9.61 6.11-16.496 6.11-8.008 0-13.773-2.251-17.297-6.592-3.523-4.341-4.965-10.611-4.484-18.649l15.054-1.769c-.48 4.662 0 8.039 1.282 9.968 1.441 1.929 3.203 2.894 5.605 2.894 1.762 0 3.203-.643 4.805-1.769 1.441-1.125 2.242-3.376 2.242-6.591V111.81c0-3.377-.801-5.627-2.242-7.074-1.442-1.447-3.684-2.09-6.407-2.09h-4.164V89.623h4.965c2.723 0 4.805-.643 6.246-1.93 1.442-1.285 2.082-3.536 2.082-6.59V70.17c0-1.93-.48-3.698-1.281-5.466-.801-1.769-2.562-2.573-4.965-2.573-2.402 0-4.164.965-5.605 2.894-1.442 1.93-2.082 5.145-2.082 9.646l-15.055-1.929c.161-7.717 2.403-13.826 6.567-18.328 4.164-4.662 9.769-6.913 16.816-6.913 3.844 0 7.047.643 9.769 1.769 2.563 1.286 4.805 2.893 6.406 4.823 1.602 2.09 2.723 4.34 3.524 6.913.64 2.572 1.121 5.305 1.121 7.878v7.877c0 1.93 0 3.698-.16 5.627-.16 1.769-.481 3.537-.961 5.145-.481 1.608-1.281 3.055-2.403 4.502-1.121 1.447-2.562 2.572-4.484 3.537v.482h-.32z" fill="url(#paint17_linear)"/><path d="M194.708 97.982V36.728c0-1.929-1.602-3.537-3.524-3.537h-64.061c-1.922 0-3.524 1.608-3.524 3.537v61.415" fill="url(#paint18_linear)"/><path d="M172.927 46.696h-14.894L143.779 95.25h14.894l14.254-48.553z" fill="#E6E7E8"/><path opacity=".7" d="M194.548 97.34h-70.949v.804h70.949v-.804z" fill="#0E0E0E"/><path opacity=".659" d="M194.548 97.018h-70.949v.803h70.949v-.803z" fill="#0E0E0E"/><path opacity=".618" d="M194.548 96.857h-70.949v.965h70.949v-.965z" fill="#0E0E0E"/><path opacity=".577" d="M194.548 96.535h-70.949v1.126h70.949v-1.126z" fill="#0E0E0E"/><path opacity=".535" d="M194.548 96.375h-70.949V97.5h70.949v-1.125z" fill="#0E0E0E"/><path opacity=".494" d="M194.548 96.054h-70.949v1.286h70.949v-1.286z" fill="#0E0E0E"/><path opacity=".453" d="M194.548 95.731h-70.949v1.447h70.949v-1.447z" fill="#0E0E0E"/><path opacity=".412" d="M194.548 95.571h-70.949v1.447h70.949v-1.447z" fill="#0E0E0E"/><path opacity=".371" d="M194.548 95.25h-70.949v1.608h70.949V95.25z" fill="#0E0E0E"/><path opacity=".329" d="M194.548 94.928h-70.949v1.768h70.949v-1.768z" fill="#0E0E0E"/><path opacity=".288" d="M194.548 94.768h-70.949v1.768h70.949v-1.768z" fill="#0E0E0E"/><path opacity=".247" d="M194.548 94.445h-70.949v1.93h70.949v-1.93z" fill="#0E0E0E"/><path opacity=".206" d="M194.548 94.285h-70.949v2.09h70.949v-2.09z" fill="#0E0E0E"/><path opacity=".165" d="M194.548 93.963h-70.949v2.09h70.949v-2.09z" fill="#0E0E0E"/><path opacity=".123" d="M194.548 93.642h-70.949v2.25h70.949v-2.25z" fill="#0E0E0E"/><path opacity=".082" d="M194.548 93.481h-70.949v2.412h70.949v-2.412z" fill="#0E0E0E"/><path opacity=".041" d="M194.548 93.16h-70.949v2.41h70.949v-2.41z" fill="#0E0E0E"/><path opacity=".3" d="M194.708 98.787H123.76v.804h70.948v-.804z" fill="#4C4C4C"/><path opacity=".282" d="M194.708 98.787H123.76v.804h70.948v-.804z" fill="#4C4C4C"/><path opacity=".265" d="M194.708 98.947H123.76v.965h70.948v-.965z" fill="#4C4C4C"/><path opacity=".247" d="M194.708 98.947H123.76v1.126h70.948v-1.126z" fill="#4C4C4C"/><path opacity=".229" d="M194.708 99.108H123.76v1.126h70.948v-1.126z" fill="#4C4C4C"/><path opacity=".212" d="M194.708 99.108H123.76v1.287h70.948v-1.287z" fill="#4C4C4C"/><path opacity=".194" d="M194.708 99.27H123.76v1.446h70.948v-1.447z" fill="#4C4C4C"/><path opacity=".176" d="M194.708 99.27H123.76v1.446h70.948v-1.447z" fill="#4C4C4C"/><path opacity=".159" d="M194.708 99.43H123.76v1.608h70.948v-1.607z" fill="#4C4C4C"/><path opacity=".141" d="M194.708 99.59H123.76v1.769h70.948v-1.768z" fill="#4C4C4C"/><path opacity=".123" d="M194.708 99.59H123.76v1.769h70.948v-1.768z" fill="#4C4C4C"/><path opacity=".106" d="M194.708 99.752H123.76v1.929h70.948v-1.929z" fill="#4C4C4C"/><path opacity=".088" d="M194.708 99.752H123.76v2.09h70.948v-2.09z" fill="#4C4C4C"/><path opacity=".071" d="M194.708 99.913H123.76v2.09h70.948v-2.09z" fill="#4C4C4C"/><path opacity=".053" d="M194.708 99.913H123.76v2.251h70.948v-2.25z" fill="#4C4C4C"/><path opacity=".035" d="M194.708 100.073H123.76v2.412h70.948v-2.412z" fill="#4C4C4C"/><path opacity=".018" d="M194.708 100.073H123.76v2.412h70.948v-2.412z" fill="#4C4C4C"/><path d="M197.911 97.501h-74.312v1.125h74.312v-1.125z" fill="#0C0C0C"/><path d="M195.989 93.16v44.695c0 1.286-1.121 2.411-2.402 2.411h-68.226c-1.281 0-2.402-1.125-2.402-2.411V93.16" fill="url(#paint19_linear)"/><path d="M197.59 85.282h-6.726v24.92h6.726v-24.92zm-69.987 0h-6.726v24.92h6.726v-24.92z" fill="#0C0C0C"/><path d="M195.508 85.925h-3.683v23.312h3.683V85.925z" fill="url(#paint20_linear)"/><path d="M126.642 85.925h-3.683v23.312h3.683V85.925z" fill="url(#paint21_linear)"/><path opacity=".2" d="M192.466 85.925h-.641v23.312h.641V85.925zm2.882 0h-.64v23.312h.64V85.925zm-71.588 0h-.641v23.312h.641V85.925zm2.882 0h-.64v23.312h.64V85.925z" fill="#414141"/><path d="M204.637 56.343c-.16-.322-.48-.643-.8-.965-.321-.322-.801-.482-1.282-.643-.48-.16-1.121-.16-1.761-.16h-83.761c-.64 0-1.281.16-1.762.16-.48.16-.8.322-1.121.643-.32.322-.64.643-.8.965-.161.321-.161.643-.161 1.125l9.61 37.3h3.843l.641 2.893h63.741l.641-2.894h3.844l9.128-37.299c.16-.482.16-.804 0-1.125z" fill="url(#paint22_radial)"/><path d="M122.478 94.768h4.164l.801 2.894h63.581l.801-2.894h4.164" stroke="#111" stroke-width=".504" stroke-miterlimit="10"/><g opacity=".7"><path opacity=".7" d="M161.075 67.758c-1.922 0-3.843.16-5.445.321-1.762.161-3.363.483-4.805.804-1.441.322-2.882.804-4.164 1.447-1.281.643-2.402 1.286-3.523 1.93-.961.803-1.922 1.607-2.723 2.411-.8.804-1.281 1.768-1.761 2.733-.481.965-.801 1.93-.961 2.894-.16.965-.16 2.09-.16 3.215l15.054 1.126V82.87c0-.643.16-1.125.32-1.607.161-.483.321-.965.641-1.287.32-.321.481-.803.961-.964.32-.322.641-.483 1.121-.804.481-.16.801-.482 1.281-.482.481-.161.961-.322 1.602-.322.48 0 1.121-.16 1.762-.16.64 0 1.281 0 1.761.16.481 0 .961.16 1.442.322.48.16.8.321 1.121.482.32.16.64.482.8.643.161.322.321.482.481.804.16.322.32.482.32.804.16.321.16.482.16.804v.803l-.32 6.11c0 .482 0 .804-.16 1.125-.16.322-.16.643-.481.965-.16.321-.48.482-.64.804-.32.16-.641.482-.961.643-.32.16-.801.321-1.121.482-.481.16-.801.16-1.442.322-.48.16-.96.16-1.601.16h-6.406l.16 4.502h22.101c-.16-.16-.48-.16-.64-.322-.321-.16-.481-.16-.801-.321-.321-.16-.481-.16-.801-.322-.32-.16-.641-.16-.961-.321v-.322c.481-.16.801-.16 1.281-.321a7.743 7.743 0 001.121-.483l.961-.482.961-.482c.321-.161.481-.322.801-.483.32-.16.48-.321.641-.482.16-.16.48-.321.64-.643.16-.16.321-.482.481-.643.16-.16.32-.482.48-.643.16-.16.32-.482.32-.643.161-.16.161-.483.321-.643.16-.161.16-.483.16-.804 0-.322.16-.482.16-.804 0-.322.16-.482.16-.804 0-.321.16-.482.16-.804 0-.321.161-.482.161-.803l.64-4.502c0-.322 0-.804.16-1.126v-1.125c0-.322-.16-.804-.16-1.125-.16-.483-.16-.804-.32-1.287a7.736 7.736 0 00-.481-1.125c-.16-.321-.48-.804-.64-1.125-.321-.322-.481-.804-.961-1.126-.32-.321-.641-.643-1.121-.964-.321-.322-.801-.643-1.281-.965-.481-.322-.961-.643-1.602-.804-.48-.321-1.121-.482-1.762-.804-.64-.321-1.281-.482-1.922-.643-.64-.16-1.441-.321-2.242-.482-.8-.16-1.601-.322-2.562-.322-.801-.16-1.762-.16-2.723-.321h-3.043z" fill="url(#paint23_linear)"/><path opacity=".7" d="M161.075 67.758c-1.922 0-3.843.16-5.445.321-1.762.161-3.363.483-4.805.804-1.441.322-2.882.804-4.164 1.447-1.281.643-2.402 1.286-3.523 1.93-.961.803-1.922 1.607-2.723 2.411-.8.804-1.281 1.768-1.761 2.733-.481.965-.801 1.93-.961 2.894-.16.965-.16 2.09-.16 3.215l15.054 1.126V82.87c0-.643.16-1.125.32-1.607.161-.483.321-.965.641-1.287.32-.321.481-.803.961-.964.32-.322.641-.483 1.121-.804.481-.16.801-.482 1.281-.482.481-.161.961-.322 1.602-.322.48 0 1.121-.16 1.762-.16.64 0 1.281 0 1.761.16.481 0 .961.16 1.442.322.48.16.8.321 1.121.482.32.16.64.482.8.643.161.322.321.482.481.804.16.322.32.482.32.804.16.321.16.482.16.804v.803l-.32 6.11c0 .482 0 .804-.16 1.125-.16.322-.16.643-.481.965-.16.321-.48.482-.64.804-.32.16-.641.482-.961.643-.32.16-.801.321-1.121.482-.481.16-.801.16-1.442.322-.48.16-.96.16-1.601.16h-6.406l.16 4.502h22.101c-.16-.16-.48-.16-.64-.322-.321-.16-.481-.16-.801-.321-.321-.16-.481-.16-.801-.322-.32-.16-.641-.16-.961-.321v-.322c.481-.16.801-.16 1.281-.321a7.743 7.743 0 001.121-.483l.961-.482.961-.482c.321-.161.481-.322.801-.483.32-.16.48-.321.641-.482.16-.16.48-.321.64-.643.16-.16.321-.482.481-.643.16-.16.32-.482.48-.643.16-.16.32-.482.32-.643.161-.16.161-.483.321-.643.16-.161.16-.483.16-.804 0-.322.16-.482.16-.804 0-.322.16-.482.16-.804 0-.321.16-.482.16-.804 0-.321.161-.482.161-.803l.64-4.502c0-.322 0-.804.16-1.126v-1.125c0-.322-.16-.804-.16-1.125-.16-.483-.16-.804-.32-1.287a7.736 7.736 0 00-.481-1.125c-.16-.321-.48-.804-.64-1.125-.321-.322-.481-.804-.961-1.126-.32-.321-.641-.643-1.121-.964-.321-.322-.801-.643-1.281-.965-.481-.322-.961-.643-1.602-.804-.48-.321-1.121-.482-1.762-.804-.64-.321-1.281-.482-1.922-.643-.64-.16-1.441-.321-2.242-.482-.8-.16-1.601-.322-2.562-.322-.801-.16-1.762-.16-2.723-.321h-3.043z" fill="#6D6E70"/></g><path d="M204.637 55.539c0 .16 0 .16 0 0s0-.482-.16-.643c0-.16 0-.483-.16-.643 0-.483-.32-.804-.48-1.126-.801-.964-2.082-1.125-3.364-1.125h-83.6c-.961 0-2.082.322-2.723.804-.48.321-.8.804-.961 1.447 0 .482-.16 1.447-.16 1.929.16-.965.961-1.608 1.762-1.93.641-.32 1.281-.32 2.082-.32h84.561c1.281.16 2.883.803 3.043 2.25.32 0 .16-.322.16-.643z" fill="#ADADAD"/><path d="M204.637 56.021c0-.16 0-.321-.16-.643 0-.16 0-.482-.16-.643 0-.321-.32-.804-.48-1.125-.801-.965-2.082-1.126-3.364-1.126h-83.6c-.961 0-2.082.322-2.723.804-.48.322-.8.804-.961 1.447 0 .483-.16 1.447-.16 1.93.16-.965.961-1.608 1.762-1.93.641-.321 1.281-.321 2.082-.321h84.561c1.281.16 2.883.803 3.043 2.25.32-.16.16-.482.16-.643z" fill="url(#paint24_radial)"/></g><path d="M240.705 147.475c-1.806 0-3.268-.601-4.386-1.803-1.118-1.202-1.676-2.491-1.676-3.865 0-.773.172-1.502.515-2.19l46.433-93.908c.86-1.803 2.408-2.705 4.644-2.705 1.461 0 2.88.558 4.256 1.675 1.462 1.03 2.193 2.404 2.193 4.122 0 .858-.172 1.631-.516 2.318l-46.433 93.522a4.023 4.023 0 01-2.064 2.061c-.86.516-1.849.773-2.966.773zm-6.449-47.405c-5.16 0-9.502-1.245-13.027-3.735-3.526-2.49-5.289-6.785-5.289-12.882V64.774c0-6.097 1.763-10.391 5.289-12.882 3.525-2.49 7.867-3.735 13.027-3.735 5.159 0 9.501 1.245 13.027 3.735 3.611 2.49 5.417 6.785 5.417 12.882v18.679c0 6.097-1.806 10.391-5.417 12.882-3.526 2.49-7.868 3.735-13.027 3.735zm0-9.661c2.321 0 4.127-.558 5.417-1.675 1.29-1.116 1.934-2.877 1.934-5.281V64.774c0-2.404-.644-4.165-1.934-5.281-1.29-1.117-3.096-1.675-5.417-1.675-4.816 0-7.223 2.319-7.223 6.956v18.679c0 4.637 2.407 6.956 7.223 6.956zm58.17 52.3c-5.246 0-9.631-1.245-13.156-3.736-3.526-2.49-5.288-6.784-5.288-12.881v-18.679c0-6.012 1.762-10.263 5.288-12.753 3.525-2.576 7.91-3.865 13.156-3.865 5.073 0 9.372 1.289 12.898 3.865 3.611 2.49 5.417 6.741 5.417 12.753v18.679c0 6.097-1.806 10.391-5.417 12.881-3.526 2.491-7.825 3.736-12.898 3.736zm0-9.661c2.235 0 3.998-.558 5.288-1.675 1.29-1.116 1.935-2.877 1.935-5.281v-18.679c0-2.405-.645-4.165-1.935-5.282-1.29-1.116-3.053-1.674-5.288-1.674-4.816 0-7.223 2.319-7.223 6.956v18.679c0 4.637 2.407 6.956 7.223 6.956z" fill="url(#paint25_linear)"/><path d="M4 24C4 10.745 14.745 0 28 0h155.515l-49.177 195H28c-13.255 0-24-10.745-24-24V24z" fill="url(#paint26_linear)"/><rect x="10.5" y="6.5" width="334" height="182" rx="17.5" stroke="#DBDBDB" stroke-width="13"/></g><defs><linearGradient id="paint0_linear" x1="177.5" y1="0" x2="177.5" y2="195" gradientUnits="userSpaceOnUse"><stop stop-color="#393937"/><stop offset="1" stop-color="#31302E"/></linearGradient><linearGradient id="paint1_linear" x1="71.584" y1="96.602" x2="71.584" y2="168.603" gradientUnits="userSpaceOnUse"><stop stop-color="#3B3B3B"/><stop offset=".935" stop-color="#333"/></linearGradient><linearGradient id="paint2_linear" x1="71.508" y1="-.931" x2="71.508" y2="113.79" gradientUnits="userSpaceOnUse"><stop stop-color="#363636"/><stop offset=".49" stop-color="#343434"/><stop offset=".767" stop-color="#2B2B2B"/><stop offset=".947" stop-color="#212121"/></linearGradient><linearGradient id="paint3_linear" x1="71.563" y1="178.359" x2="71.563" y2="41.136" gradientUnits="userSpaceOnUse"><stop stop-color="#231F20"/><stop offset=".582" stop-color="#fff"/><stop offset=".583" stop-color="#F7F7F7"/><stop offset=".586" stop-color="#CCC"/><stop offset=".59" stop-color="#ABABAB"/><stop offset=".593" stop-color="#939393"/><stop offset=".596" stop-color="#858585"/><stop offset=".598" stop-color="gray"/><stop offset=".698" stop-color="#AFAFAF"/><stop offset=".805" stop-color="#DADADA"/><stop offset=".889" stop-color="#F5F5F5"/><stop offset=".938" stop-color="#fff"/></linearGradient><linearGradient id="paint4_linear" x1="106.113" y1="85.999" x2="106.113" y2="109.638" gradientUnits="userSpaceOnUse"><stop/><stop offset=".011" stop-color="#090909"/><stop offset=".039" stop-color="#1A1A1A"/><stop offset=".074" stop-color="#252525"/><stop offset=".123" stop-color="#2C2C2C"/><stop offset=".26" stop-color="#2E2E2E"/><stop offset=".823" stop-color="#141313"/><stop offset=".88" stop-color="#1B1A1A"/><stop offset=".934" stop-color="#262626"/><stop offset=".949" stop-color="#242424"/><stop offset=".957" stop-color="#1C1C1C"/><stop offset=".963" stop-color="#0F0F0F"/><stop offset=".967"/></linearGradient><linearGradient id="paint5_linear" x1="37.026" y1="85.999" x2="37.026" y2="109.638" gradientUnits="userSpaceOnUse"><stop/><stop offset=".011" stop-color="#090909"/><stop offset=".039" stop-color="#1A1A1A"/><stop offset=".074" stop-color="#252525"/><stop offset=".123" stop-color="#2C2C2C"/><stop offset=".26" stop-color="#2E2E2E"/><stop offset=".823" stop-color="#141313"/><stop offset=".88" stop-color="#1B1A1A"/><stop offset=".934" stop-color="#262626"/><stop offset=".949" stop-color="#242424"/><stop offset=".957" stop-color="#1C1C1C"/><stop offset=".963" stop-color="#0F0F0F"/><stop offset=".967"/></linearGradient><linearGradient id="paint6_linear" x1="158.565" y1="96.602" x2="158.565" y2="168.603" gradientUnits="userSpaceOnUse"><stop stop-color="#3B3B3B"/><stop offset=".935" stop-color="#333"/></linearGradient><linearGradient id="paint7_linear" x1="158.49" y1="-.931" x2="158.49" y2="113.79" gradientUnits="userSpaceOnUse"><stop stop-color="#363636"/><stop offset=".49" stop-color="#343434"/><stop offset=".767" stop-color="#2B2B2B"/><stop offset=".947" stop-color="#212121"/></linearGradient><linearGradient id="paint8_linear" x1="158.544" y1="178.359" x2="158.544" y2="41.136" gradientUnits="userSpaceOnUse"><stop stop-color="#231F20"/><stop offset=".582" stop-color="#fff"/><stop offset=".583" stop-color="#F7F7F7"/><stop offset=".586" stop-color="#CCC"/><stop offset=".59" stop-color="#ABABAB"/><stop offset=".593" stop-color="#939393"/><stop offset=".596" stop-color="#858585"/><stop offset=".598" stop-color="gray"/><stop offset=".698" stop-color="#AFAFAF"/><stop offset=".805" stop-color="#DADADA"/><stop offset=".889" stop-color="#F5F5F5"/><stop offset=".938" stop-color="#fff"/></linearGradient><linearGradient id="paint9_linear" x1="193.094" y1="85.999" x2="193.094" y2="109.638" gradientUnits="userSpaceOnUse"><stop/><stop offset=".011" stop-color="#090909"/><stop offset=".039" stop-color="#1A1A1A"/><stop offset=".074" stop-color="#252525"/><stop offset=".123" stop-color="#2C2C2C"/><stop offset=".26" stop-color="#2E2E2E"/><stop offset=".823" stop-color="#141313"/><stop offset=".88" stop-color="#1B1A1A"/><stop offset=".934" stop-color="#262626"/><stop offset=".949" stop-color="#242424"/><stop offset=".957" stop-color="#1C1C1C"/><stop offset=".963" stop-color="#0F0F0F"/><stop offset=".967"/></linearGradient><linearGradient id="paint10_linear" x1="124.007" y1="85.999" x2="124.007" y2="109.638" gradientUnits="userSpaceOnUse"><stop/><stop offset=".011" stop-color="#090909"/><stop offset=".039" stop-color="#1A1A1A"/><stop offset=".074" stop-color="#252525"/><stop offset=".123" stop-color="#2C2C2C"/><stop offset=".26" stop-color="#2E2E2E"/><stop offset=".823" stop-color="#141313"/><stop offset=".88" stop-color="#1B1A1A"/><stop offset=".934" stop-color="#262626"/><stop offset=".949" stop-color="#242424"/><stop offset=".957" stop-color="#1C1C1C"/><stop offset=".963" stop-color="#0F0F0F"/><stop offset=".967"/></linearGradient><linearGradient id="paint11_linear" x1="158.565" y1="96.602" x2="158.565" y2="168.603" gradientUnits="userSpaceOnUse"><stop stop-color="#3B3B3B"/><stop offset=".935" stop-color="#333"/></linearGradient><linearGradient id="paint12_linear" x1="158.49" y1="-.931" x2="158.49" y2="113.79" gradientUnits="userSpaceOnUse"><stop stop-color="#363636"/><stop offset=".49" stop-color="#343434"/><stop offset=".767" stop-color="#2B2B2B"/><stop offset=".947" stop-color="#212121"/></linearGradient><linearGradient id="paint13_linear" x1="157.77" y1="178.559" x2="157.77" y2="41.338" gradientUnits="userSpaceOnUse"><stop stop-color="#231F20"/><stop offset=".582" stop-color="#fff"/><stop offset=".583" stop-color="#F7F7F7"/><stop offset=".586" stop-color="#CCC"/><stop offset=".59" stop-color="#ABABAB"/><stop offset=".593" stop-color="#939393"/><stop offset=".596" stop-color="#858585"/><stop offset=".598" stop-color="gray"/><stop offset=".698" stop-color="#AFAFAF"/><stop offset=".805" stop-color="#DADADA"/><stop offset=".889" stop-color="#F5F5F5"/><stop offset=".938" stop-color="#fff"/></linearGradient><linearGradient id="paint14_linear" x1="193.094" y1="85.999" x2="193.094" y2="109.638" gradientUnits="userSpaceOnUse"><stop/><stop offset=".011" stop-color="#090909"/><stop offset=".039" stop-color="#1A1A1A"/><stop offset=".074" stop-color="#252525"/><stop offset=".123" stop-color="#2C2C2C"/><stop offset=".26" stop-color="#2E2E2E"/><stop offset=".823" stop-color="#141313"/><stop offset=".88" stop-color="#1B1A1A"/><stop offset=".934" stop-color="#262626"/><stop offset=".949" stop-color="#242424"/><stop offset=".957" stop-color="#1C1C1C"/><stop offset=".963" stop-color="#0F0F0F"/><stop offset=".967"/></linearGradient><linearGradient id="paint15_linear" x1="124.007" y1="85.999" x2="124.007" y2="109.638" gradientUnits="userSpaceOnUse"><stop/><stop offset=".011" stop-color="#090909"/><stop offset=".039" stop-color="#1A1A1A"/><stop offset=".074" stop-color="#252525"/><stop offset=".123" stop-color="#2C2C2C"/><stop offset=".26" stop-color="#2E2E2E"/><stop offset=".823" stop-color="#141313"/><stop offset=".88" stop-color="#1B1A1A"/><stop offset=".934" stop-color="#262626"/><stop offset=".949" stop-color="#242424"/><stop offset=".957" stop-color="#1C1C1C"/><stop offset=".963" stop-color="#0F0F0F"/><stop offset=".967"/></linearGradient><linearGradient id="paint16_linear" x1="159.247" y1="96.602" x2="159.247" y2="168.603" gradientUnits="userSpaceOnUse"><stop stop-color="#3B3B3B"/><stop offset=".935" stop-color="#333"/></linearGradient><linearGradient id="paint17_linear" x1="159.688" y1="178.403" x2="159.688" y2="41.18" gradientUnits="userSpaceOnUse"><stop stop-color="#231F20"/><stop offset=".582" stop-color="#fff"/><stop offset=".583" stop-color="#F7F7F7"/><stop offset=".586" stop-color="#CCC"/><stop offset=".59" stop-color="#ABABAB"/><stop offset=".593" stop-color="#939393"/><stop offset=".596" stop-color="#858585"/><stop offset=".598" stop-color="gray"/><stop offset=".698" stop-color="#AFAFAF"/><stop offset=".805" stop-color="#DADADA"/><stop offset=".889" stop-color="#F5F5F5"/><stop offset=".938" stop-color="#fff"/></linearGradient><linearGradient id="paint18_linear" x1="159.192" y1="-.932" x2="159.192" y2="113.789" gradientUnits="userSpaceOnUse"><stop stop-color="#158A33"/><stop offset=".49" stop-color="#0A9F30"/><stop offset=".767" stop-color="#0E9931"/><stop offset=".947" stop-color="#256536"/></linearGradient><linearGradient id="paint19_linear" x1="159.449" y1="91.828" x2="159.449" y2="144.251" gradientUnits="userSpaceOnUse"><stop offset=".12" stop-opacity=".77"/><stop offset=".914" stop-opacity="0"/></linearGradient><linearGradient id="paint20_linear" x1="193.611" y1="85.999" x2="193.611" y2="109.638" gradientUnits="userSpaceOnUse"><stop/><stop offset=".056" stop-color="#0B0B0B"/><stop offset=".136" stop-color="#121212"/><stop offset=".359" stop-color="#141414"/><stop offset=".823" stop-color="#141313"/><stop offset=".88" stop-color="#1B1A1A"/><stop offset=".934" stop-color="#262626"/><stop offset=".949" stop-color="#242424"/><stop offset=".957" stop-color="#1C1C1C"/><stop offset=".963" stop-color="#0F0F0F"/><stop offset=".967"/></linearGradient><linearGradient id="paint21_linear" x1="124.854" y1="85.999" x2="124.854" y2="109.638" gradientUnits="userSpaceOnUse"><stop/><stop offset=".056" stop-color="#0B0B0B"/><stop offset=".136" stop-color="#121212"/><stop offset=".359" stop-color="#141414"/><stop offset=".823" stop-color="#141313"/><stop offset=".88" stop-color="#1B1A1A"/><stop offset=".934" stop-color="#262626"/><stop offset=".949" stop-color="#242424"/><stop offset=".957" stop-color="#1C1C1C"/><stop offset=".963" stop-color="#0F0F0F"/><stop offset=".967"/></linearGradient><linearGradient id="paint23_linear" x1="159.729" y1="52.218" x2="159.729" y2="123.567" gradientUnits="userSpaceOnUse"><stop offset=".067" stop-color="#4D4D4D"/><stop offset=".248" stop-color="#505050"/><stop offset=".389" stop-color="#5A5A5A"/><stop offset=".517" stop-color="#6B6B6B"/><stop offset=".637" stop-color="#828282"/><stop offset=".752" stop-color="#A0A0A0"/><stop offset=".863" stop-color="#C5C5C5"/><stop offset=".969" stop-color="#F1F1F1"/><stop offset="1" stop-color="#fff"/></linearGradient><linearGradient id="paint25_linear" x1="262.698" y1="37.891" x2="262.698" y2="146.724" gradientUnits="userSpaceOnUse"><stop stop-color="#fff"/><stop offset="1" stop-color="#A8A8A8"/></linearGradient><linearGradient id="paint26_linear" x1="213.5" y1="0" x2="213.5" y2="195" gradientUnits="userSpaceOnUse"><stop stop-color="#fff" stop-opacity=".15"/><stop offset="1" stop-color="#fff" stop-opacity=".13"/></linearGradient><clipPath id="clip0"><path fill="#fff" transform="translate(32.685 27.726)" d="M0 0h77.728v139.55H0z"/></clipPath><clipPath id="clip1"><path fill="#fff" transform="translate(119.667 27.726)" d="M0 0h77.728v139.55H0z"/></clipPath><clipPath id="clip2"><path fill="#fff" transform="translate(119.667 27.726)" d="M0 0h77.728v139.55H0z"/></clipPath><clipPath id="clip3"><path fill="#fff" transform="translate(113.189 27.726)" d="M0 0h91.608v139.55H0z"/></clipPath><radialGradient id="paint22_radial" cx="0" cy="0" r="1" gradientUnits="userSpaceOnUse" gradientTransform="matrix(100.554 0 0 43.6278 158.073 106.505)"><stop offset=".003" stop-color="#2B2B2B"/><stop offset=".388" stop-color="#232323"/><stop offset=".906" stop-color="#1F1F1F"/></radialGradient><radialGradient id="paint24_radial" cx="0" cy="0" r="1" gradientUnits="userSpaceOnUse" gradientTransform="matrix(64.7983 0 0 65.0483 158.976 54.61)"><stop offset=".01" stop-color="#5C5C5C"/><stop offset=".366" stop-color="#5A5A5A"/><stop offset=".494" stop-color="#535353"/><stop offset=".585" stop-color="#484848"/><stop offset=".658" stop-color="#373737"/><stop offset=".661" stop-color="#363636"/><stop offset=".666" stop-color="#3B3B3B"/><stop offset=".693" stop-color="#535353"/><stop offset=".71" stop-color="#5C5C5C"/></radialGradient><filter id="filter0_d" x="0" y="0" width="355" height="203" filterUnits="userSpaceOnUse" color-interpolation-filters="sRGB"><feFlood flood-opacity="0" result="BackgroundImageFix"/><feColorMatrix in="SourceAlpha" values="0 0 0 0 0 0 0 0 0 0 0 0 0 0 0 0 0 0 127 0"/><feOffset dy="4"/><feGaussianBlur stdDeviation="2"/><feColorMatrix values="0 0 0 0 0 0 0 0 0 0 0 0 0 0 0 0 0 0 0.25 0"/><feBlend in2="BackgroundImageFix" result="effect1_dropShadow"/><feBlend in="SourceGraphic" in2="effect1_dropShadow" result="shape"/></filter></defs></svg>