<svg width="347" height="195" viewBox="0 0 347 195" fill="none" xmlns="http://www.w3.org/2000/svg">
<rect x="10" y="10" width="327" height="175" rx="14" fill="url(#paint0_linear)" stroke="#2B2B29" stroke-width="20"/>
<g clip-path="url(#clip0)">
<path d="M106.413 97.5C106.413 97.0177 106.413 95.0884 106.413 92.9984V31.4228C106.413 29.3328 104.804 27.7251 102.712 27.7251H32.3867C30.2946 27.7251 28.6853 29.3328 28.6853 31.4228V92.9984C28.6853 95.0884 28.6853 97.0177 28.6853 97.5C28.6853 97.9823 28.6853 99.9116 28.6853 102.002V163.577C28.6853 165.667 30.2946 167.275 32.3867 167.275H102.712C104.804 167.275 106.413 165.667 106.413 163.577V102.002C106.413 99.9116 106.413 97.9823 106.413 97.5Z" fill="#0C0C0C"/>
<path d="M103.195 97.0177V35.6029C103.195 33.6736 101.586 32.0659 99.6544 32.0659H35.2834C33.3522 32.0659 31.743 33.6736 31.743 35.6029V97.0177" fill="#494949"/>
<path d="M31.9039 98.4648V159.88C31.9039 161.809 33.5131 163.417 35.4443 163.417H99.8153C101.746 163.417 103.356 161.809 103.356 159.88V98.4648" fill="url(#paint1_linear)"/>
<path d="M103.195 97.9824V36.7284C103.195 34.7991 101.586 33.1914 99.6544 33.1914H35.2834C33.3522 33.1914 31.743 34.7991 31.743 36.7284V98.1431" fill="url(#paint2_linear)"/>
<path opacity="0.7" d="M103.034 97.3389H31.743V98.1427H103.034V97.3389Z" fill="#0E0E0E"/>
<path opacity="0.6588" d="M103.034 97.0171H31.743V97.8209H103.034V97.0171Z" fill="#0E0E0E"/>
<path opacity="0.6176" d="M103.034 96.8569H31.743V97.8216H103.034V96.8569Z" fill="#0E0E0E"/>
<path opacity="0.5765" d="M103.034 96.5352H31.743V97.6606H103.034V96.5352Z" fill="#0E0E0E"/>
<path opacity="0.5353" d="M103.034 96.3745H31.743V97.4999H103.034V96.3745Z" fill="#0E0E0E"/>
<path opacity="0.4941" d="M103.034 96.0527H31.743V97.3389H103.034V96.0527Z" fill="#0E0E0E"/>
<path opacity="0.4529" d="M103.034 95.731H31.743V97.1779H103.034V95.731Z" fill="#0E0E0E"/>
<path opacity="0.4118" d="M103.034 95.5708H31.743V97.0177H103.034V95.5708Z" fill="#0E0E0E"/>
<path opacity="0.3706" d="M103.034 95.249H31.743V96.8567H103.034V95.249Z" fill="#0E0E0E"/>
<path opacity="0.3294" d="M103.034 94.9272H31.743V96.6957H103.034V94.9272Z" fill="#0E0E0E"/>
<path opacity="0.2882" d="M103.034 94.7666H31.743V96.5351H103.034V94.7666Z" fill="#0E0E0E"/>
<path opacity="0.2471" d="M103.034 94.4453H31.743V96.3746H103.034V94.4453Z" fill="#0E0E0E"/>
<path opacity="0.2059" d="M103.034 94.2847H31.743V96.3747H103.034V94.2847Z" fill="#0E0E0E"/>
<path opacity="0.1647" d="M103.034 93.9629H31.743V96.0529H103.034V93.9629Z" fill="#0E0E0E"/>
<path opacity="0.1235" d="M103.034 93.6411H31.743V95.8919H103.034V93.6411Z" fill="#0E0E0E"/>
<path opacity="0.082353" d="M103.034 93.4805H31.743V95.892H103.034V93.4805Z" fill="#0E0E0E"/>
<path opacity="0.041176" d="M103.034 93.1592H31.743V95.5708H103.034V93.1592Z" fill="#0E0E0E"/>
<path opacity="0.3" d="M103.195 98.7861H31.9039V99.59H103.195V98.7861Z" fill="#4C4C4C"/>
<path opacity="0.2824" d="M103.195 98.7861H31.9039V99.59H103.195V98.7861Z" fill="#4C4C4C"/>
<path opacity="0.2647" d="M103.195 98.9468H31.9039V99.9114H103.195V98.9468Z" fill="#4C4C4C"/>
<path opacity="0.2471" d="M103.195 98.9468H31.9039V100.072H103.195V98.9468Z" fill="#4C4C4C"/>
<path opacity="0.2294" d="M103.195 99.1079H31.9039V100.233H103.195V99.1079Z" fill="#4C4C4C"/>
<path opacity="0.2118" d="M103.195 99.1079H31.9039V100.394H103.195V99.1079Z" fill="#4C4C4C"/>
<path opacity="0.1941" d="M103.195 99.2686H31.9039V100.715H103.195V99.2686Z" fill="#4C4C4C"/>
<path opacity="0.1765" d="M103.195 99.2686H31.9039V100.715H103.195V99.2686Z" fill="#4C4C4C"/>
<path opacity="0.1588" d="M103.195 99.4292H31.9039V101.037H103.195V99.4292Z" fill="#4C4C4C"/>
<path opacity="0.1412" d="M103.195 99.5898H31.9039V101.358H103.195V99.5898Z" fill="#4C4C4C"/>
<path opacity="0.1235" d="M103.195 99.5898H31.9039V101.358H103.195V99.5898Z" fill="#4C4C4C"/>
<path opacity="0.1059" d="M103.195 99.7505H31.9039V101.68H103.195V99.7505Z" fill="#4C4C4C"/>
<path opacity="0.088235" d="M103.195 99.7505H31.9039V101.841H103.195V99.7505Z" fill="#4C4C4C"/>
<path opacity="0.070588" d="M103.195 99.9116H31.9039V102.002H103.195V99.9116Z" fill="#4C4C4C"/>
<path opacity="0.052941" d="M103.195 99.9116H31.9039V102.162H103.195V99.9116Z" fill="#4C4C4C"/>
<path opacity="0.035294" d="M103.195 100.072H31.9039V102.484H103.195V100.072Z" fill="#4C4C4C"/>
<path opacity="0.017647" d="M103.195 100.072H31.9039V102.484H103.195V100.072Z" fill="#4C4C4C"/>
<path d="M106.091 85.2812H99.3325V110.201H106.091V85.2812Z" fill="#0C0C0C"/>
<path d="M35.7662 85.2812H29.0072V110.201H35.7662V85.2812Z" fill="#0C0C0C"/>
<path d="M89.1941 126.76C89.1941 130.136 88.5504 133.03 87.4239 135.603C86.2974 138.175 84.6881 140.426 82.757 142.194C80.8259 143.963 78.5729 145.41 75.9981 146.214C73.4232 147.178 70.6874 147.5 67.6298 147.5C64.5722 147.5 61.8364 147.017 59.1007 146.214C56.5258 145.249 54.2728 143.963 52.3417 142.194C50.4106 140.426 48.8013 138.175 47.6748 135.603C46.5483 133.03 45.9046 129.976 45.9046 126.76V68.4001C45.9046 65.0239 46.5483 62.13 47.6748 59.3969C48.8013 56.8245 50.4106 54.5737 52.3417 52.8052C54.2728 51.0367 56.5258 49.5898 59.1007 48.6252C61.6755 47.6605 64.5722 47.1782 67.6298 47.1782C74.0669 47.1782 79.2166 48.9467 83.0789 52.6445C87.1021 56.3422 89.0332 61.4869 89.0332 68.2393V126.76H89.1941ZM73.7451 67.757C73.7451 65.8277 73.1014 64.3808 71.9749 63.2554C70.8484 62.13 69.2391 61.6477 67.4689 61.6477C65.5378 61.6477 64.0894 62.13 62.802 63.2554C61.5146 64.3808 61.0318 65.8277 61.0318 67.757V127.242C61.0318 129.172 61.6755 130.619 62.802 131.744C64.0894 132.869 65.5378 133.352 67.4689 133.352C69.2391 133.352 70.6874 132.869 71.9749 131.744C73.1014 130.619 73.7451 129.172 73.7451 127.242V67.757Z" fill="url(#paint3_linear)"/>
<path d="M106.574 97.5H31.9039V98.6254H106.574V97.5Z" fill="#0C0C0C"/>
<path d="M103.999 85.9243H100.298V109.236H103.999V85.9243Z" fill="url(#paint4_linear)"/>
<path d="M34.9615 85.9243H31.2602V109.236H34.9615V85.9243Z" fill="url(#paint5_linear)"/>
<path opacity="0.2" d="M100.942 85.9243H100.298V109.236H100.942V85.9243Z" fill="#414141"/>
<path opacity="0.2" d="M103.999 85.9243H103.356V109.236H103.999V85.9243Z" fill="#414141"/>
<path opacity="0.2" d="M31.9039 85.9243H31.2602V109.236H31.9039V85.9243Z" fill="#414141"/>
<path opacity="0.2" d="M34.8006 85.9243H34.1569V109.236H34.8006V85.9243Z" fill="#414141"/>
</g>
<g clip-path="url(#clip1)">
<path d="M193.395 97.5C193.395 97.0177 193.395 95.0884 193.395 92.9984V31.4228C193.395 29.3328 191.785 27.7251 189.693 27.7251H119.368C117.276 27.7251 115.667 29.3328 115.667 31.4228V92.9984C115.667 95.0884 115.667 97.0177 115.667 97.5C115.667 97.9823 115.667 99.9116 115.667 102.002V163.577C115.667 165.667 117.276 167.275 119.368 167.275H189.693C191.785 167.275 193.395 165.667 193.395 163.577V102.002C193.395 99.9116 193.395 97.9823 193.395 97.5Z" fill="#0C0C0C"/>
<path d="M190.176 97.0177V35.6029C190.176 33.6736 188.567 32.0659 186.636 32.0659H122.265C120.334 32.0659 118.724 33.6736 118.724 35.6029V97.0177" fill="#494949"/>
<path d="M118.885 98.4648V159.88C118.885 161.809 120.494 163.417 122.426 163.417H186.797C188.728 163.417 190.337 161.809 190.337 159.88V98.4648" fill="url(#paint6_linear)"/>
<path d="M190.176 97.9824V36.7284C190.176 34.7991 188.567 33.1914 186.636 33.1914H122.265C120.334 33.1914 118.724 34.7991 118.724 36.7284V98.1431" fill="url(#paint7_linear)"/>
<path opacity="0.7" d="M190.015 97.3389H118.724V98.1427H190.015V97.3389Z" fill="#0E0E0E"/>
<path opacity="0.6588" d="M190.015 97.0171H118.724V97.8209H190.015V97.0171Z" fill="#0E0E0E"/>
<path opacity="0.6176" d="M190.015 96.8569H118.724V97.8216H190.015V96.8569Z" fill="#0E0E0E"/>
<path opacity="0.5765" d="M190.015 96.5352H118.724V97.6606H190.015V96.5352Z" fill="#0E0E0E"/>
<path opacity="0.5353" d="M190.015 96.3745H118.724V97.4999H190.015V96.3745Z" fill="#0E0E0E"/>
<path opacity="0.4941" d="M190.015 96.0527H118.724V97.3389H190.015V96.0527Z" fill="#0E0E0E"/>
<path opacity="0.4529" d="M190.015 95.731H118.724V97.1779H190.015V95.731Z" fill="#0E0E0E"/>
<path opacity="0.4118" d="M190.015 95.5708H118.724V97.0177H190.015V95.5708Z" fill="#0E0E0E"/>
<path opacity="0.3706" d="M190.015 95.249H118.724V96.8567H190.015V95.249Z" fill="#0E0E0E"/>
<path opacity="0.3294" d="M190.015 94.9272H118.724V96.6957H190.015V94.9272Z" fill="#0E0E0E"/>
<path opacity="0.2882" d="M190.015 94.7666H118.724V96.5351H190.015V94.7666Z" fill="#0E0E0E"/>
<path opacity="0.2471" d="M190.015 94.4453H118.724V96.3746H190.015V94.4453Z" fill="#0E0E0E"/>
<path opacity="0.2059" d="M190.015 94.2847H118.724V96.3747H190.015V94.2847Z" fill="#0E0E0E"/>
<path opacity="0.1647" d="M190.015 93.9629H118.724V96.0529H190.015V93.9629Z" fill="#0E0E0E"/>
<path opacity="0.1235" d="M190.015 93.6411H118.724V95.8919H190.015V93.6411Z" fill="#0E0E0E"/>
<path opacity="0.082353" d="M190.015 93.4805H118.724V95.892H190.015V93.4805Z" fill="#0E0E0E"/>
<path opacity="0.041176" d="M190.015 93.1592H118.724V95.5708H190.015V93.1592Z" fill="#0E0E0E"/>
<path opacity="0.3" d="M190.176 98.7861H118.885V99.59H190.176V98.7861Z" fill="#4C4C4C"/>
<path opacity="0.2824" d="M190.176 98.7861H118.885V99.59H190.176V98.7861Z" fill="#4C4C4C"/>
<path opacity="0.2647" d="M190.176 98.9468H118.885V99.9114H190.176V98.9468Z" fill="#4C4C4C"/>
<path opacity="0.2471" d="M190.176 98.9468H118.885V100.072H190.176V98.9468Z" fill="#4C4C4C"/>
<path opacity="0.2294" d="M190.176 99.1079H118.885V100.233H190.176V99.1079Z" fill="#4C4C4C"/>
<path opacity="0.2118" d="M190.176 99.1079H118.885V100.394H190.176V99.1079Z" fill="#4C4C4C"/>
<path opacity="0.1941" d="M190.176 99.2686H118.885V100.715H190.176V99.2686Z" fill="#4C4C4C"/>
<path opacity="0.1765" d="M190.176 99.2686H118.885V100.715H190.176V99.2686Z" fill="#4C4C4C"/>
<path opacity="0.1588" d="M190.176 99.4292H118.885V101.037H190.176V99.4292Z" fill="#4C4C4C"/>
<path opacity="0.1412" d="M190.176 99.5898H118.885V101.358H190.176V99.5898Z" fill="#4C4C4C"/>
<path opacity="0.1235" d="M190.176 99.5898H118.885V101.358H190.176V99.5898Z" fill="#4C4C4C"/>
<path opacity="0.1059" d="M190.176 99.7505H118.885V101.68H190.176V99.7505Z" fill="#4C4C4C"/>
<path opacity="0.088235" d="M190.176 99.7505H118.885V101.841H190.176V99.7505Z" fill="#4C4C4C"/>
<path opacity="0.070588" d="M190.176 99.9116H118.885V102.002H190.176V99.9116Z" fill="#4C4C4C"/>
<path opacity="0.052941" d="M190.176 99.9116H118.885V102.162H190.176V99.9116Z" fill="#4C4C4C"/>
<path opacity="0.035294" d="M190.176 100.072H118.885V102.484H190.176V100.072Z" fill="#4C4C4C"/>
<path opacity="0.017647" d="M190.176 100.072H118.885V102.484H190.176V100.072Z" fill="#4C4C4C"/>
<path d="M193.073 85.2812H186.314V110.201H193.073V85.2812Z" fill="#0C0C0C"/>
<path d="M122.747 85.2812H115.989V110.201H122.747V85.2812Z" fill="#0C0C0C"/>
<path d="M176.175 126.76C176.175 130.136 175.532 133.03 174.405 135.603C173.279 138.175 171.669 140.426 169.738 142.194C167.807 143.963 165.554 145.41 162.979 146.214C160.405 147.178 157.669 147.5 154.611 147.5C151.554 147.5 148.818 147.017 146.082 146.214C143.507 145.249 141.254 143.963 139.323 142.194C137.392 140.426 135.783 138.175 134.656 135.603C133.53 133.03 132.886 129.976 132.886 126.76V68.4001C132.886 65.0239 133.53 62.13 134.656 59.3969C135.783 56.8245 137.392 54.5737 139.323 52.8052C141.254 51.0367 143.507 49.5898 146.082 48.6252C148.657 47.6605 151.554 47.1782 154.611 47.1782C161.048 47.1782 166.198 48.9467 170.06 52.6445C174.083 56.3422 176.015 61.4869 176.015 68.2393V126.76H176.175ZM160.726 67.757C160.726 65.8277 160.083 64.3808 158.956 63.2554C157.83 62.13 156.22 61.6477 154.45 61.6477C152.519 61.6477 151.071 62.13 149.783 63.2554C148.496 64.3808 148.013 65.8277 148.013 67.757V127.242C148.013 129.172 148.657 130.619 149.783 131.744C151.071 132.869 152.519 133.352 154.45 133.352C156.22 133.352 157.669 132.869 158.956 131.744C160.083 130.619 160.726 129.172 160.726 127.242V67.757Z" fill="url(#paint8_linear)"/>
<path d="M193.556 97.5H118.885V98.6254H193.556V97.5Z" fill="#0C0C0C"/>
<path d="M190.981 85.9243H187.279V109.236H190.981V85.9243Z" fill="url(#paint9_linear)"/>
<path d="M121.943 85.9243H118.242V109.236H121.943V85.9243Z" fill="url(#paint10_linear)"/>
<path opacity="0.2" d="M187.923 85.9243H187.279V109.236H187.923V85.9243Z" fill="#414141"/>
<path opacity="0.2" d="M190.981 85.9243H190.337V109.236H190.981V85.9243Z" fill="#414141"/>
<path opacity="0.2" d="M118.885 85.9243H118.242V109.236H118.885V85.9243Z" fill="#414141"/>
<path opacity="0.2" d="M121.782 85.9243H121.138V109.236H121.782V85.9243Z" fill="#414141"/>
</g>
<path d="M236.705 147.475C234.899 147.475 233.437 146.874 232.319 145.671C231.201 144.469 230.643 143.181 230.643 141.807C230.643 141.034 230.815 140.304 231.158 139.617L277.591 45.7086C278.451 43.9051 279.999 43.0034 282.235 43.0034C283.696 43.0034 285.115 43.5616 286.491 44.6781C287.953 45.7086 288.684 47.0827 288.684 48.8002C288.684 49.659 288.512 50.4319 288.168 51.119L241.735 144.641C241.305 145.586 240.617 146.273 239.671 146.702C238.811 147.217 237.822 147.475 236.705 147.475ZM230.256 100.07C225.096 100.07 220.754 98.8246 217.229 96.3341C213.703 93.8436 211.94 89.5497 211.94 83.4523V64.7737C211.94 58.6763 213.703 54.3823 217.229 51.8919C220.754 49.4014 225.096 48.1561 230.256 48.1561C235.415 48.1561 239.757 49.4014 243.283 51.8919C246.894 54.3823 248.7 58.6763 248.7 64.7737V83.4523C248.7 89.5497 246.894 93.8436 243.283 96.3341C239.757 98.8246 235.415 100.07 230.256 100.07ZM230.256 90.4085C232.577 90.4085 234.383 89.8503 235.673 88.7338C236.963 87.6174 237.607 85.8569 237.607 83.4523V64.7737C237.607 62.3691 236.963 60.6086 235.673 59.4921C234.383 58.3757 232.577 57.8175 230.256 57.8175C225.44 57.8175 223.033 60.1362 223.033 64.7737V83.4523C223.033 88.0898 225.44 90.4085 230.256 90.4085ZM288.426 142.709C283.18 142.709 278.795 141.463 275.27 138.973C271.744 136.482 269.982 132.188 269.982 126.091V107.412C269.982 101.401 271.744 97.15 275.27 94.6595C278.795 92.0831 283.18 90.7949 288.426 90.7949C293.499 90.7949 297.798 92.0831 301.324 94.6595C304.935 97.15 306.741 101.401 306.741 107.412V126.091C306.741 132.188 304.935 136.482 301.324 138.973C297.798 141.463 293.499 142.709 288.426 142.709ZM288.426 133.047C290.661 133.047 292.424 132.489 293.714 131.373C295.004 130.256 295.649 128.496 295.649 126.091V107.412C295.649 105.008 295.004 103.247 293.714 102.131C292.424 101.015 290.661 100.456 288.426 100.456C283.61 100.456 281.203 102.775 281.203 107.412V126.091C281.203 130.729 283.61 133.047 288.426 133.047Z" fill="url(#paint11_linear)"/>
<path d="M0 24C0 10.7452 10.7452 0 24 0H179.515L130.338 195H24C10.7452 195 0 184.255 0 171V24Z" fill="url(#paint12_linear)"/>
<rect x="6.5" y="6.5" width="334" height="182" rx="17.5" stroke="#DBDBDB" stroke-width="13"/>
<defs>
<linearGradient id="paint0_linear" x1="173.5" y1="0" x2="173.5" y2="195" gradientUnits="userSpaceOnUse">
<stop stop-color="#393937"/>
<stop offset="1" stop-color="#31302E"/>
</linearGradient>
<linearGradient id="paint1_linear" x1="67.5838" y1="96.6021" x2="67.5838" y2="168.603" gradientUnits="userSpaceOnUse">
<stop stop-color="#3B3B3B"/>
<stop offset="0.9352" stop-color="#333333"/>
</linearGradient>
<linearGradient id="paint2_linear" x1="67.5085" y1="-0.931889" x2="67.5085" y2="113.789" gradientUnits="userSpaceOnUse">
<stop stop-color="#363636"/>
<stop offset="0.4899" stop-color="#343434"/>
<stop offset="0.767" stop-color="#2B2B2B"/>
<stop offset="0.9467" stop-color="#212121"/>
</linearGradient>
<linearGradient id="paint3_linear" x1="67.5626" y1="178.358" x2="67.5626" y2="41.1355" gradientUnits="userSpaceOnUse">
<stop stop-color="#231F20"/>
<stop offset="0.5822" stop-color="white"/>
<stop offset="0.5828" stop-color="#F7F7F7"/>
<stop offset="0.5862" stop-color="#CCCCCC"/>
<stop offset="0.5896" stop-color="#ABABAB"/>
<stop offset="0.5927" stop-color="#939393"/>
<stop offset="0.5957" stop-color="#858585"/>
<stop offset="0.5982" stop-color="#808080"/>
<stop offset="0.6978" stop-color="#AFAFAF"/>
<stop offset="0.805" stop-color="#DADADA"/>
<stop offset="0.8886" stop-color="#F5F5F5"/>
<stop offset="0.9378" stop-color="white"/>
</linearGradient>
<linearGradient id="paint4_linear" x1="102.113" y1="85.9983" x2="102.113" y2="109.637" gradientUnits="userSpaceOnUse">
<stop/>
<stop offset="0.0108316" stop-color="#090909"/>
<stop offset="0.0390173" stop-color="#1A1A1A"/>
<stop offset="0.0741052" stop-color="#252525"/>
<stop offset="0.1233" stop-color="#2C2C2C"/>
<stop offset="0.26" stop-color="#2E2E2E"/>
<stop offset="0.8229" stop-color="#141313"/>
<stop offset="0.8799" stop-color="#1B1A1A"/>
<stop offset="0.9343" stop-color="#262626"/>
<stop offset="0.9492" stop-color="#242424"/>
<stop offset="0.9568" stop-color="#1C1C1C"/>
<stop offset="0.9627" stop-color="#0F0F0F"/>
<stop offset="0.9668"/>
</linearGradient>
<linearGradient id="paint5_linear" x1="33.0257" y1="85.9983" x2="33.0257" y2="109.637" gradientUnits="userSpaceOnUse">
<stop/>
<stop offset="0.0108316" stop-color="#090909"/>
<stop offset="0.0390173" stop-color="#1A1A1A"/>
<stop offset="0.0741052" stop-color="#252525"/>
<stop offset="0.1233" stop-color="#2C2C2C"/>
<stop offset="0.26" stop-color="#2E2E2E"/>
<stop offset="0.8229" stop-color="#141313"/>
<stop offset="0.8799" stop-color="#1B1A1A"/>
<stop offset="0.9343" stop-color="#262626"/>
<stop offset="0.9492" stop-color="#242424"/>
<stop offset="0.9568" stop-color="#1C1C1C"/>
<stop offset="0.9627" stop-color="#0F0F0F"/>
<stop offset="0.9668"/>
</linearGradient>
<linearGradient id="paint6_linear" x1="154.565" y1="96.6021" x2="154.565" y2="168.603" gradientUnits="userSpaceOnUse">
<stop stop-color="#3B3B3B"/>
<stop offset="0.9352" stop-color="#333333"/>
</linearGradient>
<linearGradient id="paint7_linear" x1="154.49" y1="-0.931889" x2="154.49" y2="113.789" gradientUnits="userSpaceOnUse">
<stop stop-color="#363636"/>
<stop offset="0.4899" stop-color="#343434"/>
<stop offset="0.767" stop-color="#2B2B2B"/>
<stop offset="0.9467" stop-color="#212121"/>
</linearGradient>
<linearGradient id="paint8_linear" x1="154.544" y1="178.358" x2="154.544" y2="41.1355" gradientUnits="userSpaceOnUse">
<stop stop-color="#231F20"/>
<stop offset="0.5822" stop-color="white"/>
<stop offset="0.5828" stop-color="#F7F7F7"/>
<stop offset="0.5862" stop-color="#CCCCCC"/>
<stop offset="0.5896" stop-color="#ABABAB"/>
<stop offset="0.5927" stop-color="#939393"/>
<stop offset="0.5957" stop-color="#858585"/>
<stop offset="0.5982" stop-color="#808080"/>
<stop offset="0.6978" stop-color="#AFAFAF"/>
<stop offset="0.805" stop-color="#DADADA"/>
<stop offset="0.8886" stop-color="#F5F5F5"/>
<stop offset="0.9378" stop-color="white"/>
</linearGradient>
<linearGradient id="paint9_linear" x1="189.094" y1="85.9983" x2="189.094" y2="109.637" gradientUnits="userSpaceOnUse">
<stop/>
<stop offset="0.0108316" stop-color="#090909"/>
<stop offset="0.0390173" stop-color="#1A1A1A"/>
<stop offset="0.0741052" stop-color="#252525"/>
<stop offset="0.1233" stop-color="#2C2C2C"/>
<stop offset="0.26" stop-color="#2E2E2E"/>
<stop offset="0.8229" stop-color="#141313"/>
<stop offset="0.8799" stop-color="#1B1A1A"/>
<stop offset="0.9343" stop-color="#262626"/>
<stop offset="0.9492" stop-color="#242424"/>
<stop offset="0.9568" stop-color="#1C1C1C"/>
<stop offset="0.9627" stop-color="#0F0F0F"/>
<stop offset="0.9668"/>
</linearGradient>
<linearGradient id="paint10_linear" x1="120.007" y1="85.9983" x2="120.007" y2="109.637" gradientUnits="userSpaceOnUse">
<stop/>
<stop offset="0.0108316" stop-color="#090909"/>
<stop offset="0.0390173" stop-color="#1A1A1A"/>
<stop offset="0.0741052" stop-color="#252525"/>
<stop offset="0.1233" stop-color="#2C2C2C"/>
<stop offset="0.26" stop-color="#2E2E2E"/>
<stop offset="0.8229" stop-color="#141313"/>
<stop offset="0.8799" stop-color="#1B1A1A"/>
<stop offset="0.9343" stop-color="#262626"/>
<stop offset="0.9492" stop-color="#242424"/>
<stop offset="0.9568" stop-color="#1C1C1C"/>
<stop offset="0.9627" stop-color="#0F0F0F"/>
<stop offset="0.9668"/>
</linearGradient>
<linearGradient id="paint11_linear" x1="258.698" y1="37.8907" x2="258.698" y2="146.724" gradientUnits="userSpaceOnUse">
<stop stop-color="white"/>
<stop offset="1" stop-color="#A8A8A8"/>
</linearGradient>
<linearGradient id="paint12_linear" x1="209.5" y1="0" x2="209.5" y2="195" gradientUnits="userSpaceOnUse">
<stop stop-color="white" stop-opacity="0.15"/>
<stop offset="1" stop-color="white" stop-opacity="0.13"/>
</linearGradient>
<clipPath id="clip0">
<rect width="77.728" height="139.55" fill="white" transform="translate(28.6853 27.7251)"/>
</clipPath>
<clipPath id="clip1">
<rect width="77.728" height="139.55" fill="white" transform="translate(115.667 27.7251)"/>
</clipPath>
</defs>
</svg>
