<svg width="347" height="195" viewBox="0 0 347 195" fill="none" xmlns="http://www.w3.org/2000/svg">
<rect x="10" y="10" width="327" height="175" rx="14" fill="url(#paint0_linear)" stroke="#2B2B29" stroke-width="20"/>
<g clip-path="url(#clip0)">
<path d="M106.414 97.5C106.414 97.0177 106.414 95.0884 106.414 92.9984V31.4228C106.414 29.3328 104.804 27.7251 102.712 27.7251H32.3869C30.2948 27.7251 28.6855 29.3328 28.6855 31.4228V92.9984C28.6855 95.0884 28.6855 97.0177 28.6855 97.5C28.6855 97.9823 28.6855 99.9116 28.6855 102.002V163.577C28.6855 165.667 30.2948 167.275 32.3869 167.275H102.712C104.804 167.275 106.414 165.667 106.414 163.577V102.002C106.414 99.9116 106.414 97.9823 106.414 97.5Z" fill="#0C0C0C"/>
<path d="M103.195 97.0177V35.6029C103.195 33.6736 101.586 32.0659 99.6546 32.0659H35.2836C33.3524 32.0659 31.7432 33.6736 31.7432 35.6029V97.0177" fill="#494949"/>
<path d="M31.9043 98.4648V159.88C31.9043 161.809 33.5136 163.417 35.4447 163.417H99.8157C101.747 163.417 103.356 161.809 103.356 159.88V98.4648" fill="url(#paint1_linear)"/>
<path d="M103.195 97.9824V36.7284C103.195 34.7991 101.586 33.1914 99.6546 33.1914H35.2836C33.3524 33.1914 31.7432 34.7991 31.7432 36.7284V98.1431" fill="url(#paint2_linear)"/>
<path opacity="0.7" d="M103.034 97.3389H31.7432V98.1427H103.034V97.3389Z" fill="#0E0E0E"/>
<path opacity="0.6588" d="M103.034 97.0171H31.7432V97.8209H103.034V97.0171Z" fill="#0E0E0E"/>
<path opacity="0.6176" d="M103.034 96.8569H31.7432V97.8216H103.034V96.8569Z" fill="#0E0E0E"/>
<path opacity="0.5765" d="M103.034 96.5352H31.7432V97.6606H103.034V96.5352Z" fill="#0E0E0E"/>
<path opacity="0.5353" d="M103.034 96.3745H31.7432V97.4999H103.034V96.3745Z" fill="#0E0E0E"/>
<path opacity="0.4941" d="M103.034 96.0527H31.7432V97.3389H103.034V96.0527Z" fill="#0E0E0E"/>
<path opacity="0.4529" d="M103.034 95.731H31.7432V97.1779H103.034V95.731Z" fill="#0E0E0E"/>
<path opacity="0.4118" d="M103.034 95.5708H31.7432V97.0177H103.034V95.5708Z" fill="#0E0E0E"/>
<path opacity="0.3706" d="M103.034 95.249H31.7432V96.8567H103.034V95.249Z" fill="#0E0E0E"/>
<path opacity="0.3294" d="M103.034 94.9272H31.7432V96.6957H103.034V94.9272Z" fill="#0E0E0E"/>
<path opacity="0.2882" d="M103.034 94.7666H31.7432V96.5351H103.034V94.7666Z" fill="#0E0E0E"/>
<path opacity="0.2471" d="M103.034 94.4453H31.7432V96.3746H103.034V94.4453Z" fill="#0E0E0E"/>
<path opacity="0.2059" d="M103.034 94.2847H31.7432V96.3747H103.034V94.2847Z" fill="#0E0E0E"/>
<path opacity="0.1647" d="M103.034 93.9629H31.7432V96.0529H103.034V93.9629Z" fill="#0E0E0E"/>
<path opacity="0.1235" d="M103.034 93.6411H31.7432V95.8919H103.034V93.6411Z" fill="#0E0E0E"/>
<path opacity="0.082353" d="M103.034 93.4805H31.7432V95.892H103.034V93.4805Z" fill="#0E0E0E"/>
<path opacity="0.041176" d="M103.034 93.1592H31.7432V95.5708H103.034V93.1592Z" fill="#0E0E0E"/>
<path opacity="0.3" d="M103.195 98.7861H31.9043V99.59H103.195V98.7861Z" fill="#4C4C4C"/>
<path opacity="0.2824" d="M103.195 98.7861H31.9043V99.59H103.195V98.7861Z" fill="#4C4C4C"/>
<path opacity="0.2647" d="M103.195 98.9468H31.9043V99.9114H103.195V98.9468Z" fill="#4C4C4C"/>
<path opacity="0.2471" d="M103.195 98.9468H31.9043V100.072H103.195V98.9468Z" fill="#4C4C4C"/>
<path opacity="0.2294" d="M103.195 99.1079H31.9043V100.233H103.195V99.1079Z" fill="#4C4C4C"/>
<path opacity="0.2118" d="M103.195 99.1079H31.9043V100.394H103.195V99.1079Z" fill="#4C4C4C"/>
<path opacity="0.1941" d="M103.195 99.2686H31.9043V100.715H103.195V99.2686Z" fill="#4C4C4C"/>
<path opacity="0.1765" d="M103.195 99.2686H31.9043V100.715H103.195V99.2686Z" fill="#4C4C4C"/>
<path opacity="0.1588" d="M103.195 99.4292H31.9043V101.037H103.195V99.4292Z" fill="#4C4C4C"/>
<path opacity="0.1412" d="M103.195 99.5898H31.9043V101.358H103.195V99.5898Z" fill="#4C4C4C"/>
<path opacity="0.1235" d="M103.195 99.5898H31.9043V101.358H103.195V99.5898Z" fill="#4C4C4C"/>
<path opacity="0.1059" d="M103.195 99.7505H31.9043V101.68H103.195V99.7505Z" fill="#4C4C4C"/>
<path opacity="0.088235" d="M103.195 99.7505H31.9043V101.841H103.195V99.7505Z" fill="#4C4C4C"/>
<path opacity="0.070588" d="M103.195 99.9116H31.9043V102.002H103.195V99.9116Z" fill="#4C4C4C"/>
<path opacity="0.052941" d="M103.195 99.9116H31.9043V102.162H103.195V99.9116Z" fill="#4C4C4C"/>
<path opacity="0.035294" d="M103.195 100.072H31.9043V102.484H103.195V100.072Z" fill="#4C4C4C"/>
<path opacity="0.017647" d="M103.195 100.072H31.9043V102.484H103.195V100.072Z" fill="#4C4C4C"/>
<path d="M106.092 85.2812H99.333V110.201H106.092V85.2812Z" fill="#0C0C0C"/>
<path d="M35.7668 85.2812H29.0078V110.201H35.7668V85.2812Z" fill="#0C0C0C"/>
<path d="M89.1948 126.76C89.1948 130.136 88.5511 133.03 87.4246 135.603C86.2981 138.175 84.6888 140.426 82.7577 142.194C80.8266 143.963 78.5736 145.41 75.9987 146.214C73.4239 147.178 70.6881 147.5 67.6305 147.5C64.5729 147.5 61.8371 147.017 59.1013 146.214C56.5265 145.249 54.2735 143.963 52.3424 142.194C50.4112 140.426 48.802 138.175 47.6755 135.603C46.549 133.03 45.9053 129.976 45.9053 126.76V68.4001C45.9053 65.0239 46.549 62.13 47.6755 59.3969C48.802 56.8245 50.4112 54.5737 52.3424 52.8052C54.2735 51.0367 56.5265 49.5898 59.1013 48.6252C61.6762 47.6605 64.5729 47.1782 67.6305 47.1782C74.0676 47.1782 79.2173 48.9467 83.0795 52.6445C87.1027 56.3422 89.0339 61.4869 89.0339 68.2393V126.76H89.1948ZM73.7457 67.757C73.7457 65.8277 73.102 64.3808 71.9755 63.2554C70.849 62.13 69.2398 61.6477 67.4696 61.6477C65.5384 61.6477 64.0901 62.13 62.8027 63.2554C61.5152 64.3808 61.0325 65.8277 61.0325 67.757V127.242C61.0325 129.172 61.6762 130.619 62.8027 131.744C64.0901 132.869 65.5384 133.352 67.4696 133.352C69.2398 133.352 70.6881 132.869 71.9755 131.744C73.102 130.619 73.7457 129.172 73.7457 127.242V67.757Z" fill="url(#paint3_linear)"/>
<path d="M106.575 97.5H31.9043V98.6254H106.575V97.5Z" fill="#0C0C0C"/>
<path d="M104 85.9243H100.299V109.236H104V85.9243Z" fill="url(#paint4_linear)"/>
<path d="M34.9621 85.9243H31.2607V109.236H34.9621V85.9243Z" fill="url(#paint5_linear)"/>
<path opacity="0.2" d="M100.943 85.9243H100.299V109.236H100.943V85.9243Z" fill="#414141"/>
<path opacity="0.2" d="M104 85.9243H103.356V109.236H104V85.9243Z" fill="#414141"/>
<path opacity="0.2" d="M31.9045 85.9243H31.2607V109.236H31.9045V85.9243Z" fill="#414141"/>
<path opacity="0.2" d="M34.8009 85.9243H34.1572V109.236H34.8009V85.9243Z" fill="#414141"/>
</g>
<g clip-path="url(#clip1)">
<path d="M193.395 97.5C193.395 97.0177 193.395 95.0884 193.395 92.9984V31.4228C193.395 29.3328 191.786 27.7251 189.694 27.7251H119.368C117.276 27.7251 115.667 29.3328 115.667 31.4228V92.9984C115.667 95.0884 115.667 97.0177 115.667 97.5C115.667 97.9823 115.667 99.9116 115.667 102.002V163.577C115.667 165.667 117.276 167.275 119.368 167.275H189.694C191.786 167.275 193.395 165.667 193.395 163.577V102.002C193.395 99.9116 193.395 97.9823 193.395 97.5Z" fill="#0C0C0C"/>
<path d="M190.176 97.0177V35.6029C190.176 33.6736 188.567 32.0659 186.636 32.0659H122.265C120.334 32.0659 118.725 33.6736 118.725 35.6029V97.0177" fill="#494949"/>
<path d="M118.886 98.4648V159.88C118.886 161.809 120.495 163.417 122.426 163.417H186.797C188.728 163.417 190.338 161.809 190.338 159.88V98.4648" fill="url(#paint6_linear)"/>
<path d="M190.176 97.9824V36.7284C190.176 34.7991 188.567 33.1914 186.636 33.1914H122.265C120.334 33.1914 118.725 34.7991 118.725 36.7284V98.1431" fill="url(#paint7_linear)"/>
<path opacity="0.7" d="M190.016 97.3389H118.725V98.1427H190.016V97.3389Z" fill="#0E0E0E"/>
<path opacity="0.6588" d="M190.016 97.0171H118.725V97.8209H190.016V97.0171Z" fill="#0E0E0E"/>
<path opacity="0.6176" d="M190.016 96.8569H118.725V97.8216H190.016V96.8569Z" fill="#0E0E0E"/>
<path opacity="0.5765" d="M190.016 96.5352H118.725V97.6606H190.016V96.5352Z" fill="#0E0E0E"/>
<path opacity="0.5353" d="M190.016 96.3745H118.725V97.4999H190.016V96.3745Z" fill="#0E0E0E"/>
<path opacity="0.4941" d="M190.016 96.0527H118.725V97.3389H190.016V96.0527Z" fill="#0E0E0E"/>
<path opacity="0.4529" d="M190.016 95.731H118.725V97.1779H190.016V95.731Z" fill="#0E0E0E"/>
<path opacity="0.4118" d="M190.016 95.5708H118.725V97.0177H190.016V95.5708Z" fill="#0E0E0E"/>
<path opacity="0.3706" d="M190.016 95.249H118.725V96.8567H190.016V95.249Z" fill="#0E0E0E"/>
<path opacity="0.3294" d="M190.016 94.9272H118.725V96.6957H190.016V94.9272Z" fill="#0E0E0E"/>
<path opacity="0.2882" d="M190.016 94.7666H118.725V96.5351H190.016V94.7666Z" fill="#0E0E0E"/>
<path opacity="0.2471" d="M190.016 94.4453H118.725V96.3746H190.016V94.4453Z" fill="#0E0E0E"/>
<path opacity="0.2059" d="M190.016 94.2847H118.725V96.3747H190.016V94.2847Z" fill="#0E0E0E"/>
<path opacity="0.1647" d="M190.016 93.9629H118.725V96.0529H190.016V93.9629Z" fill="#0E0E0E"/>
<path opacity="0.1235" d="M190.016 93.6411H118.725V95.8919H190.016V93.6411Z" fill="#0E0E0E"/>
<path opacity="0.082353" d="M190.016 93.4805H118.725V95.892H190.016V93.4805Z" fill="#0E0E0E"/>
<path opacity="0.041176" d="M190.016 93.1592H118.725V95.5708H190.016V93.1592Z" fill="#0E0E0E"/>
<path opacity="0.3" d="M190.177 98.7861H118.886V99.59H190.177V98.7861Z" fill="#4C4C4C"/>
<path opacity="0.2824" d="M190.177 98.7861H118.886V99.59H190.177V98.7861Z" fill="#4C4C4C"/>
<path opacity="0.2647" d="M190.177 98.9468H118.886V99.9114H190.177V98.9468Z" fill="#4C4C4C"/>
<path opacity="0.2471" d="M190.177 98.9468H118.886V100.072H190.177V98.9468Z" fill="#4C4C4C"/>
<path opacity="0.2294" d="M190.177 99.1079H118.886V100.233H190.177V99.1079Z" fill="#4C4C4C"/>
<path opacity="0.2118" d="M190.177 99.1079H118.886V100.394H190.177V99.1079Z" fill="#4C4C4C"/>
<path opacity="0.1941" d="M190.177 99.2686H118.886V100.715H190.177V99.2686Z" fill="#4C4C4C"/>
<path opacity="0.1765" d="M190.177 99.2686H118.886V100.715H190.177V99.2686Z" fill="#4C4C4C"/>
<path opacity="0.1588" d="M190.177 99.4292H118.886V101.037H190.177V99.4292Z" fill="#4C4C4C"/>
<path opacity="0.1412" d="M190.177 99.5898H118.886V101.358H190.177V99.5898Z" fill="#4C4C4C"/>
<path opacity="0.1235" d="M190.177 99.5898H118.886V101.358H190.177V99.5898Z" fill="#4C4C4C"/>
<path opacity="0.1059" d="M190.177 99.7505H118.886V101.68H190.177V99.7505Z" fill="#4C4C4C"/>
<path opacity="0.088235" d="M190.177 99.7505H118.886V101.841H190.177V99.7505Z" fill="#4C4C4C"/>
<path opacity="0.070588" d="M190.177 99.9116H118.886V102.002H190.177V99.9116Z" fill="#4C4C4C"/>
<path opacity="0.052941" d="M190.177 99.9116H118.886V102.162H190.177V99.9116Z" fill="#4C4C4C"/>
<path opacity="0.035294" d="M190.177 100.072H118.886V102.484H190.177V100.072Z" fill="#4C4C4C"/>
<path opacity="0.017647" d="M190.177 100.072H118.886V102.484H190.177V100.072Z" fill="#4C4C4C"/>
<path d="M193.073 85.2812H186.314V110.201H193.073V85.2812Z" fill="#0C0C0C"/>
<path d="M122.748 85.2812H115.989V110.201H122.748V85.2812Z" fill="#0C0C0C"/>
<path d="M176.176 126.76C176.176 130.136 175.533 133.03 174.406 135.603C173.28 138.175 171.67 140.426 169.739 142.194C167.808 143.963 165.555 145.41 162.98 146.214C160.405 147.178 157.67 147.5 154.612 147.5C151.554 147.5 148.819 147.017 146.083 146.214C143.508 145.249 141.255 143.963 139.324 142.194C137.393 140.426 135.783 138.175 134.657 135.603C133.53 133.03 132.887 129.976 132.887 126.76V68.4001C132.887 65.0239 133.53 62.13 134.657 59.3969C135.783 56.8245 137.393 54.5737 139.324 52.8052C141.255 51.0367 143.508 49.5898 146.083 48.6252C148.658 47.6605 151.554 47.1782 154.612 47.1782C161.049 47.1782 166.199 48.9467 170.061 52.6445C174.084 56.3422 176.015 61.4869 176.015 68.2393V126.76H176.176ZM160.727 67.757C160.727 65.8277 160.083 64.3808 158.957 63.2554C157.83 62.13 156.221 61.6477 154.451 61.6477C152.52 61.6477 151.072 62.13 149.784 63.2554C148.497 64.3808 148.014 65.8277 148.014 67.757V127.242C148.014 129.172 148.658 130.619 149.784 131.744C151.072 132.869 152.52 133.352 154.451 133.352C156.221 133.352 157.67 132.869 158.957 131.744C160.083 130.619 160.727 129.172 160.727 127.242V67.757Z" fill="url(#paint8_linear)"/>
<path d="M193.556 97.5H118.886V98.6254H193.556V97.5Z" fill="#0C0C0C"/>
<path d="M190.982 85.9243H187.28V109.236H190.982V85.9243Z" fill="url(#paint9_linear)"/>
<path d="M121.944 85.9243H118.242V109.236H121.944V85.9243Z" fill="url(#paint10_linear)"/>
<path opacity="0.2" d="M187.924 85.9243H187.28V109.236H187.924V85.9243Z" fill="#414141"/>
<path opacity="0.2" d="M190.982 85.9243H190.338V109.236H190.982V85.9243Z" fill="#414141"/>
<path opacity="0.2" d="M118.886 85.9243H118.242V109.236H118.886V85.9243Z" fill="#414141"/>
<path opacity="0.2" d="M121.782 85.9243H121.139V109.236H121.782V85.9243Z" fill="#414141"/>
</g>
<g clip-path="url(#clip2)">
<path d="M192.985 97.5C192.985 97.0177 192.985 95.0884 192.985 92.9984V31.4228C192.985 29.3328 191.384 27.7251 189.302 27.7251H119.314C117.232 27.7251 115.631 29.3328 115.631 31.4228V92.9984C115.631 95.0884 115.631 97.0177 115.631 97.5C115.631 97.9823 115.631 99.9116 115.631 102.002V163.577C115.631 165.667 117.232 167.275 119.314 167.275H189.302C191.384 167.275 192.985 165.667 192.985 163.577V102.002C192.985 99.9116 192.985 97.9823 192.985 97.5Z" fill="#0C0C0C"/>
<path d="M189.782 97.0176V35.6029C189.782 33.6736 188.181 32.0659 186.259 32.0659H122.197C120.275 32.0659 118.674 33.6736 118.674 35.6029V97.0176" fill="#494949"/>
<path d="M118.834 98.4644V159.879C118.834 161.808 120.436 163.416 122.357 163.416H186.419C188.341 163.416 189.942 161.808 189.942 159.879V98.4644" fill="url(#paint11_linear)"/>
<path d="M189.782 97.9824V36.7284C189.782 34.7991 188.181 33.1914 186.259 33.1914H122.197C120.275 33.1914 118.674 34.7991 118.674 36.7284V98.1431" fill="url(#paint12_linear)"/>
<path d="M176.65 126.76C176.65 130.136 176.009 133.03 174.888 135.603C173.767 138.175 172.165 140.426 170.244 142.194C168.322 143.963 166.08 145.41 163.517 146.214C160.955 147.178 158.232 147.5 155.189 147.5C152.146 147.5 149.424 147.017 146.701 146.214C144.139 145.249 141.896 143.963 139.975 142.194C138.053 140.426 136.451 138.175 135.33 135.603C134.209 133.03 133.568 129.976 133.568 126.76V68.4001C133.568 65.0239 134.209 62.13 135.33 59.3969C136.451 56.8245 138.053 54.5737 139.975 52.8052C141.896 51.0367 144.139 49.5898 146.701 48.6252C149.263 47.6605 152.146 47.1782 155.189 47.1782C161.595 47.1782 166.72 48.9467 170.564 52.6445C174.568 56.3422 176.49 61.4869 176.49 68.2393V126.76H176.65ZM161.435 67.5962C161.435 65.667 160.795 64.22 159.673 63.0946C158.552 61.9692 156.951 61.4869 155.189 61.4869C153.267 61.4869 151.826 61.9692 150.545 63.0946C149.263 64.22 148.783 65.667 148.783 67.5962V127.082C148.783 129.011 149.424 130.458 150.545 131.583C151.826 132.709 153.267 133.191 155.189 133.191C156.951 133.191 158.392 132.709 159.673 131.583C160.795 130.458 161.435 129.011 161.435 127.082V67.5962Z" fill="url(#paint13_linear)" fill-opacity="0.7"/>
<path opacity="0.7" d="M189.622 97.3394H118.674V98.1432H189.622V97.3394Z" fill="#0E0E0E"/>
<path opacity="0.6588" d="M189.622 97.0181H118.674V97.8219H189.622V97.0181Z" fill="#0E0E0E"/>
<path opacity="0.6176" d="M189.622 96.8574H118.674V97.8221H189.622V96.8574Z" fill="#0E0E0E"/>
<path opacity="0.5765" d="M189.622 96.5356H118.674V97.661H189.622V96.5356Z" fill="#0E0E0E"/>
<path opacity="0.5353" d="M189.622 96.375H118.674V97.5004H189.622V96.375Z" fill="#0E0E0E"/>
<path opacity="0.4941" d="M189.622 96.0532H118.674V97.3394H189.622V96.0532Z" fill="#0E0E0E"/>
<path opacity="0.4529" d="M189.622 95.7319H118.674V97.1789H189.622V95.7319Z" fill="#0E0E0E"/>
<path opacity="0.4118" d="M189.622 95.5713H118.674V97.0182H189.622V95.5713Z" fill="#0E0E0E"/>
<path opacity="0.3706" d="M189.622 95.2495H118.674V96.8572H189.622V95.2495Z" fill="#0E0E0E"/>
<path opacity="0.3294" d="M189.622 94.9277H118.674V96.6962H189.622V94.9277Z" fill="#0E0E0E"/>
<path opacity="0.2882" d="M189.622 94.7671H118.674V96.5356H189.622V94.7671Z" fill="#0E0E0E"/>
<path opacity="0.2471" d="M189.622 94.4458H118.674V96.3751H189.622V94.4458Z" fill="#0E0E0E"/>
<path opacity="0.2059" d="M189.622 94.2852H118.674V96.3752H189.622V94.2852Z" fill="#0E0E0E"/>
<path opacity="0.1647" d="M189.622 93.9634H118.674V96.0534H189.622V93.9634Z" fill="#0E0E0E"/>
<path opacity="0.1235" d="M189.622 93.6416H118.674V95.8924H189.622V93.6416Z" fill="#0E0E0E"/>
<path opacity="0.082353" d="M189.622 93.4814H118.674V95.893H189.622V93.4814Z" fill="#0E0E0E"/>
<path opacity="0.041176" d="M189.622 93.1597H118.674V95.5712H189.622V93.1597Z" fill="#0E0E0E"/>
<path opacity="0.3" d="M189.782 98.7861H118.834V99.59H189.782V98.7861Z" fill="#4C4C4C"/>
<path opacity="0.2824" d="M189.782 98.7861H118.834V99.59H189.782V98.7861Z" fill="#4C4C4C"/>
<path opacity="0.2647" d="M189.782 98.9468H118.834V99.9114H189.782V98.9468Z" fill="#4C4C4C"/>
<path opacity="0.2471" d="M189.782 98.9468H118.834V100.072H189.782V98.9468Z" fill="#4C4C4C"/>
<path opacity="0.2294" d="M189.782 99.1079H118.834V100.233H189.782V99.1079Z" fill="#4C4C4C"/>
<path opacity="0.2118" d="M189.782 99.1079H118.834V100.394H189.782V99.1079Z" fill="#4C4C4C"/>
<path opacity="0.1941" d="M189.782 99.2686H118.834V100.715H189.782V99.2686Z" fill="#4C4C4C"/>
<path opacity="0.1765" d="M189.782 99.2686H118.834V100.715H189.782V99.2686Z" fill="#4C4C4C"/>
<path opacity="0.1588" d="M189.782 99.4297H118.834V101.037H189.782V99.4297Z" fill="#4C4C4C"/>
<path opacity="0.1412" d="M189.782 99.5898H118.834V101.358H189.782V99.5898Z" fill="#4C4C4C"/>
<path opacity="0.1235" d="M189.782 99.5898H118.834V101.358H189.782V99.5898Z" fill="#4C4C4C"/>
<path opacity="0.1059" d="M189.782 99.7505H118.834V101.68H189.782V99.7505Z" fill="#4C4C4C"/>
<path opacity="0.088235" d="M189.782 99.7505H118.834V101.841H189.782V99.7505Z" fill="#4C4C4C"/>
<path opacity="0.070588" d="M189.782 99.9116H118.834V102.002H189.782V99.9116Z" fill="#4C4C4C"/>
<path opacity="0.052941" d="M189.782 99.9116H118.834V102.162H189.782V99.9116Z" fill="#4C4C4C"/>
<path opacity="0.035294" d="M189.782 100.072H118.834V102.484H189.782V100.072Z" fill="#4C4C4C"/>
<path opacity="0.017647" d="M189.782 100.072H118.834V102.484H189.782V100.072Z" fill="#4C4C4C"/>
<path d="M192.985 97.5H118.674V98.6254H192.985V97.5Z" fill="#0C0C0C"/>
<path d="M191.063 93.1592V137.854C191.063 139.14 189.942 140.265 188.661 140.265H120.436C119.154 140.265 118.033 139.14 118.033 137.854V93.1592" fill="url(#paint14_linear)"/>
<path d="M192.665 85.2812H185.938V110.201H192.665V85.2812Z" fill="#0C0C0C"/>
<path d="M122.678 85.2812H115.951V110.201H122.678V85.2812Z" fill="#0C0C0C"/>
<path d="M190.583 85.9243H186.899V109.236H190.583V85.9243Z" fill="url(#paint15_linear)"/>
<path d="M121.717 85.9243H118.033V109.236H121.717V85.9243Z" fill="url(#paint16_linear)"/>
<path opacity="0.2" d="M187.54 85.9243H186.899V109.236H187.54V85.9243Z" fill="#414141"/>
<path opacity="0.2" d="M190.423 85.9243H189.782V109.236H190.423V85.9243Z" fill="#414141"/>
<path opacity="0.2" d="M118.834 85.9243H118.193V109.236H118.834V85.9243Z" fill="#414141"/>
<path opacity="0.2" d="M121.717 85.9243H121.076V109.236H121.717V85.9243Z" fill="#414141"/>
<path d="M199.712 56.3427C199.551 56.0212 199.231 55.6996 198.911 55.3781C198.59 55.0565 198.11 54.8958 197.63 54.735C197.149 54.5742 196.508 54.5742 195.868 54.5742H112.107C111.467 54.5742 110.826 54.735 110.346 54.735C109.865 54.8958 109.545 55.0565 109.225 55.3781C108.904 55.6996 108.584 56.0212 108.424 56.3427C108.264 56.6642 108.264 56.9858 108.264 57.4681L117.873 94.7671H121.717L122.357 97.661H186.098L186.739 94.7671H190.583L199.712 57.4681C199.872 56.9858 199.872 56.6642 199.712 56.3427Z" fill="url(#paint17_radial)"/>
<path d="M117.553 94.7666H121.717L122.518 97.6605H128.283H186.099L186.899 94.7666H191.063" stroke="#111111" stroke-width="0.5041" stroke-miterlimit="10"/>
<path opacity="0.7" d="M155.349 64.542C150.224 64.542 144.939 65.1851 140.135 67.2751C137.892 68.2397 135.65 69.5259 133.889 71.4552C133.088 72.4198 132.287 73.3844 131.807 74.5098C131.326 75.6352 131.006 76.9214 131.006 78.2076C131.006 78.8507 131.166 79.6545 131.166 80.2976C131.326 81.1015 131.326 82.0661 131.486 82.87C131.807 85.4423 132.127 88.0147 132.607 90.4262C132.928 92.5163 133.248 94.4455 133.408 96.5355C133.408 96.6963 133.408 96.8571 133.568 97.1786C133.568 97.3394 133.568 97.3394 133.728 97.3394C134.369 97.3394 134.85 97.3394 135.49 97.3394C137.892 97.3394 140.455 97.3394 142.857 97.3394C144.779 97.3394 146.541 97.3394 148.463 97.3394H148.623C148.623 96.0532 148.463 94.7671 148.463 93.4809C148.302 90.9085 148.302 88.3362 148.142 85.7638C147.982 83.8346 147.982 81.7446 147.822 79.8153C147.822 79.6545 147.822 79.4938 147.822 79.333C147.822 78.6899 147.982 78.0468 148.302 77.4037C148.943 76.4391 150.224 75.9568 151.185 75.6352C152.306 75.3137 153.588 75.1529 154.869 75.1529C156.15 75.1529 157.431 75.3137 158.552 75.6352C159.673 75.9568 160.794 76.5999 161.595 77.5645C161.916 78.0468 162.076 78.6899 162.076 79.333C162.076 79.4938 162.076 79.6545 162.076 79.8153C162.076 81.7446 161.916 83.8346 161.755 85.7638C161.595 88.3362 161.595 90.9085 161.435 93.4809C161.435 94.7671 161.275 96.0532 161.275 97.1786C162.716 97.1786 164.158 97.1786 165.599 97.1786C168.162 97.1786 170.724 97.1786 173.286 97.1786C174.087 97.1786 175.048 97.1786 175.849 97.1786C176.009 97.1786 176.169 97.1786 176.49 97.1786C176.49 97.1786 176.49 97.1786 176.49 97.0179C176.65 95.4101 176.97 93.8024 177.13 92.1947C177.45 89.6224 177.931 87.05 178.251 84.4777C178.411 82.87 178.732 81.2622 178.892 79.6545C179.212 77.886 179.052 76.1175 178.411 74.3491C177.611 72.0983 175.849 70.3298 173.927 69.0436C169.763 66.3105 164.798 65.1851 159.994 64.7028C158.552 64.542 156.951 64.542 155.349 64.542Z" fill="url(#paint18_linear)"/>
<path d="M199.712 55.5384C199.712 55.6992 199.712 55.6992 199.712 55.5384C199.712 55.3777 199.712 55.0561 199.551 54.8954C199.551 54.7346 199.551 54.413 199.391 54.2523C199.391 53.77 199.071 53.4484 198.911 53.1269C198.11 52.1622 196.829 52.0015 195.548 52.0015C195.227 52.0015 112.268 52.0015 111.947 52.0015C110.986 52.0015 109.865 52.323 109.225 52.8053C108.744 53.1269 108.424 53.6092 108.264 54.2523C108.264 54.7346 108.104 55.6992 108.104 56.1815C108.264 55.2169 109.064 54.5738 109.865 54.2523C110.506 53.9307 111.146 53.9307 111.947 53.9307C112.107 53.9307 195.387 53.9307 195.708 53.9307C196.028 53.9307 196.188 53.9307 196.508 53.9307C197.79 54.0915 199.391 54.7346 199.551 56.1815C199.872 56.1815 199.712 55.86 199.712 55.5384Z" fill="#ADADAD"/>
<path d="M199.712 56.0209C199.712 55.8601 199.712 55.6993 199.551 55.3778C199.551 55.217 199.551 54.8955 199.391 54.7347C199.391 54.4131 199.071 53.9308 198.911 53.6093C198.11 52.6447 196.829 52.4839 195.548 52.4839C195.227 52.4839 112.107 52.4839 111.947 52.4839C110.986 52.4839 109.865 52.8054 109.225 53.2877C108.744 53.6093 108.424 54.0916 108.264 54.7347C108.264 55.217 108.104 56.1816 108.104 56.664C108.264 55.6993 109.064 55.0562 109.865 54.7347C110.506 54.4131 111.146 54.4131 111.947 54.4131C112.107 54.4131 195.387 54.4131 195.708 54.4131C196.028 54.4131 196.188 54.4131 196.508 54.4131C197.79 54.5739 199.391 55.217 199.551 56.664C199.872 56.5032 199.712 56.1816 199.712 56.0209Z" fill="url(#paint19_radial)"/>
</g>
<path d="M236.705 147.475C234.899 147.475 233.437 146.874 232.319 145.671C231.201 144.469 230.643 143.181 230.643 141.807C230.643 141.034 230.815 140.304 231.158 139.617L277.591 45.7086C278.451 43.9051 279.999 43.0034 282.235 43.0034C283.696 43.0034 285.115 43.5616 286.491 44.6781C287.953 45.7086 288.684 47.0827 288.684 48.8002C288.684 49.659 288.512 50.4319 288.168 51.119L241.735 144.641C241.305 145.586 240.617 146.273 239.671 146.702C238.811 147.217 237.822 147.475 236.705 147.475ZM230.256 100.07C225.096 100.07 220.754 98.8246 217.229 96.3341C213.703 93.8436 211.94 89.5497 211.94 83.4523V64.7737C211.94 58.6763 213.703 54.3823 217.229 51.8919C220.754 49.4014 225.096 48.1561 230.256 48.1561C235.415 48.1561 239.757 49.4014 243.283 51.8919C246.894 54.3823 248.7 58.6763 248.7 64.7737V83.4523C248.7 89.5497 246.894 93.8436 243.283 96.3341C239.757 98.8246 235.415 100.07 230.256 100.07ZM230.256 90.4085C232.577 90.4085 234.383 89.8503 235.673 88.7338C236.963 87.6174 237.607 85.8569 237.607 83.4523V64.7737C237.607 62.3691 236.963 60.6086 235.673 59.4921C234.383 58.3757 232.577 57.8175 230.256 57.8175C225.44 57.8175 223.033 60.1362 223.033 64.7737V83.4523C223.033 88.0898 225.44 90.4085 230.256 90.4085ZM288.426 142.709C283.18 142.709 278.795 141.463 275.27 138.973C271.744 136.482 269.982 132.188 269.982 126.091V107.412C269.982 101.401 271.744 97.15 275.27 94.6595C278.795 92.0831 283.18 90.7949 288.426 90.7949C293.499 90.7949 297.798 92.0831 301.324 94.6595C304.935 97.15 306.741 101.401 306.741 107.412V126.091C306.741 132.188 304.935 136.482 301.324 138.973C297.798 141.463 293.499 142.709 288.426 142.709ZM288.426 133.047C290.661 133.047 292.424 132.489 293.714 131.373C295.004 130.256 295.649 128.496 295.649 126.091V107.412C295.649 105.008 295.004 103.247 293.714 102.131C292.424 101.015 290.661 100.456 288.426 100.456C283.61 100.456 281.203 102.775 281.203 107.412V126.091C281.203 130.729 283.61 133.047 288.426 133.047Z" fill="url(#paint20_linear)"/>
<path d="M0 24C0 10.7452 10.7452 0 24 0H179.515L130.338 195H24C10.7452 195 0 184.255 0 171V24Z" fill="url(#paint21_linear)"/>
<rect x="6.5" y="6.5" width="334" height="182" rx="17.5" stroke="#DBDBDB" stroke-width="13"/>
<defs>
<linearGradient id="paint0_linear" x1="173.5" y1="0" x2="173.5" y2="195" gradientUnits="userSpaceOnUse">
<stop stop-color="#393937"/>
<stop offset="1" stop-color="#31302E"/>
</linearGradient>
<linearGradient id="paint1_linear" x1="67.5842" y1="96.6021" x2="67.5842" y2="168.603" gradientUnits="userSpaceOnUse">
<stop stop-color="#3B3B3B"/>
<stop offset="0.9352" stop-color="#333333"/>
</linearGradient>
<linearGradient id="paint2_linear" x1="67.5087" y1="-0.931889" x2="67.5087" y2="113.789" gradientUnits="userSpaceOnUse">
<stop stop-color="#363636"/>
<stop offset="0.4899" stop-color="#343434"/>
<stop offset="0.767" stop-color="#2B2B2B"/>
<stop offset="0.9467" stop-color="#212121"/>
</linearGradient>
<linearGradient id="paint3_linear" x1="67.5632" y1="178.358" x2="67.5632" y2="41.1355" gradientUnits="userSpaceOnUse">
<stop stop-color="#231F20"/>
<stop offset="0.5822" stop-color="white"/>
<stop offset="0.5828" stop-color="#F7F7F7"/>
<stop offset="0.5862" stop-color="#CCCCCC"/>
<stop offset="0.5896" stop-color="#ABABAB"/>
<stop offset="0.5927" stop-color="#939393"/>
<stop offset="0.5957" stop-color="#858585"/>
<stop offset="0.5982" stop-color="#808080"/>
<stop offset="0.6978" stop-color="#AFAFAF"/>
<stop offset="0.805" stop-color="#DADADA"/>
<stop offset="0.8886" stop-color="#F5F5F5"/>
<stop offset="0.9378" stop-color="white"/>
</linearGradient>
<linearGradient id="paint4_linear" x1="102.113" y1="85.9983" x2="102.113" y2="109.637" gradientUnits="userSpaceOnUse">
<stop/>
<stop offset="0.0108316" stop-color="#090909"/>
<stop offset="0.0390173" stop-color="#1A1A1A"/>
<stop offset="0.0741052" stop-color="#252525"/>
<stop offset="0.1233" stop-color="#2C2C2C"/>
<stop offset="0.26" stop-color="#2E2E2E"/>
<stop offset="0.8229" stop-color="#141313"/>
<stop offset="0.8799" stop-color="#1B1A1A"/>
<stop offset="0.9343" stop-color="#262626"/>
<stop offset="0.9492" stop-color="#242424"/>
<stop offset="0.9568" stop-color="#1C1C1C"/>
<stop offset="0.9627" stop-color="#0F0F0F"/>
<stop offset="0.9668"/>
</linearGradient>
<linearGradient id="paint5_linear" x1="33.0263" y1="85.9983" x2="33.0263" y2="109.637" gradientUnits="userSpaceOnUse">
<stop/>
<stop offset="0.0108316" stop-color="#090909"/>
<stop offset="0.0390173" stop-color="#1A1A1A"/>
<stop offset="0.0741052" stop-color="#252525"/>
<stop offset="0.1233" stop-color="#2C2C2C"/>
<stop offset="0.26" stop-color="#2E2E2E"/>
<stop offset="0.8229" stop-color="#141313"/>
<stop offset="0.8799" stop-color="#1B1A1A"/>
<stop offset="0.9343" stop-color="#262626"/>
<stop offset="0.9492" stop-color="#242424"/>
<stop offset="0.9568" stop-color="#1C1C1C"/>
<stop offset="0.9627" stop-color="#0F0F0F"/>
<stop offset="0.9668"/>
</linearGradient>
<linearGradient id="paint6_linear" x1="154.566" y1="96.6021" x2="154.566" y2="168.603" gradientUnits="userSpaceOnUse">
<stop stop-color="#3B3B3B"/>
<stop offset="0.9352" stop-color="#333333"/>
</linearGradient>
<linearGradient id="paint7_linear" x1="154.49" y1="-0.931889" x2="154.49" y2="113.789" gradientUnits="userSpaceOnUse">
<stop stop-color="#363636"/>
<stop offset="0.4899" stop-color="#343434"/>
<stop offset="0.767" stop-color="#2B2B2B"/>
<stop offset="0.9467" stop-color="#212121"/>
</linearGradient>
<linearGradient id="paint8_linear" x1="154.545" y1="178.358" x2="154.545" y2="41.1355" gradientUnits="userSpaceOnUse">
<stop stop-color="#231F20"/>
<stop offset="0.5822" stop-color="white"/>
<stop offset="0.5828" stop-color="#F7F7F7"/>
<stop offset="0.5862" stop-color="#CCCCCC"/>
<stop offset="0.5896" stop-color="#ABABAB"/>
<stop offset="0.5927" stop-color="#939393"/>
<stop offset="0.5957" stop-color="#858585"/>
<stop offset="0.5982" stop-color="#808080"/>
<stop offset="0.6978" stop-color="#AFAFAF"/>
<stop offset="0.805" stop-color="#DADADA"/>
<stop offset="0.8886" stop-color="#F5F5F5"/>
<stop offset="0.9378" stop-color="white"/>
</linearGradient>
<linearGradient id="paint9_linear" x1="189.095" y1="85.9983" x2="189.095" y2="109.637" gradientUnits="userSpaceOnUse">
<stop/>
<stop offset="0.0108316" stop-color="#090909"/>
<stop offset="0.0390173" stop-color="#1A1A1A"/>
<stop offset="0.0741052" stop-color="#252525"/>
<stop offset="0.1233" stop-color="#2C2C2C"/>
<stop offset="0.26" stop-color="#2E2E2E"/>
<stop offset="0.8229" stop-color="#141313"/>
<stop offset="0.8799" stop-color="#1B1A1A"/>
<stop offset="0.9343" stop-color="#262626"/>
<stop offset="0.9492" stop-color="#242424"/>
<stop offset="0.9568" stop-color="#1C1C1C"/>
<stop offset="0.9627" stop-color="#0F0F0F"/>
<stop offset="0.9668"/>
</linearGradient>
<linearGradient id="paint10_linear" x1="120.008" y1="85.9983" x2="120.008" y2="109.637" gradientUnits="userSpaceOnUse">
<stop/>
<stop offset="0.0108316" stop-color="#090909"/>
<stop offset="0.0390173" stop-color="#1A1A1A"/>
<stop offset="0.0741052" stop-color="#252525"/>
<stop offset="0.1233" stop-color="#2C2C2C"/>
<stop offset="0.26" stop-color="#2E2E2E"/>
<stop offset="0.8229" stop-color="#141313"/>
<stop offset="0.8799" stop-color="#1B1A1A"/>
<stop offset="0.9343" stop-color="#262626"/>
<stop offset="0.9492" stop-color="#242424"/>
<stop offset="0.9568" stop-color="#1C1C1C"/>
<stop offset="0.9627" stop-color="#0F0F0F"/>
<stop offset="0.9668"/>
</linearGradient>
<linearGradient id="paint11_linear" x1="154.322" y1="96.6017" x2="154.322" y2="168.602" gradientUnits="userSpaceOnUse">
<stop stop-color="#3B3B3B"/>
<stop offset="0.9352" stop-color="#333333"/>
</linearGradient>
<linearGradient id="paint12_linear" x1="154.247" y1="-0.931885" x2="154.247" y2="113.789" gradientUnits="userSpaceOnUse">
<stop stop-color="#363636"/>
<stop offset="0.4899" stop-color="#343434"/>
<stop offset="0.767" stop-color="#2B2B2B"/>
<stop offset="0.9467" stop-color="#212121"/>
</linearGradient>
<linearGradient id="paint13_linear" x1="155.228" y1="176.077" x2="155.228" y2="38.8503" gradientUnits="userSpaceOnUse">
<stop stop-color="#424242"/>
<stop offset="0.0701606" stop-color="#626262"/>
<stop offset="0.1761" stop-color="#8D8D8D"/>
<stop offset="0.2792" stop-color="#AEAEAE"/>
<stop offset="0.3773" stop-color="#C6C6C6"/>
<stop offset="0.4683" stop-color="#D4D4D4"/>
<stop offset="0.5452" stop-color="#D9D9D9"/>
<stop offset="0.5645" stop-color="#DFDFDF"/>
<stop offset="0.5907" stop-color="#F0F0F0"/>
<stop offset="0.6072" stop-color="white"/>
<stop offset="0.6083" stop-color="#F7F7F7"/>
<stop offset="0.6143" stop-color="#CCCCCC"/>
<stop offset="0.6201" stop-color="#ABABAB"/>
<stop offset="0.6257" stop-color="#939393"/>
<stop offset="0.6309" stop-color="#858585"/>
<stop offset="0.6352" stop-color="#808080"/>
<stop offset="0.724" stop-color="#AFAFAF"/>
<stop offset="0.8195" stop-color="#DADADA"/>
<stop offset="0.894" stop-color="#F5F5F5"/>
<stop offset="0.9378" stop-color="white"/>
</linearGradient>
<linearGradient id="paint14_linear" x1="154.523" y1="91.827" x2="154.523" y2="144.25" gradientUnits="userSpaceOnUse">
<stop offset="0.119792" stop-opacity="0.77"/>
<stop offset="0.9143" stop-opacity="0"/>
</linearGradient>
<linearGradient id="paint15_linear" x1="188.685" y1="85.9983" x2="188.685" y2="109.637" gradientUnits="userSpaceOnUse">
<stop/>
<stop offset="0.0555725" stop-color="#0B0B0B"/>
<stop offset="0.1357" stop-color="#121212"/>
<stop offset="0.3586" stop-color="#141414"/>
<stop offset="0.8229" stop-color="#141313"/>
<stop offset="0.8799" stop-color="#1B1A1A"/>
<stop offset="0.9343" stop-color="#262626"/>
<stop offset="0.9492" stop-color="#242424"/>
<stop offset="0.9568" stop-color="#1C1C1C"/>
<stop offset="0.9627" stop-color="#0F0F0F"/>
<stop offset="0.9668"/>
</linearGradient>
<linearGradient id="paint16_linear" x1="119.929" y1="85.9983" x2="119.929" y2="109.637" gradientUnits="userSpaceOnUse">
<stop/>
<stop offset="0.0555725" stop-color="#0B0B0B"/>
<stop offset="0.1357" stop-color="#121212"/>
<stop offset="0.3586" stop-color="#141414"/>
<stop offset="0.8229" stop-color="#141313"/>
<stop offset="0.8799" stop-color="#1B1A1A"/>
<stop offset="0.9343" stop-color="#262626"/>
<stop offset="0.9492" stop-color="#242424"/>
<stop offset="0.9568" stop-color="#1C1C1C"/>
<stop offset="0.9627" stop-color="#0F0F0F"/>
<stop offset="0.9668"/>
</linearGradient>
<radialGradient id="paint17_radial" cx="0" cy="0" r="1" gradientUnits="userSpaceOnUse" gradientTransform="translate(153.148 106.505) scale(100.555 43.6283)">
<stop offset="0.00256996" stop-color="#2B2B2B"/>
<stop offset="0.3875" stop-color="#232323"/>
<stop offset="0.9059" stop-color="#1F1F1F"/>
</radialGradient>
<linearGradient id="paint18_linear" x1="155.218" y1="47.3703" x2="155.218" y2="126.117" gradientUnits="userSpaceOnUse">
<stop offset="0.0668925" stop-color="#4D4D4D"/>
<stop offset="0.2476" stop-color="#505050"/>
<stop offset="0.3891" stop-color="#5A5A5A"/>
<stop offset="0.5172" stop-color="#6B6B6B"/>
<stop offset="0.6375" stop-color="#828282"/>
<stop offset="0.7524" stop-color="#A0A0A0"/>
<stop offset="0.8631" stop-color="#C5C5C5"/>
<stop offset="0.9685" stop-color="#F1F1F1"/>
<stop offset="1" stop-color="white"/>
</linearGradient>
<radialGradient id="paint19_radial" cx="0" cy="0" r="1" gradientUnits="userSpaceOnUse" gradientTransform="translate(154.049 54.61) scale(64.7971 65.0471)">
<stop offset="0.0102082" stop-color="#5C5C5C"/>
<stop offset="0.3658" stop-color="#5A5A5A"/>
<stop offset="0.4938" stop-color="#535353"/>
<stop offset="0.5848" stop-color="#484848"/>
<stop offset="0.6582" stop-color="#373737"/>
<stop offset="0.6612" stop-color="#363636"/>
<stop offset="0.6658" stop-color="#3B3B3B"/>
<stop offset="0.6932" stop-color="#535353"/>
<stop offset="0.71" stop-color="#5C5C5C"/>
</radialGradient>
<linearGradient id="paint20_linear" x1="258.698" y1="37.8907" x2="258.698" y2="146.724" gradientUnits="userSpaceOnUse">
<stop stop-color="white"/>
<stop offset="1" stop-color="#A8A8A8"/>
</linearGradient>
<linearGradient id="paint21_linear" x1="209.5" y1="0" x2="209.5" y2="195" gradientUnits="userSpaceOnUse">
<stop stop-color="white" stop-opacity="0.15"/>
<stop offset="1" stop-color="white" stop-opacity="0.13"/>
</linearGradient>
<clipPath id="clip0">
<rect width="77.728" height="139.55" fill="white" transform="translate(28.6855 27.7251)"/>
</clipPath>
<clipPath id="clip1">
<rect width="77.728" height="139.55" fill="white" transform="translate(115.667 27.7251)"/>
</clipPath>
<clipPath id="clip2">
<rect width="91.608" height="139.55" fill="white" transform="translate(108.264 27.7251)"/>
</clipPath>
</defs>
</svg>
