<svg width="347" height="195" viewBox="0 0 347 195" fill="none" xmlns="http://www.w3.org/2000/svg">
<rect x="10" y="10" width="327" height="175" rx="14" fill="url(#paint0_linear)" stroke="#2B2B29" stroke-width="20"/>
<g clip-path="url(#clip0)">
<path d="M106.413 97.5005C106.413 97.0182 106.413 95.0889 106.413 92.9989V31.4233C106.413 29.3333 104.804 27.7256 102.712 27.7256H32.3866C30.2946 27.7256 28.6853 29.3333 28.6853 31.4233V92.9989C28.6853 95.0889 28.6853 97.0182 28.6853 97.5005C28.6853 97.9828 28.6853 99.912 28.6853 102.002V163.578C28.6853 165.668 30.2946 167.275 32.3866 167.275H102.712C104.804 167.275 106.413 165.668 106.413 163.578V102.002C106.413 99.912 106.413 97.9828 106.413 97.5005Z" fill="#0C0C0C"/>
<path d="M103.195 97.0181V35.6034C103.195 33.6741 101.585 32.0664 99.6544 32.0664H35.2833C33.3522 32.0664 31.7429 33.6741 31.7429 35.6034V97.0181" fill="#494949"/>
<path d="M31.9038 98.4648V159.88C31.9038 161.809 33.5131 163.417 35.4442 163.417H99.8152C101.746 163.417 103.356 161.809 103.356 159.88V98.4648" fill="url(#paint1_linear)"/>
<path d="M103.195 97.9834V36.7294C103.195 34.8001 101.585 33.1924 99.6544 33.1924H35.2833C33.3522 33.1924 31.7429 34.8001 31.7429 36.7294V98.1441" fill="url(#paint2_linear)"/>
<path opacity="0.7" d="M103.034 97.3389H31.7429V98.1427H103.034V97.3389Z" fill="#0E0E0E"/>
<path opacity="0.6588" d="M103.034 97.0176H31.7429V97.8214H103.034V97.0176Z" fill="#0E0E0E"/>
<path opacity="0.6176" d="M103.034 96.8574H31.7429V97.822H103.034V96.8574Z" fill="#0E0E0E"/>
<path opacity="0.5765" d="M103.034 96.5352H31.7429V97.6606H103.034V96.5352Z" fill="#0E0E0E"/>
<path opacity="0.5353" d="M103.034 96.375H31.7429V97.5004H103.034V96.375Z" fill="#0E0E0E"/>
<path opacity="0.4941" d="M103.034 96.0537H31.7429V97.3399H103.034V96.0537Z" fill="#0E0E0E"/>
<path opacity="0.4529" d="M103.034 95.7314H31.7429V97.1784H103.034V95.7314Z" fill="#0E0E0E"/>
<path opacity="0.4118" d="M103.034 95.5713H31.7429V97.0182H103.034V95.5713Z" fill="#0E0E0E"/>
<path opacity="0.3706" d="M103.034 95.249H31.7429V96.8567H103.034V95.249Z" fill="#0E0E0E"/>
<path opacity="0.3294" d="M103.034 94.9277H31.7429V96.6962H103.034V94.9277Z" fill="#0E0E0E"/>
<path opacity="0.2882" d="M103.034 94.7676H31.7429V96.5361H103.034V94.7676Z" fill="#0E0E0E"/>
<path opacity="0.2471" d="M103.034 94.4453H31.7429V96.3746H103.034V94.4453Z" fill="#0E0E0E"/>
<path opacity="0.2059" d="M103.034 94.2852H31.7429V96.3752H103.034V94.2852Z" fill="#0E0E0E"/>
<path opacity="0.1647" d="M103.034 93.9639H31.7429V96.0539H103.034V93.9639Z" fill="#0E0E0E"/>
<path opacity="0.1235" d="M103.034 93.6416H31.7429V95.8924H103.034V93.6416Z" fill="#0E0E0E"/>
<path opacity="0.082353" d="M103.034 93.4814H31.7429V95.893H103.034V93.4814Z" fill="#0E0E0E"/>
<path opacity="0.041176" d="M103.034 93.1592H31.7429V95.5708H103.034V93.1592Z" fill="#0E0E0E"/>
<path opacity="0.3" d="M103.195 98.7871H31.9038V99.591H103.195V98.7871Z" fill="#4C4C4C"/>
<path opacity="0.2824" d="M103.195 98.7871H31.9038V99.591H103.195V98.7871Z" fill="#4C4C4C"/>
<path opacity="0.2647" d="M103.195 98.9473H31.9038V99.9119H103.195V98.9473Z" fill="#4C4C4C"/>
<path opacity="0.2471" d="M103.195 98.9473H31.9038V100.073H103.195V98.9473Z" fill="#4C4C4C"/>
<path opacity="0.2294" d="M103.195 99.1084H31.9038V100.234H103.195V99.1084Z" fill="#4C4C4C"/>
<path opacity="0.2118" d="M103.195 99.1084H31.9038V100.395H103.195V99.1084Z" fill="#4C4C4C"/>
<path opacity="0.1941" d="M103.195 99.2695H31.9038V100.716H103.195V99.2695Z" fill="#4C4C4C"/>
<path opacity="0.1765" d="M103.195 99.2695H31.9038V100.716H103.195V99.2695Z" fill="#4C4C4C"/>
<path opacity="0.1588" d="M103.195 99.4307H31.9038V101.038H103.195V99.4307Z" fill="#4C4C4C"/>
<path opacity="0.1412" d="M103.195 99.5908H31.9038V101.359H103.195V99.5908Z" fill="#4C4C4C"/>
<path opacity="0.1235" d="M103.195 99.5908H31.9038V101.359H103.195V99.5908Z" fill="#4C4C4C"/>
<path opacity="0.1059" d="M103.195 99.752H31.9038V101.681H103.195V99.752Z" fill="#4C4C4C"/>
<path opacity="0.088235" d="M103.195 99.752H31.9038V101.842H103.195V99.752Z" fill="#4C4C4C"/>
<path opacity="0.070588" d="M103.195 99.9131H31.9038V102.003H103.195V99.9131Z" fill="#4C4C4C"/>
<path opacity="0.052941" d="M103.195 99.9131H31.9038V102.164H103.195V99.9131Z" fill="#4C4C4C"/>
<path opacity="0.035294" d="M103.195 100.073H31.9038V102.485H103.195V100.073Z" fill="#4C4C4C"/>
<path opacity="0.017647" d="M103.195 100.073H31.9038V102.485H103.195V100.073Z" fill="#4C4C4C"/>
<path d="M106.091 85.2812H99.3325V110.201H106.091V85.2812Z" fill="#0C0C0C"/>
<path d="M35.766 85.2812H29.0071V110.201H35.766V85.2812Z" fill="#0C0C0C"/>
<path d="M89.1941 126.761C89.1941 130.137 88.5503 133.031 87.4239 135.603C86.2974 138.175 84.6881 140.426 82.757 142.195C80.8258 143.963 78.5728 145.41 75.998 146.214C73.4232 147.179 70.6874 147.5 67.6298 147.5C64.5721 147.5 61.8364 147.018 59.1006 146.214C56.5258 145.249 54.2728 143.963 52.3416 142.195C50.4105 140.426 48.8012 138.175 47.6747 135.603C46.5483 133.031 45.9045 129.976 45.9045 126.761V68.4006C45.9045 65.0244 46.5483 62.1305 47.6747 59.3974C48.8012 56.825 50.4105 54.5742 52.3416 52.8057C54.2728 51.0372 56.5258 49.5903 59.1006 48.6257C61.6754 47.661 64.5721 47.1787 67.6298 47.1787C74.0669 47.1787 79.2165 48.9472 83.0788 52.6449C87.102 56.3427 89.0331 61.4874 89.0331 68.2398V126.761H89.1941ZM73.745 67.7575C73.745 65.8282 73.1013 64.3813 71.9748 63.2559C70.8483 62.1305 69.239 61.6482 67.4688 61.6482C65.5377 61.6482 64.0894 62.1305 62.8019 63.2559C61.5145 64.3813 61.0317 65.8282 61.0317 67.7575V127.243C61.0317 129.172 61.6754 130.619 62.8019 131.745C64.0894 132.87 65.5377 133.352 67.4688 133.352C69.239 133.352 70.6874 132.87 71.9748 131.745C73.1013 130.619 73.745 129.172 73.745 127.243V67.7575Z" fill="url(#paint3_linear)"/>
<path d="M106.574 97.501H31.9038V98.6264H106.574V97.501Z" fill="#0C0C0C"/>
<path d="M103.999 85.9248H100.298V109.237H103.999V85.9248Z" fill="url(#paint4_linear)"/>
<path d="M34.9616 85.9248H31.2603V109.237H34.9616V85.9248Z" fill="url(#paint5_linear)"/>
<path opacity="0.2" d="M100.942 85.9248H100.298V109.237H100.942V85.9248Z" fill="#414141"/>
<path opacity="0.2" d="M103.999 85.9248H103.356V109.237H103.999V85.9248Z" fill="#414141"/>
<path opacity="0.2" d="M31.904 85.9248H31.2603V109.237H31.904V85.9248Z" fill="#414141"/>
<path opacity="0.2" d="M34.8007 85.9248H34.157V109.237H34.8007V85.9248Z" fill="#414141"/>
</g>
<g clip-path="url(#clip1)">
<path d="M193.395 97.5005C193.395 97.0182 193.395 95.0889 193.395 92.9989V31.4233C193.395 29.3333 191.785 27.7256 189.693 27.7256H119.368C117.276 27.7256 115.667 29.3333 115.667 31.4233V92.9989C115.667 95.0889 115.667 97.0182 115.667 97.5005C115.667 97.9828 115.667 99.912 115.667 102.002V163.578C115.667 165.668 117.276 167.275 119.368 167.275H189.693C191.785 167.275 193.395 165.668 193.395 163.578V102.002C193.395 99.912 193.395 97.9828 193.395 97.5005Z" fill="#0C0C0C"/>
<path d="M190.176 97.0181V35.6034C190.176 33.6741 188.567 32.0664 186.636 32.0664H122.265C120.334 32.0664 118.724 33.6741 118.724 35.6034V97.0181" fill="#494949"/>
<path d="M118.885 98.4648V159.88C118.885 161.809 120.495 163.417 122.426 163.417H186.797C188.728 163.417 190.337 161.809 190.337 159.88V98.4648" fill="url(#paint6_linear)"/>
<path d="M190.176 97.9834V36.7294C190.176 34.8001 188.567 33.1924 186.636 33.1924H122.265C120.334 33.1924 118.724 34.8001 118.724 36.7294V98.1441" fill="url(#paint7_linear)"/>
<path opacity="0.7" d="M190.015 97.3389H118.724V98.1427H190.015V97.3389Z" fill="#0E0E0E"/>
<path opacity="0.6588" d="M190.015 97.0176H118.724V97.8214H190.015V97.0176Z" fill="#0E0E0E"/>
<path opacity="0.6176" d="M190.015 96.8574H118.724V97.822H190.015V96.8574Z" fill="#0E0E0E"/>
<path opacity="0.5765" d="M190.015 96.5352H118.724V97.6606H190.015V96.5352Z" fill="#0E0E0E"/>
<path opacity="0.5353" d="M190.015 96.375H118.724V97.5004H190.015V96.375Z" fill="#0E0E0E"/>
<path opacity="0.4941" d="M190.015 96.0537H118.724V97.3399H190.015V96.0537Z" fill="#0E0E0E"/>
<path opacity="0.4529" d="M190.015 95.7314H118.724V97.1784H190.015V95.7314Z" fill="#0E0E0E"/>
<path opacity="0.4118" d="M190.015 95.5713H118.724V97.0182H190.015V95.5713Z" fill="#0E0E0E"/>
<path opacity="0.3706" d="M190.015 95.249H118.724V96.8567H190.015V95.249Z" fill="#0E0E0E"/>
<path opacity="0.3294" d="M190.015 94.9277H118.724V96.6962H190.015V94.9277Z" fill="#0E0E0E"/>
<path opacity="0.2882" d="M190.015 94.7676H118.724V96.5361H190.015V94.7676Z" fill="#0E0E0E"/>
<path opacity="0.2471" d="M190.015 94.4453H118.724V96.3746H190.015V94.4453Z" fill="#0E0E0E"/>
<path opacity="0.2059" d="M190.015 94.2852H118.724V96.3752H190.015V94.2852Z" fill="#0E0E0E"/>
<path opacity="0.1647" d="M190.015 93.9639H118.724V96.0539H190.015V93.9639Z" fill="#0E0E0E"/>
<path opacity="0.1235" d="M190.015 93.6416H118.724V95.8924H190.015V93.6416Z" fill="#0E0E0E"/>
<path opacity="0.082353" d="M190.015 93.4814H118.724V95.893H190.015V93.4814Z" fill="#0E0E0E"/>
<path opacity="0.041176" d="M190.015 93.1592H118.724V95.5708H190.015V93.1592Z" fill="#0E0E0E"/>
<path opacity="0.3" d="M190.176 98.7871H118.885V99.591H190.176V98.7871Z" fill="#4C4C4C"/>
<path opacity="0.2824" d="M190.176 98.7871H118.885V99.591H190.176V98.7871Z" fill="#4C4C4C"/>
<path opacity="0.2647" d="M190.176 98.9473H118.885V99.9119H190.176V98.9473Z" fill="#4C4C4C"/>
<path opacity="0.2471" d="M190.176 98.9473H118.885V100.073H190.176V98.9473Z" fill="#4C4C4C"/>
<path opacity="0.2294" d="M190.176 99.1084H118.885V100.234H190.176V99.1084Z" fill="#4C4C4C"/>
<path opacity="0.2118" d="M190.176 99.1084H118.885V100.395H190.176V99.1084Z" fill="#4C4C4C"/>
<path opacity="0.1941" d="M190.176 99.2695H118.885V100.716H190.176V99.2695Z" fill="#4C4C4C"/>
<path opacity="0.1765" d="M190.176 99.2695H118.885V100.716H190.176V99.2695Z" fill="#4C4C4C"/>
<path opacity="0.1588" d="M190.176 99.4307H118.885V101.038H190.176V99.4307Z" fill="#4C4C4C"/>
<path opacity="0.1412" d="M190.176 99.5908H118.885V101.359H190.176V99.5908Z" fill="#4C4C4C"/>
<path opacity="0.1235" d="M190.176 99.5908H118.885V101.359H190.176V99.5908Z" fill="#4C4C4C"/>
<path opacity="0.1059" d="M190.176 99.752H118.885V101.681H190.176V99.752Z" fill="#4C4C4C"/>
<path opacity="0.088235" d="M190.176 99.752H118.885V101.842H190.176V99.752Z" fill="#4C4C4C"/>
<path opacity="0.070588" d="M190.176 99.9131H118.885V102.003H190.176V99.9131Z" fill="#4C4C4C"/>
<path opacity="0.052941" d="M190.176 99.9131H118.885V102.164H190.176V99.9131Z" fill="#4C4C4C"/>
<path opacity="0.035294" d="M190.176 100.073H118.885V102.485H190.176V100.073Z" fill="#4C4C4C"/>
<path opacity="0.017647" d="M190.176 100.073H118.885V102.485H190.176V100.073Z" fill="#4C4C4C"/>
<path d="M193.073 85.2812H186.314V110.201H193.073V85.2812Z" fill="#0C0C0C"/>
<path d="M122.747 85.2812H115.989V110.201H122.747V85.2812Z" fill="#0C0C0C"/>
<path d="M176.175 126.761C176.175 130.137 175.532 133.031 174.405 135.603C173.279 138.175 171.67 140.426 169.738 142.195C167.807 143.963 165.554 145.41 162.979 146.214C160.405 147.179 157.669 147.5 154.611 147.5C151.554 147.5 148.818 147.018 146.082 146.214C143.507 145.249 141.254 143.963 139.323 142.195C137.392 140.426 135.783 138.175 134.656 135.603C133.53 133.031 132.886 129.976 132.886 126.761V68.4006C132.886 65.0244 133.53 62.1305 134.656 59.3974C135.783 56.825 137.392 54.5742 139.323 52.8057C141.254 51.0372 143.507 49.5903 146.082 48.6257C148.657 47.661 151.554 47.1787 154.611 47.1787C161.048 47.1787 166.198 48.9472 170.06 52.6449C174.083 56.3427 176.015 61.4874 176.015 68.2398V126.761H176.175ZM160.726 67.7575C160.726 65.8282 160.083 64.3813 158.956 63.2559C157.83 62.1305 156.22 61.6482 154.45 61.6482C152.519 61.6482 151.071 62.1305 149.783 63.2559C148.496 64.3813 148.013 65.8282 148.013 67.7575V127.243C148.013 129.172 148.657 130.619 149.783 131.745C151.071 132.87 152.519 133.352 154.45 133.352C156.22 133.352 157.669 132.87 158.956 131.745C160.083 130.619 160.726 129.172 160.726 127.243V67.7575Z" fill="url(#paint8_linear)"/>
<path d="M193.556 97.501H118.885V98.6264H193.556V97.501Z" fill="#0C0C0C"/>
<path d="M190.981 85.9248H187.28V109.237H190.981V85.9248Z" fill="url(#paint9_linear)"/>
<path d="M121.943 85.9248H118.242V109.237H121.943V85.9248Z" fill="url(#paint10_linear)"/>
<path opacity="0.2" d="M187.923 85.9248H187.28V109.237H187.923V85.9248Z" fill="#414141"/>
<path opacity="0.2" d="M190.981 85.9248H190.337V109.237H190.981V85.9248Z" fill="#414141"/>
<path opacity="0.2" d="M118.885 85.9248H118.242V109.237H118.885V85.9248Z" fill="#414141"/>
<path opacity="0.2" d="M121.782 85.9248H121.138V109.237H121.782V85.9248Z" fill="#414141"/>
</g>
<g clip-path="url(#clip2)">
<path d="M193.395 97.5005C193.395 97.0182 193.395 95.0889 193.395 92.9989V31.4233C193.395 29.3333 191.785 27.7256 189.693 27.7256H119.368C117.276 27.7256 115.667 29.3333 115.667 31.4233V92.9989C115.667 95.0889 115.667 97.0182 115.667 97.5005C115.667 97.9828 115.667 99.912 115.667 102.002V163.578C115.667 165.668 117.276 167.275 119.368 167.275H189.693C191.785 167.275 193.395 165.668 193.395 163.578V102.002C193.395 99.912 193.395 97.9828 193.395 97.5005Z" fill="#0C0C0C"/>
<path d="M190.176 97.0181V35.6034C190.176 33.6741 188.567 32.0664 186.636 32.0664H122.265C120.334 32.0664 118.724 33.6741 118.724 35.6034V97.0181" fill="#494949"/>
<path d="M118.885 98.4648V159.88C118.885 161.809 120.495 163.417 122.426 163.417H186.797C188.728 163.417 190.337 161.809 190.337 159.88V98.4648" fill="url(#paint11_linear)"/>
<path d="M190.176 97.9834V36.7294C190.176 34.8001 188.567 33.1924 186.636 33.1924H122.265C120.334 33.1924 118.724 34.8001 118.724 36.7294V98.1441" fill="url(#paint12_linear)"/>
<path d="M154.45 61.8093C152.197 61.9701 150.588 62.9347 149.14 64.864C147.852 66.7932 147.208 70.3302 147.208 75.4749L132.081 73.7064C132.081 65.3463 134.173 58.7546 138.197 54.253C142.22 49.5906 147.691 47.3398 154.45 47.3398C162.336 47.3398 167.968 49.4299 171.348 53.6099C174.727 57.79 176.497 63.417 176.497 70.6517C176.658 74.9926 176.175 78.8511 175.21 82.2273C174.244 85.6035 172.796 89.3012 170.704 93.1598L150.749 132.71H175.532V147.018H133.047V133.674C137.231 125.636 141.415 117.597 145.599 109.558C149.783 101.52 153.807 93.4813 157.991 85.4427C159.278 83.0311 160.083 80.6196 160.405 78.208C160.726 75.7964 160.887 73.2241 160.887 70.6517C160.887 69.8479 160.887 68.8832 160.726 67.7578C160.565 66.7932 160.244 65.8286 159.761 64.864C159.278 64.0601 158.634 63.2562 157.83 62.6132C157.025 62.1308 155.899 61.8093 154.45 61.8093Z" fill="url(#paint13_linear)"/>
<path opacity="0.7" d="M190.015 97.3398H118.724V98.1437H190.015V97.3398Z" fill="#0E0E0E"/>
<path opacity="0.6588" d="M190.015 97.0176H118.724V97.8214H190.015V97.0176Z" fill="#0E0E0E"/>
<path opacity="0.6176" d="M190.015 96.8574H118.724V97.8221H190.015V96.8574Z" fill="#0E0E0E"/>
<path opacity="0.5765" d="M190.015 96.5352H118.724V97.6606H190.015V96.5352Z" fill="#0E0E0E"/>
<path opacity="0.5353" d="M190.015 96.375H118.724V97.5004H190.015V96.375Z" fill="#0E0E0E"/>
<path opacity="0.4941" d="M190.015 96.0537H118.724V97.3399H190.015V96.0537Z" fill="#0E0E0E"/>
<path opacity="0.4529" d="M190.015 95.7314H118.724V97.1784H190.015V95.7314Z" fill="#0E0E0E"/>
<path opacity="0.4118" d="M190.015 95.5713H118.724V97.0182H190.015V95.5713Z" fill="#0E0E0E"/>
<path opacity="0.3706" d="M190.015 95.25H118.724V96.8577H190.015V95.25Z" fill="#0E0E0E"/>
<path opacity="0.3294" d="M190.015 94.9277H118.724V96.6962H190.015V94.9277Z" fill="#0E0E0E"/>
<path opacity="0.2882" d="M190.015 94.7676H118.724V96.5361H190.015V94.7676Z" fill="#0E0E0E"/>
<path opacity="0.2471" d="M190.015 94.4453H118.724V96.3746H190.015V94.4453Z" fill="#0E0E0E"/>
<path opacity="0.2059" d="M190.015 94.2852H118.724V96.3752H190.015V94.2852Z" fill="#0E0E0E"/>
<path opacity="0.1647" d="M190.015 93.9639H118.724V96.0539H190.015V93.9639Z" fill="#0E0E0E"/>
<path opacity="0.1235" d="M190.015 93.6416H118.724V95.8924H190.015V93.6416Z" fill="#0E0E0E"/>
<path opacity="0.082353" d="M190.015 93.4814H118.724V95.893H190.015V93.4814Z" fill="#0E0E0E"/>
<path opacity="0.041176" d="M190.015 93.1592H118.724V95.5707H190.015V93.1592Z" fill="#0E0E0E"/>
<path opacity="0.3" d="M190.176 98.7871H118.885V99.591H190.176V98.7871Z" fill="#4C4C4C"/>
<path opacity="0.2824" d="M190.176 98.7871H118.885V99.591H190.176V98.7871Z" fill="#4C4C4C"/>
<path opacity="0.2647" d="M190.176 98.9473H118.885V99.9119H190.176V98.9473Z" fill="#4C4C4C"/>
<path opacity="0.2471" d="M190.176 98.9473H118.885V100.073H190.176V98.9473Z" fill="#4C4C4C"/>
<path opacity="0.2294" d="M190.176 99.1084H118.885V100.234H190.176V99.1084Z" fill="#4C4C4C"/>
<path opacity="0.2118" d="M190.176 99.1084H118.885V100.395H190.176V99.1084Z" fill="#4C4C4C"/>
<path opacity="0.1941" d="M190.176 99.2695H118.885V100.716H190.176V99.2695Z" fill="#4C4C4C"/>
<path opacity="0.1765" d="M190.176 99.2695H118.885V100.716H190.176V99.2695Z" fill="#4C4C4C"/>
<path opacity="0.1588" d="M190.176 99.4307H118.885V101.038H190.176V99.4307Z" fill="#4C4C4C"/>
<path opacity="0.1412" d="M190.176 99.5908H118.885V101.359H190.176V99.5908Z" fill="#4C4C4C"/>
<path opacity="0.1235" d="M190.176 99.5908H118.885V101.359H190.176V99.5908Z" fill="#4C4C4C"/>
<path opacity="0.1059" d="M190.176 99.752H118.885V101.681H190.176V99.752Z" fill="#4C4C4C"/>
<path opacity="0.088235" d="M190.176 99.752H118.885V101.842H190.176V99.752Z" fill="#4C4C4C"/>
<path opacity="0.070588" d="M190.176 99.9131H118.885V102.003H190.176V99.9131Z" fill="#4C4C4C"/>
<path opacity="0.052941" d="M190.176 99.9131H118.885V102.164H190.176V99.9131Z" fill="#4C4C4C"/>
<path opacity="0.035294" d="M190.176 100.073H118.885V102.485H190.176V100.073Z" fill="#4C4C4C"/>
<path opacity="0.017647" d="M190.176 100.073H118.885V102.485H190.176V100.073Z" fill="#4C4C4C"/>
<path d="M193.073 85.2822H186.314V110.202H193.073V85.2822Z" fill="#0C0C0C"/>
<path d="M122.747 85.2822H115.989V110.202H122.747V85.2822Z" fill="#0C0C0C"/>
<path d="M193.556 97.501H118.885V98.6264H193.556V97.501Z" fill="#0C0C0C"/>
<path d="M190.981 85.9248H187.28V109.237H190.981V85.9248Z" fill="url(#paint14_linear)"/>
<path d="M121.943 85.9248H118.242V109.237H121.943V85.9248Z" fill="url(#paint15_linear)"/>
<path opacity="0.2" d="M187.923 85.9248H187.28V109.237H187.923V85.9248Z" fill="#414141"/>
<path opacity="0.2" d="M190.981 85.9248H190.337V109.237H190.981V85.9248Z" fill="#414141"/>
<path opacity="0.2" d="M118.885 85.9248H118.242V109.237H118.885V85.9248Z" fill="#414141"/>
<path opacity="0.2" d="M121.782 85.9248H121.138V109.237H121.782V85.9248Z" fill="#414141"/>
</g>
<g clip-path="url(#clip3)">
<path d="M193.911 97.5005C193.911 97.0182 193.911 95.0889 193.911 92.9989V31.4233C193.911 29.3333 192.309 27.7256 190.227 27.7256H120.24C118.158 27.7256 116.557 29.3333 116.557 31.4233V92.9989C116.557 95.0889 116.557 97.0182 116.557 97.5005C116.557 97.9828 116.557 99.912 116.557 102.002V163.578C116.557 165.668 118.158 167.275 120.24 167.275H190.227C192.309 167.275 193.911 165.668 193.911 163.578V102.002C193.911 99.912 193.911 97.9828 193.911 97.5005Z" fill="#0C0C0C"/>
<path d="M190.708 97.0182V35.6034C190.708 33.6741 189.106 32.0664 187.184 32.0664H123.123C121.201 32.0664 119.599 33.6741 119.599 35.6034V97.0182" fill="#494949"/>
<path d="M119.76 98.4648V159.88C119.76 161.809 121.361 163.417 123.283 163.417H187.344C189.266 163.417 190.868 161.809 190.868 159.88V98.4648" fill="url(#paint16_linear)"/>
<path opacity="0.7" d="M190.548 97.3398H119.599V98.1437H190.548V97.3398Z" fill="#0E0E0E"/>
<path opacity="0.6588" d="M190.548 97.0176H119.599V97.8214H190.548V97.0176Z" fill="#0E0E0E"/>
<path opacity="0.6176" d="M190.548 96.8574H119.599V97.8221H190.548V96.8574Z" fill="#0E0E0E"/>
<path opacity="0.5765" d="M190.548 96.5352H119.599V97.6606H190.548V96.5352Z" fill="#0E0E0E"/>
<path opacity="0.5353" d="M190.548 96.375H119.599V97.5004H190.548V96.375Z" fill="#0E0E0E"/>
<path opacity="0.4941" d="M190.548 96.0537H119.599V97.3399H190.548V96.0537Z" fill="#0E0E0E"/>
<path opacity="0.4529" d="M190.548 95.7314H119.599V97.1784H190.548V95.7314Z" fill="#0E0E0E"/>
<path opacity="0.4118" d="M190.548 95.5713H119.599V97.0182H190.548V95.5713Z" fill="#0E0E0E"/>
<path opacity="0.3706" d="M190.548 95.25H119.599V96.8577H190.548V95.25Z" fill="#0E0E0E"/>
<path opacity="0.3294" d="M190.548 94.9277H119.599V96.6962H190.548V94.9277Z" fill="#0E0E0E"/>
<path opacity="0.2882" d="M190.548 94.7676H119.599V96.5361H190.548V94.7676Z" fill="#0E0E0E"/>
<path opacity="0.2471" d="M190.548 94.4453H119.599V96.3746H190.548V94.4453Z" fill="#0E0E0E"/>
<path opacity="0.2059" d="M190.548 94.2852H119.599V96.3752H190.548V94.2852Z" fill="#0E0E0E"/>
<path opacity="0.1647" d="M190.548 93.9629H119.599V96.0529H190.548V93.9629Z" fill="#0E0E0E"/>
<path opacity="0.1235" d="M190.548 93.6416H119.599V95.8924H190.548V93.6416Z" fill="#0E0E0E"/>
<path opacity="0.082353" d="M190.548 93.4814H119.599V95.893H190.548V93.4814Z" fill="#0E0E0E"/>
<path opacity="0.041176" d="M190.548 93.1592H119.599V95.5708H190.548V93.1592Z" fill="#0E0E0E"/>
<path d="M152.431 61.8093C150.189 61.9701 148.587 62.9347 147.146 64.864C145.865 66.7932 145.224 70.3302 145.224 75.4749L130.17 73.7064C130.17 65.3463 132.252 58.7546 136.256 54.253C140.259 49.5906 145.705 47.3398 152.431 47.3398C160.279 47.3398 165.884 49.4299 169.247 53.6099C172.61 57.79 174.372 63.417 174.372 70.6517C174.532 74.9926 174.052 78.8511 173.091 82.2273C172.13 85.6035 170.689 89.3012 168.607 93.1598L148.748 132.71H173.411V147.018H131.131V133.674C135.295 125.636 139.619 117.597 143.623 109.558C147.787 101.52 151.79 93.4813 155.954 85.4427C157.236 83.0311 158.036 80.6196 158.357 78.208C158.677 75.7964 158.837 73.2241 158.837 70.6517C158.837 69.8479 158.837 68.8832 158.677 67.7578C158.517 66.7932 158.197 65.8286 157.716 64.864C157.236 64.0601 156.595 63.2562 155.794 62.6131C154.994 62.1308 153.872 61.8093 152.431 61.8093Z" fill="url(#paint17_linear)"/>
<path opacity="0.3" d="M190.708 98.7871H119.76V99.591H190.708V98.7871Z" fill="#4C4C4C"/>
<path opacity="0.2824" d="M190.708 98.7871H119.76V99.591H190.708V98.7871Z" fill="#4C4C4C"/>
<path opacity="0.2647" d="M190.708 98.9473H119.76V99.9119H190.708V98.9473Z" fill="#4C4C4C"/>
<path opacity="0.2471" d="M190.708 98.9473H119.76V100.073H190.708V98.9473Z" fill="#4C4C4C"/>
<path opacity="0.2294" d="M190.708 99.1084H119.76V100.234H190.708V99.1084Z" fill="#4C4C4C"/>
<path opacity="0.2118" d="M190.708 99.1084H119.76V100.395H190.708V99.1084Z" fill="#4C4C4C"/>
<path opacity="0.1941" d="M190.708 99.2695H119.76V100.716H190.708V99.2695Z" fill="#4C4C4C"/>
<path opacity="0.1765" d="M190.708 99.2695H119.76V100.716H190.708V99.2695Z" fill="#4C4C4C"/>
<path opacity="0.1588" d="M190.708 99.4307H119.76V101.038H190.708V99.4307Z" fill="#4C4C4C"/>
<path opacity="0.1412" d="M190.708 99.5908H119.76V101.359H190.708V99.5908Z" fill="#4C4C4C"/>
<path opacity="0.1235" d="M190.708 99.5908H119.76V101.359H190.708V99.5908Z" fill="#4C4C4C"/>
<path opacity="0.1059" d="M190.708 99.752H119.76V101.681H190.708V99.752Z" fill="#4C4C4C"/>
<path opacity="0.088235" d="M190.708 99.752H119.76V101.842H190.708V99.752Z" fill="#4C4C4C"/>
<path opacity="0.070588" d="M190.708 99.9131H119.76V102.003H190.708V99.9131Z" fill="#4C4C4C"/>
<path opacity="0.052941" d="M190.708 99.9131H119.76V102.164H190.708V99.9131Z" fill="#4C4C4C"/>
<path opacity="0.035294" d="M190.708 100.073H119.76V102.485H190.708V100.073Z" fill="#4C4C4C"/>
<path opacity="0.017647" d="M190.708 100.073H119.76V102.485H190.708V100.073Z" fill="#4C4C4C"/>
<path d="M193.911 97.501H119.599V98.6264H193.911V97.501Z" fill="#0C0C0C"/>
<path d="M191.989 93.1602V137.855C191.989 139.141 190.868 140.266 189.587 140.266H121.361C120.08 140.266 118.959 139.141 118.959 137.855V93.1602" fill="url(#paint18_linear)"/>
<path d="M193.59 85.2822H186.864V110.202H193.59V85.2822Z" fill="#0C0C0C"/>
<path d="M123.603 85.2822H116.877V110.202H123.603V85.2822Z" fill="#0C0C0C"/>
<path d="M191.508 85.9248H187.825V109.237H191.508V85.9248Z" fill="url(#paint19_linear)"/>
<path d="M122.642 85.9248H118.959V109.237H122.642V85.9248Z" fill="url(#paint20_linear)"/>
<path opacity="0.2" d="M188.466 85.9248H187.825V109.237H188.466V85.9248Z" fill="#414141"/>
<path opacity="0.2" d="M191.348 85.9248H190.708V109.237H191.348V85.9248Z" fill="#414141"/>
<path opacity="0.2" d="M119.119 109.397L119.76 109.558V86.2463L119.119 85.9248V109.397Z" fill="#414141"/>
<path opacity="0.2" d="M122.642 85.9248H122.002V109.237H122.642V85.9248Z" fill="#414141"/>
<path d="M200.637 56.3427C200.477 56.0212 200.157 55.6996 199.837 55.3781C199.516 55.0565 199.036 54.8958 198.555 54.735C198.075 54.5742 197.434 54.5742 196.794 54.5742H113.033C112.393 54.5742 111.752 54.735 111.271 54.735C110.791 54.8958 110.471 55.0565 110.15 55.3781C109.83 55.6996 109.51 56.0212 109.35 56.3427C109.189 56.6642 109.189 56.9858 109.189 57.4681L118.799 94.7671H122.642L123.283 97.661H187.024L187.665 94.7671H191.509L200.637 57.4681C200.797 56.9858 200.797 56.6642 200.637 56.3427Z" fill="url(#paint21_radial)"/>
<path d="M118.478 94.7676H122.642L123.443 97.6615H129.209H187.024L187.825 94.7676H191.989" stroke="#111111" stroke-width="0.5041" stroke-miterlimit="10"/>
<g opacity="0.7">
<g opacity="0.7">
<path opacity="0.7" d="M153.072 67.2754C151.15 67.2754 149.388 67.4362 147.626 67.5969C145.865 67.7577 144.263 68.0792 142.822 68.5616C141.38 69.0439 139.939 69.5262 138.658 70.0085C137.377 70.6516 136.256 71.2947 135.134 72.0985C134.174 72.9024 133.213 73.7063 132.412 74.6709C131.611 75.6355 131.131 76.6001 130.65 77.5648C130.17 78.5294 130.01 79.6548 129.849 80.7802C129.689 81.9056 129.689 83.031 129.849 84.3172L145.384 85.2818C145.384 84.478 145.384 83.8349 145.384 83.1918C145.384 82.5487 145.544 81.9056 145.705 81.4233C145.865 80.941 146.025 80.4587 146.345 79.9763C146.666 79.494 146.826 79.1725 147.306 78.8509C147.626 78.5294 147.947 78.2079 148.427 78.0471C148.908 77.7255 149.228 77.5648 149.708 77.404C150.189 77.2432 150.669 77.0825 151.15 77.0825C151.63 76.9217 152.271 76.9217 152.751 76.9217C153.072 76.9217 153.552 76.9217 153.872 76.9217C154.193 76.9217 154.513 76.9217 154.833 77.0825C155.154 77.0825 155.474 77.2432 155.634 77.2432C155.954 77.2432 156.115 77.404 156.435 77.5648C156.595 77.7255 156.915 77.7255 157.076 77.8863C157.236 78.0471 157.396 78.0471 157.556 78.2079C157.716 78.3686 157.876 78.3686 158.036 78.5294C158.197 78.6902 158.357 78.8509 158.517 78.8509C158.677 79.0117 158.677 79.1725 158.837 79.3333C158.997 79.494 158.997 79.6548 159.158 79.8156C159.158 79.9764 159.318 80.1371 159.318 80.2979C159.318 80.4587 159.478 80.6194 159.478 80.7802C159.478 80.941 159.478 81.1017 159.478 81.2625C159.478 81.4233 159.478 81.5841 159.478 81.7448C159.478 81.9056 159.478 82.0664 159.478 82.2272C159.478 82.3879 159.478 82.5487 159.478 82.5487C159.478 82.8702 159.478 83.3526 159.478 83.6741C159.478 83.9956 159.318 84.478 159.318 84.7995C159.318 85.121 159.158 85.6034 159.158 85.9249C159.158 86.2464 158.997 86.568 158.837 87.0503C158.677 87.3718 158.677 87.6934 158.517 88.0149C158.357 88.3365 158.197 88.658 157.876 88.9796C157.716 89.3011 157.396 89.6226 157.076 89.9442C156.755 90.2657 156.435 90.5873 156.115 90.9088C155.634 91.5519 154.994 92.0342 154.513 92.5165C154.033 92.9988 153.392 93.6419 152.912 94.1243C152.431 94.6066 151.951 95.2497 151.31 95.732C150.83 96.2143 150.349 96.8574 149.869 97.3397H165.884L168.286 94.9281C168.767 94.4458 169.247 93.9635 169.728 93.4812C170.208 92.9989 170.689 92.5165 171.009 92.0342C171.489 91.5519 171.81 91.0696 172.13 90.5873C172.45 90.105 172.771 89.6226 173.091 89.1403C173.411 88.658 173.732 88.1757 173.892 87.6934C174.212 87.2111 174.372 86.568 174.532 86.0857C174.692 85.6034 174.853 84.9603 175.013 84.3172C175.173 83.6741 175.173 83.031 175.333 82.3879C175.493 81.2625 175.493 80.2979 175.333 79.3333C175.173 78.3686 175.013 77.404 174.692 76.4394C174.372 75.4747 173.892 74.6709 173.251 73.867C172.61 73.0632 171.97 72.2593 171.009 71.6162C170.208 70.9731 169.087 70.3301 167.966 69.687C166.685 69.2047 165.404 68.7223 163.802 68.24C162.2 67.9185 160.599 67.5969 158.677 67.4362C157.396 67.4362 155.314 67.2754 153.072 67.2754Z" fill="url(#paint22_linear)"/>
</g>
<g opacity="0.7">
<path opacity="0.7" d="M153.072 67.2754C151.15 67.2754 149.388 67.4362 147.626 67.5969C145.865 67.7577 144.263 68.0792 142.822 68.5616C141.38 69.0439 139.939 69.5262 138.658 70.0085C137.377 70.6516 136.256 71.2947 135.134 72.0985C134.174 72.9024 133.213 73.7063 132.412 74.6709C131.611 75.6355 131.131 76.6001 130.65 77.5648C130.17 78.5294 130.01 79.6548 129.849 80.7802C129.689 81.9056 129.689 83.031 129.849 84.3172L145.384 85.2818C145.384 84.478 145.384 83.8349 145.384 83.1918C145.384 82.5487 145.544 81.9056 145.705 81.4233C145.865 80.941 146.025 80.4587 146.345 79.9763C146.666 79.494 146.826 79.1725 147.306 78.8509C147.626 78.5294 147.947 78.2079 148.427 78.0471C148.908 77.7255 149.228 77.5648 149.708 77.404C150.189 77.2432 150.669 77.0825 151.15 77.0825C151.63 76.9217 152.271 76.9217 152.751 76.9217C153.072 76.9217 153.552 76.9217 153.872 76.9217C154.193 76.9217 154.513 76.9217 154.833 77.0825C155.154 77.0825 155.474 77.2432 155.634 77.2432C155.954 77.2432 156.115 77.404 156.435 77.5648C156.595 77.7255 156.915 77.7255 157.076 77.8863C157.236 78.0471 157.396 78.0471 157.556 78.2079C157.716 78.3686 157.876 78.3686 158.036 78.5294C158.197 78.6902 158.357 78.8509 158.517 78.8509C158.677 79.0117 158.677 79.1725 158.837 79.3333C158.997 79.494 158.997 79.6548 159.158 79.8156C159.158 79.9764 159.318 80.1371 159.318 80.2979C159.318 80.4587 159.478 80.6194 159.478 80.7802C159.478 80.941 159.478 81.1017 159.478 81.2625C159.478 81.4233 159.478 81.5841 159.478 81.7448C159.478 81.9056 159.478 82.0664 159.478 82.2272C159.478 82.3879 159.478 82.5487 159.478 82.5487C159.478 82.8702 159.478 83.3526 159.478 83.6741C159.478 83.9956 159.318 84.478 159.318 84.7995C159.318 85.121 159.158 85.6034 159.158 85.9249C159.158 86.2464 158.997 86.568 158.837 87.0503C158.677 87.3718 158.677 87.6934 158.517 88.0149C158.357 88.3365 158.197 88.658 157.876 88.9796C157.716 89.3011 157.396 89.6226 157.076 89.9442C156.755 90.2657 156.435 90.5873 156.115 90.9088C155.634 91.5519 154.994 92.0342 154.513 92.5165C154.033 92.9988 153.392 93.6419 152.912 94.1243C152.431 94.6066 151.951 95.2497 151.31 95.732C150.83 96.2143 150.349 96.8574 149.869 97.3397H165.884L168.286 94.9281C168.767 94.4458 169.247 93.9635 169.728 93.4812C170.208 92.9989 170.689 92.5165 171.009 92.0342C171.489 91.5519 171.81 91.0696 172.13 90.5873C172.45 90.105 172.771 89.6226 173.091 89.1403C173.411 88.658 173.732 88.1757 173.892 87.6934C174.212 87.2111 174.372 86.568 174.532 86.0857C174.692 85.6034 174.853 84.9603 175.013 84.3172C175.173 83.6741 175.173 83.031 175.333 82.3879C175.493 81.2625 175.493 80.2979 175.333 79.3333C175.173 78.3686 175.013 77.404 174.692 76.4394C174.372 75.4747 173.892 74.6709 173.251 73.867C172.61 73.0632 171.97 72.2593 171.009 71.6162C170.208 70.9731 169.087 70.3301 167.966 69.687C166.685 69.2047 165.404 68.7223 163.802 68.24C162.2 67.9185 160.599 67.5969 158.677 67.4362C157.396 67.4362 155.314 67.2754 153.072 67.2754Z" fill="#6D6E70"/>
</g>
</g>
<path d="M200.637 55.5389C200.637 55.6997 200.637 55.6997 200.637 55.5389C200.637 55.3782 200.637 55.0566 200.477 54.8958C200.477 54.7351 200.477 54.4135 200.317 54.2528C200.317 53.7704 199.997 53.4489 199.837 53.1274C199.036 52.1627 197.755 52.002 196.473 52.002C196.153 52.002 113.193 52.002 112.873 52.002C111.912 52.002 110.791 52.3235 110.15 52.8058C109.67 53.1274 109.35 53.6097 109.189 54.2528C109.189 54.7351 109.029 55.6997 109.029 56.182C109.189 55.2174 109.99 54.5743 110.791 54.2528C111.432 53.9312 112.072 53.9312 112.873 53.9312C113.033 53.9312 196.313 53.9312 196.633 53.9312C196.954 53.9312 197.114 53.9312 197.434 53.9312C198.715 54.092 200.317 54.7351 200.477 56.182C200.797 56.182 200.637 55.8605 200.637 55.5389Z" fill="#ADADAD"/>
<path d="M200.637 56.0214C200.637 55.8606 200.637 55.6998 200.477 55.3783C200.477 55.2175 200.477 54.896 200.317 54.7352C200.317 54.4136 199.997 53.9313 199.837 53.6098C199.036 52.6451 197.755 52.4844 196.473 52.4844C196.153 52.4844 113.033 52.4844 112.873 52.4844C111.912 52.4844 110.791 52.8059 110.15 53.2882C109.67 53.6098 109.35 54.0921 109.189 54.7352C109.189 55.2175 109.029 56.1821 109.029 56.6644C109.189 55.6998 109.99 55.0567 110.791 54.7352C111.432 54.4136 112.072 54.4136 112.873 54.4136C113.033 54.4136 196.313 54.4136 196.633 54.4136C196.954 54.4136 197.114 54.4136 197.434 54.4136C198.715 54.5744 200.317 55.2175 200.477 56.6644C200.797 56.5037 200.637 56.1821 200.637 56.0214Z" fill="url(#paint23_radial)"/>
</g>
<path d="M236.705 147.475C234.899 147.475 233.437 146.874 232.319 145.672C231.201 144.47 230.643 143.181 230.643 141.807C230.643 141.034 230.815 140.305 231.158 139.617L277.591 45.7091C278.451 43.9056 279.999 43.0039 282.235 43.0039C283.696 43.0039 285.115 43.5621 286.491 44.6785C287.953 45.7091 288.684 47.0831 288.684 48.8007C288.684 49.6595 288.512 50.4324 288.168 51.1194L241.735 144.641C241.305 145.586 240.617 146.273 239.671 146.702C238.811 147.218 237.822 147.475 236.705 147.475ZM230.256 100.07C225.096 100.07 220.754 98.8251 217.229 96.3346C213.703 93.8441 211.94 89.5502 211.94 83.4528V64.7742C211.94 58.6768 213.703 54.3828 217.229 51.8924C220.754 49.4019 225.096 48.1566 230.256 48.1566C235.415 48.1566 239.757 49.4019 243.283 51.8924C246.894 54.3828 248.7 58.6768 248.7 64.7742V83.4528C248.7 89.5502 246.894 93.8441 243.283 96.3346C239.757 98.8251 235.415 100.07 230.256 100.07ZM230.256 90.409C232.577 90.409 234.383 89.8508 235.673 88.7343C236.963 87.6179 237.607 85.8574 237.607 83.4528V64.7742C237.607 62.3696 236.963 60.609 235.673 59.4926C234.383 58.3762 232.577 57.818 230.256 57.818C225.44 57.818 223.033 60.1367 223.033 64.7742V83.4528C223.033 88.0902 225.44 90.409 230.256 90.409ZM288.426 142.709C283.18 142.709 278.795 141.464 275.27 138.973C271.744 136.483 269.982 132.189 269.982 126.092V107.413C269.982 101.401 271.744 97.1505 275.27 94.66C278.795 92.0836 283.18 90.7954 288.426 90.7954C293.499 90.7954 297.798 92.0836 301.324 94.66C304.935 97.1505 306.741 101.401 306.741 107.413V126.092C306.741 132.189 304.935 136.483 301.324 138.973C297.798 141.464 293.499 142.709 288.426 142.709ZM288.426 133.048C290.661 133.048 292.424 132.49 293.714 131.373C295.004 130.257 295.649 128.496 295.649 126.092V107.413C295.649 105.008 295.004 103.248 293.714 102.131C292.424 101.015 290.661 100.457 288.426 100.457C283.61 100.457 281.203 102.776 281.203 107.413V126.092C281.203 130.729 283.61 133.048 288.426 133.048Z" fill="url(#paint24_linear)"/>
<path d="M0 24C0 10.7452 10.7452 0 24 0H179.515L130.338 195H24C10.7452 195 0 184.255 0 171V24Z" fill="url(#paint25_linear)"/>
<rect x="6.5" y="6.5" width="334" height="182" rx="17.5" stroke="#DBDBDB" stroke-width="13"/>
<defs>
<linearGradient id="paint0_linear" x1="173.5" y1="0" x2="173.5" y2="195" gradientUnits="userSpaceOnUse">
<stop stop-color="#393937"/>
<stop offset="1" stop-color="#31302E"/>
</linearGradient>
<linearGradient id="paint1_linear" x1="67.5837" y1="96.6021" x2="67.5837" y2="168.603" gradientUnits="userSpaceOnUse">
<stop stop-color="#3B3B3B"/>
<stop offset="0.9352" stop-color="#333333"/>
</linearGradient>
<linearGradient id="paint2_linear" x1="67.5084" y1="-0.930912" x2="67.5084" y2="113.79" gradientUnits="userSpaceOnUse">
<stop stop-color="#363636"/>
<stop offset="0.4899" stop-color="#343434"/>
<stop offset="0.767" stop-color="#2B2B2B"/>
<stop offset="0.9467" stop-color="#212121"/>
</linearGradient>
<linearGradient id="paint3_linear" x1="67.5625" y1="178.359" x2="67.5625" y2="41.1359" gradientUnits="userSpaceOnUse">
<stop stop-color="#231F20"/>
<stop offset="0.5822" stop-color="white"/>
<stop offset="0.5828" stop-color="#F7F7F7"/>
<stop offset="0.5862" stop-color="#CCCCCC"/>
<stop offset="0.5896" stop-color="#ABABAB"/>
<stop offset="0.5927" stop-color="#939393"/>
<stop offset="0.5957" stop-color="#858585"/>
<stop offset="0.5982" stop-color="#808080"/>
<stop offset="0.6978" stop-color="#AFAFAF"/>
<stop offset="0.805" stop-color="#DADADA"/>
<stop offset="0.8886" stop-color="#F5F5F5"/>
<stop offset="0.9378" stop-color="white"/>
</linearGradient>
<linearGradient id="paint4_linear" x1="102.113" y1="85.9988" x2="102.113" y2="109.638" gradientUnits="userSpaceOnUse">
<stop/>
<stop offset="0.0108316" stop-color="#090909"/>
<stop offset="0.0390173" stop-color="#1A1A1A"/>
<stop offset="0.0741052" stop-color="#252525"/>
<stop offset="0.1233" stop-color="#2C2C2C"/>
<stop offset="0.26" stop-color="#2E2E2E"/>
<stop offset="0.8229" stop-color="#141313"/>
<stop offset="0.8799" stop-color="#1B1A1A"/>
<stop offset="0.9343" stop-color="#262626"/>
<stop offset="0.9492" stop-color="#242424"/>
<stop offset="0.9568" stop-color="#1C1C1C"/>
<stop offset="0.9627" stop-color="#0F0F0F"/>
<stop offset="0.9668"/>
</linearGradient>
<linearGradient id="paint5_linear" x1="33.0258" y1="85.9988" x2="33.0258" y2="109.638" gradientUnits="userSpaceOnUse">
<stop/>
<stop offset="0.0108316" stop-color="#090909"/>
<stop offset="0.0390173" stop-color="#1A1A1A"/>
<stop offset="0.0741052" stop-color="#252525"/>
<stop offset="0.1233" stop-color="#2C2C2C"/>
<stop offset="0.26" stop-color="#2E2E2E"/>
<stop offset="0.8229" stop-color="#141313"/>
<stop offset="0.8799" stop-color="#1B1A1A"/>
<stop offset="0.9343" stop-color="#262626"/>
<stop offset="0.9492" stop-color="#242424"/>
<stop offset="0.9568" stop-color="#1C1C1C"/>
<stop offset="0.9627" stop-color="#0F0F0F"/>
<stop offset="0.9668"/>
</linearGradient>
<linearGradient id="paint6_linear" x1="154.565" y1="96.6021" x2="154.565" y2="168.603" gradientUnits="userSpaceOnUse">
<stop stop-color="#3B3B3B"/>
<stop offset="0.9352" stop-color="#333333"/>
</linearGradient>
<linearGradient id="paint7_linear" x1="154.49" y1="-0.930912" x2="154.49" y2="113.79" gradientUnits="userSpaceOnUse">
<stop stop-color="#363636"/>
<stop offset="0.4899" stop-color="#343434"/>
<stop offset="0.767" stop-color="#2B2B2B"/>
<stop offset="0.9467" stop-color="#212121"/>
</linearGradient>
<linearGradient id="paint8_linear" x1="154.544" y1="178.359" x2="154.544" y2="41.1359" gradientUnits="userSpaceOnUse">
<stop stop-color="#231F20"/>
<stop offset="0.5822" stop-color="white"/>
<stop offset="0.5828" stop-color="#F7F7F7"/>
<stop offset="0.5862" stop-color="#CCCCCC"/>
<stop offset="0.5896" stop-color="#ABABAB"/>
<stop offset="0.5927" stop-color="#939393"/>
<stop offset="0.5957" stop-color="#858585"/>
<stop offset="0.5982" stop-color="#808080"/>
<stop offset="0.6978" stop-color="#AFAFAF"/>
<stop offset="0.805" stop-color="#DADADA"/>
<stop offset="0.8886" stop-color="#F5F5F5"/>
<stop offset="0.9378" stop-color="white"/>
</linearGradient>
<linearGradient id="paint9_linear" x1="189.094" y1="85.9988" x2="189.094" y2="109.638" gradientUnits="userSpaceOnUse">
<stop/>
<stop offset="0.0108316" stop-color="#090909"/>
<stop offset="0.0390173" stop-color="#1A1A1A"/>
<stop offset="0.0741052" stop-color="#252525"/>
<stop offset="0.1233" stop-color="#2C2C2C"/>
<stop offset="0.26" stop-color="#2E2E2E"/>
<stop offset="0.8229" stop-color="#141313"/>
<stop offset="0.8799" stop-color="#1B1A1A"/>
<stop offset="0.9343" stop-color="#262626"/>
<stop offset="0.9492" stop-color="#242424"/>
<stop offset="0.9568" stop-color="#1C1C1C"/>
<stop offset="0.9627" stop-color="#0F0F0F"/>
<stop offset="0.9668"/>
</linearGradient>
<linearGradient id="paint10_linear" x1="120.007" y1="85.9988" x2="120.007" y2="109.638" gradientUnits="userSpaceOnUse">
<stop/>
<stop offset="0.0108316" stop-color="#090909"/>
<stop offset="0.0390173" stop-color="#1A1A1A"/>
<stop offset="0.0741052" stop-color="#252525"/>
<stop offset="0.1233" stop-color="#2C2C2C"/>
<stop offset="0.26" stop-color="#2E2E2E"/>
<stop offset="0.8229" stop-color="#141313"/>
<stop offset="0.8799" stop-color="#1B1A1A"/>
<stop offset="0.9343" stop-color="#262626"/>
<stop offset="0.9492" stop-color="#242424"/>
<stop offset="0.9568" stop-color="#1C1C1C"/>
<stop offset="0.9627" stop-color="#0F0F0F"/>
<stop offset="0.9668"/>
</linearGradient>
<linearGradient id="paint11_linear" x1="154.564" y1="96.6021" x2="154.564" y2="168.603" gradientUnits="userSpaceOnUse">
<stop stop-color="#3B3B3B"/>
<stop offset="0.9352" stop-color="#333333"/>
</linearGradient>
<linearGradient id="paint12_linear" x1="154.488" y1="-0.930912" x2="154.488" y2="113.79" gradientUnits="userSpaceOnUse">
<stop stop-color="#363636"/>
<stop offset="0.4899" stop-color="#343434"/>
<stop offset="0.767" stop-color="#2B2B2B"/>
<stop offset="0.9467" stop-color="#212121"/>
</linearGradient>
<linearGradient id="paint13_linear" x1="154.369" y1="177.479" x2="154.369" y2="41.4209" gradientUnits="userSpaceOnUse">
<stop stop-color="#231F20"/>
<stop offset="0.5822" stop-color="white"/>
<stop offset="0.5828" stop-color="#F7F7F7"/>
<stop offset="0.5862" stop-color="#CCCCCC"/>
<stop offset="0.5896" stop-color="#ABABAB"/>
<stop offset="0.5927" stop-color="#939393"/>
<stop offset="0.5957" stop-color="#858585"/>
<stop offset="0.5982" stop-color="#808080"/>
<stop offset="0.6978" stop-color="#AFAFAF"/>
<stop offset="0.805" stop-color="#DADADA"/>
<stop offset="0.8886" stop-color="#F5F5F5"/>
<stop offset="0.9378" stop-color="white"/>
</linearGradient>
<linearGradient id="paint14_linear" x1="189.094" y1="85.9988" x2="189.094" y2="109.638" gradientUnits="userSpaceOnUse">
<stop/>
<stop offset="0.0108316" stop-color="#090909"/>
<stop offset="0.0390173" stop-color="#1A1A1A"/>
<stop offset="0.0741052" stop-color="#252525"/>
<stop offset="0.1233" stop-color="#2C2C2C"/>
<stop offset="0.26" stop-color="#2E2E2E"/>
<stop offset="0.8229" stop-color="#141313"/>
<stop offset="0.8799" stop-color="#1B1A1A"/>
<stop offset="0.9343" stop-color="#262626"/>
<stop offset="0.9492" stop-color="#242424"/>
<stop offset="0.9568" stop-color="#1C1C1C"/>
<stop offset="0.9627" stop-color="#0F0F0F"/>
<stop offset="0.9668"/>
</linearGradient>
<linearGradient id="paint15_linear" x1="120.007" y1="85.9988" x2="120.007" y2="109.638" gradientUnits="userSpaceOnUse">
<stop/>
<stop offset="0.0108316" stop-color="#090909"/>
<stop offset="0.0390173" stop-color="#1A1A1A"/>
<stop offset="0.0741052" stop-color="#252525"/>
<stop offset="0.1233" stop-color="#2C2C2C"/>
<stop offset="0.26" stop-color="#2E2E2E"/>
<stop offset="0.8229" stop-color="#141313"/>
<stop offset="0.8799" stop-color="#1B1A1A"/>
<stop offset="0.9343" stop-color="#262626"/>
<stop offset="0.9492" stop-color="#242424"/>
<stop offset="0.9568" stop-color="#1C1C1C"/>
<stop offset="0.9627" stop-color="#0F0F0F"/>
<stop offset="0.9668"/>
</linearGradient>
<linearGradient id="paint16_linear" x1="155.247" y1="96.6021" x2="155.247" y2="168.603" gradientUnits="userSpaceOnUse">
<stop stop-color="#3B3B3B"/>
<stop offset="0.9352" stop-color="#333333"/>
</linearGradient>
<linearGradient id="paint17_linear" x1="152.429" y1="177.479" x2="152.429" y2="41.4209" gradientUnits="userSpaceOnUse">
<stop stop-color="#231F20"/>
<stop offset="0.5822" stop-color="white"/>
<stop offset="0.5828" stop-color="#F7F7F7"/>
<stop offset="0.5862" stop-color="#CCCCCC"/>
<stop offset="0.5896" stop-color="#ABABAB"/>
<stop offset="0.5927" stop-color="#939393"/>
<stop offset="0.5957" stop-color="#858585"/>
<stop offset="0.5982" stop-color="#808080"/>
<stop offset="0.6978" stop-color="#AFAFAF"/>
<stop offset="0.805" stop-color="#DADADA"/>
<stop offset="0.8886" stop-color="#F5F5F5"/>
<stop offset="0.9378" stop-color="white"/>
</linearGradient>
<linearGradient id="paint18_linear" x1="155.449" y1="91.828" x2="155.449" y2="144.251" gradientUnits="userSpaceOnUse">
<stop offset="0.119792" stop-opacity="0.77"/>
<stop offset="0.9143" stop-opacity="0"/>
</linearGradient>
<linearGradient id="paint19_linear" x1="189.61" y1="85.9988" x2="189.61" y2="109.638" gradientUnits="userSpaceOnUse">
<stop/>
<stop offset="0.0555725" stop-color="#0B0B0B"/>
<stop offset="0.1357" stop-color="#121212"/>
<stop offset="0.3586" stop-color="#141414"/>
<stop offset="0.8229" stop-color="#141313"/>
<stop offset="0.8799" stop-color="#1B1A1A"/>
<stop offset="0.9343" stop-color="#262626"/>
<stop offset="0.9492" stop-color="#242424"/>
<stop offset="0.9568" stop-color="#1C1C1C"/>
<stop offset="0.9627" stop-color="#0F0F0F"/>
<stop offset="0.9668"/>
</linearGradient>
<linearGradient id="paint20_linear" x1="120.854" y1="85.9988" x2="120.854" y2="109.638" gradientUnits="userSpaceOnUse">
<stop/>
<stop offset="0.0555725" stop-color="#0B0B0B"/>
<stop offset="0.1357" stop-color="#121212"/>
<stop offset="0.3586" stop-color="#141414"/>
<stop offset="0.8229" stop-color="#141313"/>
<stop offset="0.8799" stop-color="#1B1A1A"/>
<stop offset="0.9343" stop-color="#262626"/>
<stop offset="0.9492" stop-color="#242424"/>
<stop offset="0.9568" stop-color="#1C1C1C"/>
<stop offset="0.9627" stop-color="#0F0F0F"/>
<stop offset="0.9668"/>
</linearGradient>
<radialGradient id="paint21_radial" cx="0" cy="0" r="1" gradientUnits="userSpaceOnUse" gradientTransform="translate(154.073 106.505) scale(100.554 43.6279)">
<stop offset="0.00256996" stop-color="#2B2B2B"/>
<stop offset="0.3875" stop-color="#232323"/>
<stop offset="0.9059" stop-color="#1F1F1F"/>
</radialGradient>
<linearGradient id="paint22_linear" x1="153.002" y1="51.4021" x2="153.002" y2="124.35" gradientUnits="userSpaceOnUse">
<stop offset="0.0668925" stop-color="#4D4D4D"/>
<stop offset="0.2476" stop-color="#505050"/>
<stop offset="0.3891" stop-color="#5A5A5A"/>
<stop offset="0.5172" stop-color="#6B6B6B"/>
<stop offset="0.6375" stop-color="#828282"/>
<stop offset="0.7524" stop-color="#A0A0A0"/>
<stop offset="0.8631" stop-color="#C5C5C5"/>
<stop offset="0.9685" stop-color="#F1F1F1"/>
<stop offset="1" stop-color="white"/>
</linearGradient>
<radialGradient id="paint23_radial" cx="0" cy="0" r="1" gradientUnits="userSpaceOnUse" gradientTransform="translate(154.979 54.6105) scale(64.7971 65.0471)">
<stop offset="0.0102082" stop-color="#5C5C5C"/>
<stop offset="0.3658" stop-color="#5A5A5A"/>
<stop offset="0.4938" stop-color="#535353"/>
<stop offset="0.5848" stop-color="#484848"/>
<stop offset="0.6582" stop-color="#373737"/>
<stop offset="0.6612" stop-color="#363636"/>
<stop offset="0.6658" stop-color="#3B3B3B"/>
<stop offset="0.6932" stop-color="#535353"/>
<stop offset="0.71" stop-color="#5C5C5C"/>
</radialGradient>
<linearGradient id="paint24_linear" x1="258.698" y1="37.8912" x2="258.698" y2="146.724" gradientUnits="userSpaceOnUse">
<stop stop-color="white"/>
<stop offset="1" stop-color="#A8A8A8"/>
</linearGradient>
<linearGradient id="paint25_linear" x1="209.5" y1="0" x2="209.5" y2="195" gradientUnits="userSpaceOnUse">
<stop stop-color="white" stop-opacity="0.15"/>
<stop offset="1" stop-color="white" stop-opacity="0.13"/>
</linearGradient>
<clipPath id="clip0">
<rect width="77.728" height="139.55" fill="white" transform="translate(28.6853 27.7256)"/>
</clipPath>
<clipPath id="clip1">
<rect width="77.728" height="139.55" fill="white" transform="translate(115.667 27.7256)"/>
</clipPath>
<clipPath id="clip2">
<rect width="77.728" height="139.55" fill="white" transform="translate(115.667 27.7256)"/>
</clipPath>
<clipPath id="clip3">
<rect width="91.608" height="139.55" fill="white" transform="translate(109.189 27.7256)"/>
</clipPath>
</defs>
</svg>
