<svg width="355" height="203" viewBox="0 0 355 203" fill="none" xmlns="http://www.w3.org/2000/svg">
<g filter="url(#filter0_d)">
<rect x="14" y="10" width="327" height="175" rx="14" fill="url(#paint0_linear)" stroke="#2B2B29" stroke-width="20"/>
<g clip-path="url(#clip0)">
<path d="M110.413 97.5005C110.413 97.0182 110.413 95.0889 110.413 92.9989V31.4233C110.413 29.3333 108.804 27.7256 106.712 27.7256H36.3866C34.2946 27.7256 32.6853 29.3333 32.6853 31.4233V92.9989C32.6853 95.0889 32.6853 97.0182 32.6853 97.5005C32.6853 97.9828 32.6853 99.912 32.6853 102.002V163.578C32.6853 165.668 34.2946 167.275 36.3866 167.275H106.712C108.804 167.275 110.413 165.668 110.413 163.578V102.002C110.413 99.912 110.413 97.9828 110.413 97.5005Z" fill="#0C0C0C"/>
<path d="M107.195 97.0181V35.6034C107.195 33.6741 105.585 32.0664 103.654 32.0664H39.2833C37.3522 32.0664 35.7429 33.6741 35.7429 35.6034V97.0181" fill="#494949"/>
<path d="M35.9038 98.4648V159.88C35.9038 161.809 37.5131 163.417 39.4442 163.417H103.815C105.746 163.417 107.356 161.809 107.356 159.88V98.4648" fill="url(#paint1_linear)"/>
<path d="M107.195 97.9834V36.7294C107.195 34.8001 105.585 33.1924 103.654 33.1924H39.2833C37.3522 33.1924 35.7429 34.8001 35.7429 36.7294V98.1441" fill="url(#paint2_linear)"/>
<path opacity="0.7" d="M107.034 97.3389H35.7429V98.1427H107.034V97.3389Z" fill="#0E0E0E"/>
<path opacity="0.6588" d="M107.034 97.0176H35.7429V97.8214H107.034V97.0176Z" fill="#0E0E0E"/>
<path opacity="0.6176" d="M107.034 96.8574H35.7429V97.822H107.034V96.8574Z" fill="#0E0E0E"/>
<path opacity="0.5765" d="M107.034 96.5352H35.7429V97.6606H107.034V96.5352Z" fill="#0E0E0E"/>
<path opacity="0.5353" d="M107.034 96.375H35.7429V97.5004H107.034V96.375Z" fill="#0E0E0E"/>
<path opacity="0.4941" d="M107.034 96.0537H35.7429V97.3399H107.034V96.0537Z" fill="#0E0E0E"/>
<path opacity="0.4529" d="M107.034 95.7314H35.7429V97.1784H107.034V95.7314Z" fill="#0E0E0E"/>
<path opacity="0.4118" d="M107.034 95.5713H35.7429V97.0182H107.034V95.5713Z" fill="#0E0E0E"/>
<path opacity="0.3706" d="M107.034 95.249H35.7429V96.8567H107.034V95.249Z" fill="#0E0E0E"/>
<path opacity="0.3294" d="M107.034 94.9277H35.7429V96.6962H107.034V94.9277Z" fill="#0E0E0E"/>
<path opacity="0.2882" d="M107.034 94.7676H35.7429V96.5361H107.034V94.7676Z" fill="#0E0E0E"/>
<path opacity="0.2471" d="M107.034 94.4453H35.7429V96.3746H107.034V94.4453Z" fill="#0E0E0E"/>
<path opacity="0.2059" d="M107.034 94.2852H35.7429V96.3752H107.034V94.2852Z" fill="#0E0E0E"/>
<path opacity="0.1647" d="M107.034 93.9639H35.7429V96.0539H107.034V93.9639Z" fill="#0E0E0E"/>
<path opacity="0.1235" d="M107.034 93.6416H35.7429V95.8924H107.034V93.6416Z" fill="#0E0E0E"/>
<path opacity="0.082353" d="M107.034 93.4814H35.7429V95.893H107.034V93.4814Z" fill="#0E0E0E"/>
<path opacity="0.041176" d="M107.034 93.1592H35.7429V95.5708H107.034V93.1592Z" fill="#0E0E0E"/>
<path opacity="0.3" d="M107.195 98.7871H35.9038V99.591H107.195V98.7871Z" fill="#4C4C4C"/>
<path opacity="0.2824" d="M107.195 98.7871H35.9038V99.591H107.195V98.7871Z" fill="#4C4C4C"/>
<path opacity="0.2647" d="M107.195 98.9473H35.9038V99.9119H107.195V98.9473Z" fill="#4C4C4C"/>
<path opacity="0.2471" d="M107.195 98.9473H35.9038V100.073H107.195V98.9473Z" fill="#4C4C4C"/>
<path opacity="0.2294" d="M107.195 99.1084H35.9038V100.234H107.195V99.1084Z" fill="#4C4C4C"/>
<path opacity="0.2118" d="M107.195 99.1084H35.9038V100.395H107.195V99.1084Z" fill="#4C4C4C"/>
<path opacity="0.1941" d="M107.195 99.2695H35.9038V100.716H107.195V99.2695Z" fill="#4C4C4C"/>
<path opacity="0.1765" d="M107.195 99.2695H35.9038V100.716H107.195V99.2695Z" fill="#4C4C4C"/>
<path opacity="0.1588" d="M107.195 99.4307H35.9038V101.038H107.195V99.4307Z" fill="#4C4C4C"/>
<path opacity="0.1412" d="M107.195 99.5908H35.9038V101.359H107.195V99.5908Z" fill="#4C4C4C"/>
<path opacity="0.1235" d="M107.195 99.5908H35.9038V101.359H107.195V99.5908Z" fill="#4C4C4C"/>
<path opacity="0.1059" d="M107.195 99.752H35.9038V101.681H107.195V99.752Z" fill="#4C4C4C"/>
<path opacity="0.088235" d="M107.195 99.752H35.9038V101.842H107.195V99.752Z" fill="#4C4C4C"/>
<path opacity="0.070588" d="M107.195 99.9131H35.9038V102.003H107.195V99.9131Z" fill="#4C4C4C"/>
<path opacity="0.052941" d="M107.195 99.9131H35.9038V102.164H107.195V99.9131Z" fill="#4C4C4C"/>
<path opacity="0.035294" d="M107.195 100.073H35.9038V102.485H107.195V100.073Z" fill="#4C4C4C"/>
<path opacity="0.017647" d="M107.195 100.073H35.9038V102.485H107.195V100.073Z" fill="#4C4C4C"/>
<path d="M110.091 85.2812H103.333V110.201H110.091V85.2812Z" fill="#0C0C0C"/>
<path d="M39.766 85.2812H33.0071V110.201H39.766V85.2812Z" fill="#0C0C0C"/>
<path d="M93.1941 126.761C93.1941 130.137 92.5503 133.031 91.4239 135.603C90.2974 138.175 88.6881 140.426 86.757 142.195C84.8258 143.963 82.5728 145.41 79.998 146.214C77.4232 147.179 74.6874 147.5 71.6298 147.5C68.5721 147.5 65.8364 147.018 63.1006 146.214C60.5258 145.249 58.2728 143.963 56.3416 142.195C54.4105 140.426 52.8012 138.175 51.6747 135.603C50.5483 133.031 49.9045 129.976 49.9045 126.761V68.4006C49.9045 65.0244 50.5483 62.1305 51.6747 59.3974C52.8012 56.825 54.4105 54.5742 56.3416 52.8057C58.2728 51.0372 60.5258 49.5903 63.1006 48.6257C65.6754 47.661 68.5721 47.1787 71.6298 47.1787C78.0669 47.1787 83.2165 48.9472 87.0788 52.6449C91.102 56.3427 93.0331 61.4874 93.0331 68.2398V126.761H93.1941ZM77.745 67.7575C77.745 65.8282 77.1013 64.3813 75.9748 63.2559C74.8483 62.1305 73.239 61.6482 71.4688 61.6482C69.5377 61.6482 68.0894 62.1305 66.8019 63.2559C65.5145 64.3813 65.0317 65.8282 65.0317 67.7575V127.243C65.0317 129.172 65.6754 130.619 66.8019 131.745C68.0894 132.87 69.5377 133.352 71.4688 133.352C73.239 133.352 74.6874 132.87 75.9748 131.745C77.1013 130.619 77.745 129.172 77.745 127.243V67.7575Z" fill="url(#paint3_linear)"/>
<path d="M110.574 97.501H35.9038V98.6264H110.574V97.501Z" fill="#0C0C0C"/>
<path d="M107.999 85.9248H104.298V109.237H107.999V85.9248Z" fill="url(#paint4_linear)"/>
<path d="M38.9616 85.9248H35.2603V109.237H38.9616V85.9248Z" fill="url(#paint5_linear)"/>
<path opacity="0.2" d="M104.942 85.9248H104.298V109.237H104.942V85.9248Z" fill="#414141"/>
<path opacity="0.2" d="M107.999 85.9248H107.356V109.237H107.999V85.9248Z" fill="#414141"/>
<path opacity="0.2" d="M35.904 85.9248H35.2603V109.237H35.904V85.9248Z" fill="#414141"/>
<path opacity="0.2" d="M38.8007 85.9248H38.157V109.237H38.8007V85.9248Z" fill="#414141"/>
</g>
<g clip-path="url(#clip1)">
<path d="M197.395 97.5005C197.395 97.0182 197.395 95.0889 197.395 92.9989V31.4233C197.395 29.3333 195.785 27.7256 193.693 27.7256H123.368C121.276 27.7256 119.667 29.3333 119.667 31.4233V92.9989C119.667 95.0889 119.667 97.0182 119.667 97.5005C119.667 97.9828 119.667 99.912 119.667 102.002V163.578C119.667 165.668 121.276 167.275 123.368 167.275H193.693C195.785 167.275 197.395 165.668 197.395 163.578V102.002C197.395 99.912 197.395 97.9828 197.395 97.5005Z" fill="#0C0C0C"/>
<path d="M194.176 97.0181V35.6034C194.176 33.6741 192.567 32.0664 190.636 32.0664H126.265C124.334 32.0664 122.724 33.6741 122.724 35.6034V97.0181" fill="#494949"/>
<path d="M122.885 98.4648V159.88C122.885 161.809 124.495 163.417 126.426 163.417H190.797C192.728 163.417 194.337 161.809 194.337 159.88V98.4648" fill="url(#paint6_linear)"/>
<path d="M194.176 97.9834V36.7294C194.176 34.8001 192.567 33.1924 190.636 33.1924H126.265C124.334 33.1924 122.724 34.8001 122.724 36.7294V98.1441" fill="url(#paint7_linear)"/>
<path opacity="0.7" d="M194.015 97.3389H122.724V98.1427H194.015V97.3389Z" fill="#0E0E0E"/>
<path opacity="0.6588" d="M194.015 97.0176H122.724V97.8214H194.015V97.0176Z" fill="#0E0E0E"/>
<path opacity="0.6176" d="M194.015 96.8574H122.724V97.822H194.015V96.8574Z" fill="#0E0E0E"/>
<path opacity="0.5765" d="M194.015 96.5352H122.724V97.6606H194.015V96.5352Z" fill="#0E0E0E"/>
<path opacity="0.5353" d="M194.015 96.375H122.724V97.5004H194.015V96.375Z" fill="#0E0E0E"/>
<path opacity="0.4941" d="M194.015 96.0537H122.724V97.3399H194.015V96.0537Z" fill="#0E0E0E"/>
<path opacity="0.4529" d="M194.015 95.7314H122.724V97.1784H194.015V95.7314Z" fill="#0E0E0E"/>
<path opacity="0.4118" d="M194.015 95.5713H122.724V97.0182H194.015V95.5713Z" fill="#0E0E0E"/>
<path opacity="0.3706" d="M194.015 95.249H122.724V96.8567H194.015V95.249Z" fill="#0E0E0E"/>
<path opacity="0.3294" d="M194.015 94.9277H122.724V96.6962H194.015V94.9277Z" fill="#0E0E0E"/>
<path opacity="0.2882" d="M194.015 94.7676H122.724V96.5361H194.015V94.7676Z" fill="#0E0E0E"/>
<path opacity="0.2471" d="M194.015 94.4453H122.724V96.3746H194.015V94.4453Z" fill="#0E0E0E"/>
<path opacity="0.2059" d="M194.015 94.2852H122.724V96.3752H194.015V94.2852Z" fill="#0E0E0E"/>
<path opacity="0.1647" d="M194.015 93.9639H122.724V96.0539H194.015V93.9639Z" fill="#0E0E0E"/>
<path opacity="0.1235" d="M194.015 93.6416H122.724V95.8924H194.015V93.6416Z" fill="#0E0E0E"/>
<path opacity="0.082353" d="M194.015 93.4814H122.724V95.893H194.015V93.4814Z" fill="#0E0E0E"/>
<path opacity="0.041176" d="M194.015 93.1592H122.724V95.5708H194.015V93.1592Z" fill="#0E0E0E"/>
<path opacity="0.3" d="M194.176 98.7871H122.885V99.591H194.176V98.7871Z" fill="#4C4C4C"/>
<path opacity="0.2824" d="M194.176 98.7871H122.885V99.591H194.176V98.7871Z" fill="#4C4C4C"/>
<path opacity="0.2647" d="M194.176 98.9473H122.885V99.9119H194.176V98.9473Z" fill="#4C4C4C"/>
<path opacity="0.2471" d="M194.176 98.9473H122.885V100.073H194.176V98.9473Z" fill="#4C4C4C"/>
<path opacity="0.2294" d="M194.176 99.1084H122.885V100.234H194.176V99.1084Z" fill="#4C4C4C"/>
<path opacity="0.2118" d="M194.176 99.1084H122.885V100.395H194.176V99.1084Z" fill="#4C4C4C"/>
<path opacity="0.1941" d="M194.176 99.2695H122.885V100.716H194.176V99.2695Z" fill="#4C4C4C"/>
<path opacity="0.1765" d="M194.176 99.2695H122.885V100.716H194.176V99.2695Z" fill="#4C4C4C"/>
<path opacity="0.1588" d="M194.176 99.4307H122.885V101.038H194.176V99.4307Z" fill="#4C4C4C"/>
<path opacity="0.1412" d="M194.176 99.5908H122.885V101.359H194.176V99.5908Z" fill="#4C4C4C"/>
<path opacity="0.1235" d="M194.176 99.5908H122.885V101.359H194.176V99.5908Z" fill="#4C4C4C"/>
<path opacity="0.1059" d="M194.176 99.752H122.885V101.681H194.176V99.752Z" fill="#4C4C4C"/>
<path opacity="0.088235" d="M194.176 99.752H122.885V101.842H194.176V99.752Z" fill="#4C4C4C"/>
<path opacity="0.070588" d="M194.176 99.9131H122.885V102.003H194.176V99.9131Z" fill="#4C4C4C"/>
<path opacity="0.052941" d="M194.176 99.9131H122.885V102.164H194.176V99.9131Z" fill="#4C4C4C"/>
<path opacity="0.035294" d="M194.176 100.073H122.885V102.485H194.176V100.073Z" fill="#4C4C4C"/>
<path opacity="0.017647" d="M194.176 100.073H122.885V102.485H194.176V100.073Z" fill="#4C4C4C"/>
<path d="M197.073 85.2812H190.314V110.201H197.073V85.2812Z" fill="#0C0C0C"/>
<path d="M126.747 85.2812H119.989V110.201H126.747V85.2812Z" fill="#0C0C0C"/>
<path d="M180.175 126.761C180.175 130.137 179.532 133.031 178.405 135.603C177.279 138.175 175.67 140.426 173.738 142.195C171.807 143.963 169.554 145.41 166.979 146.214C164.405 147.179 161.669 147.5 158.611 147.5C155.554 147.5 152.818 147.018 150.082 146.214C147.507 145.249 145.254 143.963 143.323 142.195C141.392 140.426 139.783 138.175 138.656 135.603C137.53 133.031 136.886 129.976 136.886 126.761V68.4006C136.886 65.0244 137.53 62.1305 138.656 59.3974C139.783 56.825 141.392 54.5742 143.323 52.8057C145.254 51.0372 147.507 49.5903 150.082 48.6257C152.657 47.661 155.554 47.1787 158.611 47.1787C165.048 47.1787 170.198 48.9472 174.06 52.6449C178.083 56.3427 180.015 61.4874 180.015 68.2398V126.761H180.175ZM164.726 67.7575C164.726 65.8282 164.083 64.3813 162.956 63.2559C161.83 62.1305 160.22 61.6482 158.45 61.6482C156.519 61.6482 155.071 62.1305 153.783 63.2559C152.496 64.3813 152.013 65.8282 152.013 67.7575V127.243C152.013 129.172 152.657 130.619 153.783 131.745C155.071 132.87 156.519 133.352 158.45 133.352C160.22 133.352 161.669 132.87 162.956 131.745C164.083 130.619 164.726 129.172 164.726 127.243V67.7575Z" fill="url(#paint8_linear)"/>
<path d="M197.556 97.501H122.885V98.6264H197.556V97.501Z" fill="#0C0C0C"/>
<path d="M194.981 85.9248H191.28V109.237H194.981V85.9248Z" fill="url(#paint9_linear)"/>
<path d="M125.943 85.9248H122.242V109.237H125.943V85.9248Z" fill="url(#paint10_linear)"/>
<path opacity="0.2" d="M191.923 85.9248H191.28V109.237H191.923V85.9248Z" fill="#414141"/>
<path opacity="0.2" d="M194.981 85.9248H194.337V109.237H194.981V85.9248Z" fill="#414141"/>
<path opacity="0.2" d="M122.885 85.9248H122.242V109.237H122.885V85.9248Z" fill="#414141"/>
<path opacity="0.2" d="M125.782 85.9248H125.138V109.237H125.782V85.9248Z" fill="#414141"/>
</g>
<g clip-path="url(#clip2)">
<path d="M197.395 97.5005C197.395 97.0182 197.395 95.0889 197.395 92.9989V31.4233C197.395 29.3333 195.785 27.7256 193.693 27.7256H123.368C121.276 27.7256 119.667 29.3333 119.667 31.4233V92.9989C119.667 95.0889 119.667 97.0182 119.667 97.5005C119.667 97.9828 119.667 99.912 119.667 102.002V163.578C119.667 165.668 121.276 167.275 123.368 167.275H193.693C195.785 167.275 197.395 165.668 197.395 163.578V102.002C197.395 99.912 197.395 97.9828 197.395 97.5005Z" fill="#0C0C0C"/>
<path d="M194.176 97.0181V35.6034C194.176 33.6741 192.567 32.0664 190.636 32.0664H126.265C124.334 32.0664 122.724 33.6741 122.724 35.6034V97.0181" fill="#494949"/>
<path d="M122.885 98.4648V159.88C122.885 161.809 124.495 163.417 126.426 163.417H190.797C192.728 163.417 194.337 161.809 194.337 159.88V98.4648" fill="url(#paint11_linear)"/>
<path d="M194.176 97.9834V36.7294C194.176 34.8001 192.567 33.1924 190.636 33.1924H126.265C124.334 33.1924 122.724 34.8001 122.724 36.7294V98.1441" fill="url(#paint12_linear)"/>
<path d="M172.129 96.2148C175.509 97.6617 177.601 99.9125 178.727 102.806C179.693 105.7 180.336 108.916 180.336 112.453L180.175 123.867C180.175 131.745 178.083 137.694 174.06 141.713C169.876 145.732 164.405 147.822 157.485 147.822C149.438 147.822 143.645 145.572 140.104 141.231C136.564 136.89 134.955 130.62 135.438 122.581L150.565 120.813C150.082 125.475 150.565 128.851 151.852 130.781C153.301 132.71 155.071 133.675 157.485 133.675C159.255 133.675 160.703 133.031 162.312 131.906C163.761 130.781 164.565 128.53 164.565 125.314V111.97C164.565 108.594 163.761 106.343 162.312 104.896C160.864 103.449 158.611 102.806 155.875 102.806H151.691V89.7839H156.68C159.416 89.7839 161.508 89.1408 162.956 87.8547C164.405 86.5685 165.048 84.3177 165.048 81.263V70.3305C165.048 68.4013 164.565 66.6328 163.761 64.8643C162.956 63.0958 161.186 62.292 158.772 62.292C156.358 62.292 154.588 63.2566 153.14 65.1859C151.691 67.1151 151.048 70.3305 151.048 74.8321L136.081 72.7421C136.242 65.0251 138.495 58.9158 142.679 54.4142C146.863 49.7518 152.496 47.501 159.577 47.501C163.439 47.501 166.658 48.1441 169.393 49.2695C171.968 50.5556 174.221 52.1634 175.83 54.0926C177.44 56.1826 178.566 58.4334 179.371 61.0058C180.014 63.5781 180.497 66.3113 180.497 68.8836V76.7614C180.497 78.6907 180.497 80.4592 180.336 82.3884C180.175 84.1569 179.854 85.9254 179.371 87.5331C178.888 89.1408 178.083 90.5878 176.957 92.0347C175.83 93.4817 174.382 94.6071 172.451 95.5717V96.2148H172.129Z" fill="url(#paint13_linear)"/>
<path opacity="0.7" d="M194.015 97.3398H122.724V98.1437H194.015V97.3398Z" fill="#0E0E0E"/>
<path opacity="0.6588" d="M194.015 97.0176H122.724V97.8214H194.015V97.0176Z" fill="#0E0E0E"/>
<path opacity="0.6176" d="M194.015 96.8574H122.724V97.8221H194.015V96.8574Z" fill="#0E0E0E"/>
<path opacity="0.5765" d="M194.015 96.5352H122.724V97.6606H194.015V96.5352Z" fill="#0E0E0E"/>
<path opacity="0.5353" d="M194.015 96.375H122.724V97.5004H194.015V96.375Z" fill="#0E0E0E"/>
<path opacity="0.4941" d="M194.015 96.0537H122.724V97.3399H194.015V96.0537Z" fill="#0E0E0E"/>
<path opacity="0.4529" d="M194.015 95.7314H122.724V97.1784H194.015V95.7314Z" fill="#0E0E0E"/>
<path opacity="0.4118" d="M194.015 95.5713H122.724V97.0182H194.015V95.5713Z" fill="#0E0E0E"/>
<path opacity="0.3706" d="M194.015 95.25H122.724V96.8577H194.015V95.25Z" fill="#0E0E0E"/>
<path opacity="0.3294" d="M194.015 94.9277H122.724V96.6962H194.015V94.9277Z" fill="#0E0E0E"/>
<path opacity="0.2882" d="M194.015 94.7676H122.724V96.5361H194.015V94.7676Z" fill="#0E0E0E"/>
<path opacity="0.2471" d="M194.015 94.4453H122.724V96.3746H194.015V94.4453Z" fill="#0E0E0E"/>
<path opacity="0.2059" d="M194.015 94.2852H122.724V96.3752H194.015V94.2852Z" fill="#0E0E0E"/>
<path opacity="0.1647" d="M194.015 93.9639H122.724V96.0539H194.015V93.9639Z" fill="#0E0E0E"/>
<path opacity="0.1235" d="M194.015 93.6416H122.724V95.8924H194.015V93.6416Z" fill="#0E0E0E"/>
<path opacity="0.082353" d="M194.015 93.4814H122.724V95.893H194.015V93.4814Z" fill="#0E0E0E"/>
<path opacity="0.041176" d="M194.015 93.1592H122.724V95.5707H194.015V93.1592Z" fill="#0E0E0E"/>
<path opacity="0.3" d="M194.176 98.7871H122.885V99.591H194.176V98.7871Z" fill="#4C4C4C"/>
<path opacity="0.2824" d="M194.176 98.7871H122.885V99.591H194.176V98.7871Z" fill="#4C4C4C"/>
<path opacity="0.2647" d="M194.176 98.9473H122.885V99.9119H194.176V98.9473Z" fill="#4C4C4C"/>
<path opacity="0.2471" d="M194.176 98.9473H122.885V100.073H194.176V98.9473Z" fill="#4C4C4C"/>
<path opacity="0.2294" d="M194.176 99.1084H122.885V100.234H194.176V99.1084Z" fill="#4C4C4C"/>
<path opacity="0.2118" d="M194.176 99.1084H122.885V100.395H194.176V99.1084Z" fill="#4C4C4C"/>
<path opacity="0.1941" d="M194.176 99.2695H122.885V100.716H194.176V99.2695Z" fill="#4C4C4C"/>
<path opacity="0.1765" d="M194.176 99.2695H122.885V100.716H194.176V99.2695Z" fill="#4C4C4C"/>
<path opacity="0.1588" d="M194.176 99.4307H122.885V101.038H194.176V99.4307Z" fill="#4C4C4C"/>
<path opacity="0.1412" d="M194.176 99.5908H122.885V101.359H194.176V99.5908Z" fill="#4C4C4C"/>
<path opacity="0.1235" d="M194.176 99.5908H122.885V101.359H194.176V99.5908Z" fill="#4C4C4C"/>
<path opacity="0.1059" d="M194.176 99.752H122.885V101.681H194.176V99.752Z" fill="#4C4C4C"/>
<path opacity="0.088235" d="M194.176 99.752H122.885V101.842H194.176V99.752Z" fill="#4C4C4C"/>
<path opacity="0.070588" d="M194.176 99.9131H122.885V102.003H194.176V99.9131Z" fill="#4C4C4C"/>
<path opacity="0.052941" d="M194.176 99.9131H122.885V102.164H194.176V99.9131Z" fill="#4C4C4C"/>
<path opacity="0.035294" d="M194.176 100.073H122.885V102.485H194.176V100.073Z" fill="#4C4C4C"/>
<path opacity="0.017647" d="M194.176 100.073H122.885V102.485H194.176V100.073Z" fill="#4C4C4C"/>
<path d="M197.073 85.2822H190.314V110.202H197.073V85.2822Z" fill="#0C0C0C"/>
<path d="M126.747 85.2822H119.989V110.202H126.747V85.2822Z" fill="#0C0C0C"/>
<path d="M197.556 97.501H122.885V98.6264H197.556V97.501Z" fill="#0C0C0C"/>
<path d="M194.981 85.9248H191.28V109.237H194.981V85.9248Z" fill="url(#paint14_linear)"/>
<path d="M125.943 85.9248H122.242V109.237H125.943V85.9248Z" fill="url(#paint15_linear)"/>
<path opacity="0.2" d="M191.923 85.9248H191.28V109.237H191.923V85.9248Z" fill="#414141"/>
<path opacity="0.2" d="M194.981 85.9248H194.337V109.237H194.981V85.9248Z" fill="#414141"/>
<path opacity="0.2" d="M122.885 85.9248H122.242V109.237H122.885V85.9248Z" fill="#414141"/>
<path opacity="0.2" d="M125.782 85.9248H125.138V109.237H125.782V85.9248Z" fill="#414141"/>
</g>
<g clip-path="url(#clip3)">
<path d="M197.911 97.5005C197.911 97.0182 197.911 95.0889 197.911 92.9989V31.4233C197.911 29.3333 196.309 27.7256 194.227 27.7256H124.24C122.158 27.7256 120.557 29.3333 120.557 31.4233V92.9989C120.557 95.0889 120.557 97.0182 120.557 97.5005C120.557 97.9828 120.557 99.912 120.557 102.002V163.578C120.557 165.668 122.158 167.275 124.24 167.275H194.227C196.309 167.275 197.911 165.668 197.911 163.578V102.002C197.911 99.912 197.911 97.9828 197.911 97.5005Z" fill="#0C0C0C"/>
<path d="M194.708 97.0182V35.6034C194.708 33.6741 193.106 32.0664 191.184 32.0664H127.123C125.201 32.0664 123.599 33.6741 123.599 35.6034V97.0182" fill="#494949"/>
<path d="M123.76 98.4648V159.88C123.76 161.809 125.361 163.417 127.283 163.417H191.344C193.266 163.417 194.868 161.809 194.868 159.88V98.4648" fill="url(#paint16_linear)"/>
<path d="M173.888 96.054C177.251 97.5009 179.333 99.7518 180.454 102.646C181.415 105.54 182.056 108.755 182.056 112.292L181.896 123.707C181.896 131.585 179.814 137.533 175.81 141.552C171.646 145.572 166.2 147.662 159.314 147.662C151.306 147.662 145.541 145.411 142.017 141.07C138.494 136.729 137.052 130.459 137.533 122.421L152.587 120.652C152.107 125.314 152.587 128.691 153.869 130.62C155.31 132.549 157.072 133.514 159.474 133.514C161.236 133.514 162.677 132.871 164.279 131.745C165.72 130.62 166.521 128.369 166.521 125.154V111.81C166.521 108.433 165.72 106.183 164.279 104.736C162.837 103.289 160.595 102.646 157.872 102.646H153.708V89.6231H158.673C161.396 89.6231 163.478 88.9801 164.919 87.6939C166.361 86.4077 167.001 84.1569 167.001 81.1022V70.1698C167.001 68.2405 166.521 66.472 165.72 64.7035C164.919 62.9351 163.158 62.1312 160.755 62.1312C158.353 62.1312 156.591 63.0958 155.15 65.0251C153.708 66.9543 153.068 70.1698 153.068 74.6714L138.013 72.7421C138.174 65.0251 140.416 58.9158 144.58 54.4142C148.744 49.7518 154.349 47.501 161.396 47.501C165.24 47.501 168.443 48.1441 171.165 49.2695C173.728 50.5556 175.97 52.1634 177.571 54.0926C179.173 56.1826 180.294 58.4334 181.095 61.0058C181.735 63.5781 182.216 66.3113 182.216 68.8836V76.7614C182.216 78.6907 182.216 80.4592 182.056 82.3884C181.896 84.1569 181.575 85.9254 181.095 87.5331C180.614 89.1408 179.814 90.5878 178.692 92.0347C177.571 93.4817 176.13 94.6071 174.208 95.5717V96.054H173.888Z" fill="url(#paint17_linear)"/>
<path d="M194.708 97.9824V36.7284C194.708 34.7991 193.106 33.1914 191.184 33.1914H127.123C125.201 33.1914 123.599 34.7991 123.599 36.7284V98.1431" fill="url(#paint18_linear)"/>
<path d="M172.927 46.6963H158.033L143.779 95.2493H158.673L172.927 46.6963Z" fill="#E6E7E8"/>
<path opacity="0.7" d="M194.548 97.3398H123.599V98.1437H194.548V97.3398Z" fill="#0E0E0E"/>
<path opacity="0.6588" d="M194.548 97.0176H123.599V97.8214H194.548V97.0176Z" fill="#0E0E0E"/>
<path opacity="0.6176" d="M194.548 96.8574H123.599V97.8221H194.548V96.8574Z" fill="#0E0E0E"/>
<path opacity="0.5765" d="M194.548 96.5352H123.599V97.6606H194.548V96.5352Z" fill="#0E0E0E"/>
<path opacity="0.5353" d="M194.548 96.375H123.599V97.5004H194.548V96.375Z" fill="#0E0E0E"/>
<path opacity="0.4941" d="M194.548 96.0537H123.599V97.3399H194.548V96.0537Z" fill="#0E0E0E"/>
<path opacity="0.4529" d="M194.548 95.7314H123.599V97.1784H194.548V95.7314Z" fill="#0E0E0E"/>
<path opacity="0.4118" d="M194.548 95.5713H123.599V97.0182H194.548V95.5713Z" fill="#0E0E0E"/>
<path opacity="0.3706" d="M194.548 95.25H123.599V96.8577H194.548V95.25Z" fill="#0E0E0E"/>
<path opacity="0.3294" d="M194.548 94.9277H123.599V96.6962H194.548V94.9277Z" fill="#0E0E0E"/>
<path opacity="0.2882" d="M194.548 94.7676H123.599V96.5361H194.548V94.7676Z" fill="#0E0E0E"/>
<path opacity="0.2471" d="M194.548 94.4453H123.599V96.3746H194.548V94.4453Z" fill="#0E0E0E"/>
<path opacity="0.2059" d="M194.548 94.2852H123.599V96.3752H194.548V94.2852Z" fill="#0E0E0E"/>
<path opacity="0.1647" d="M194.548 93.9629H123.599V96.0529H194.548V93.9629Z" fill="#0E0E0E"/>
<path opacity="0.1235" d="M194.548 93.6416H123.599V95.8924H194.548V93.6416Z" fill="#0E0E0E"/>
<path opacity="0.082353" d="M194.548 93.4814H123.599V95.893H194.548V93.4814Z" fill="#0E0E0E"/>
<path opacity="0.041176" d="M194.548 93.1592H123.599V95.5708H194.548V93.1592Z" fill="#0E0E0E"/>
<path opacity="0.3" d="M194.708 98.7871H123.76V99.591H194.708V98.7871Z" fill="#4C4C4C"/>
<path opacity="0.2824" d="M194.708 98.7871H123.76V99.591H194.708V98.7871Z" fill="#4C4C4C"/>
<path opacity="0.2647" d="M194.708 98.9473H123.76V99.9119H194.708V98.9473Z" fill="#4C4C4C"/>
<path opacity="0.2471" d="M194.708 98.9473H123.76V100.073H194.708V98.9473Z" fill="#4C4C4C"/>
<path opacity="0.2294" d="M194.708 99.1084H123.76V100.234H194.708V99.1084Z" fill="#4C4C4C"/>
<path opacity="0.2118" d="M194.708 99.1084H123.76V100.395H194.708V99.1084Z" fill="#4C4C4C"/>
<path opacity="0.1941" d="M194.708 99.2695H123.76V100.716H194.708V99.2695Z" fill="#4C4C4C"/>
<path opacity="0.1765" d="M194.708 99.2695H123.76V100.716H194.708V99.2695Z" fill="#4C4C4C"/>
<path opacity="0.1588" d="M194.708 99.4307H123.76V101.038H194.708V99.4307Z" fill="#4C4C4C"/>
<path opacity="0.1412" d="M194.708 99.5908H123.76V101.359H194.708V99.5908Z" fill="#4C4C4C"/>
<path opacity="0.1235" d="M194.708 99.5908H123.76V101.359H194.708V99.5908Z" fill="#4C4C4C"/>
<path opacity="0.1059" d="M194.708 99.752H123.76V101.681H194.708V99.752Z" fill="#4C4C4C"/>
<path opacity="0.088235" d="M194.708 99.752H123.76V101.842H194.708V99.752Z" fill="#4C4C4C"/>
<path opacity="0.070588" d="M194.708 99.9131H123.76V102.003H194.708V99.9131Z" fill="#4C4C4C"/>
<path opacity="0.052941" d="M194.708 99.9131H123.76V102.164H194.708V99.9131Z" fill="#4C4C4C"/>
<path opacity="0.035294" d="M194.708 100.073H123.76V102.485H194.708V100.073Z" fill="#4C4C4C"/>
<path opacity="0.017647" d="M194.708 100.073H123.76V102.485H194.708V100.073Z" fill="#4C4C4C"/>
<path d="M197.911 97.501H123.599V98.6264H197.911V97.501Z" fill="#0C0C0C"/>
<path d="M195.989 93.1602V137.855C195.989 139.141 194.868 140.266 193.587 140.266H125.361C124.08 140.266 122.959 139.141 122.959 137.855V93.1602" fill="url(#paint19_linear)"/>
<path d="M197.59 85.2822H190.864V110.202H197.59V85.2822Z" fill="#0C0C0C"/>
<path d="M127.603 85.2822H120.877V110.202H127.603V85.2822Z" fill="#0C0C0C"/>
<path d="M195.508 85.9248H191.825V109.237H195.508V85.9248Z" fill="url(#paint20_linear)"/>
<path d="M126.642 85.9248H122.959V109.237H126.642V85.9248Z" fill="url(#paint21_linear)"/>
<path opacity="0.2" d="M192.466 85.9248H191.825V109.237H192.466V85.9248Z" fill="#414141"/>
<path opacity="0.2" d="M195.348 85.9248H194.708V109.237H195.348V85.9248Z" fill="#414141"/>
<path opacity="0.2" d="M123.76 85.9248H123.119V109.237H123.76V85.9248Z" fill="#414141"/>
<path opacity="0.2" d="M126.642 85.9248H126.002V109.237H126.642V85.9248Z" fill="#414141"/>
<path d="M204.637 56.3427C204.477 56.0212 204.157 55.6996 203.837 55.3781C203.516 55.0565 203.036 54.8958 202.555 54.735C202.075 54.5742 201.434 54.5742 200.794 54.5742H117.033C116.393 54.5742 115.752 54.735 115.271 54.735C114.791 54.8958 114.471 55.0565 114.15 55.3781C113.83 55.6996 113.51 56.0212 113.35 56.3427C113.189 56.6642 113.189 56.9858 113.189 57.4681L122.799 94.7671H126.642L127.283 97.661H191.024L191.665 94.7671H195.509L204.637 57.4681C204.797 56.9858 204.797 56.6642 204.637 56.3427Z" fill="url(#paint22_radial)"/>
<path d="M122.478 94.7676H126.642L127.443 97.6615H133.209H191.024L191.825 94.7676H195.989" stroke="#111111" stroke-width="0.5041" stroke-miterlimit="10"/>
<g opacity="0.7">
<g opacity="0.7">
<path opacity="0.7" d="M161.075 67.7578C159.153 67.7578 157.232 67.9186 155.63 68.0794C153.868 68.2401 152.267 68.5617 150.825 68.8832C149.384 69.2048 147.943 69.6871 146.661 70.3302C145.38 70.9732 144.259 71.6163 143.138 72.2594C142.177 73.0633 141.216 73.8671 140.415 74.671C139.615 75.4749 139.134 76.4395 138.654 77.4041C138.173 78.3687 137.853 79.3334 137.693 80.298C137.533 81.2626 137.533 82.388 137.533 83.5134L152.587 84.6388C152.587 83.9958 152.587 83.3527 152.587 82.8703C152.587 82.2273 152.747 81.7449 152.907 81.2626C153.068 80.7803 153.228 80.298 153.548 79.9765C153.868 79.6549 154.029 79.1726 154.509 79.0118C154.829 78.6903 155.15 78.5295 155.63 78.208C156.111 78.0472 156.431 77.7257 156.911 77.7257C157.392 77.5649 157.872 77.4041 158.513 77.4041C158.993 77.4041 159.634 77.2433 160.275 77.2433C160.915 77.2433 161.556 77.2433 162.036 77.4041C162.517 77.4041 162.997 77.5649 163.478 77.7257C163.958 77.8864 164.278 78.0472 164.599 78.208C164.919 78.3687 165.239 78.6903 165.399 78.8511C165.56 79.1726 165.72 79.3334 165.88 79.6549C166.04 79.9765 166.2 80.1372 166.2 80.4588C166.36 80.7803 166.36 80.9411 166.36 81.2626C166.36 81.5842 166.36 81.7449 166.36 82.0665L166.04 88.1758C166.04 88.6581 166.04 88.9797 165.88 89.3012C165.72 89.6228 165.72 89.9443 165.399 90.2658C165.239 90.5874 164.919 90.7482 164.759 91.0697C164.439 91.2305 164.118 91.552 163.798 91.7128C163.478 91.8736 162.997 92.0343 162.677 92.1951C162.196 92.3559 161.876 92.3559 161.235 92.5166C160.755 92.6774 160.275 92.6774 159.634 92.6774C158.993 92.6774 158.513 92.6774 157.872 92.6774H153.228L153.388 97.179H175.489C175.329 97.0183 175.009 97.0183 174.849 96.8575C174.528 96.6967 174.368 96.6967 174.048 96.5359C173.727 96.3752 173.567 96.3752 173.247 96.2144C172.927 96.0536 172.606 96.0536 172.286 95.8929V95.5713C172.767 95.4105 173.087 95.4105 173.567 95.2498C174.048 95.089 174.368 94.9282 174.688 94.7675C175.009 94.6067 175.329 94.4459 175.649 94.2851C175.97 94.1244 176.29 93.9636 176.61 93.8028C176.931 93.642 177.091 93.4813 177.411 93.3205C177.731 93.1597 177.891 92.999 178.052 92.8382C178.212 92.6774 178.532 92.5166 178.692 92.1951C178.852 92.0343 179.013 91.7128 179.173 91.552C179.333 91.3912 179.493 91.0697 179.653 90.9089C179.813 90.7482 179.973 90.4266 179.973 90.2658C180.134 90.1051 180.134 89.7835 180.294 89.6228C180.454 89.462 180.454 89.1404 180.454 88.8189C180.454 88.4974 180.614 88.3366 180.614 88.015C180.614 87.6935 180.774 87.5327 180.774 87.2112C180.774 86.8896 180.934 86.7289 180.934 86.4073C180.934 86.0858 181.095 85.925 181.095 85.6035L181.735 81.1019C181.735 80.7803 181.735 80.298 181.895 79.9765C181.895 79.6549 181.895 79.1726 181.895 78.8511C181.895 78.5295 181.735 78.0472 181.735 77.7257C181.575 77.2433 181.575 76.9218 181.415 76.4395C181.255 75.9572 181.095 75.6356 180.934 75.3141C180.774 74.9925 180.454 74.5102 180.294 74.1887C179.973 73.8671 179.813 73.3848 179.333 73.0633C179.013 72.7417 178.692 72.4202 178.212 72.0986C177.891 71.7771 177.411 71.4556 176.931 71.134C176.45 70.8125 175.97 70.4909 175.329 70.3302C174.849 70.0086 174.208 69.8478 173.567 69.5263C172.927 69.2048 172.286 69.044 171.645 68.8832C171.005 68.7224 170.204 68.5617 169.403 68.4009C168.603 68.2401 167.802 68.0794 166.841 68.0794C166.04 67.9186 165.079 67.9186 164.118 67.7578C163.157 67.7578 162.036 67.7578 161.075 67.7578Z" fill="url(#paint23_linear)"/>
</g>
<g opacity="0.7">
<path opacity="0.7" d="M161.075 67.7578C159.153 67.7578 157.232 67.9186 155.63 68.0794C153.868 68.2401 152.267 68.5617 150.825 68.8832C149.384 69.2048 147.943 69.6871 146.661 70.3302C145.38 70.9732 144.259 71.6163 143.138 72.2594C142.177 73.0633 141.216 73.8671 140.415 74.671C139.615 75.4749 139.134 76.4395 138.654 77.4041C138.173 78.3687 137.853 79.3334 137.693 80.298C137.533 81.2626 137.533 82.388 137.533 83.5134L152.587 84.6388C152.587 83.9958 152.587 83.3527 152.587 82.8703C152.587 82.2273 152.747 81.7449 152.907 81.2626C153.068 80.7803 153.228 80.298 153.548 79.9765C153.868 79.6549 154.029 79.1726 154.509 79.0118C154.829 78.6903 155.15 78.5295 155.63 78.208C156.111 78.0472 156.431 77.7257 156.911 77.7257C157.392 77.5649 157.872 77.4041 158.513 77.4041C158.993 77.4041 159.634 77.2433 160.275 77.2433C160.915 77.2433 161.556 77.2433 162.036 77.4041C162.517 77.4041 162.997 77.5649 163.478 77.7257C163.958 77.8864 164.278 78.0472 164.599 78.208C164.919 78.3687 165.239 78.6903 165.399 78.8511C165.56 79.1726 165.72 79.3334 165.88 79.6549C166.04 79.9765 166.2 80.1372 166.2 80.4588C166.36 80.7803 166.36 80.9411 166.36 81.2626C166.36 81.5842 166.36 81.7449 166.36 82.0665L166.04 88.1758C166.04 88.6581 166.04 88.9797 165.88 89.3012C165.72 89.6228 165.72 89.9443 165.399 90.2658C165.239 90.5874 164.919 90.7482 164.759 91.0697C164.439 91.2305 164.118 91.552 163.798 91.7128C163.478 91.8736 162.997 92.0343 162.677 92.1951C162.196 92.3559 161.876 92.3559 161.235 92.5166C160.755 92.6774 160.275 92.6774 159.634 92.6774C158.993 92.6774 158.513 92.6774 157.872 92.6774H153.228L153.388 97.179H175.489C175.329 97.0183 175.009 97.0183 174.849 96.8575C174.528 96.6967 174.368 96.6967 174.048 96.5359C173.727 96.3752 173.567 96.3752 173.247 96.2144C172.927 96.0536 172.606 96.0536 172.286 95.8929V95.5713C172.767 95.4105 173.087 95.4105 173.567 95.2498C174.048 95.089 174.368 94.9282 174.688 94.7675C175.009 94.6067 175.329 94.4459 175.649 94.2851C175.97 94.1244 176.29 93.9636 176.61 93.8028C176.931 93.642 177.091 93.4813 177.411 93.3205C177.731 93.1597 177.891 92.999 178.052 92.8382C178.212 92.6774 178.532 92.5166 178.692 92.1951C178.852 92.0343 179.013 91.7128 179.173 91.552C179.333 91.3912 179.493 91.0697 179.653 90.9089C179.813 90.7482 179.973 90.4266 179.973 90.2658C180.134 90.1051 180.134 89.7835 180.294 89.6228C180.454 89.462 180.454 89.1404 180.454 88.8189C180.454 88.4974 180.614 88.3366 180.614 88.015C180.614 87.6935 180.774 87.5327 180.774 87.2112C180.774 86.8896 180.934 86.7289 180.934 86.4073C180.934 86.0858 181.095 85.925 181.095 85.6035L181.735 81.1019C181.735 80.7803 181.735 80.298 181.895 79.9765C181.895 79.6549 181.895 79.1726 181.895 78.8511C181.895 78.5295 181.735 78.0472 181.735 77.7257C181.575 77.2433 181.575 76.9218 181.415 76.4395C181.255 75.9572 181.095 75.6356 180.934 75.3141C180.774 74.9925 180.454 74.5102 180.294 74.1887C179.973 73.8671 179.813 73.3848 179.333 73.0633C179.013 72.7417 178.692 72.4202 178.212 72.0986C177.891 71.7771 177.411 71.4556 176.931 71.134C176.45 70.8125 175.97 70.4909 175.329 70.3302C174.849 70.0086 174.208 69.8478 173.567 69.5263C172.927 69.2048 172.286 69.044 171.645 68.8832C171.005 68.7224 170.204 68.5617 169.403 68.4009C168.603 68.2401 167.802 68.0794 166.841 68.0794C166.04 67.9186 165.079 67.9186 164.118 67.7578C163.157 67.7578 162.036 67.7578 161.075 67.7578Z" fill="#6D6E70"/>
</g>
</g>
<path d="M204.637 55.5389C204.637 55.6997 204.637 55.6997 204.637 55.5389C204.637 55.3782 204.637 55.0566 204.477 54.8958C204.477 54.7351 204.477 54.4135 204.317 54.2528C204.317 53.7704 203.997 53.4489 203.837 53.1274C203.036 52.1627 201.755 52.002 200.473 52.002C200.153 52.002 117.193 52.002 116.873 52.002C115.912 52.002 114.791 52.3235 114.15 52.8058C113.67 53.1274 113.35 53.6097 113.189 54.2528C113.189 54.7351 113.029 55.6997 113.029 56.182C113.189 55.2174 113.99 54.5743 114.791 54.2528C115.432 53.9312 116.072 53.9312 116.873 53.9312C117.033 53.9312 200.313 53.9312 200.633 53.9312C200.954 53.9312 201.114 53.9312 201.434 53.9312C202.715 54.092 204.317 54.7351 204.477 56.182C204.797 56.182 204.637 55.8605 204.637 55.5389Z" fill="#ADADAD"/>
<path d="M204.637 56.0214C204.637 55.8606 204.637 55.6998 204.477 55.3783C204.477 55.2175 204.477 54.896 204.317 54.7352C204.317 54.4136 203.997 53.9313 203.837 53.6098C203.036 52.6451 201.755 52.4844 200.473 52.4844C200.153 52.4844 117.033 52.4844 116.873 52.4844C115.912 52.4844 114.791 52.8059 114.15 53.2882C113.67 53.6098 113.35 54.0921 113.189 54.7352C113.189 55.2175 113.029 56.1821 113.029 56.6644C113.189 55.6998 113.99 55.0567 114.791 54.7352C115.432 54.4136 116.072 54.4136 116.873 54.4136C117.033 54.4136 200.313 54.4136 200.633 54.4136C200.954 54.4136 201.114 54.4136 201.434 54.4136C202.715 54.5744 204.317 55.2175 204.477 56.6644C204.797 56.5037 204.637 56.1821 204.637 56.0214Z" fill="url(#paint24_radial)"/>
</g>
<path d="M240.705 147.475C238.899 147.475 237.437 146.874 236.319 145.672C235.201 144.47 234.643 143.181 234.643 141.807C234.643 141.034 234.815 140.305 235.158 139.617L281.591 45.7091C282.451 43.9056 283.999 43.0039 286.235 43.0039C287.696 43.0039 289.115 43.5621 290.491 44.6785C291.953 45.7091 292.684 47.0831 292.684 48.8007C292.684 49.6595 292.512 50.4324 292.168 51.1194L245.735 144.641C245.305 145.586 244.617 146.273 243.671 146.702C242.811 147.218 241.822 147.475 240.705 147.475ZM234.256 100.07C229.096 100.07 224.754 98.8251 221.229 96.3346C217.703 93.8441 215.94 89.5502 215.94 83.4528V64.7742C215.94 58.6768 217.703 54.3828 221.229 51.8924C224.754 49.4019 229.096 48.1566 234.256 48.1566C239.415 48.1566 243.757 49.4019 247.283 51.8924C250.894 54.3828 252.7 58.6768 252.7 64.7742V83.4528C252.7 89.5502 250.894 93.8441 247.283 96.3346C243.757 98.8251 239.415 100.07 234.256 100.07ZM234.256 90.409C236.577 90.409 238.383 89.8508 239.673 88.7343C240.963 87.6179 241.607 85.8574 241.607 83.4528V64.7742C241.607 62.3696 240.963 60.609 239.673 59.4926C238.383 58.3762 236.577 57.818 234.256 57.818C229.44 57.818 227.033 60.1367 227.033 64.7742V83.4528C227.033 88.0902 229.44 90.409 234.256 90.409ZM292.426 142.709C287.18 142.709 282.795 141.464 279.27 138.973C275.744 136.483 273.982 132.189 273.982 126.092V107.413C273.982 101.401 275.744 97.1505 279.27 94.66C282.795 92.0836 287.18 90.7954 292.426 90.7954C297.499 90.7954 301.798 92.0836 305.324 94.66C308.935 97.1505 310.741 101.401 310.741 107.413V126.092C310.741 132.189 308.935 136.483 305.324 138.973C301.798 141.464 297.499 142.709 292.426 142.709ZM292.426 133.048C294.661 133.048 296.424 132.49 297.714 131.373C299.004 130.257 299.649 128.496 299.649 126.092V107.413C299.649 105.008 299.004 103.248 297.714 102.131C296.424 101.015 294.661 100.457 292.426 100.457C287.61 100.457 285.203 102.776 285.203 107.413V126.092C285.203 130.729 287.61 133.048 292.426 133.048Z" fill="url(#paint25_linear)"/>
<path d="M4 24C4 10.7452 14.7452 0 28 0H183.515L134.338 195H28C14.7452 195 4 184.255 4 171V24Z" fill="url(#paint26_linear)"/>
<rect x="10.5" y="6.5" width="334" height="182" rx="17.5" stroke="#DBDBDB" stroke-width="13"/>
</g>
<defs>
<filter id="filter0_d" x="0" y="0" width="355" height="203" filterUnits="userSpaceOnUse" color-interpolation-filters="sRGB">
<feFlood flood-opacity="0" result="BackgroundImageFix"/>
<feColorMatrix in="SourceAlpha" type="matrix" values="0 0 0 0 0 0 0 0 0 0 0 0 0 0 0 0 0 0 127 0"/>
<feOffset dy="4"/>
<feGaussianBlur stdDeviation="2"/>
<feColorMatrix type="matrix" values="0 0 0 0 0 0 0 0 0 0 0 0 0 0 0 0 0 0 0.25 0"/>
<feBlend mode="normal" in2="BackgroundImageFix" result="effect1_dropShadow"/>
<feBlend mode="normal" in="SourceGraphic" in2="effect1_dropShadow" result="shape"/>
</filter>
<linearGradient id="paint0_linear" x1="177.5" y1="0" x2="177.5" y2="195" gradientUnits="userSpaceOnUse">
<stop stop-color="#393937"/>
<stop offset="1" stop-color="#31302E"/>
</linearGradient>
<linearGradient id="paint1_linear" x1="71.5837" y1="96.6021" x2="71.5837" y2="168.603" gradientUnits="userSpaceOnUse">
<stop stop-color="#3B3B3B"/>
<stop offset="0.9352" stop-color="#333333"/>
</linearGradient>
<linearGradient id="paint2_linear" x1="71.5084" y1="-0.930912" x2="71.5084" y2="113.79" gradientUnits="userSpaceOnUse">
<stop stop-color="#363636"/>
<stop offset="0.4899" stop-color="#343434"/>
<stop offset="0.767" stop-color="#2B2B2B"/>
<stop offset="0.9467" stop-color="#212121"/>
</linearGradient>
<linearGradient id="paint3_linear" x1="71.5625" y1="178.359" x2="71.5625" y2="41.1359" gradientUnits="userSpaceOnUse">
<stop stop-color="#231F20"/>
<stop offset="0.5822" stop-color="white"/>
<stop offset="0.5828" stop-color="#F7F7F7"/>
<stop offset="0.5862" stop-color="#CCCCCC"/>
<stop offset="0.5896" stop-color="#ABABAB"/>
<stop offset="0.5927" stop-color="#939393"/>
<stop offset="0.5957" stop-color="#858585"/>
<stop offset="0.5982" stop-color="#808080"/>
<stop offset="0.6978" stop-color="#AFAFAF"/>
<stop offset="0.805" stop-color="#DADADA"/>
<stop offset="0.8886" stop-color="#F5F5F5"/>
<stop offset="0.9378" stop-color="white"/>
</linearGradient>
<linearGradient id="paint4_linear" x1="106.113" y1="85.9988" x2="106.113" y2="109.638" gradientUnits="userSpaceOnUse">
<stop/>
<stop offset="0.0108316" stop-color="#090909"/>
<stop offset="0.0390173" stop-color="#1A1A1A"/>
<stop offset="0.0741052" stop-color="#252525"/>
<stop offset="0.1233" stop-color="#2C2C2C"/>
<stop offset="0.26" stop-color="#2E2E2E"/>
<stop offset="0.8229" stop-color="#141313"/>
<stop offset="0.8799" stop-color="#1B1A1A"/>
<stop offset="0.9343" stop-color="#262626"/>
<stop offset="0.9492" stop-color="#242424"/>
<stop offset="0.9568" stop-color="#1C1C1C"/>
<stop offset="0.9627" stop-color="#0F0F0F"/>
<stop offset="0.9668"/>
</linearGradient>
<linearGradient id="paint5_linear" x1="37.0258" y1="85.9988" x2="37.0258" y2="109.638" gradientUnits="userSpaceOnUse">
<stop/>
<stop offset="0.0108316" stop-color="#090909"/>
<stop offset="0.0390173" stop-color="#1A1A1A"/>
<stop offset="0.0741052" stop-color="#252525"/>
<stop offset="0.1233" stop-color="#2C2C2C"/>
<stop offset="0.26" stop-color="#2E2E2E"/>
<stop offset="0.8229" stop-color="#141313"/>
<stop offset="0.8799" stop-color="#1B1A1A"/>
<stop offset="0.9343" stop-color="#262626"/>
<stop offset="0.9492" stop-color="#242424"/>
<stop offset="0.9568" stop-color="#1C1C1C"/>
<stop offset="0.9627" stop-color="#0F0F0F"/>
<stop offset="0.9668"/>
</linearGradient>
<linearGradient id="paint6_linear" x1="158.565" y1="96.6021" x2="158.565" y2="168.603" gradientUnits="userSpaceOnUse">
<stop stop-color="#3B3B3B"/>
<stop offset="0.9352" stop-color="#333333"/>
</linearGradient>
<linearGradient id="paint7_linear" x1="158.49" y1="-0.930912" x2="158.49" y2="113.79" gradientUnits="userSpaceOnUse">
<stop stop-color="#363636"/>
<stop offset="0.4899" stop-color="#343434"/>
<stop offset="0.767" stop-color="#2B2B2B"/>
<stop offset="0.9467" stop-color="#212121"/>
</linearGradient>
<linearGradient id="paint8_linear" x1="158.544" y1="178.359" x2="158.544" y2="41.1359" gradientUnits="userSpaceOnUse">
<stop stop-color="#231F20"/>
<stop offset="0.5822" stop-color="white"/>
<stop offset="0.5828" stop-color="#F7F7F7"/>
<stop offset="0.5862" stop-color="#CCCCCC"/>
<stop offset="0.5896" stop-color="#ABABAB"/>
<stop offset="0.5927" stop-color="#939393"/>
<stop offset="0.5957" stop-color="#858585"/>
<stop offset="0.5982" stop-color="#808080"/>
<stop offset="0.6978" stop-color="#AFAFAF"/>
<stop offset="0.805" stop-color="#DADADA"/>
<stop offset="0.8886" stop-color="#F5F5F5"/>
<stop offset="0.9378" stop-color="white"/>
</linearGradient>
<linearGradient id="paint9_linear" x1="193.094" y1="85.9988" x2="193.094" y2="109.638" gradientUnits="userSpaceOnUse">
<stop/>
<stop offset="0.0108316" stop-color="#090909"/>
<stop offset="0.0390173" stop-color="#1A1A1A"/>
<stop offset="0.0741052" stop-color="#252525"/>
<stop offset="0.1233" stop-color="#2C2C2C"/>
<stop offset="0.26" stop-color="#2E2E2E"/>
<stop offset="0.8229" stop-color="#141313"/>
<stop offset="0.8799" stop-color="#1B1A1A"/>
<stop offset="0.9343" stop-color="#262626"/>
<stop offset="0.9492" stop-color="#242424"/>
<stop offset="0.9568" stop-color="#1C1C1C"/>
<stop offset="0.9627" stop-color="#0F0F0F"/>
<stop offset="0.9668"/>
</linearGradient>
<linearGradient id="paint10_linear" x1="124.007" y1="85.9988" x2="124.007" y2="109.638" gradientUnits="userSpaceOnUse">
<stop/>
<stop offset="0.0108316" stop-color="#090909"/>
<stop offset="0.0390173" stop-color="#1A1A1A"/>
<stop offset="0.0741052" stop-color="#252525"/>
<stop offset="0.1233" stop-color="#2C2C2C"/>
<stop offset="0.26" stop-color="#2E2E2E"/>
<stop offset="0.8229" stop-color="#141313"/>
<stop offset="0.8799" stop-color="#1B1A1A"/>
<stop offset="0.9343" stop-color="#262626"/>
<stop offset="0.9492" stop-color="#242424"/>
<stop offset="0.9568" stop-color="#1C1C1C"/>
<stop offset="0.9627" stop-color="#0F0F0F"/>
<stop offset="0.9668"/>
</linearGradient>
<linearGradient id="paint11_linear" x1="158.565" y1="96.6021" x2="158.565" y2="168.603" gradientUnits="userSpaceOnUse">
<stop stop-color="#3B3B3B"/>
<stop offset="0.9352" stop-color="#333333"/>
</linearGradient>
<linearGradient id="paint12_linear" x1="158.49" y1="-0.930912" x2="158.49" y2="113.79" gradientUnits="userSpaceOnUse">
<stop stop-color="#363636"/>
<stop offset="0.4899" stop-color="#343434"/>
<stop offset="0.767" stop-color="#2B2B2B"/>
<stop offset="0.9467" stop-color="#212121"/>
</linearGradient>
<linearGradient id="paint13_linear" x1="157.77" y1="178.559" x2="157.77" y2="41.3378" gradientUnits="userSpaceOnUse">
<stop stop-color="#231F20"/>
<stop offset="0.5822" stop-color="white"/>
<stop offset="0.5828" stop-color="#F7F7F7"/>
<stop offset="0.5862" stop-color="#CCCCCC"/>
<stop offset="0.5896" stop-color="#ABABAB"/>
<stop offset="0.5927" stop-color="#939393"/>
<stop offset="0.5957" stop-color="#858585"/>
<stop offset="0.5982" stop-color="#808080"/>
<stop offset="0.6978" stop-color="#AFAFAF"/>
<stop offset="0.805" stop-color="#DADADA"/>
<stop offset="0.8886" stop-color="#F5F5F5"/>
<stop offset="0.9378" stop-color="white"/>
</linearGradient>
<linearGradient id="paint14_linear" x1="193.094" y1="85.9988" x2="193.094" y2="109.638" gradientUnits="userSpaceOnUse">
<stop/>
<stop offset="0.0108316" stop-color="#090909"/>
<stop offset="0.0390173" stop-color="#1A1A1A"/>
<stop offset="0.0741052" stop-color="#252525"/>
<stop offset="0.1233" stop-color="#2C2C2C"/>
<stop offset="0.26" stop-color="#2E2E2E"/>
<stop offset="0.8229" stop-color="#141313"/>
<stop offset="0.8799" stop-color="#1B1A1A"/>
<stop offset="0.9343" stop-color="#262626"/>
<stop offset="0.9492" stop-color="#242424"/>
<stop offset="0.9568" stop-color="#1C1C1C"/>
<stop offset="0.9627" stop-color="#0F0F0F"/>
<stop offset="0.9668"/>
</linearGradient>
<linearGradient id="paint15_linear" x1="124.007" y1="85.9988" x2="124.007" y2="109.638" gradientUnits="userSpaceOnUse">
<stop/>
<stop offset="0.0108316" stop-color="#090909"/>
<stop offset="0.0390173" stop-color="#1A1A1A"/>
<stop offset="0.0741052" stop-color="#252525"/>
<stop offset="0.1233" stop-color="#2C2C2C"/>
<stop offset="0.26" stop-color="#2E2E2E"/>
<stop offset="0.8229" stop-color="#141313"/>
<stop offset="0.8799" stop-color="#1B1A1A"/>
<stop offset="0.9343" stop-color="#262626"/>
<stop offset="0.9492" stop-color="#242424"/>
<stop offset="0.9568" stop-color="#1C1C1C"/>
<stop offset="0.9627" stop-color="#0F0F0F"/>
<stop offset="0.9668"/>
</linearGradient>
<linearGradient id="paint16_linear" x1="159.247" y1="96.6021" x2="159.247" y2="168.603" gradientUnits="userSpaceOnUse">
<stop stop-color="#3B3B3B"/>
<stop offset="0.9352" stop-color="#333333"/>
</linearGradient>
<linearGradient id="paint17_linear" x1="159.688" y1="178.403" x2="159.688" y2="41.1799" gradientUnits="userSpaceOnUse">
<stop stop-color="#231F20"/>
<stop offset="0.5822" stop-color="white"/>
<stop offset="0.5828" stop-color="#F7F7F7"/>
<stop offset="0.5862" stop-color="#CCCCCC"/>
<stop offset="0.5896" stop-color="#ABABAB"/>
<stop offset="0.5927" stop-color="#939393"/>
<stop offset="0.5957" stop-color="#858585"/>
<stop offset="0.5982" stop-color="#808080"/>
<stop offset="0.6978" stop-color="#AFAFAF"/>
<stop offset="0.805" stop-color="#DADADA"/>
<stop offset="0.8886" stop-color="#F5F5F5"/>
<stop offset="0.9378" stop-color="white"/>
</linearGradient>
<linearGradient id="paint18_linear" x1="159.192" y1="-0.931889" x2="159.192" y2="113.789" gradientUnits="userSpaceOnUse">
<stop stop-color="#158A33"/>
<stop offset="0.4899" stop-color="#0A9F30"/>
<stop offset="0.767" stop-color="#0E9931"/>
<stop offset="0.9467" stop-color="#256536"/>
</linearGradient>
<linearGradient id="paint19_linear" x1="159.449" y1="91.828" x2="159.449" y2="144.251" gradientUnits="userSpaceOnUse">
<stop offset="0.119792" stop-opacity="0.77"/>
<stop offset="0.9143" stop-opacity="0"/>
</linearGradient>
<linearGradient id="paint20_linear" x1="193.611" y1="85.9988" x2="193.611" y2="109.638" gradientUnits="userSpaceOnUse">
<stop/>
<stop offset="0.0555725" stop-color="#0B0B0B"/>
<stop offset="0.1357" stop-color="#121212"/>
<stop offset="0.3586" stop-color="#141414"/>
<stop offset="0.8229" stop-color="#141313"/>
<stop offset="0.8799" stop-color="#1B1A1A"/>
<stop offset="0.9343" stop-color="#262626"/>
<stop offset="0.9492" stop-color="#242424"/>
<stop offset="0.9568" stop-color="#1C1C1C"/>
<stop offset="0.9627" stop-color="#0F0F0F"/>
<stop offset="0.9668"/>
</linearGradient>
<linearGradient id="paint21_linear" x1="124.854" y1="85.9988" x2="124.854" y2="109.638" gradientUnits="userSpaceOnUse">
<stop/>
<stop offset="0.0555725" stop-color="#0B0B0B"/>
<stop offset="0.1357" stop-color="#121212"/>
<stop offset="0.3586" stop-color="#141414"/>
<stop offset="0.8229" stop-color="#141313"/>
<stop offset="0.8799" stop-color="#1B1A1A"/>
<stop offset="0.9343" stop-color="#262626"/>
<stop offset="0.9492" stop-color="#242424"/>
<stop offset="0.9568" stop-color="#1C1C1C"/>
<stop offset="0.9627" stop-color="#0F0F0F"/>
<stop offset="0.9668"/>
</linearGradient>
<radialGradient id="paint22_radial" cx="0" cy="0" r="1" gradientUnits="userSpaceOnUse" gradientTransform="translate(158.073 106.505) scale(100.554 43.6278)">
<stop offset="0.00256996" stop-color="#2B2B2B"/>
<stop offset="0.3875" stop-color="#232323"/>
<stop offset="0.9059" stop-color="#1F1F1F"/>
</radialGradient>
<linearGradient id="paint23_linear" x1="159.729" y1="52.2179" x2="159.729" y2="123.567" gradientUnits="userSpaceOnUse">
<stop offset="0.0668925" stop-color="#4D4D4D"/>
<stop offset="0.2476" stop-color="#505050"/>
<stop offset="0.3891" stop-color="#5A5A5A"/>
<stop offset="0.5172" stop-color="#6B6B6B"/>
<stop offset="0.6375" stop-color="#828282"/>
<stop offset="0.7524" stop-color="#A0A0A0"/>
<stop offset="0.8631" stop-color="#C5C5C5"/>
<stop offset="0.9685" stop-color="#F1F1F1"/>
<stop offset="1" stop-color="white"/>
</linearGradient>
<radialGradient id="paint24_radial" cx="0" cy="0" r="1" gradientUnits="userSpaceOnUse" gradientTransform="translate(158.976 54.6105) scale(64.7983 65.0483)">
<stop offset="0.0102082" stop-color="#5C5C5C"/>
<stop offset="0.3658" stop-color="#5A5A5A"/>
<stop offset="0.4938" stop-color="#535353"/>
<stop offset="0.5848" stop-color="#484848"/>
<stop offset="0.6582" stop-color="#373737"/>
<stop offset="0.6612" stop-color="#363636"/>
<stop offset="0.6658" stop-color="#3B3B3B"/>
<stop offset="0.6932" stop-color="#535353"/>
<stop offset="0.71" stop-color="#5C5C5C"/>
</radialGradient>
<linearGradient id="paint25_linear" x1="262.698" y1="37.8912" x2="262.698" y2="146.724" gradientUnits="userSpaceOnUse">
<stop stop-color="white"/>
<stop offset="1" stop-color="#A8A8A8"/>
</linearGradient>
<linearGradient id="paint26_linear" x1="213.5" y1="0" x2="213.5" y2="195" gradientUnits="userSpaceOnUse">
<stop stop-color="white" stop-opacity="0.15"/>
<stop offset="1" stop-color="white" stop-opacity="0.13"/>
</linearGradient>
<clipPath id="clip0">
<rect width="77.728" height="139.55" fill="white" transform="translate(32.6853 27.7256)"/>
</clipPath>
<clipPath id="clip1">
<rect width="77.728" height="139.55" fill="white" transform="translate(119.667 27.7256)"/>
</clipPath>
<clipPath id="clip2">
<rect width="77.728" height="139.55" fill="white" transform="translate(119.667 27.7256)"/>
</clipPath>
<clipPath id="clip3">
<rect width="91.608" height="139.55" fill="white" transform="translate(113.189 27.7256)"/>
</clipPath>
</defs>
</svg>
