<svg width="150" height="31" fill="none" xmlns="http://www.w3.org/2000/svg"><path d="M11.19 13.98l.723 3.202h5.298l1.783-2.98-1.447 7.833h7.03L28.503.803h-7.39l-5.17 8.448-2.04-8.448H6.59L2.662 22.035H9.69l1.499-8.055zm36.05 8.055h8.735l4.006-4.853 2.713 4.853h7.52L64.4 11.739 73.522.803h-8.735l-3.85 4.655L58.353.803h-7.52l5.633 10.074-6.564 7.93-2.662 3.228zm-13.593 0l2.197-4.853h3.514l.44 4.853h7.132l-.491-3.227L43.622.803h-6.15L26.333 22.035h7.314zm3.773-8.695l1.447-3.178.233 3.178h-1.68z" fill="#fff"/><path d="M79.26 24.35l2.841-15.22h-7.03l-3.926 21.18h15.868l1.111-5.96H79.26zM93.343 9.129L89.415 30.31h7.03l3.927-21.182h-7.029zm21.501 0l-1.654 8.99-5.039-8.99h-5.375L98.848 30.31h7.029l1.654-8.891 4.987 8.891h5.427l3.928-21.182h-7.029zm23.62 5.961l1.086-5.961h-15.273l-3.928 21.182h15.324l1.086-5.96h-8.27l.362-1.995h5.892l1.059-5.616h-5.892l.285-1.65h8.269zM2.197 24.35L0 30.31h68.69l1.11-5.96H2.198z" fill="#0A9F30"/><path d="M75.486 6.812l1.112-5.96h65.821l-2.43 5.96H75.486zm71.698-5.353c.302 0 .603.06.905.18.272.12.514.27.755.48.211.21.393.45.483.75.121.27.181.57.181.9 0 .42-.09.81-.302 1.14-.211.36-.483.63-.845.84-.362.21-.755.3-1.147.3-.423 0-.815-.09-1.147-.3a2.266 2.266 0 01-1.148-1.98c0-.39.091-.81.302-1.14.212-.36.483-.63.846-.84.302-.24.694-.33 1.117-.33zm0 .45c-.332 0-.634.09-.936.24-.272.15-.513.39-.664.66-.182.27-.242.6-.242.93 0 .33.091.63.242.93.181.27.392.51.694.66.272.15.604.24.936.24.332 0 .664-.09.936-.24.271-.15.513-.39.664-.66.151-.27.241-.6.241-.93 0-.33-.09-.66-.241-.93a1.753 1.753 0 00-.664-.66c-.332-.15-.634-.24-.966-.24zm-.544 3.06h-.513V2.54h1.147c.181 0 .332.03.453.09s.211.15.272.24c.06.09.09.24.09.36 0 .18-.06.33-.181.45a.82.82 0 01-.483.24c.121.03.181.09.272.18.06.09.151.21.272.39l.301.48h-.603l-.212-.39c-.09-.18-.181-.3-.241-.39-.061-.09-.121-.15-.211-.18a.574.574 0 00-.242-.06h-.121v1.02zm0-2.04v.66h.393a1.4 1.4 0 00.422-.06.314.314 0 00.151-.27c0-.09-.03-.18-.12-.24-.091-.06-.212-.09-.393-.09h-.453z" fill="#fff"/></svg>