<svg width="98" height="128" fill="none" xmlns="http://www.w3.org/2000/svg"><g filter="url(#filter0_d)"><path d="M48.614 21.097l.38.46.387-.454 1.32-1.55c14.325.878 25.673 12.775 25.673 27.322V85.57c0 9.325-3.08 16.605-8.018 21.552-4.94 4.949-11.777 7.6-19.356 7.6-7.576 0-14.413-2.713-19.355-7.695-4.94-4.981-8.019-12.262-8.019-21.458V46.875c0-14.561 11.37-26.467 25.714-27.325l1.274 1.547z" stroke="#DDD"/><path d="M49 113.444c-15.395 0-27.874-12.479-27.874-27.874v3.557C21.126 104.52 33.606 117 49 117c15.394 0 27.874-12.48 27.874-27.874V85.57c0 15.394-12.48 27.873-27.874 27.873z" fill="#DAD8DB"/><clipPath id="a"><rect x="43.7" y="31.7" width="10.6" height="24.6" rx="5.3" stroke="#DDD" stroke-width="1.4"/></clipPath><g clip-path="url(#a)"><rect x="43.7" y="31.7" width="10.6" height="24.6" rx="5.3" fill="#1C7B34"/><path opacity=".4" fill="#0A9F30" d="M43 9h12v2H43z"/><path opacity=".6" fill="#0A9F30" d="M43 13h12v2H43z"/><path fill="#0A9F30" d="M43 17h12v2H43zm0 4h12v2H43z"/><path opacity=".6" fill="#0A9F30" d="M43 25h12v2H43z"/><path opacity=".4" fill="#0A9F30" d="M43 29h12v2H43zm0 4h12v2H43z"/><path opacity=".6" fill="#0A9F30" d="M43 37h12v2H43z"/><path fill="#0A9F30" d="M43 41h12v2H43zm0 4h12v2H43z"/><path opacity=".6" fill="#0A9F30" d="M43 49h12v2H43z"/><path opacity=".4" fill="#0A9F30" d="M43 53h12v2H43z"/><rect x="44.5" y="32.5" width="9" height="23" rx="4.5" stroke="#000" stroke-opacity=".3"/></g><path d="M44 61l5 5 5-5 2 1-7 7-7-7 2-1z" fill="#DDD"/></g><defs><filter id="filter0_d" x="-15" y="0" width="128" height="128" filterUnits="userSpaceOnUse" color-interpolation-filters="sRGB"><feFlood flood-opacity="0" result="BackgroundImageFix"/><feColorMatrix in="SourceAlpha" values="0 0 0 0 0 0 0 0 0 0 0 0 0 0 0 0 0 0 127 0"/><feOffset dy="-4"/><feGaussianBlur stdDeviation="7.5"/><feColorMatrix values="0 0 0 0 0 0 0 0 0 0 0 0 0 0 0 0 0 0 0.25 0"/><feBlend in2="BackgroundImageFix" result="effect1_dropShadow"/><feBlend in="SourceGraphic" in2="effect1_dropShadow" result="shape"/></filter></defs></svg>