<svg width="35" height="69" viewBox="0 0 35 69" fill="none" xmlns="http://www.w3.org/2000/svg">
<path d="M5.71218 0H28.7865C32.4985 1.90498e-07 34.3802 2.62533 34.3802 5.56453V15.7045L34.3179 15.762L34.3802 15.8339V23.5831L34.3179 23.6933L34.3802 23.8035V63.464C34.3802 66.2605 32.5813 69 28.8693 69C26.1076 69 22.6258 69 19.1896 69C18.8563 69 18.5517 68.9315 18.3901 68.9315C17.4163 68.9315 16.9917 68.9315 16.0487 68.9315C15.8573 68.9315 15.6669 69 15.2492 69C10.7813 69 6.94783 69 5.67448 69C1.99718 69 0.201294 66.2605 0.201294 63.464L0.218579 25.0735L0.23777 25.0256L0.218617 24.9872L0.220758 20.2332L0.239951 20.1805L0.220805 20.1278L0.221321 18.9824L0.25011 18.9058L0.22139 18.8291L0.223509 14.123L0.242704 14.0655L0.223561 14.008L0.224564 11.7796L0.244425 11.6981L0.224564 11.6358L0.22569 9.14856L0.24489 9.07907L0.225752 9.00958L0.227312 5.53598C0.227312 2.62532 1.88597 4.89853e-07 5.71218 0Z" fill="#191919"/>
<g filter="url(#filter0_ii)">
<path d="M5.84214 0.134766H28.6577C32.328 0.134766 34.1886 2.74405 34.1886 5.66529V63.278C34.1886 66.0574 32.4099 68.7801 28.7395 68.7801C21.0946 68.7801 13.4497 68.7801 5.80486 68.7801C2.16881 68.7801 0.393066 66.0574 0.393066 63.278L0.418793 5.63691C0.418793 2.74404 2.05885 0.134766 5.84214 0.134766Z" fill="#F8F8F8"/>
<path d="M5.84214 0.134766H28.6577C32.328 0.134766 34.1886 2.74405 34.1886 5.66529V63.278C34.1886 66.0574 32.4099 68.7801 28.7395 68.7801C21.0946 68.7801 13.4497 68.7801 5.80486 68.7801C2.16881 68.7801 0.393066 66.0574 0.393066 63.278L0.418793 5.63691C0.418793 2.74404 2.05885 0.134766 5.84214 0.134766Z" fill="url(#paint0_radial)"/>
<path d="M5.84214 0.134766H28.6577C32.328 0.134766 34.1886 2.74405 34.1886 5.66529V63.278C34.1886 66.0574 32.4099 68.7801 28.7395 68.7801C21.0946 68.7801 13.4497 68.7801 5.80486 68.7801C2.16881 68.7801 0.393066 66.0574 0.393066 63.278L0.418793 5.63691C0.418793 2.74404 2.05885 0.134766 5.84214 0.134766Z" fill="url(#paint1_radial)"/>
<path d="M5.84214 0.134766H28.6577C32.328 0.134766 34.1886 2.74405 34.1886 5.66529V63.278C34.1886 66.0574 32.4099 68.7801 28.7395 68.7801C21.0946 68.7801 13.4497 68.7801 5.80486 68.7801C2.16881 68.7801 0.393066 66.0574 0.393066 63.278L0.418793 5.63691C0.418793 2.74404 2.05885 0.134766 5.84214 0.134766Z" fill="url(#paint2_radial)"/>
<path d="M5.84214 0.134766H28.6577C32.328 0.134766 34.1886 2.74405 34.1886 5.66529V63.278C34.1886 66.0574 32.4099 68.7801 28.7395 68.7801C21.0946 68.7801 13.4497 68.7801 5.80486 68.7801C2.16881 68.7801 0.393066 66.0574 0.393066 63.278L0.418793 5.63691C0.418793 2.74404 2.05885 0.134766 5.84214 0.134766Z" fill="url(#paint3_radial)"/>
</g>
<path d="M5.84214 0.134766H28.6577C32.328 0.134766 34.1886 2.74405 34.1886 5.66529V63.278C34.1886 66.0574 32.4099 68.7801 28.7395 68.7801C21.0946 68.7801 13.4497 68.7801 5.80486 68.7801C2.16881 68.7801 0.393066 66.0574 0.393066 63.278L0.418793 5.63691C0.418793 2.74404 2.05885 0.134766 5.84214 0.134766Z" stroke="#4B4B4B" stroke-width="0.028754"/>
<path fill-rule="evenodd" clip-rule="evenodd" d="M1.05432 66.1661C1.56281 66.7534 1.88872 66.9698 2.30037 67.1245C2.68189 67.4378 3.0718 67.6432 3.52237 67.8242C3.06533 67.8242 2.57902 67.7783 2.11756 67.4025C1.48131 66.8843 1.36223 66.6884 1.05432 66.1661ZM33.4697 66.1895C32.9632 66.7769 32.6098 66.9693 32.1997 67.124C31.8197 67.4373 31.4313 67.6427 30.9824 67.8237C31.4377 67.8237 32.008 67.7422 32.4677 67.3664C33.1014 66.8483 33.2569 66.6061 33.4697 66.1895Z" fill="url(#paint4_linear)"/>
<path fill-rule="evenodd" clip-rule="evenodd" d="M1.1405 2.63453C1.64701 2.04715 1.93332 1.82121 2.34338 1.66648C2.72341 1.35319 3.11181 1.14777 3.56063 0.966797C3.10536 0.966797 2.62094 1.01271 2.16127 1.38852C1.59318 1.85297 1.4698 2.06621 1.22944 2.48163C1.20165 2.52966 1.17229 2.58039 1.1405 2.63453ZM33.4408 2.63463C32.9343 2.04726 32.6097 1.82131 32.1996 1.66658C31.8196 1.3533 31.4312 1.14787 30.9824 0.966903C31.4376 0.966903 32.0079 1.04837 32.4676 1.42418C33.0787 1.92378 33.2184 2.19802 33.4183 2.59041C33.4257 2.60498 33.4332 2.61972 33.4408 2.63463Z" fill="url(#paint5_linear)"/>
<path d="M6.07584 0.5H28.4255C32.3276 0.5 33.8435 2.80257 33.8435 6.03052V62.9148C33.8435 65.8476 32.2544 68.4169 28.5057 68.4169C21.0169 68.4169 9.90783 68.4169 6.03932 68.4169C2.17081 68.4169 0.738037 65.6942 0.738037 62.9148L0.763238 6.00215C0.763238 2.80257 2.0631 0.5 6.07584 0.5Z" fill="black"/>
<path d="M0.950005 6.09174V6.09169C0.950005 4.50794 1.27151 3.16658 2.07014 2.22197C2.86569 1.28101 4.15204 0.713739 6.12777 0.713739H28.3739C30.2937 0.713739 31.608 1.28059 32.4442 2.22732C33.2827 3.17655 33.6566 4.52536 33.6566 6.11999V62.8598C33.6566 64.2268 33.2714 65.5716 32.4325 66.5727C31.5961 67.5707 30.3001 68.2377 28.4537 68.2377H28.41H28.3662H28.3223H28.2783H28.2343H28.1901H28.1459H28.1016H28.0572H28.0127H27.9682H27.9236H27.8789H27.8341H27.7892H27.7443H27.6993H27.6542H27.609H27.5637H27.5184H27.473H27.4275H27.382H27.3364H27.2907H27.2449H27.1991H27.1532H27.1072H27.0611H27.015H26.9688H26.9226H26.8762H26.8298H26.7834H26.7368H26.6902H26.6436H26.5968H26.5501H26.5032H26.4563H26.4093H26.3622H26.3151H26.268H26.2207H26.1734H26.1261H26.0787H26.0312H25.9836H25.9361H25.8884H25.8407H25.7929H25.7451H25.6972H25.6493H25.6013H25.5533H25.5052H25.457H25.4088H25.3606H25.3123H25.2639H25.2155H25.167H25.1185H25.07H25.0213H24.9727H24.924H24.8752H24.8264H24.7776H24.7287H24.6798H24.6308H24.5818H24.5327H24.4836H24.4344H24.3852H24.336H24.2867H24.2374H24.188H24.1386H24.0892H24.0397H23.9902H23.9406H23.891H23.8414H23.7917H23.742H23.6923H23.6425H23.5927H23.5428H23.493H23.443H23.3931H23.3431H23.2931H23.2431H23.193H23.1429H23.0928H23.0426H22.9925H22.9422H22.892H22.8417H22.7914H22.7411H22.6908H22.6404H22.59H22.5396H22.4892H22.4387H22.3882H22.3377H22.2872H22.2366H22.1861H22.1355H22.0849H22.0342H21.9836H21.9329H21.8823H21.8316H21.7808H21.7301H21.6794H21.6286H21.5778H21.527H21.4762H21.4254H21.3746H21.3238H21.2729H21.222H21.1712H21.1203H21.0694H21.0185H20.9676H20.9167H20.8658H20.8148H20.7639H20.7129H20.662H20.611H20.5601H20.5091H20.4582H20.4072H20.3562H20.3053H20.2543H20.2033H20.1523H20.1014H20.0504H19.9994H19.9484H19.8975H19.8465H19.7956H19.7446H19.6936H19.6427H19.5917H19.5408H19.4899H19.4389H19.388H19.3371H19.2862H19.2353H19.1844H19.1336H19.0827H19.0318H18.981H18.9302H18.8793H18.8285H18.7778H18.727H18.6762H18.6255H18.5747H18.524H18.4733H18.4226H18.3719H18.3213H18.2707H18.22H18.1694H18.1189H18.0683H18.0178H17.9673H17.9168H17.8663H17.8158H17.7654H17.715H17.6646H17.6143H17.564H17.5137H17.4634H17.4131H17.3629H17.3127H17.2626H17.2124H17.1623H17.1123H17.0622H17.0122H16.9622H16.9123H16.8623H16.8124H16.7626H16.7128H16.663H16.6132H16.5635H16.5138H16.4642H16.4146H16.365H16.3155H16.266H16.2165H16.1671H16.1177H16.0684H16.0191H15.9698H15.9206H15.8715H15.8223H15.7732H15.7242H15.6752H15.6263H15.5774H15.5285H15.4797H15.4309H15.3822H15.3335H15.2849H15.2363H15.1878H15.1393H15.0909H15.0425H14.9942H14.9459H14.8977H14.8495H14.8014H14.7534H14.7053H14.6574H14.6095H14.5617H14.5139H14.4661H14.4185H14.3709H14.3233H14.2758H14.2284H14.181H14.1337H14.0864H14.0392H13.9921H13.945H13.898H13.8511H13.8042H13.7574H13.7106H13.664H13.6173H13.5708H13.5243H13.4779H13.4315H13.3852H13.339H13.2929H13.2468H13.2008H13.1549H13.109H13.0632H13.0175H12.9719H12.9263H12.8808H12.8354H12.79H12.7447H12.6995H12.6544H12.6094H12.5644H12.5195H12.4747H12.43H12.3853H12.3407H12.2963H12.2518H12.2075H12.1633H12.1191H12.075H12.031H11.9871H11.9433H11.8995H11.8559H11.8123H11.7688H11.7254H11.6821H11.6388H11.5957H11.5527H11.5097H11.4668H11.424H11.3813H11.3387H11.2962H11.2538H11.2115H11.1693H11.1271H11.0851H11.0432H11.0013H10.9596H10.9179H10.8763H10.8349H10.7935H10.7522H10.7111H10.67H10.629H10.5882H10.5474H10.5067H10.4662H10.4257H10.3853H10.3451H10.3049H10.2649H10.2249H10.1851H10.1454H10.1058H10.0662H10.0268H9.98752H9.94833H9.90924H9.87027H9.8314H9.79265H9.754H9.71547H9.67705H9.63874H9.60054H9.56246H9.52449H9.48664H9.4489H9.41127H9.37376H9.33637H9.2991H9.26194H9.2249H9.18798H9.15118H9.11449H9.07793H9.04149H9.00517H8.96897H8.93289H8.89693H8.8611H8.82539H8.78981H8.75435H8.71901H8.6838H8.64871H8.61376H8.57892H8.54422H8.50964H8.4752H8.44088H8.40669H8.37263H8.3387H8.3049H8.27124H8.2377H8.2043H8.17103H8.1379H8.1049H8.07203H8.0393H8.0067H7.97424H7.94191H7.90973H7.87768H7.84577H7.81399H7.78236H7.75086H7.71951H7.68829H7.65722H7.62629H7.5955H7.56485H7.53434H7.50398H7.47377H7.44369H7.41377H7.38398H7.35435H7.32486H7.29551H7.26632H7.23727H7.20837H7.17962H7.15102H7.12257H7.09427H7.06612H7.03813H7.01028H6.98259H6.95505H6.92766H6.90043H6.87335H6.84643H6.81966H6.79305H6.76659H6.74029H6.71415H6.68817H6.66235H6.63668H6.61118H6.58583H6.56065H6.53562H6.51076H6.48606H6.46152H6.43715H6.41294H6.38889H6.36501H6.34129H6.31773H6.29435H6.27113H6.24808H6.22519H6.20247H6.17992H6.15755H6.13533H6.1133H6.09143C4.26207 68.2377 2.97513 67.571 2.14356 66.5729C1.30943 65.5718 0.924921 64.2268 0.924921 62.8598L0.950005 6.09174Z" fill="black" stroke="url(#paint6_radial)" stroke-width="0.220447"/>
<mask id="mask0" mask-type="alpha" maskUnits="userSpaceOnUse" x="1" y="0" width="33" height="69">
<path d="M6.31455 0.863281H28.1789C32.1496 0.863281 33.4792 3.0125 33.4792 6.3938V62.5592C33.4792 65.492 32.0047 68.0614 28.2573 68.0614C20.9312 68.0614 9.91664 68.0614 6.27882 68.0614C2.64101 68.0614 1.09265 65.6453 1.09265 62.5592L1.11731 6.36543C1.11731 2.88565 2.30511 0.863281 6.31455 0.863281Z" fill="black"/>
</mask>
<g mask="url(#mask0)">
<path d="M1.28418 62.2715C1.28418 65.6243 2.38907 67.7734 6.41919 67.7734H28.0218C31.945 67.7734 33.2586 65.6243 33.2586 62.2431" stroke="url(#paint7_radial)" stroke-width="0.594249"/>
<path d="M1.11792 6.36543C1.11792 3.0125 2.2362 0.863282 6.31516 0.863281H28.1795C32.1503 0.863281 33.4798 3.0125 33.4798 6.3938" stroke="url(#paint8_radial)" stroke-width="1.03514"/>
<g filter="url(#filter1_i)">
<path fill-rule="evenodd" clip-rule="evenodd" d="M3.22219 1.13981C3.61544 1.0073 3.96552 1.13508 3.37565 1.69898C2.19592 2.74415 1.80815 3.61019 1.80815 6.29409L1.78348 61.7869C1.78348 61.787 1.78348 61.787 1.78348 61.7871C1.82188 63.2387 1.83667 64.2959 2.31955 65.2847C2.5975 65.8538 2.48728 66.2196 3.95373 67.6477C3.00006 67.1349 2.69277 66.9336 1.81156 65.9112C0.872722 64.8219 0.824341 63.3829 0.824341 61.7869L0.849012 6.29409C0.849012 6.29402 0.849012 6.29395 0.849012 6.29388C0.849038 4.37912 1.20643 2.76369 2.32873 1.69898C2.32873 1.69898 2.82894 1.27233 3.22219 1.13981Z" fill="#2C2C2C"/>
</g>
<g filter="url(#filter2_i)">
<path fill-rule="evenodd" clip-rule="evenodd" d="M31.3976 1.13981C31.0043 1.0073 30.6542 1.13508 31.2441 1.69898C32.4238 2.74415 32.8116 3.61019 32.8116 6.29409L32.8363 61.7869C32.8363 61.787 32.8363 61.787 32.8363 61.7871C32.7979 63.2387 32.7831 64.2959 32.3002 65.2847C32.0222 65.8538 32.1325 66.2196 30.666 67.6477C31.6197 67.1349 31.927 66.9336 32.8082 65.9112C33.747 64.8219 33.7954 63.3829 33.7954 61.7869L33.7707 6.29409C33.7707 6.29402 33.7707 6.29395 33.7707 6.29388C33.7707 4.37912 33.4133 2.76369 32.291 1.69898C32.291 1.69898 31.7908 1.27233 31.3976 1.13981Z" fill="#2C2C2C"/>
</g>
</g>
<path d="M0.786011 61.8691H0.201346V62.3484H0.786011V61.8691Z" fill="url(#paint9_radial)"/>
<path d="M33.7955 61.8691H34.3802V62.3484H33.7955V61.8691Z" fill="url(#paint10_radial)"/>
<path d="M0.814697 6.58594H0.230033V7.06517H0.814697V6.58594Z" fill="url(#paint11_linear)"/>
<path d="M33.7859 6.58594H34.3801V7.06517H33.7859V6.58594Z" fill="url(#paint12_linear)"/>
<g filter="url(#filter3_i)">
<path d="M0.0670927 9.07812H0.249201C0.262254 9.13674 0.265549 9.17055 0.268371 9.23148V11.6037C0.26588 11.6587 0.26147 11.6906 0.249201 11.7427H0.0670927L0 11.6756V9.14522L0.0670927 9.07812Z" fill="url(#paint13_linear)"/>
<g filter="url(#filter4_i)">
<path d="M0.107827 9.07812H0.0736383L0 9.14522V11.6756L0.0736383 11.7427H0.107827V9.07812Z" fill="url(#paint14_linear)"/>
</g>
</g>
<g filter="url(#filter5_i)">
<path d="M0.0861816 14.1462L0.301837 14.0527C0.354323 14.1647 0.370307 14.2318 0.373722 14.3618V18.7229C0.358839 18.8102 0.34227 18.8553 0.297044 18.927L0.0861816 18.8427V14.1462Z" fill="url(#paint15_linear)"/>
<path d="M0.0861816 14.1462L0.301837 14.0527C0.354323 14.1647 0.370307 14.2318 0.373722 14.3618V18.7229C0.358839 18.8102 0.34227 18.8553 0.297044 18.927L0.0861816 18.8427V14.1462Z" fill="url(#paint16_linear)"/>
</g>
<g filter="url(#filter6_i)">
<path d="M0.0861816 14.1465C0.130883 14.2122 0.15179 14.2627 0.162859 14.4388V18.6129C0.155748 18.7131 0.140917 18.7645 0.0861816 18.843V14.1465Z" fill="#4B4B4B"/>
</g>
<g filter="url(#filter7_i)">
<path d="M34.5238 15.8513L34.3081 15.7578C34.2557 15.8698 34.2397 15.9369 34.2363 16.0669V23.495C34.2511 23.5823 34.2677 23.6274 34.3129 23.6992L34.5238 23.6148V15.8513Z" fill="url(#paint17_linear)"/>
<path d="M34.5238 15.8513L34.3081 15.7578C34.2557 15.8698 34.2397 15.9369 34.2363 16.0669V23.495C34.2511 23.5823 34.2677 23.6274 34.3129 23.6992L34.5238 23.6148V15.8513Z" fill="url(#paint18_linear)"/>
</g>
<g filter="url(#filter8_i)">
<path d="M34.5239 15.8496C34.4792 15.9153 34.4583 16.0425 34.4472 16.2186V23.3927C34.4544 23.4929 34.4692 23.5347 34.5239 23.6132V15.8496Z" fill="#4B4B4B"/>
</g>
<g filter="url(#filter9_i)">
<path d="M0.0861816 20.2595L0.301837 20.166C0.354323 20.278 0.370307 20.3451 0.373722 20.4751V24.8361C0.358839 24.9235 0.34227 24.9686 0.297044 25.0403L0.0861816 24.956V20.2595Z" fill="url(#paint19_linear)"/>
<path d="M0.0861816 20.2595L0.301837 20.166C0.354323 20.278 0.370307 20.3451 0.373722 20.4751V24.8361C0.358839 24.9235 0.34227 24.9686 0.297044 25.0403L0.0861816 24.956V20.2595Z" fill="url(#paint20_linear)"/>
</g>
<g filter="url(#filter10_i)">
<path d="M0.0861816 20.2598C0.130883 20.3255 0.15179 20.376 0.162859 20.5521V24.7262C0.155748 24.8264 0.140917 24.8778 0.0861816 24.9563V20.2598Z" fill="#4B4B4B"/>
</g>
<rect x="15.2348" y="2.64719" width="4.11182" height="0.565495" rx="0.282748"/>
<rect x="15.2348" y="2.64719" width="4.11182" height="0.565495" rx="0.282748"/>
<rect x="15.2348" y="2.64719" width="4.11182" height="0.565495" rx="0.282748"/>
<rect x="15.2348" y="2.64719" width="4.11182" height="0.565495" rx="0.282748" fill="url(#paint21_linear)" fill-opacity="0.3"/>
<rect x="15.2348" y="2.64719" width="4.11182" height="0.565495" rx="0.282748" stroke="url(#paint22_linear)" stroke-width="0.028754"/>
<g filter="url(#filter11_i)">
<circle cx="20.8945" cy="2.93041" r="0.479233" fill="url(#paint23_linear)"/>
<circle cx="20.8945" cy="2.93041" r="0.479233" fill="url(#paint24_radial)"/>
</g>
<g filter="url(#filter12_ddd)">
<ellipse cx="20.8955" cy="2.93243" rx="0.267104" ry="0.268371" fill="url(#paint25_radial)"/>
</g>
<g filter="url(#filter13_i)">
<path d="M20.7487 3.04226C20.7245 3.09782 20.6834 3.09877 20.6491 3.03556C20.6036 2.91923 20.6288 2.83377 20.6969 2.75409C20.7074 2.74176 20.7205 2.73193 20.7347 2.72419L20.7577 2.71168C20.7804 2.69933 20.8072 2.72107 20.8011 2.74617C20.7793 2.83598 20.7677 2.92739 20.7525 3.02842C20.7518 3.03316 20.7506 3.03786 20.7487 3.04226Z" fill="#081A3D"/>
<path d="M20.7487 3.04226C20.7245 3.09782 20.6834 3.09877 20.6491 3.03556C20.6036 2.91923 20.6288 2.83377 20.6969 2.75409C20.7074 2.74176 20.7205 2.73193 20.7347 2.72419L20.7577 2.71168C20.7804 2.69933 20.8072 2.72107 20.8011 2.74617C20.7793 2.83598 20.7677 2.92739 20.7525 3.02842C20.7518 3.03316 20.7506 3.03786 20.7487 3.04226Z" fill="url(#paint26_radial)" fill-opacity="0.6"/>
</g>
<path d="M21.0379 2.71374C20.9503 2.68996 20.9394 2.70886 20.9333 2.74346C20.932 2.75094 20.9318 2.75858 20.9325 2.76615C20.9392 2.84437 20.9438 2.89658 20.9448 2.96004C20.9456 3.01239 20.9857 3.05644 21.038 3.05894L21.0812 3.06101C21.1113 3.06245 21.1404 3.0463 21.1492 3.01743C21.1782 2.92266 21.1583 2.81168 21.0705 2.73132C21.0613 2.7229 21.05 2.71701 21.0379 2.71374Z" fill="#22436C"/>
<path d="M21.0379 2.71374C20.9503 2.68996 20.9394 2.70886 20.9333 2.74346C20.932 2.75094 20.9318 2.75858 20.9325 2.76615C20.9392 2.84437 20.9438 2.89658 20.9448 2.96004C20.9456 3.01239 20.9857 3.05644 21.038 3.05894L21.0812 3.06101C21.1113 3.06245 21.1404 3.0463 21.1492 3.01743C21.1782 2.92266 21.1583 2.81168 21.0705 2.73132C21.0613 2.7229 21.05 2.71701 21.0379 2.71374Z" fill="url(#paint27_radial)" fill-opacity="0.9"/>
<path fill-rule="evenodd" clip-rule="evenodd" d="M8.47379 2.01367H5.84902C3.69423 2.01367 2.34827 3.17566 2.34827 5.70432V62.9812C2.34827 65.5098 3.69423 66.6718 5.84902 66.6718H28.7672C31.1176 66.6718 32.2295 65.33 32.2295 62.9815V5.70394C32.2295 3.35552 31.1176 2.01367 28.7672 2.01367H26.1078C25.7348 2.06193 25.6778 2.34444 25.6778 2.60899C25.6778 3.43209 25.0927 4.41569 23.794 4.41569L17.2141 4.41931L10.7876 4.41569C9.48887 4.41569 8.90372 3.43209 8.90372 2.60899C8.90372 2.34444 8.84679 2.06193 8.47379 2.01367Z" fill="white"/>
<path d="M15.8732 33.8468C15.1393 34.8847 14.0961 35.4037 12.7437 35.4037C11.3913 35.4037 10.3481 34.8847 9.61422 33.8468C8.86986 32.7984 8.49768 31.4145 8.49768 29.6951C8.49768 27.9757 8.86986 26.5919 9.61422 25.5435C10.3481 24.5055 11.3913 23.9866 12.7437 23.9866C14.0961 23.9866 15.1393 24.5055 15.8732 25.5435C16.6175 26.5919 16.9897 27.9757 16.9897 29.6951C16.9897 31.4145 16.6175 32.7984 15.8732 33.8468ZM9.96019 29.6951C9.96019 31.058 10.2013 32.1117 10.6836 32.856C11.1659 33.6004 11.8526 33.9726 12.7437 33.9726C13.6348 33.9726 14.3215 33.6004 14.8038 32.856C15.2966 32.1117 15.5429 31.058 15.5429 29.6951C15.5429 28.3322 15.2966 27.2786 14.8038 26.5342C14.3215 25.7793 13.6348 25.4019 12.7437 25.4019C11.8526 25.4019 11.1659 25.7741 10.6836 26.5185C10.2013 27.2628 9.96019 28.3217 9.96019 29.6951ZM25.1497 31.7395H26.4864V33.1077H25.1497V35.1992H23.6872V33.1077H18.073V31.7395L22.0202 24.191H23.5928L19.6456 31.7395H23.6872V28.6257H25.1497V31.7395Z" fill="#EDEDED"/>
<rect x="6.73975" y="33.1035" width="21.2231" height="5.82688" fill="white"/>
<path d="M9.098 37.2461H6.94255V36.6742L7.96309 35.5965C8.07453 35.4763 8.15077 35.3839 8.19183 35.3194C8.23582 35.2519 8.25781 35.186 8.25781 35.1214C8.25781 35.0423 8.23289 34.9807 8.18303 34.9367C8.13611 34.8898 8.07013 34.8663 7.98508 34.8663C7.80033 34.8663 7.6625 34.9733 7.57159 35.1874L6.89416 34.8091C6.99094 34.5833 7.13463 34.4088 7.32525 34.2856C7.5188 34.1625 7.73581 34.1009 7.97629 34.1009C8.26954 34.1009 8.52028 34.1889 8.72849 34.3648C8.93964 34.5378 9.04521 34.7754 9.04521 35.0774C9.04521 35.2475 9.00562 35.4088 8.92644 35.5613C8.84726 35.7109 8.72263 35.8736 8.55254 36.0496L8.13465 36.4851H9.098V37.2461ZM12.5407 36.8766C12.3178 37.1669 12.0055 37.3121 11.6037 37.3121C11.2019 37.3121 10.8882 37.1669 10.6624 36.8766C10.4395 36.5833 10.328 36.1933 10.328 35.7065C10.328 35.2167 10.4395 34.8282 10.6624 34.5408C10.8852 34.2475 11.199 34.1009 11.6037 34.1009C12.0055 34.1009 12.3178 34.2475 12.5407 34.5408C12.7665 34.834 12.8794 35.2226 12.8794 35.7065C12.8794 36.1904 12.7665 36.5804 12.5407 36.8766ZM11.6037 34.8663C11.2782 34.8663 11.1154 35.1464 11.1154 35.7065C11.1154 36.2666 11.2782 36.5467 11.6037 36.5467C11.9292 36.5467 12.092 36.2666 12.092 35.7065C12.092 35.1464 11.9292 34.8663 11.6037 34.8663ZM15.3115 36.8766C15.0886 37.1669 14.7763 37.3121 14.3745 37.3121C13.9727 37.3121 13.6589 37.1669 13.4331 36.8766C13.2103 36.5833 13.0988 36.1933 13.0988 35.7065C13.0988 35.2167 13.2103 34.8282 13.4331 34.5408C13.656 34.2475 13.9698 34.1009 14.3745 34.1009C14.7763 34.1009 15.0886 34.2475 15.3115 34.5408C15.5373 34.834 15.6502 35.2226 15.6502 35.7065C15.6502 36.1904 15.5373 36.5804 15.3115 36.8766ZM14.3745 34.8663C14.049 34.8663 13.8862 35.1464 13.8862 35.7065C13.8862 36.2666 14.049 36.5467 14.3745 36.5467C14.7 36.5467 14.8628 36.2666 14.8628 35.7065C14.8628 35.1464 14.7 34.8663 14.3745 34.8663ZM18.0822 36.8766C17.8594 37.1669 17.547 37.3121 17.1453 37.3121C16.7435 37.3121 16.4297 37.1669 16.2039 36.8766C15.981 36.5833 15.8696 36.1933 15.8696 35.7065C15.8696 35.2167 15.981 34.8282 16.2039 34.5408C16.4268 34.2475 16.7406 34.1009 17.1453 34.1009C17.547 34.1009 17.8594 34.2475 18.0822 34.5408C18.308 34.834 18.421 35.2226 18.421 35.7065C18.421 36.1904 18.308 36.5804 18.0822 36.8766ZM17.1453 34.8663C16.8198 34.8663 16.657 35.1464 16.657 35.7065C16.657 36.2666 16.8198 36.5467 17.1453 36.5467C17.4708 36.5467 17.6336 36.2666 17.6336 35.7065C17.6336 35.1464 17.4708 34.8663 17.1453 34.8663ZM21.7133 35.6537C21.9713 35.8062 22.1004 36.0364 22.1004 36.3443C22.1004 36.62 22.0065 36.8385 21.8188 36.9998C21.6282 37.164 21.3775 37.2461 21.0666 37.2461H19.769V34.1669H20.9831C21.2939 34.1669 21.5403 34.2461 21.7221 34.4044C21.9068 34.5598 21.9992 34.7725 21.9992 35.0423C21.9992 35.3003 21.9039 35.5041 21.7133 35.6537ZM20.9611 34.8707H20.5564V35.3546H20.9611C21.0344 35.3546 21.0945 35.334 21.1414 35.293C21.1883 35.249 21.2118 35.1889 21.2118 35.1126C21.2118 35.0393 21.1883 34.9807 21.1414 34.9367C21.0945 34.8927 21.0344 34.8707 20.9611 34.8707ZM20.5564 36.5423H21.0446C21.1238 36.5423 21.1883 36.5188 21.2382 36.4719C21.288 36.422 21.313 36.359 21.313 36.2827C21.313 36.2036 21.288 36.1405 21.2382 36.0936C21.1883 36.0467 21.1238 36.0232 21.0446 36.0232H20.5564V36.5423ZM23.9981 34.1669H24.8823L23.8441 36.0628V37.2461H23.0567V36.0716L22.0186 34.1669H22.9028L23.4482 35.3062L23.9981 34.1669ZM26.8238 35.7153V34.1669H27.6068V37.2461H26.9997L25.9132 35.6977V37.2461H25.1258V34.1669H25.7373L26.8238 35.7153Z" fill="#0A9F30"/>
<path d="M6.71494 39.6502L7.48034 40.8379H6.82051L6.15738 39.8053V40.8379H5.56683V38.5285H6.15738V39.4984L6.78752 38.5285H7.44735L6.71494 39.6502ZM9.77738 40.8379H9.14065L9.04167 40.5047H8.27297L8.17399 40.8379H7.53395L8.29606 38.5285H9.01528L9.77738 40.8379ZM8.65567 39.2114L8.42473 39.9966H8.88991L8.65567 39.2114ZM12.1096 39.67L12.8024 40.8379H12.1491L11.5883 39.8316V40.8379H10.9977V39.8316L10.4336 40.8379H9.78035L10.4765 39.67L9.81334 38.5285H10.4666L10.9977 39.5281V38.5285H11.5883V39.5281L12.1162 38.5285H12.7694L12.1096 39.67ZM14.9087 38.5285V40.2671H15.1561V41.28H14.5689V40.8379H13.49V41.28H12.8995V40.2671H13.1436C13.2492 40.0978 13.302 39.8536 13.302 39.5347V38.5285H14.9087ZM13.7573 40.2671H14.3214V39.0761H13.8892V39.5413C13.8892 39.8514 13.8452 40.0934 13.7573 40.2671ZM16.294 40.8379H15.3967V38.5285H15.9872V39.2213H16.294C16.5294 39.2213 16.7251 39.2983 16.8813 39.4522C17.0396 39.604 17.1188 39.7965 17.1188 40.0296C17.1188 40.2649 17.0396 40.4585 16.8813 40.6102C16.7229 40.762 16.5272 40.8379 16.294 40.8379ZM17.8974 40.8379H17.3102V38.5285H17.8974V40.8379ZM15.9872 39.7855V40.277H16.294C16.36 40.277 16.415 40.2539 16.459 40.2078C16.5052 40.1616 16.5283 40.1022 16.5283 40.0296C16.5283 39.957 16.5052 39.8987 16.459 39.8547C16.415 39.8086 16.36 39.7855 16.294 39.7855H15.9872ZM19.7256 38.3503H18.66V37.8884H19.7256V38.3503ZM20.1248 40.8379H19.5376V39.6766L18.7227 40.8379H18.2641V38.5285H18.8546V39.6898L19.6695 38.5285H20.1248V40.8379ZM23.0986 38.5285V40.2671H23.346V41.28H22.7588V40.8379H21.6799V41.28H21.0894V40.2671H21.3335C21.4391 40.0978 21.4919 39.8536 21.4919 39.5347V38.5285H23.0986ZM21.9472 40.2671H22.5113V39.0761H22.0791V39.5413C22.0791 39.8514 22.0351 40.0934 21.9472 40.2671ZM24.1771 39.9438V40.2836H25.0712V40.8379H23.5866V38.5285H25.0547V39.0794H24.1771V39.3995H24.9722V39.9438H24.1771ZM26.5926 39.383V38.5285H27.1799V40.8379H26.5926V39.9504H25.9427V40.8379H25.3521V38.5285H25.9427V39.383H26.5926ZM28.1368 39.2213H28.4436C28.6767 39.2213 28.8725 39.2972 29.0308 39.4489C29.1892 39.6007 29.2684 39.7943 29.2684 40.0296C29.2684 40.2649 29.1892 40.4585 29.0308 40.6102C28.8725 40.762 28.6767 40.8379 28.4436 40.8379H27.5462V38.5285H28.1368V39.2213ZM28.1368 40.2737H28.4436C28.5096 40.2737 28.5645 40.2517 28.6085 40.2078C28.6547 40.1616 28.6778 40.1022 28.6778 40.0296C28.6778 39.957 28.6547 39.8976 28.6085 39.8514C28.5645 39.8053 28.5096 39.7822 28.4436 39.7822H28.1368V40.2737Z" fill="black"/>
<path d="M9.04144 43.0102L8.95921 42.9L8.78858 43.0274L8.9749 43.1305L9.04144 43.0102ZM9.11402 44.0593L9.20099 44.1658L9.20115 44.1656L9.11402 44.0593ZM7.59311 43.7096L7.52457 43.5904L7.41986 43.6507L7.46613 43.7622L7.59311 43.7096ZM8.09788 43.4193L8.22716 43.3725L8.17144 43.2184L8.02934 43.3001L8.09788 43.4193ZM8.53997 43.2906L8.55227 43.1532L8.54126 43.1531L8.53997 43.2906ZM8.19026 43.2873H8.05279V43.4235L8.18896 43.4248L8.19026 43.2873ZM8.19026 42.7759V42.6385H8.05279V42.7759H8.19026ZM8.11767 42.6275L8.04871 42.7464L8.18525 42.8256L8.24493 42.6795L8.11767 42.6275ZM7.6228 42.3404L7.49784 42.2832L7.4458 42.3967L7.55383 42.4594L7.6228 42.3404ZM7.94612 41.9742L8.01684 42.0921L8.01737 42.0918L7.94612 41.9742ZM9.04804 42.0336L8.95882 42.1382L8.96049 42.1396L9.04804 42.0336ZM8.9749 43.1305C9.05935 43.1772 9.11721 43.2341 9.15477 43.2996C9.19249 43.3654 9.2141 43.4476 9.2141 43.5512H9.48903C9.48903 43.4085 9.45894 43.2774 9.39329 43.1629C9.32747 43.048 9.23028 42.9575 9.10798 42.8899L8.9749 43.1305ZM9.2141 43.5512C9.2141 43.72 9.15264 43.8499 9.02689 43.953L9.20115 44.1656C9.39212 44.0091 9.48903 43.8004 9.48903 43.5512H9.2141ZM9.02705 43.9528C8.90195 44.055 8.72679 44.1132 8.48718 44.1132V44.3881C8.77104 44.3881 9.01377 44.3187 9.20099 44.1658L9.02705 43.9528ZM8.48718 44.1132C8.28207 44.1132 8.12225 44.0718 7.99997 43.9978C7.879 43.9246 7.78508 43.8137 7.72009 43.6569L7.46613 43.7622C7.5507 43.9662 7.68057 44.1259 7.85763 44.233C8.03336 44.3394 8.2458 44.3881 8.48718 44.3881V44.1132ZM7.66164 43.8288L8.16642 43.5384L8.02934 43.3001L7.52457 43.5904L7.66164 43.8288ZM7.9686 43.466C8.00901 43.5778 8.07291 43.6719 8.16561 43.7371C8.25833 43.8023 8.36842 43.8306 8.48718 43.8306V43.5556C8.41239 43.5556 8.36082 43.5383 8.32378 43.5122C8.2867 43.4861 8.25273 43.4433 8.22716 43.3725L7.9686 43.466ZM8.48718 43.8306C8.59159 43.8306 8.69493 43.8118 8.77482 43.7521C8.86224 43.6868 8.89848 43.5905 8.89848 43.4886H8.62355C8.62355 43.5074 8.62039 43.5175 8.61836 43.522C8.61669 43.5258 8.61464 43.5286 8.61029 43.5318C8.5989 43.5403 8.56533 43.5556 8.48718 43.5556V43.8306ZM8.89848 43.4886C8.89848 43.3986 8.86923 43.3119 8.79746 43.2476C8.73002 43.1872 8.6415 43.1617 8.55223 43.1537L8.52771 43.4275C8.58579 43.4327 8.6078 43.4468 8.61404 43.4524C8.61595 43.4541 8.62355 43.4597 8.62355 43.4886H8.89848ZM8.54126 43.1531L8.19155 43.1498L8.18896 43.4248L8.53867 43.4281L8.54126 43.1531ZM8.32772 43.2873V42.7759H8.05279V43.2873H8.32772ZM8.19026 42.9134H8.4179V42.6385H8.19026V42.9134ZM8.4179 42.9134C8.51924 42.9134 8.61995 42.896 8.69835 42.8399C8.78523 42.7777 8.8226 42.6844 8.8226 42.5846H8.54767C8.54767 42.6005 8.5449 42.6079 8.5438 42.6103C8.54305 42.6119 8.54208 42.6136 8.53829 42.6163C8.52762 42.624 8.49471 42.6385 8.4179 42.6385V42.9134ZM8.8226 42.5846C8.8226 42.4908 8.79202 42.3985 8.71198 42.334C8.63762 42.2741 8.54163 42.2558 8.44759 42.2558V42.5307C8.51192 42.5307 8.53469 42.5442 8.53951 42.5481C8.54102 42.5493 8.54201 42.5504 8.54326 42.5534C8.54487 42.5573 8.54767 42.5667 8.54767 42.5846H8.8226ZM8.44759 42.2558C8.34564 42.2558 8.25017 42.2817 8.16841 42.3397C8.08739 42.3972 8.02971 42.4793 7.99042 42.5755L8.24493 42.6795C8.26942 42.6195 8.29862 42.5844 8.32757 42.5639C8.35578 42.5438 8.39338 42.5307 8.44759 42.5307V42.2558ZM8.18664 42.5086L7.69177 42.2215L7.55383 42.4594L8.04871 42.7464L8.18664 42.5086ZM7.74776 42.3977C7.80934 42.2634 7.89876 42.163 8.01684 42.0921L7.87539 41.8564C7.70755 41.9571 7.58142 42.1008 7.49784 42.2832L7.74776 42.3977ZM8.01737 42.0918C8.13793 42.0187 8.28294 41.9797 8.45749 41.9797V41.7048C8.24053 41.7048 8.04464 41.7538 7.87487 41.8567L8.01737 42.0918ZM8.45749 41.9797C8.67711 41.9797 8.83974 42.0366 8.95883 42.1382L9.13725 41.929C8.95722 41.7755 8.72614 41.7048 8.45749 41.7048V41.9797ZM8.96049 42.1396C9.07848 42.2371 9.13822 42.3643 9.13822 42.5351H9.41315C9.41315 42.288 9.32112 42.0809 9.13559 41.9276L8.96049 42.1396ZM9.13822 42.5351C9.13822 42.6932 9.07952 42.8102 8.95921 42.9L9.12367 43.1203C9.31568 42.977 9.41315 42.7772 9.41315 42.5351H9.13822ZM11.6332 44.2012V44.3386H11.8233L11.7637 44.1581L11.6332 44.2012ZM10.9964 44.2012L10.8646 44.2403L10.8939 44.3386H10.9964V44.2012ZM10.8975 43.868L11.0292 43.8288L11 43.7305H10.8975V43.868ZM10.1287 43.868V43.7305H10.0262L9.99697 43.8288L10.1287 43.868ZM10.0298 44.2012V44.3386H10.1323L10.1615 44.2403L10.0298 44.2012ZM9.38973 44.2012L9.25919 44.1581L9.19961 44.3386H9.38973V44.2012ZM10.1518 41.8918V41.7543H10.0524L10.0213 41.8487L10.1518 41.8918ZM10.8711 41.8918L11.0016 41.8487L10.9705 41.7543H10.8711V41.8918ZM10.5114 42.5747L10.6432 42.5354L10.5105 42.0907L10.3796 42.5359L10.5114 42.5747ZM10.2805 43.3599L10.1486 43.3211L10.0968 43.4974H10.2805V43.3599ZM10.7457 43.3599V43.4974H10.9301L10.8774 43.3206L10.7457 43.3599ZM11.6332 44.0637H10.9964V44.3386H11.6332V44.0637ZM11.1282 44.162L11.0292 43.8288L10.7657 43.9071L10.8646 44.2403L11.1282 44.162ZM10.8975 43.7305H10.1287V44.0054H10.8975V43.7305ZM9.99697 43.8288L9.898 44.162L10.1615 44.2403L10.2605 43.9071L9.99697 43.8288ZM10.0298 44.0637H9.38973V44.3386H10.0298V44.0637ZM9.52027 44.2443L10.2824 41.9348L10.0213 41.8487L9.25919 44.1581L9.52027 44.2443ZM10.1518 42.0292H10.8711V41.7543H10.1518V42.0292ZM10.7405 41.9348L11.5026 44.2443L11.7637 44.1581L11.0016 41.8487L10.7405 41.9348ZM10.3796 42.5359L10.1486 43.3211L10.4124 43.3987L10.6433 42.6135L10.3796 42.5359ZM10.2805 43.4974H10.7457V43.2224H10.2805V43.4974ZM10.8774 43.3206L10.6432 42.5354L10.3797 42.614L10.614 43.3992L10.8774 43.3206ZM12.5486 41.8918V41.7543H12.4111V41.8918H12.5486ZM14.3301 41.8918H14.4676V41.7543H14.3301V41.8918ZM14.3301 44.2012V44.3386H14.4676V44.2012H14.3301ZM13.7395 44.2012H13.6021V44.3386H13.7395V44.2012ZM13.7395 42.4625H13.877V42.325H13.7395V42.4625ZM13.1391 42.4625V42.325H13.0016V42.4625H13.1391ZM13.1391 44.2012V44.3386H13.2766V44.2012H13.1391ZM12.5486 44.2012H12.4111V44.3386H12.5486V44.2012ZM12.5486 42.0292H14.3301V41.7543H12.5486V42.0292ZM14.1926 41.8918V44.2012H14.4676V41.8918H14.1926ZM14.3301 44.0637H13.7395V44.3386H14.3301V44.0637ZM13.877 44.2012V42.4625H13.6021V44.2012H13.877ZM13.7395 42.325H13.1391V42.6H13.7395V42.325ZM13.0016 42.4625V44.2012H13.2766V42.4625H13.0016ZM13.1391 44.0637H12.5486V44.3386H13.1391V44.0637ZM12.686 44.2012V41.8918H12.4111V44.2012H12.686ZM14.6943 41.8918V41.7543H14.5568V41.8918H14.6943ZM16.1789 42.1194L16.0838 42.2186V42.2186L16.1789 42.1194ZM16.1789 43.2807L16.0838 43.1815V43.1815L16.1789 43.2807ZM15.2848 43.5083V43.3709H15.1474V43.5083H15.2848ZM15.2848 44.2012V44.3386H15.4223V44.2012H15.2848ZM14.6943 44.2012H14.5568V44.3386H14.6943V44.2012ZM15.2848 42.9475H15.1474V43.085H15.2848V42.9475ZM15.7566 42.8782L15.6594 42.781L15.6571 42.7834L15.7566 42.8782ZM15.7566 42.5252L15.657 42.6201L15.6618 42.6247L15.7566 42.5252ZM15.2848 42.4559V42.3185H15.1474V42.4559H15.2848ZM14.6943 42.0292H15.5917V41.7543H14.6943V42.0292ZM15.5917 42.0292C15.7918 42.0292 15.9528 42.0931 16.0838 42.2186L16.274 42.0202C16.0884 41.8422 15.8578 41.7543 15.5917 41.7543V42.0292ZM16.0838 42.2186C16.213 42.3424 16.279 42.4991 16.279 42.7001H16.5539C16.5539 42.4303 16.4616 42.1999 16.274 42.0202L16.0838 42.2186ZM16.279 42.7001C16.279 42.901 16.213 43.0577 16.0838 43.1815L16.274 43.38C16.4616 43.2002 16.5539 42.9698 16.5539 42.7001H16.279ZM16.0838 43.1815C15.9528 43.307 15.7918 43.3709 15.5917 43.3709V43.6458C15.8578 43.6458 16.0884 43.5579 16.274 43.38L16.0838 43.1815ZM15.5917 43.3709H15.2848V43.6458H15.5917V43.3709ZM15.1474 43.5083V44.2012H15.4223V43.5083H15.1474ZM15.2848 44.0637H14.6943V44.3386H15.2848V44.0637ZM14.8318 44.2012V41.8918H14.5568V44.2012H14.8318ZM15.2848 43.085H15.5917V42.81H15.2848V43.085ZM15.5917 43.085C15.6938 43.085 15.7852 43.0475 15.8562 42.973L15.6571 42.7834C15.64 42.8013 15.6215 42.81 15.5917 42.81V43.085ZM15.8538 42.9754C15.9288 42.9005 15.9634 42.8047 15.9634 42.7001H15.6884C15.6884 42.7406 15.6769 42.7636 15.6594 42.781L15.8538 42.9754ZM15.9634 42.7001C15.9634 42.5955 15.9287 42.4993 15.8514 42.4257L15.6618 42.6247C15.6769 42.6391 15.6884 42.6594 15.6884 42.7001H15.9634ZM15.8562 42.4304C15.7852 42.3559 15.6938 42.3185 15.5917 42.3185V42.5934C15.6215 42.5934 15.64 42.6021 15.6571 42.62L15.8562 42.4304ZM15.5917 42.3185H15.2848V42.5934H15.5917V42.3185ZM15.1474 42.4559V42.9475H15.4223V42.4559H15.1474ZM18.623 43.9042L18.7193 44.0024L18.7202 44.0014L18.623 43.9042ZM16.9041 43.9042L16.8069 44.0015L16.8074 44.0019L16.9041 43.9042ZM16.9041 42.192L17.0009 42.2896L17.0013 42.2892L16.9041 42.192ZM18.623 42.192L18.5258 42.2892L18.5267 42.2901L18.623 42.192ZM17.3198 43.4985L17.2226 43.5957L17.2244 43.5974L17.3198 43.4985ZM18.2106 43.4985L18.306 43.5975L18.3078 43.5957L18.2106 43.4985ZM18.2106 42.5978L18.1134 42.695L18.1153 42.6968L18.2106 42.5978ZM17.3198 42.5978L17.4152 42.6968L17.417 42.695L17.3198 42.5978ZM18.5267 43.8061C18.3177 44.0113 18.0666 44.1132 17.7652 44.1132V44.3881C18.1369 44.3881 18.4577 44.2591 18.7193 44.0024L18.5267 43.8061ZM17.7652 44.1132C17.459 44.1132 17.2072 44.0109 17.0009 43.8066L16.8074 44.0019C17.0674 44.2594 17.3896 44.3881 17.7652 44.3881V44.1132ZM17.0013 43.807C16.7948 43.6005 16.6919 43.3498 16.6919 43.0465H16.417C16.417 43.4205 16.5472 43.7418 16.8069 44.0014L17.0013 43.807ZM16.6919 43.0465C16.6919 42.7431 16.7947 42.4939 17.0009 42.2896L16.8074 42.0943C16.5473 42.352 16.417 42.6724 16.417 43.0465H16.6919ZM17.0013 42.2892C17.2077 42.0828 17.4594 41.9797 17.7652 41.9797V41.7048C17.3892 41.7048 17.0668 41.8349 16.8069 42.0948L17.0013 42.2892ZM17.7652 41.9797C18.0686 41.9797 18.3192 42.0826 18.5258 42.2892L18.7202 42.0948C18.4605 41.8351 18.1393 41.7048 17.7652 41.7048V41.9797ZM18.5267 42.2901C18.7349 42.4944 18.8386 42.7435 18.8386 43.0465H19.1135C19.1135 42.672 18.9818 42.3514 18.7193 42.0939L18.5267 42.2901ZM18.8386 43.0465C18.8386 43.347 18.735 43.5978 18.5258 43.807L18.7202 44.0014C18.9816 43.74 19.1135 43.419 19.1135 43.0465H18.8386ZM17.2244 43.5974C17.3723 43.74 17.5556 43.8108 17.7652 43.8108V43.5358C17.623 43.5358 17.5093 43.4901 17.4152 43.3995L17.2244 43.5974ZM17.7652 43.8108C17.9749 43.8108 18.1581 43.74 18.306 43.5974L18.1152 43.3995C18.0212 43.4901 17.9075 43.5358 17.7652 43.5358V43.8108ZM18.3078 43.5957C18.4547 43.4487 18.5262 43.262 18.5262 43.0465H18.2513C18.2513 43.1961 18.204 43.3106 18.1134 43.4012L18.3078 43.5957ZM18.5262 43.0465C18.5262 42.8293 18.455 42.6423 18.306 42.4988L18.1153 42.6968C18.2038 42.782 18.2513 42.8941 18.2513 43.0465H18.5262ZM18.3078 42.5006C18.1616 42.3543 17.9774 42.2822 17.7652 42.2822V42.5571C17.9094 42.5571 18.0221 42.6037 18.1134 42.695L18.3078 42.5006ZM17.7652 42.2822C17.5531 42.2822 17.3689 42.3543 17.2226 42.5006L17.417 42.695C17.5083 42.6037 17.6211 42.5571 17.7652 42.5571V42.2822ZM17.2245 42.4988C17.0754 42.6423 17.0042 42.8293 17.0042 43.0465H17.2791C17.2791 42.8941 17.3267 42.782 17.4152 42.6968L17.2245 42.4988ZM17.0042 43.0465C17.0042 43.262 17.0757 43.4487 17.2226 43.5957L17.417 43.4012C17.3264 43.3106 17.2791 43.1961 17.2791 43.0465H17.0042ZM19.25 41.8918V41.7543H19.1125V41.8918H19.25ZM20.6158 41.8918H20.7533V41.7543H20.6158V41.8918ZM20.6158 42.4625V42.6H20.7533V42.4625H20.6158ZM19.8405 42.4625V42.325H19.7031V42.4625H19.8405ZM19.8405 44.2012V44.3386H19.978V44.2012H19.8405ZM19.25 44.2012H19.1125V44.3386H19.25V44.2012ZM19.25 42.0292H20.6158V41.7543H19.25V42.0292ZM20.4784 41.8918V42.4625H20.7533V41.8918H20.4784ZM20.6158 42.325H19.8405V42.6H20.6158V42.325ZM19.7031 42.4625V44.2012H19.978V42.4625H19.7031ZM19.8405 44.0637H19.25V44.3386H19.8405V44.0637ZM19.3874 44.2012V41.8918H19.1125V44.2012H19.3874ZM22.0563 42.7462V42.8837H22.1937V42.7462H22.0563ZM22.0563 41.8918V41.7543H21.9188V41.8918H22.0563ZM22.6435 41.8918H22.781V41.7543H22.6435V41.8918ZM22.6435 44.2012V44.3386H22.781V44.2012H22.6435ZM22.0563 44.2012H21.9188V44.3386H22.0563V44.2012ZM22.0563 43.3137H22.1937V43.1762H22.0563V43.3137ZM21.4063 43.3137V43.1762H21.2689V43.3137H21.4063ZM21.4063 44.2012V44.3386H21.5438V44.2012H21.4063ZM20.8158 44.2012H20.6783V44.3386H20.8158V44.2012ZM20.8158 41.8918V41.7543H20.6783V41.8918H20.8158ZM21.4063 41.8918H21.5438V41.7543H21.4063V41.8918ZM21.4063 42.7462H21.2689V42.8837H21.4063V42.7462ZM22.1937 42.7462V41.8918H21.9188V42.7462H22.1937ZM22.0563 42.0292H22.6435V41.7543H22.0563V42.0292ZM22.5061 41.8918V44.2012H22.781V41.8918H22.5061ZM22.6435 44.0637H22.0563V44.3386H22.6435V44.0637ZM22.1937 44.2012V43.3137H21.9188V44.2012H22.1937ZM22.0563 43.1762H21.4063V43.4512H22.0563V43.1762ZM21.2689 43.3137V44.2012H21.5438V43.3137H21.2689ZM21.4063 44.0637H20.8158V44.3386H21.4063V44.0637ZM20.9533 44.2012V41.8918H20.6783V44.2012H20.9533ZM20.8158 42.0292H21.4063V41.7543H20.8158V42.0292ZM21.2689 41.8918V42.7462H21.5438V41.8918H21.2689ZM21.4063 42.8837H22.0563V42.6088H21.4063V42.8837ZM24.9894 43.9042L25.0856 44.0024L25.0866 44.0014L24.9894 43.9042ZM23.2705 43.9042L23.1733 44.0015L23.1738 44.0019L23.2705 43.9042ZM23.2705 42.192L23.3672 42.2896L23.3677 42.2892L23.2705 42.192ZM24.9894 42.192L24.8921 42.2892L24.8931 42.2901L24.9894 42.192ZM23.6862 43.4985L23.589 43.5957L23.5908 43.5974L23.6862 43.4985ZM24.577 43.4985L24.6724 43.5975L24.6742 43.5957L24.577 43.4985ZM24.577 42.5978L24.4797 42.695L24.4816 42.6968L24.577 42.5978ZM23.6862 42.5978L23.7816 42.6968L23.7834 42.695L23.6862 42.5978ZM24.8931 43.8061C24.684 44.0113 24.4329 44.1132 24.1316 44.1132V44.3881C24.5033 44.3881 24.824 44.2591 25.0856 44.0024L24.8931 43.8061ZM24.1316 44.1132C23.8253 44.1132 23.5735 44.0109 23.3672 43.8066L23.1738 44.0019C23.4337 44.2594 23.756 44.3881 24.1316 44.3881V44.1132ZM23.3677 43.807C23.1611 43.6005 23.0582 43.3498 23.0582 43.0465H22.7833C22.7833 43.4205 22.9136 43.7418 23.1733 44.0014L23.3677 43.807ZM23.0582 43.0465C23.0582 42.7431 23.1611 42.4939 23.3672 42.2896L23.1738 42.0943C22.9136 42.352 22.7833 42.6724 22.7833 43.0465H23.0582ZM23.3677 42.2892C23.5741 42.0828 23.8257 41.9797 24.1316 41.9797V41.7048C23.7556 41.7048 23.4332 41.8349 23.1733 42.0948L23.3677 42.2892ZM24.1316 41.9797C24.4349 41.9797 24.6856 42.0826 24.8922 42.2892L25.0866 42.0948C24.8269 41.8351 24.5056 41.7048 24.1316 41.7048V41.9797ZM24.8931 42.2901C25.1013 42.4944 25.2049 42.7435 25.2049 43.0465H25.4798C25.4798 42.672 25.3481 42.3514 25.0856 42.0939L24.8931 42.2901ZM25.2049 43.0465C25.2049 43.347 25.1014 43.5978 24.8922 43.807L25.0866 44.0014C25.348 43.74 25.4798 43.419 25.4798 43.0465H25.2049ZM23.5908 43.5974C23.7387 43.74 23.9219 43.8108 24.1316 43.8108V43.5358C23.9893 43.5358 23.8756 43.4901 23.7816 43.3995L23.5908 43.5974ZM24.1316 43.8108C24.3412 43.8108 24.5244 43.74 24.6723 43.5974L24.4816 43.3995C24.3875 43.4901 24.2738 43.5358 24.1316 43.5358V43.8108ZM24.6742 43.5957C24.8211 43.4487 24.8926 43.262 24.8926 43.0465H24.6177C24.6177 43.1961 24.5704 43.3106 24.4798 43.4012L24.6742 43.5957ZM24.8926 43.0465C24.8926 42.8293 24.8214 42.6423 24.6723 42.4988L24.4816 42.6968C24.5701 42.782 24.6177 42.8941 24.6177 43.0465H24.8926ZM24.6742 42.5006C24.5279 42.3543 24.3437 42.2822 24.1316 42.2822V42.5571C24.2757 42.5571 24.3885 42.6037 24.4798 42.695L24.6742 42.5006ZM24.1316 42.2822C23.9194 42.2822 23.7352 42.3543 23.589 42.5006L23.7834 42.695C23.8747 42.6037 23.9874 42.5571 24.1316 42.5571V42.2822ZM23.5908 42.4988C23.4418 42.6423 23.3706 42.8293 23.3706 43.0465H23.6455C23.6455 42.8941 23.693 42.782 23.7815 42.6968L23.5908 42.4988ZM23.3706 43.0465C23.3706 43.262 23.4421 43.4487 23.589 43.5957L23.7834 43.4012C23.6928 43.3106 23.6455 43.1961 23.6455 43.0465H23.3706ZM26.7777 43.0102L26.6954 42.9L26.5248 43.0274L26.7111 43.1305L26.7777 43.0102ZM26.8502 44.0593L26.9372 44.1658L26.9374 44.1656L26.8502 44.0593ZM25.3293 43.7096L25.2608 43.5904L25.1561 43.6507L25.2023 43.7622L25.3293 43.7096ZM25.8341 43.4193L25.9634 43.3725L25.9077 43.2184L25.7656 43.3001L25.8341 43.4193ZM26.2762 43.2906L26.2885 43.1532L26.2775 43.1531L26.2762 43.2906ZM25.9265 43.2873H25.789V43.4235L25.9252 43.4248L25.9265 43.2873ZM25.9265 42.7759V42.6385H25.789V42.7759H25.9265ZM25.8539 42.6275L25.7849 42.7464L25.9215 42.8256L25.9812 42.6795L25.8539 42.6275ZM25.359 42.3404L25.2341 42.2832L25.182 42.3967L25.29 42.4594L25.359 42.3404ZM25.6823 41.9742L25.7531 42.0921L25.7536 42.0918L25.6823 41.9742ZM26.7843 42.0336L26.695 42.1382L26.6967 42.1396L26.7843 42.0336ZM26.7111 43.1305C26.7956 43.1772 26.8534 43.2341 26.891 43.2996C26.9287 43.3654 26.9503 43.4476 26.9503 43.5512H27.2252C27.2252 43.4085 27.1952 43.2774 27.1295 43.1629C27.0637 43.048 26.9665 42.9575 26.8442 42.8899L26.7111 43.1305ZM26.9503 43.5512C26.9503 43.72 26.8889 43.8499 26.7631 43.953L26.9374 44.1656C27.1283 44.0091 27.2252 43.8004 27.2252 43.5512H26.9503ZM26.7633 43.9528C26.6382 44.055 26.463 44.1132 26.2234 44.1132V44.3881C26.5073 44.3881 26.75 44.3187 26.9372 44.1658L26.7633 43.9528ZM26.2234 44.1132C26.0183 44.1132 25.8585 44.0718 25.7362 43.9978C25.6152 43.9246 25.5213 43.8137 25.4563 43.6569L25.2023 43.7622C25.2869 43.9662 25.4168 44.1259 25.5938 44.233C25.7696 44.3394 25.982 44.3881 26.2234 44.3881V44.1132ZM25.3979 43.8288L25.9026 43.5384L25.7656 43.3001L25.2608 43.5904L25.3979 43.8288ZM25.7048 43.466C25.7452 43.5778 25.8091 43.6719 25.9018 43.7371C25.9945 43.8023 26.1046 43.8306 26.2234 43.8306V43.5556C26.1486 43.5556 26.097 43.5383 26.06 43.5122C26.0229 43.4861 25.989 43.4433 25.9634 43.3725L25.7048 43.466ZM26.2234 43.8306C26.3278 43.8306 26.4311 43.8118 26.511 43.7521C26.5985 43.6868 26.6347 43.5905 26.6347 43.4886H26.3598C26.3598 43.5074 26.3566 43.5175 26.3546 43.522C26.3529 43.5258 26.3509 43.5286 26.3465 43.5318C26.3351 43.5403 26.3015 43.5556 26.2234 43.5556V43.8306ZM26.6347 43.4886C26.6347 43.3986 26.6054 43.3119 26.5337 43.2476C26.4662 43.1872 26.3777 43.1617 26.2884 43.1537L26.2639 43.4275C26.322 43.4327 26.344 43.4468 26.3503 43.4524C26.3522 43.4541 26.3598 43.4597 26.3598 43.4886H26.6347ZM26.2775 43.1531L25.9278 43.1498L25.9252 43.4248L26.2749 43.4281L26.2775 43.1531ZM26.0639 43.2873V42.7759H25.789V43.2873H26.0639ZM25.9265 42.9134H26.1541V42.6385H25.9265V42.9134ZM26.1541 42.9134C26.2555 42.9134 26.3562 42.896 26.4346 42.8399C26.5214 42.7777 26.5588 42.6844 26.5588 42.5846H26.2839C26.2839 42.6005 26.2811 42.6079 26.28 42.6103C26.2793 42.6119 26.2783 42.6136 26.2745 42.6163C26.2638 42.624 26.2309 42.6385 26.1541 42.6385V42.9134ZM26.5588 42.5846C26.5588 42.4908 26.5282 42.3985 26.4482 42.334C26.3738 42.2741 26.2778 42.2558 26.1838 42.2558V42.5307C26.2481 42.5307 26.2709 42.5442 26.2757 42.5481C26.2772 42.5493 26.2782 42.5504 26.2795 42.5534C26.2811 42.5573 26.2839 42.5667 26.2839 42.5846H26.5588ZM26.1838 42.2558C26.0819 42.2558 25.9864 42.2817 25.9046 42.3397C25.8236 42.3972 25.7659 42.4793 25.7266 42.5755L25.9812 42.6795C26.0056 42.6195 26.0348 42.5844 26.0638 42.5639C26.092 42.5438 26.1296 42.5307 26.1838 42.5307V42.2558ZM25.9229 42.5086L25.428 42.2215L25.29 42.4594L25.7849 42.7464L25.9229 42.5086ZM25.484 42.3977C25.5456 42.2634 25.635 42.163 25.7531 42.0921L25.6116 41.8564C25.4438 41.9571 25.3176 42.1008 25.2341 42.2832L25.484 42.3977ZM25.7536 42.0918C25.8741 42.0187 26.0192 41.9797 26.1937 41.9797V41.7048C25.9767 41.7048 25.7809 41.7538 25.6111 41.8567L25.7536 42.0918ZM26.1937 41.9797C26.4133 41.9797 26.576 42.0366 26.695 42.1382L26.8735 41.929C26.6934 41.7755 26.4624 41.7048 26.1937 41.7048V41.9797ZM26.6967 42.1396C26.8147 42.2371 26.8744 42.3643 26.8744 42.5351H27.1494C27.1494 42.288 27.0573 42.0809 26.8718 41.9276L26.6967 42.1396ZM26.8744 42.5351C26.8744 42.6932 26.8157 42.8102 26.6954 42.9L26.8599 43.1203C27.0519 42.977 27.1494 42.7772 27.1494 42.5351H26.8744Z" fill="black"/>
<defs>
<filter id="filter0_ii" x="0.378662" y="0.121094" width="33.8243" height="68.6741" filterUnits="userSpaceOnUse" color-interpolation-filters="sRGB">
<feFlood flood-opacity="0" result="BackgroundImageFix"/>
<feBlend mode="normal" in="SourceGraphic" in2="BackgroundImageFix" result="shape"/>
<feColorMatrix in="SourceAlpha" type="matrix" values="0 0 0 0 0 0 0 0 0 0 0 0 0 0 0 0 0 0 127 0" result="hardAlpha"/>
<feOffset/>
<feGaussianBlur stdDeviation="0.14377"/>
<feComposite in2="hardAlpha" operator="arithmetic" k2="-1" k3="1"/>
<feColorMatrix type="matrix" values="0 0 0 0 0.33 0 0 0 0 0.33 0 0 0 0 0.33 0 0 0 1 0"/>
<feBlend mode="normal" in2="shape" result="effect1_innerShadow"/>
<feColorMatrix in="SourceAlpha" type="matrix" values="0 0 0 0 0 0 0 0 0 0 0 0 0 0 0 0 0 0 127 0" result="hardAlpha"/>
<feOffset/>
<feGaussianBlur stdDeviation="0.0958466"/>
<feComposite in2="hardAlpha" operator="arithmetic" k2="-1" k3="1"/>
<feColorMatrix type="matrix" values="0 0 0 0 0.635294 0 0 0 0 0.635294 0 0 0 0 0.635294 0 0 0 1 0"/>
<feBlend mode="normal" in2="effect1_innerShadow" result="effect2_innerShadow"/>
</filter>
<filter id="filter1_i" x="0.824341" y="1.0918" width="3.55112" height="66.5559" filterUnits="userSpaceOnUse" color-interpolation-filters="sRGB">
<feFlood flood-opacity="0" result="BackgroundImageFix"/>
<feBlend mode="normal" in="SourceGraphic" in2="BackgroundImageFix" result="shape"/>
<feColorMatrix in="SourceAlpha" type="matrix" values="0 0 0 0 0 0 0 0 0 0 0 0 0 0 0 0 0 0 127 0" result="hardAlpha"/>
<feOffset dx="0.613419"/>
<feGaussianBlur stdDeviation="0.210863"/>
<feComposite in2="hardAlpha" operator="arithmetic" k2="-1" k3="1"/>
<feColorMatrix type="matrix" values="0 0 0 0 0.729412 0 0 0 0 0.729412 0 0 0 0 0.729412 0 0 0 1 0"/>
<feBlend mode="normal" in2="shape" result="effect1_innerShadow"/>
</filter>
<filter id="filter2_i" x="30.2443" y="1.0918" width="3.55112" height="66.5559" filterUnits="userSpaceOnUse" color-interpolation-filters="sRGB">
<feFlood flood-opacity="0" result="BackgroundImageFix"/>
<feBlend mode="normal" in="SourceGraphic" in2="BackgroundImageFix" result="shape"/>
<feColorMatrix in="SourceAlpha" type="matrix" values="0 0 0 0 0 0 0 0 0 0 0 0 0 0 0 0 0 0 127 0" result="hardAlpha"/>
<feOffset dx="-0.613419"/>
<feGaussianBlur stdDeviation="0.210863"/>
<feComposite in2="hardAlpha" operator="arithmetic" k2="-1" k3="1"/>
<feColorMatrix type="matrix" values="0 0 0 0 0.729412 0 0 0 0 0.729412 0 0 0 0 0.729412 0 0 0 1 0"/>
<feBlend mode="normal" in2="shape" result="effect1_innerShadow"/>
</filter>
<filter id="filter3_i" x="-0.0191693" y="9.07812" width="0.28754" height="2.66454" filterUnits="userSpaceOnUse" color-interpolation-filters="sRGB">
<feFlood flood-opacity="0" result="BackgroundImageFix"/>
<feBlend mode="normal" in="SourceGraphic" in2="BackgroundImageFix" result="shape"/>
<feColorMatrix in="SourceAlpha" type="matrix" values="0 0 0 0 0 0 0 0 0 0 0 0 0 0 0 0 0 0 127 0" result="hardAlpha"/>
<feOffset dx="-0.0191693"/>
<feGaussianBlur stdDeviation="0.0239617"/>
<feComposite in2="hardAlpha" operator="arithmetic" k2="-1" k3="1"/>
<feColorMatrix type="matrix" values="0 0 0 0 0 0 0 0 0 0 0 0 0 0 0 0 0 0 0.65 0"/>
<feBlend mode="normal" in2="shape" result="effect1_innerShadow"/>
</filter>
<filter id="filter4_i" x="0" y="9.07812" width="0.107827" height="2.66454" filterUnits="userSpaceOnUse" color-interpolation-filters="sRGB">
<feFlood flood-opacity="0" result="BackgroundImageFix"/>
<feBlend mode="normal" in="SourceGraphic" in2="BackgroundImageFix" result="shape"/>
<feColorMatrix in="SourceAlpha" type="matrix" values="0 0 0 0 0 0 0 0 0 0 0 0 0 0 0 0 0 0 127 0" result="hardAlpha"/>
<feOffset dx="0.0335463" dy="0.00958466"/>
<feComposite in2="hardAlpha" operator="arithmetic" k2="-1" k3="1"/>
<feColorMatrix type="matrix" values="0 0 0 0 0 0 0 0 0 0 0 0 0 0 0 0 0 0 0.65 0"/>
<feBlend mode="normal" in2="shape" result="effect1_innerShadow"/>
</filter>
<filter id="filter5_i" x="0.0670123" y="14.0527" width="0.306709" height="4.87428" filterUnits="userSpaceOnUse" color-interpolation-filters="sRGB">
<feFlood flood-opacity="0" result="BackgroundImageFix"/>
<feBlend mode="normal" in="SourceGraphic" in2="BackgroundImageFix" result="shape"/>
<feColorMatrix in="SourceAlpha" type="matrix" values="0 0 0 0 0 0 0 0 0 0 0 0 0 0 0 0 0 0 127 0" result="hardAlpha"/>
<feOffset dx="-0.0191693"/>
<feGaussianBlur stdDeviation="0.0239617"/>
<feComposite in2="hardAlpha" operator="arithmetic" k2="-1" k3="1"/>
<feColorMatrix type="matrix" values="0 0 0 0 0 0 0 0 0 0 0 0 0 0 0 0 0 0 0.65 0"/>
<feBlend mode="normal" in2="shape" result="effect1_innerShadow"/>
</filter>
<filter id="filter6_i" x="0.0861816" y="14.1465" width="0.0766773" height="4.69649" filterUnits="userSpaceOnUse" color-interpolation-filters="sRGB">
<feFlood flood-opacity="0" result="BackgroundImageFix"/>
<feBlend mode="normal" in="SourceGraphic" in2="BackgroundImageFix" result="shape"/>
<feColorMatrix in="SourceAlpha" type="matrix" values="0 0 0 0 0 0 0 0 0 0 0 0 0 0 0 0 0 0 127 0" result="hardAlpha"/>
<feOffset dx="-0.0191693"/>
<feComposite in2="hardAlpha" operator="arithmetic" k2="-1" k3="1"/>
<feColorMatrix type="matrix" values="0 0 0 0 1 0 0 0 0 1 0 0 0 0 1 0 0 0 0.35 0"/>
<feBlend mode="normal" in2="shape" result="effect1_innerShadow"/>
</filter>
<filter id="filter7_i" x="34.217" y="15.7578" width="0.306709" height="7.94137" filterUnits="userSpaceOnUse" color-interpolation-filters="sRGB">
<feFlood flood-opacity="0" result="BackgroundImageFix"/>
<feBlend mode="normal" in="SourceGraphic" in2="BackgroundImageFix" result="shape"/>
<feColorMatrix in="SourceAlpha" type="matrix" values="0 0 0 0 0 0 0 0 0 0 0 0 0 0 0 0 0 0 127 0" result="hardAlpha"/>
<feOffset dx="-0.0191693"/>
<feGaussianBlur stdDeviation="0.0239617"/>
<feComposite in2="hardAlpha" operator="arithmetic" k2="-1" k3="1"/>
<feColorMatrix type="matrix" values="0 0 0 0 0 0 0 0 0 0 0 0 0 0 0 0 0 0 0.65 0"/>
<feBlend mode="normal" in2="shape" result="effect1_innerShadow"/>
</filter>
<filter id="filter8_i" x="34.4473" y="15.8496" width="0.0766773" height="7.76358" filterUnits="userSpaceOnUse" color-interpolation-filters="sRGB">
<feFlood flood-opacity="0" result="BackgroundImageFix"/>
<feBlend mode="normal" in="SourceGraphic" in2="BackgroundImageFix" result="shape"/>
<feColorMatrix in="SourceAlpha" type="matrix" values="0 0 0 0 0 0 0 0 0 0 0 0 0 0 0 0 0 0 127 0" result="hardAlpha"/>
<feOffset dx="-0.0191693"/>
<feComposite in2="hardAlpha" operator="arithmetic" k2="-1" k3="1"/>
<feColorMatrix type="matrix" values="0 0 0 0 1 0 0 0 0 1 0 0 0 0 1 0 0 0 0.35 0"/>
<feBlend mode="normal" in2="shape" result="effect1_innerShadow"/>
</filter>
<filter id="filter9_i" x="0.0670123" y="20.166" width="0.306709" height="4.87428" filterUnits="userSpaceOnUse" color-interpolation-filters="sRGB">
<feFlood flood-opacity="0" result="BackgroundImageFix"/>
<feBlend mode="normal" in="SourceGraphic" in2="BackgroundImageFix" result="shape"/>
<feColorMatrix in="SourceAlpha" type="matrix" values="0 0 0 0 0 0 0 0 0 0 0 0 0 0 0 0 0 0 127 0" result="hardAlpha"/>
<feOffset dx="-0.0191693"/>
<feGaussianBlur stdDeviation="0.0239617"/>
<feComposite in2="hardAlpha" operator="arithmetic" k2="-1" k3="1"/>
<feColorMatrix type="matrix" values="0 0 0 0 0 0 0 0 0 0 0 0 0 0 0 0 0 0 0.65 0"/>
<feBlend mode="normal" in2="shape" result="effect1_innerShadow"/>
</filter>
<filter id="filter10_i" x="0.0861816" y="20.2598" width="0.0766773" height="4.69649" filterUnits="userSpaceOnUse" color-interpolation-filters="sRGB">
<feFlood flood-opacity="0" result="BackgroundImageFix"/>
<feBlend mode="normal" in="SourceGraphic" in2="BackgroundImageFix" result="shape"/>
<feColorMatrix in="SourceAlpha" type="matrix" values="0 0 0 0 0 0 0 0 0 0 0 0 0 0 0 0 0 0 127 0" result="hardAlpha"/>
<feOffset dx="-0.0191693"/>
<feComposite in2="hardAlpha" operator="arithmetic" k2="-1" k3="1"/>
<feColorMatrix type="matrix" values="0 0 0 0 1 0 0 0 0 1 0 0 0 0 1 0 0 0 0.35 0"/>
<feBlend mode="normal" in2="shape" result="effect1_innerShadow"/>
</filter>
<filter id="filter11_i" x="20.4057" y="2.44159" width="0.968051" height="0.968051" filterUnits="userSpaceOnUse" color-interpolation-filters="sRGB">
<feFlood flood-opacity="0" result="BackgroundImageFix"/>
<feBlend mode="normal" in="SourceGraphic" in2="BackgroundImageFix" result="shape"/>
<feColorMatrix in="SourceAlpha" type="matrix" values="0 0 0 0 0 0 0 0 0 0 0 0 0 0 0 0 0 0 127 0" result="hardAlpha"/>
<feOffset dx="-0.00958466" dy="-0.00958466"/>
<feGaussianBlur stdDeviation="0.00479233"/>
<feComposite in2="hardAlpha" operator="arithmetic" k2="-1" k3="1"/>
<feColorMatrix type="matrix" values="0 0 0 0 0.14 0 0 0 0 0.1386 0 0 0 0 0.1386 0 0 0 1 0"/>
<feBlend mode="normal" in2="shape" result="effect1_innerShadow"/>
</filter>
<filter id="filter12_ddd" x="20.4367" y="2.47237" width="0.917594" height="0.920128" filterUnits="userSpaceOnUse" color-interpolation-filters="sRGB">
<feFlood flood-opacity="0" result="BackgroundImageFix"/>
<feColorMatrix in="SourceAlpha" type="matrix" values="0 0 0 0 0 0 0 0 0 0 0 0 0 0 0 0 0 0 127 0"/>
<feOffset/>
<feGaussianBlur stdDeviation="0.0958466"/>
<feColorMatrix type="matrix" values="0 0 0 0 0 0 0 0 0 0 0 0 0 0 0 0 0 0 1 0"/>
<feBlend mode="normal" in2="BackgroundImageFix" result="effect1_dropShadow"/>
<feColorMatrix in="SourceAlpha" type="matrix" values="0 0 0 0 0 0 0 0 0 0 0 0 0 0 0 0 0 0 127 0"/>
<feOffset dy="0.028754"/>
<feGaussianBlur stdDeviation="0.028754"/>
<feColorMatrix type="matrix" values="0 0 0 0 0 0 0 0 0 0 0 0 0 0 0 0 0 0 1 0"/>
<feBlend mode="normal" in2="effect1_dropShadow" result="effect2_dropShadow"/>
<feColorMatrix in="SourceAlpha" type="matrix" values="0 0 0 0 0 0 0 0 0 0 0 0 0 0 0 0 0 0 127 0"/>
<feOffset dy="0.00958466"/>
<feGaussianBlur stdDeviation="0.00958466"/>
<feColorMatrix type="matrix" values="0 0 0 0 0 0 0 0 0 0 0 0 0 0 0 0 0 0 1 0"/>
<feBlend mode="normal" in2="effect2_dropShadow" result="effect3_dropShadow"/>
<feBlend mode="normal" in="SourceGraphic" in2="effect3_dropShadow" result="shape"/>
</filter>
<filter id="filter13_i" x="20.6261" y="2.70898" width="0.175917" height="0.384945" filterUnits="userSpaceOnUse" color-interpolation-filters="sRGB">
<feFlood flood-opacity="0" result="BackgroundImageFix"/>
<feBlend mode="normal" in="SourceGraphic" in2="BackgroundImageFix" result="shape"/>
<feColorMatrix in="SourceAlpha" type="matrix" values="0 0 0 0 0 0 0 0 0 0 0 0 0 0 0 0 0 0 127 0" result="hardAlpha"/>
<feOffset dy="0.0191693"/>
<feGaussianBlur stdDeviation="0.00479233"/>
<feComposite in2="hardAlpha" operator="arithmetic" k2="-1" k3="1"/>
<feColorMatrix type="matrix" values="0 0 0 0 1 0 0 0 0 0.99 0 0 0 0 0.99 0 0 0 0.25 0"/>
<feBlend mode="overlay" in2="shape" result="effect1_innerShadow"/>
</filter>
<radialGradient id="paint0_radial" cx="0" cy="0" r="1" gradientUnits="userSpaceOnUse" gradientTransform="translate(1.83077 2.18588) rotate(49.7733) scale(3.33928 2.522)">
<stop offset="0.375326" stop-color="#848484"/>
<stop offset="1" stop-color="#4F4F4F" stop-opacity="0"/>
</radialGradient>
<radialGradient id="paint1_radial" cx="0" cy="0" r="1" gradientUnits="userSpaceOnUse" gradientTransform="translate(32.3723 1.39994) rotate(139.67) scale(4.28737 3.23805)">
<stop offset="0.375326" stop-color="#848484"/>
<stop offset="1" stop-color="#4F4F4F" stop-opacity="0"/>
</radialGradient>
<radialGradient id="paint2_radial" cx="0" cy="0" r="1" gradientUnits="userSpaceOnUse" gradientTransform="translate(1.3084 67.6252) rotate(-37.295) scale(3.48796 2.63429)">
<stop offset="0.375326" stop-color="#848484"/>
<stop offset="1" stop-color="#4F4F4F" stop-opacity="0"/>
</radialGradient>
<radialGradient id="paint3_radial" cx="0" cy="0" r="1" gradientUnits="userSpaceOnUse" gradientTransform="translate(32.7653 68.0565) rotate(-126.882) scale(4.63131 3.49781)">
<stop offset="0.375326" stop-color="#848484"/>
<stop offset="1" stop-color="#4F4F4F" stop-opacity="0"/>
</radialGradient>
<linearGradient id="paint4_linear" x1="31.3083" y1="66.1661" x2="31.3417" y2="67.5263" gradientUnits="userSpaceOnUse">
<stop stop-color="#242424"/>
<stop offset="1" stop-color="#494949"/>
</linearGradient>
<linearGradient id="paint5_linear" x1="31.2939" y1="2.16968" x2="31.2921" y2="1.05303" gradientUnits="userSpaceOnUse">
<stop stop-color="#191919"/>
<stop offset="1" stop-color="#666666"/>
</linearGradient>
<radialGradient id="paint6_radial" cx="0" cy="0" r="1" gradientUnits="userSpaceOnUse" gradientTransform="translate(17.2907 0.603516) rotate(90) scale(15.5463 15.8096)">
<stop offset="0.449549" stop-color="#656565"/>
<stop offset="1" stop-color="#212121"/>
</radialGradient>
<radialGradient id="paint7_radial" cx="0" cy="0" r="1" gradientUnits="userSpaceOnUse" gradientTransform="translate(17.2734 67.4763) rotate(-90.0309) scale(3.7572 18.5611)">
<stop offset="0.276243" stop-color="#595959"/>
<stop offset="1" stop-color="#020202"/>
</radialGradient>
<radialGradient id="paint8_radial" cx="0" cy="0" r="1" gradientUnits="userSpaceOnUse" gradientTransform="translate(17.3009 1.16041) rotate(90) scale(4.25559 15.5875)">
<stop offset="0.65754" stop-color="#595959"/>
<stop offset="1" stop-color="#020202"/>
</radialGradient>
<radialGradient id="paint9_radial" cx="0" cy="0" r="1" gradientUnits="userSpaceOnUse" gradientTransform="translate(0.71057 62.1088) rotate(180) scale(0.509224 0.581183)">
<stop stop-color="#858585" stop-opacity="0.5"/>
<stop offset="1" stop-color="#646464"/>
</radialGradient>
<radialGradient id="paint10_radial" cx="0" cy="0" r="1" gradientUnits="userSpaceOnUse" gradientTransform="translate(33.871 62.1088) scale(0.509224 0.581183)">
<stop stop-color="#858585" stop-opacity="0.5"/>
<stop offset="1" stop-color="#646464"/>
</radialGradient>
<linearGradient id="paint11_linear" x1="1.24848" y1="6.82555" x2="0.230033" y2="6.82555" gradientUnits="userSpaceOnUse">
<stop stop-color="#B1B3B5" stop-opacity="0.48"/>
<stop offset="1" stop-color="#636363"/>
</linearGradient>
<linearGradient id="paint12_linear" x1="33.345" y1="6.82555" x2="34.3801" y2="6.82555" gradientUnits="userSpaceOnUse">
<stop stop-color="#B1B3B5" stop-opacity="0.48"/>
<stop offset="1" stop-color="#636363"/>
</linearGradient>
<linearGradient id="paint13_linear" x1="0.134185" y1="9.13563" x2="0.134185" y2="11.6612" gradientUnits="userSpaceOnUse">
<stop stop-color="#1F1F1F"/>
<stop offset="0.0369711" stop-color="#5C5C5C"/>
<stop offset="0.117653" stop-color="#B4B4B4"/>
<stop offset="0.254624" stop-color="#CCCCCC"/>
<stop offset="0.519185" stop-color="#CECECE"/>
<stop offset="0.691806" stop-color="#D1D1D1"/>
<stop offset="0.888819" stop-color="#D1D1D1"/>
<stop offset="0.95449" stop-color="#6F6F6F"/>
<stop offset="1" stop-color="#181818"/>
</linearGradient>
<linearGradient id="paint14_linear" x1="0.0539137" y1="9.07812" x2="0.0539137" y2="11.7427" gradientUnits="userSpaceOnUse">
<stop offset="0.00682879" stop-color="#121212"/>
<stop offset="0.224062" stop-color="#EDEDED"/>
<stop offset="0.515466" stop-color="#F9F9F9"/>
<stop offset="0.789348" stop-color="#EDEDED"/>
<stop offset="0.992091" stop-color="#101010"/>
</linearGradient>
<linearGradient id="paint15_linear" x1="0.229952" y1="14.1281" x2="0.340175" y2="14.4577" gradientUnits="userSpaceOnUse">
<stop offset="0.15038" stop-color="#2A2A2A"/>
<stop offset="0.34555" stop-color="#6C6C6C"/>
<stop offset="1" stop-color="#C7C7C7"/>
</linearGradient>
<linearGradient id="paint16_linear" x1="0.244329" y1="18.8714" x2="0.325798" y2="18.4162" gradientUnits="userSpaceOnUse">
<stop offset="0.220189" stop-color="#2A2A2A"/>
<stop offset="0.465602" stop-color="#6C6C6C"/>
<stop offset="1" stop-color="#C7C7C7" stop-opacity="0"/>
</linearGradient>
<linearGradient id="paint17_linear" x1="34.38" y1="15.8332" x2="34.2698" y2="16.1628" gradientUnits="userSpaceOnUse">
<stop offset="0.15038" stop-color="#2A2A2A"/>
<stop offset="0.34555" stop-color="#6C6C6C"/>
<stop offset="1" stop-color="#C7C7C7"/>
</linearGradient>
<linearGradient id="paint18_linear" x1="34.4711" y1="23.6508" x2="34.38" y2="23.0613" gradientUnits="userSpaceOnUse">
<stop offset="0.220189" stop-color="#2A2A2A"/>
<stop offset="0.465602" stop-color="#6C6C6C"/>
<stop offset="1" stop-color="#C7C7C7" stop-opacity="0"/>
</linearGradient>
<linearGradient id="paint19_linear" x1="0.229952" y1="20.2414" x2="0.340175" y2="20.571" gradientUnits="userSpaceOnUse">
<stop offset="0.15038" stop-color="#2A2A2A"/>
<stop offset="0.34555" stop-color="#6C6C6C"/>
<stop offset="1" stop-color="#C7C7C7"/>
</linearGradient>
<linearGradient id="paint20_linear" x1="0.244329" y1="24.9847" x2="0.325798" y2="24.5294" gradientUnits="userSpaceOnUse">
<stop offset="0.220189" stop-color="#2A2A2A"/>
<stop offset="0.465602" stop-color="#6C6C6C"/>
<stop offset="1" stop-color="#C7C7C7" stop-opacity="0"/>
</linearGradient>
<linearGradient id="paint21_linear" x1="17.3051" y1="2.63281" x2="17.3099" y2="3.17914" gradientUnits="userSpaceOnUse">
<stop offset="0.119432" stop-color="#080808"/>
<stop offset="0.557271" stop-color="#333333"/>
<stop offset="1"/>
</linearGradient>
<linearGradient id="paint22_linear" x1="17.2907" y1="2.63281" x2="17.2907" y2="3.22706" gradientUnits="userSpaceOnUse">
<stop stop-color="#121212"/>
<stop offset="1" stop-color="#1F1F1F"/>
</linearGradient>
<linearGradient id="paint23_linear" x1="21.3114" y1="3.17002" x2="20.5686" y2="2.55181" gradientUnits="userSpaceOnUse">
<stop stop-color="#1A1B1D"/>
<stop offset="0.311237" stop-color="#0E0F11"/>
<stop offset="1" stop-color="#0A0B0D"/>
</linearGradient>
<radialGradient id="paint24_radial" cx="0" cy="0" r="1" gradientUnits="userSpaceOnUse" gradientTransform="translate(21.067 3.14127) rotate(45.5787) scale(0.335497)">
<stop stop-color="#1B1C1E"/>
<stop offset="1" stop-color="#242424" stop-opacity="0"/>
</radialGradient>
<radialGradient id="paint25_radial" cx="0" cy="0" r="1" gradientUnits="userSpaceOnUse" gradientTransform="translate(20.8599 2.90112) rotate(83.2228) scale(0.301789 0.23315)">
<stop stop-color="#000A21"/>
<stop offset="0.593283" stop-color="#0C1427"/>
<stop offset="0.728694" stop-color="#041129"/>
<stop offset="1" stop-color="#091B3D"/>
</radialGradient>
<radialGradient id="paint26_radial" cx="0" cy="0" r="1" gradientUnits="userSpaceOnUse" gradientTransform="translate(20.6821 2.78061) rotate(98.8168) scale(0.348527 0.164088)">
<stop stop-color="#70C3FF"/>
<stop offset="0.918247" stop-color="#081A3D"/>
</radialGradient>
<radialGradient id="paint27_radial" cx="0" cy="0" r="1" gradientUnits="userSpaceOnUse" gradientTransform="translate(21.0027 2.88893) rotate(76.0862) scale(0.18893 0.1232)">
<stop offset="0.279809" stop-color="#296EC2"/>
<stop offset="1" stop-color="#081A3D"/>
</radialGradient>
</defs>
</svg>
