<svg width="32" height="32" viewBox="0 0 32 32" fill="none" xmlns="http://www.w3.org/2000/svg">
<path fill-rule="evenodd" clip-rule="evenodd" d="M22.7079 16.7062C22.615 16.7993 22.5047 16.8732 22.3832 16.9236C22.2617 16.9741 22.1315 17 21.9999 17C21.8684 17 21.7381 16.9741 21.6167 16.9236C21.4952 16.8732 21.3848 16.7993 21.2919 16.7062L15.9999 11.4122L10.7079 16.7062C10.5201 16.894 10.2655 16.9995 9.99992 16.9995C9.73437 16.9995 9.4797 16.894 9.29192 16.7062C9.10415 16.5184 8.99866 16.2638 8.99866 15.9982C8.99866 15.7327 9.10415 15.478 9.29192 15.2902L15.2919 9.29021C15.3848 9.19709 15.4952 9.1232 15.6167 9.07279C15.7381 9.02238 15.8684 8.99643 15.9999 8.99643C16.1315 8.99643 16.2617 9.02238 16.3832 9.07279C16.5047 9.1232 16.615 9.19709 16.7079 9.29021L22.7079 15.2902C22.801 15.3831 22.8749 15.4935 22.9253 15.6149C22.9758 15.7364 23.0017 15.8667 23.0017 15.9982C23.0017 16.1297 22.9758 16.26 22.9253 16.3815C22.8749 16.503 22.801 16.6133 22.7079 16.7062Z" fill="#25E856"/>
<path fill-rule="evenodd" clip-rule="evenodd" d="M16 23C15.7348 23 15.4804 22.8946 15.2929 22.7071C15.1054 22.5196 15 22.2652 15 22L15 12C15 11.7348 15.1054 11.4804 15.2929 11.2929C15.4804 11.1054 15.7348 11 16 11C16.2652 11 16.5196 11.1054 16.7071 11.2929C16.8946 11.4804 17 11.7348 17 12L17 22C17 22.2652 16.8946 22.5196 16.7071 22.7071C16.5196 22.8946 16.2652 23 16 23Z" fill="#25E856"/>
</svg>
