<svg width="42" height="42" viewBox="0 0 42 42" fill="none" xmlns="http://www.w3.org/2000/svg">
<path fill-rule="evenodd" clip-rule="evenodd" d="M12.1957 25.3207C12.3176 25.1984 12.4625 25.1015 12.6219 25.0353C12.7814 24.9691 12.9523 24.9351 13.125 24.9351C13.2976 24.9351 13.4685 24.9691 13.628 25.0353C13.7875 25.1015 13.9323 25.1984 14.0542 25.3207L21 32.269L27.9457 25.3207C28.1922 25.0742 28.5264 24.9357 28.875 24.9357C29.2235 24.9357 29.5578 25.0742 29.8042 25.3207C30.0507 25.5671 30.1891 25.9014 30.1891 26.2499C30.1891 26.5984 30.0507 26.9327 29.8042 27.1792L21.9292 35.0542C21.8073 35.1764 21.6625 35.2734 21.503 35.3395C21.3435 35.4057 21.1726 35.4398 21 35.4398C20.8273 35.4398 20.6564 35.4057 20.4969 35.3395C20.3375 35.2734 20.1926 35.1764 20.0707 35.0542L12.1957 27.1792C12.0735 27.0572 11.9765 26.9124 11.9103 26.7529C11.8442 26.5935 11.8101 26.4225 11.8101 26.2499C11.8101 26.0773 11.8442 25.9063 11.9103 25.7469C11.9765 25.5874 12.0735 25.4426 12.1957 25.3207Z" fill="white"/>
<path fill-rule="evenodd" clip-rule="evenodd" d="M21 6.5625C21.3481 6.5625 21.6819 6.70078 21.9281 6.94692C22.1742 7.19306 22.3125 7.5269 22.3125 7.875V31.5C22.3125 31.8481 22.1742 32.1819 21.9281 32.4281C21.6819 32.6742 21.3481 32.8125 21 32.8125C20.6519 32.8125 20.3181 32.6742 20.0719 32.4281C19.8258 32.1819 19.6875 31.8481 19.6875 31.5V7.875C19.6875 7.5269 19.8258 7.19306 20.0719 6.94692C20.3181 6.70078 20.6519 6.5625 21 6.5625Z" fill="white"/>
</svg>
