<svg width="150" height="31" viewBox="0 0 150 31" fill="none" xmlns="http://www.w3.org/2000/svg">
<path d="M11.1897 13.9802L11.9133 17.1822H17.211L18.9941 14.2019L17.5469 22.0345H24.5761L28.5042 0.802734L21.1132 0.802734L15.9447 9.25111L13.9031 0.802734L6.58969 0.802734L2.66162 22.0345H9.6908L11.1897 13.9802Z" fill="white"/>
<path d="M47.2402 22.0345H48.1706H50.4189H55.975L59.9806 17.1822L62.6941 22.0345H70.2143L64.3997 11.7388L73.5221 0.802734L64.7873 0.802734L60.9368 5.45796L58.3525 0.802734L50.8323 0.802734L56.466 10.8767L49.902 18.8079L47.2402 22.0345Z" fill="white"/>
<path d="M33.6469 22.0345L35.8436 17.1822H39.3582L39.7975 22.0345H44.6817H46.93L46.439 18.8079L43.6222 0.802734L37.4716 0.802734L26.3335 22.0345H33.6469ZM37.42 13.3398L38.8671 10.1624L39.0997 13.3398H37.42Z" fill="white"/>
<path d="M79.2591 24.3507L82.1018 9.12891H75.0726L71.1445 30.3114H87.0119L88.1231 24.3507H79.2591Z" fill="#0A9F30"/>
<path d="M93.3431 9.12891L89.415 30.3114H96.4442L100.372 9.12891H93.3431Z" fill="#0A9F30"/>
<path d="M114.844 9.12891L113.19 18.1192L108.151 9.12891H102.776L98.8477 30.3114H105.877L107.531 21.4197L112.518 30.3114H117.945L121.873 9.12891H114.844Z" fill="#0A9F30"/>
<path d="M138.464 15.0896L139.55 9.12891H124.277L120.349 30.3114H135.673L136.759 24.3507H128.489L128.851 22.3557H134.743L135.802 16.7398H129.91L130.195 15.0896H138.464Z" fill="#0A9F30"/>
<path d="M2.19662 24.3496L0 30.3103H68.6895L69.8008 24.3496H2.19662Z" fill="#0A9F30"/>
<path d="M75.4863 6.81222L76.5976 0.851562L142.419 0.851563L139.989 6.81222L75.4863 6.81222Z" fill="white"/>
<path d="M147.184 1.45898C147.486 1.45898 147.787 1.51899 148.089 1.63899C148.361 1.759 148.603 1.909 148.844 2.11901C149.055 2.32902 149.237 2.56902 149.327 2.86903C149.448 3.13904 149.508 3.43906 149.508 3.76907C149.508 4.18908 149.418 4.5791 149.206 4.90911C148.995 5.26912 148.723 5.53913 148.361 5.74914C147.999 5.95915 147.606 6.04915 147.214 6.04915C146.791 6.04915 146.399 5.95915 146.067 5.74914C145.704 5.53913 145.433 5.26912 145.221 4.90911C145.01 4.54909 144.919 4.15908 144.919 3.76907C144.919 3.37905 145.01 2.95904 145.221 2.62903C145.433 2.26901 145.704 1.999 146.067 1.789C146.369 1.54899 146.761 1.45898 147.184 1.45898ZM147.184 1.909C146.852 1.909 146.55 1.999 146.248 2.14901C145.976 2.29901 145.735 2.53902 145.584 2.80903C145.402 3.07904 145.342 3.40905 145.342 3.73907C145.342 4.06908 145.433 4.36909 145.584 4.6691C145.765 4.93911 145.976 5.17912 146.278 5.32912C146.55 5.47913 146.882 5.56913 147.214 5.56913C147.546 5.56913 147.878 5.47913 148.15 5.32912C148.421 5.17912 148.663 4.93911 148.814 4.6691C148.965 4.39909 149.055 4.06908 149.055 3.73907C149.055 3.40905 148.965 3.07904 148.814 2.80903C148.663 2.53902 148.421 2.29901 148.15 2.14901C147.818 1.999 147.516 1.909 147.184 1.909ZM146.64 4.96911H146.127V2.53902H147.274C147.455 2.53902 147.606 2.56902 147.727 2.62903C147.848 2.68903 147.938 2.77903 147.999 2.86903C148.059 2.95904 148.089 3.10904 148.089 3.22905C148.089 3.40905 148.029 3.55906 147.908 3.67906C147.787 3.79907 147.637 3.88907 147.425 3.91907C147.546 3.94907 147.606 4.00908 147.697 4.09908C147.757 4.18908 147.848 4.30909 147.969 4.48909L148.27 4.96911H147.667L147.455 4.5791C147.365 4.39909 147.274 4.27909 147.214 4.18908C147.153 4.09908 147.093 4.03908 147.003 4.00908C146.942 3.97907 146.852 3.94907 146.761 3.94907H146.64V4.96911ZM146.64 2.92904V3.58906H147.033C147.214 3.58906 147.365 3.55906 147.455 3.52906C147.546 3.46906 147.606 3.37905 147.606 3.25905C147.606 3.16905 147.576 3.07904 147.486 3.01904C147.395 2.95904 147.274 2.92904 147.093 2.92904H146.64Z" fill="white"/>
</svg>
